<?xml version="1.0" encoding="utf-8"?>
<!-- Generator: Adobe Illustrator 16.0.4, SVG Export Plug-In . SVG Version: 6.00 Build 0)  -->
<!DOCTYPE svg PUBLIC "-//W3C//DTD SVG 1.1//EN" "http://www.w3.org/Graphics/SVG/1.1/DTD/svg11.dtd">
<svg version="1.1" id="Ebene_1" xmlns="http://www.w3.org/2000/svg" xmlns:xlink="http://www.w3.org/1999/xlink" x="0px" y="0px"
	 width="142.016px" height="59.528px" viewBox="0 0 142.016 59.528" enable-background="new 0 0 142.016 59.528"
	 xml:space="preserve">
<g>
	<path fill="#009FE3" d="M82.557,54.965c0,0.824-0.408,1.141-0.893,1.141c-0.494,0-0.902-0.316-0.902-1.141s0.408-1.139,0.902-1.139
		C82.148,53.827,82.557,54.141,82.557,54.965 M82.93,58.331c0,0.383-0.213,0.816-1.275,0.816c-1.054,0-1.266-0.434-1.266-0.816
		c0-0.391,0.212-0.832,1.266-0.832C82.717,57.499,82.93,57.94,82.93,58.331 M82.564,53.641c-0.264-0.094-0.578-0.17-0.876-0.17
		c-0.875,0-1.64,0.568-1.64,1.477c0,0.529,0.222,1.012,0.697,1.301v0.018c-0.441,0.051-0.654,0.289-0.654,0.551
		c0,0.248,0.213,0.477,0.67,0.502v0.018c-0.772,0.18-1.086,0.52-1.086,1.012c0,0.621,0.568,1.18,1.817,1.18
		c1.623,0,2.183-0.619,2.183-1.24c0-0.918-0.873-1.104-1.774-1.146c-1.054-0.051-1.165-0.119-1.165-0.35
		c0-0.213,0.137-0.332,0.612-0.332c1.317,0,1.92-0.652,1.92-1.443c0-0.33-0.093-0.67-0.331-1.002h0.926v-0.441L82.564,53.641z
		 M76.795,57.6h2.191v-0.357h-0.289c-0.263,0-0.391-0.102-0.391-0.482v-2.023c0-0.877-0.475-1.266-1.316-1.266
		c-0.492,0-1.004,0.152-1.301,0.66h-0.025v-0.627c-0.416,0.043-1.146,0.068-1.478,0.068v0.381h0.416
		c0.323,0,0.383,0.195,0.383,0.416v2.381c0,0.297-0.136,0.492-0.562,0.492h-0.237V57.6h2.243v-0.357h-0.17
		c-0.426,0-0.562-0.195-0.562-0.492v-1.463c0-0.738,0.314-1.377,1.09-1.377c0.543,0,0.807,0.332,0.807,1.148v1.674
		c0,0.418-0.17,0.51-0.426,0.51h-0.373V57.6z M71.364,53.954h0.315c0.358,0,0.485,0.127,0.485,0.527
		c0,0.416-0.033,0.961-0.033,1.369c0,0.883-0.468,1.359-1.039,1.359c-0.552,0-0.816-0.279-0.816-1.131v-2.574
		c-0.39,0.051-0.891,0.068-1.392,0.068v0.381h0.289c0.263,0,0.39,0.104,0.39,0.484v1.998c0,0.875,0.476,1.266,1.283,1.266
		c0.637,0,1.054-0.221,1.326-0.771h0.018c0.009,0.221,0.009,0.482,0.018,0.67h1.358v-0.357h-0.179c-0.391,0-0.51-0.059-0.51-0.619
		v-3.119c-0.213,0.061-0.722,0.068-1.513,0.068V53.954z M66.241,57.6h2.191v-0.357h-0.289c-0.263,0-0.39-0.102-0.39-0.482v-2.023
		c0-0.877-0.476-1.266-1.283-1.266c-0.493,0-1.003,0.152-1.301,0.66h-0.025v-2.699c-0.45,0.043-1.18,0.066-1.512,0.066v0.381h0.417
		c0.323,0,0.382,0.197,0.382,0.418v4.453c0,0.297-0.136,0.492-0.561,0.492h-0.238V57.6h2.243v-0.357h-0.17
		c-0.425,0-0.561-0.195-0.561-0.492v-1.463c0-0.738,0.314-1.377,1.088-1.377c0.544,0,0.808,0.332,0.808,1.148v1.674
		c0,0.418-0.17,0.51-0.425,0.51h-0.374V57.6z M62.917,53.733c-0.432-0.195-0.917-0.262-1.376-0.262
		c-1.045,0-1.971,0.619-1.971,2.148c0,1.453,0.722,2.082,1.861,2.082c0.773,0,1.58-0.348,1.58-1.436h-0.56
		c-0.06,0.664-0.374,1.027-0.986,1.027c-0.502,0-1.114-0.391-1.114-1.656c0-1.189,0.527-1.76,1.19-1.76
		c0.596,0,0.783,0.314,0.783,1.045h0.593V53.733z M55.441,57.532c0.458,0.111,1.019,0.17,1.452,0.17c1.088,0,1.674-0.492,1.674-1.23
		c0-1.557-2.397-0.979-2.397-1.939c0-0.383,0.222-0.654,0.868-0.654c0.62,0,0.841,0.162,0.841,0.936h0.441v-1.148
		c-0.39-0.127-0.823-0.193-1.231-0.193c-1.139,0-1.665,0.475-1.665,1.205c0,1.463,2.396,0.85,2.396,1.896
		c0,0.467-0.315,0.721-0.961,0.721c-0.799,0-0.858-0.236-0.926-1.02h-0.492V57.532z M51.227,53.954h0.417
		c0.323,0,0.382,0.195,0.382,0.416v2.381c0,0.297-0.136,0.492-0.561,0.492h-0.238V57.6h2.412v-0.357h-0.339
		c-0.425,0-0.561-0.195-0.561-0.492v-1.402c0-1.012,0.586-1.318,0.9-1.318c0.307,0.002,0.486,0.213,0.562,0.596h0.441v-1.088
		c-0.152-0.016-0.373-0.033-0.602-0.033c-0.664,0-1.046,0.238-1.352,0.857H52.67v-0.857c-0.382,0.043-1.112,0.068-1.444,0.068
		V53.954z M49.527,55.586c0,1.197-0.349,1.707-1.131,1.707c-0.782,0-1.131-0.51-1.131-1.707c0-1.199,0.349-1.709,1.131-1.709
		C49.178,53.877,49.527,54.387,49.527,55.586 M46.485,55.586c0,1.504,0.891,2.115,1.911,2.115s1.911-0.611,1.911-2.115
		c0-1.506-0.891-2.115-1.911-2.115S46.485,54.081,46.485,55.586 M42.906,53.954h0.799v2.908c0,0.279-0.162,0.381-0.476,0.381h-0.323
		V57.6h2.464v-0.357h-0.417c-0.408,0-0.536-0.102-0.536-0.637v-2.652h1.072v-0.381h-1.072v-0.477c0-0.918,0.366-1.24,0.851-1.24
		c0.416,0,0.527,0.314,0.544,0.893h0.492v-1.123c-0.288-0.066-0.671-0.127-0.951-0.127c-1.012,0-1.648,0.408-1.648,1.658v0.416
		h-0.799V53.954z M40.152,57.6h2.192v-0.357h-0.289c-0.263,0-0.391-0.102-0.391-0.482v-2.023c0-0.877-0.475-1.266-1.282-1.266
		c-0.493,0-1.003,0.152-1.301,0.66h-0.025v-2.699c-0.45,0.043-1.18,0.066-1.512,0.066v0.381h0.417c0.323,0,0.382,0.197,0.382,0.418
		v4.453c0,0.297-0.136,0.492-0.561,0.492h-0.238V57.6h2.243v-0.357h-0.17c-0.425,0-0.561-0.195-0.561-0.492v-1.463
		c0-0.738,0.314-1.377,1.088-1.377c0.544,0,0.808,0.332,0.808,1.148v1.674c0,0.418-0.17,0.51-0.425,0.51h-0.375V57.6z M36.83,53.733
		c-0.432-0.195-0.917-0.262-1.376-0.262c-1.046,0-1.971,0.619-1.971,2.148c0,1.453,0.722,2.082,1.861,2.082
		c0.773,0,1.58-0.348,1.58-1.436h-0.56c-0.06,0.664-0.374,1.027-0.986,1.027c-0.502,0-1.114-0.391-1.114-1.656
		c0-1.189,0.527-1.76,1.19-1.76c0.595,0,0.782,0.314,0.782,1.045h0.594V53.733z M30.406,53.954h0.314
		c0.358,0,0.485,0.127,0.485,0.527c0,0.416-0.034,0.961-0.034,1.369c0,0.883-0.468,1.359-1.037,1.359
		c-0.553,0-0.816-0.279-0.816-1.131v-2.574c-0.391,0.051-0.892,0.068-1.393,0.068v0.381h0.289c0.263,0,0.391,0.104,0.391,0.484
		v1.998c0,0.875,0.475,1.266,1.282,1.266c0.638,0,1.054-0.221,1.327-0.771h0.017c0.008,0.221,0.008,0.482,0.016,0.67h1.359v-0.357
		h-0.178c-0.391,0-0.51-0.059-0.51-0.619v-3.119c-0.212,0.061-0.721,0.068-1.512,0.068V53.954z M26.48,55.586
		c0,1.113-0.374,1.674-1.096,1.674c-0.714,0-1.097-0.561-1.097-1.674c0-1.105,0.383-1.676,1.097-1.676
		C26.106,53.911,26.48,54.481,26.48,55.586 M22.776,51.879h0.416c0.323,0,0.382,0.197,0.382,0.418v4.248
		c0,0.639-0.161,0.697-0.501,0.697h-0.297V57.6h1.426v-0.586h0.017c0.289,0.449,0.663,0.688,1.275,0.688
		c0.782,0,1.733-0.408,1.733-2.252c0-1.283-0.662-1.979-1.622-1.979c-0.612,0-1.063,0.246-1.301,0.756h-0.017v-2.795
		c-0.45,0.043-1.18,0.066-1.511,0.066V51.879z M19.87,51.879h0.417c0.323,0,0.382,0.197,0.382,0.418v4.453
		c0,0.297-0.136,0.492-0.561,0.492H19.87V57.6h2.243v-0.357h-0.17c-0.425,0-0.561-0.195-0.561-0.492v-5.318
		c-0.45,0.043-1.18,0.066-1.512,0.066V51.879z M16.946,53.954h0.315c0.357,0,0.484,0.127,0.484,0.527
		c0,0.416-0.034,0.961-0.034,1.369c0,0.883-0.467,1.359-1.037,1.359c-0.553,0-0.816-0.279-0.816-1.131v-2.574
		c-0.391,0.051-0.891,0.068-1.393,0.068v0.381h0.289c0.264,0,0.391,0.104,0.391,0.484v1.998c0,0.875,0.475,1.266,1.282,1.266
		c0.638,0,1.055-0.221,1.327-0.771h0.017c0.008,0.221,0.008,0.482,0.017,0.67h1.358v-0.357h-0.178c-0.391,0-0.51-0.059-0.51-0.619
		v-3.119c-0.212,0.061-0.721,0.068-1.512,0.068V53.954z M11.822,57.6h2.192v-0.357h-0.289c-0.263,0-0.391-0.102-0.391-0.482v-2.023
		c0-0.877-0.475-1.266-1.282-1.266c-0.493,0-1.003,0.152-1.301,0.66h-0.026v-2.699c-0.449,0.043-1.18,0.066-1.511,0.066v0.381H9.63
		c0.323,0,0.383,0.197,0.383,0.418v4.453c0,0.297-0.136,0.492-0.561,0.492H9.214V57.6h2.243v-0.357h-0.17
		c-0.426,0-0.562-0.195-0.562-0.492v-1.463c0-0.738,0.315-1.377,1.089-1.377c0.544,0,0.807,0.332,0.807,1.148v1.674
		c0,0.418-0.17,0.51-0.425,0.51h-0.374V57.6z M8.5,53.733c-0.433-0.195-0.917-0.262-1.376-0.262c-1.046,0-1.971,0.619-1.971,2.148
		c0,1.453,0.721,2.082,1.86,2.082c0.774,0,1.58-0.348,1.58-1.436H8.033c-0.06,0.664-0.375,1.027-0.987,1.027
		c-0.501,0-1.113-0.391-1.113-1.656c0-1.189,0.527-1.76,1.19-1.76c0.595,0,0.782,0.314,0.782,1.045H8.5V53.733z M0.47,57.397
		c0.492,0.219,1.044,0.338,1.69,0.338c1.182,0,2.048-0.594,2.048-1.621c0-2.014-2.991-1.266-2.991-2.812
		c0-0.52,0.408-0.936,1.19-0.936c0.765,0,1.012,0.51,1.012,1.207h0.525v-1.334c-0.458-0.205-1.01-0.314-1.461-0.314
		c-1.334,0-2.013,0.68-2.013,1.537c0,1.93,2.957,1.283,2.957,2.771c0,0.629-0.518,1.061-1.309,1.061c-0.74,0-1.08-0.348-1.122-1.291
		H0.47V57.397z"/>
	<path fill="#009FE3" d="M141.354,46.456c-0.102,0.578-0.493,0.842-0.977,0.842c-0.672,0-1.063-0.51-1.071-1.684h2.71v-0.482
		c0-1.174-0.738-1.658-1.622-1.658c-1.14,0-1.835,0.73-1.835,2.115c0,1.471,0.636,2.117,1.809,2.117c0.877,0,1.453-0.383,1.58-1.25
		H141.354z M139.306,45.208c0.034-0.816,0.399-1.326,1.062-1.326c0.604,0,0.928,0.484,0.937,1.326H139.306z M135.567,41.883h0.416
		c0.323,0,0.384,0.197,0.384,0.418v4.453c0,0.297-0.137,0.492-0.562,0.492h-0.238v0.355h2.242v-0.355h-0.17
		c-0.425,0-0.562-0.195-0.562-0.492v-5.32c-0.449,0.043-1.18,0.068-1.511,0.068V41.883z M131.641,46.491
		c0-0.57,0.383-0.902,1.301-0.902h0.544c0,0.477-0.034,0.723-0.153,1.012c-0.119,0.297-0.492,0.613-0.943,0.613
		C131.963,47.213,131.641,46.958,131.641,46.491 M133.537,47.602h1.299v-0.355c-0.586,0-0.654-0.033-0.654-0.74
		c0-0.688,0.017-1.316,0.017-1.938c0-0.738-0.569-1.096-1.487-1.096c-1.502,0-1.682,0.74-1.698,1.291h0.747
		c0.017-0.551,0.152-0.908,0.91-0.908c0.51,0,0.815,0.297,0.815,0.9v0.451h-0.884c-1.198,0-1.708,0.586-1.708,1.367
		c0,0.697,0.519,1.131,1.239,1.131c0.826,0,1.166-0.408,1.387-0.799h0.018V47.602z M127.817,47.602h2.192v-0.355h-0.289
		c-0.264,0-0.391-0.102-0.391-0.484v-2.021c0-0.877-0.476-1.268-1.316-1.268c-0.494,0-1.004,0.154-1.301,0.662h-0.026v-0.627
		c-0.415,0.043-1.146,0.068-1.478,0.068v0.381h0.416c0.324,0,0.383,0.195,0.383,0.416v2.381c0,0.297-0.135,0.492-0.561,0.492h-0.238
		v0.355h2.242v-0.355h-0.17c-0.425,0-0.561-0.195-0.561-0.492v-1.463c0-0.738,0.314-1.377,1.089-1.377
		c0.544,0,0.808,0.332,0.808,1.148v1.674c0,0.418-0.171,0.51-0.426,0.51h-0.374V47.602z M123.781,45.59
		c0,1.197-0.348,1.707-1.13,1.707s-1.131-0.51-1.131-1.707c0-1.199,0.349-1.709,1.131-1.709S123.781,44.391,123.781,45.59
		 M120.739,45.59c0,1.504,0.892,2.115,1.912,2.115s1.911-0.611,1.911-2.115c0-1.506-0.891-2.117-1.911-2.117
		S120.739,44.084,120.739,45.59 M118.217,42.063c0,0.357,0.186,0.561,0.5,0.561c0.313,0,0.5-0.203,0.5-0.561
		c0-0.355-0.187-0.561-0.5-0.561C118.402,41.502,118.217,41.708,118.217,42.063 M117.578,43.958h0.418
		c0.322,0,0.381,0.195,0.381,0.416v2.381c0,0.297-0.135,0.492-0.561,0.492h-0.238v0.355h2.243v-0.355h-0.17
		c-0.425,0-0.562-0.195-0.562-0.492v-3.246c-0.449,0.043-1.18,0.068-1.512,0.068V43.958z M114.801,44.663
		c0,0.451-0.034,1.539-0.034,1.955c0,0.766,0.356,1.088,1.062,1.088c0.748,0,1.137-0.34,1.137-1.258h-0.524
		c-0.017,0.604-0.17,0.816-0.485,0.816c-0.271,0-0.442-0.127-0.442-0.783v-2.523h1.097v-0.381h-1.097v-1.131h-0.492
		c-0.051,0.756-0.169,1.131-0.96,1.131v0.381h0.74V44.663z M110.449,46.491c0-0.57,0.381-0.902,1.301-0.902h0.543
		c0,0.477-0.033,0.723-0.152,1.012c-0.119,0.297-0.493,0.613-0.944,0.613C110.771,47.213,110.449,46.958,110.449,46.491
		 M112.345,47.602h1.299v-0.355c-0.587,0-0.655-0.033-0.655-0.74c0-0.688,0.018-1.316,0.018-1.938c0-0.738-0.568-1.096-1.486-1.096
		c-1.504,0-1.682,0.74-1.699,1.291h0.747c0.017-0.551,0.153-0.908,0.909-0.908c0.511,0,0.816,0.297,0.816,0.9v0.451h-0.885
		c-1.197,0-1.707,0.586-1.707,1.367c0,0.697,0.519,1.131,1.24,1.131c0.825,0,1.165-0.408,1.387-0.799h0.017V47.602z M106.625,47.602
		h2.191v-0.355h-0.289c-0.263,0-0.39-0.102-0.39-0.484v-2.021c0-0.877-0.476-1.268-1.317-1.268c-0.492,0-1.003,0.154-1.301,0.662
		h-0.025v-0.627c-0.416,0.043-1.146,0.068-1.478,0.068v0.381h0.417c0.322,0,0.382,0.195,0.382,0.416v2.381
		c0,0.297-0.136,0.492-0.562,0.492h-0.237v0.355h2.243v-0.355h-0.17c-0.426,0-0.562-0.195-0.562-0.492v-1.463
		c0-0.738,0.313-1.377,1.089-1.377c0.543,0,0.807,0.332,0.807,1.148v1.674c0,0.418-0.17,0.51-0.424,0.51h-0.375V47.602z
		 M100.006,43.958h0.416c0.324,0,0.384,0.195,0.384,0.416v2.381c0,0.297-0.136,0.492-0.562,0.492h-0.238v0.355h2.412v-0.355h-0.34
		c-0.425,0-0.561-0.195-0.561-0.492v-1.402c0-1.012,0.587-1.318,0.9-1.318c0.308,0.002,0.485,0.213,0.562,0.596h0.441v-1.088
		c-0.153-0.018-0.373-0.033-0.604-0.033c-0.663,0-1.046,0.238-1.352,0.857h-0.018v-0.857c-0.381,0.043-1.111,0.068-1.443,0.068
		V43.958z M98.537,46.456c-0.103,0.578-0.494,0.842-0.979,0.842c-0.671,0-1.062-0.51-1.071-1.684h2.712v-0.482
		c0-1.174-0.74-1.658-1.623-1.658c-1.14,0-1.836,0.73-1.836,2.115c0,1.471,0.637,2.117,1.811,2.117c0.875,0,1.451-0.383,1.58-1.25
		H98.537z M96.487,45.208c0.034-0.816,0.4-1.326,1.063-1.326c0.603,0,0.926,0.484,0.935,1.326H96.487z M92.81,44.663
		c0,0.451-0.034,1.539-0.034,1.955c0,0.766,0.355,1.088,1.061,1.088c0.748,0,1.14-0.34,1.14-1.258h-0.526
		c-0.017,0.604-0.17,0.816-0.484,0.816c-0.272,0-0.443-0.127-0.443-0.783v-2.523h1.098v-0.381h-1.098v-1.131h-0.492
		c-0.051,0.756-0.169,1.131-0.96,1.131v0.381h0.74V44.663z M89.597,47.602h2.192v-0.355H91.5c-0.264,0-0.392-0.102-0.392-0.484
		v-2.021c0-0.877-0.476-1.268-1.315-1.268c-0.494,0-1.004,0.154-1.301,0.662h-0.025v-0.627c-0.416,0.043-1.146,0.068-1.479,0.068
		v0.381h0.417c0.322,0,0.382,0.195,0.382,0.416v2.381c0,0.297-0.136,0.492-0.561,0.492h-0.238v0.355h2.243v-0.355h-0.17
		c-0.425,0-0.562-0.195-0.562-0.492v-1.463c0-0.738,0.314-1.377,1.088-1.377c0.545,0,0.809,0.332,0.809,1.148v1.674
		c0,0.418-0.17,0.51-0.425,0.51h-0.375V47.602z M84.72,42.063c0,0.357,0.187,0.561,0.501,0.561s0.501-0.203,0.501-0.561
		c0-0.355-0.187-0.561-0.501-0.561S84.72,41.708,84.72,42.063 M84.082,43.958H84.5c0.321,0,0.381,0.195,0.381,0.416v2.381
		c0,0.297-0.135,0.492-0.561,0.492h-0.238v0.355h2.242v-0.355h-0.17c-0.424,0-0.56-0.195-0.56-0.492v-3.246
		c-0.45,0.043-1.181,0.068-1.513,0.068V43.958z M77.607,43.958h0.417c0.323,0,0.382,0.195,0.382,0.416v2.381
		c0,0.297-0.136,0.492-0.561,0.492h-0.238v0.355h2.413v-0.355h-0.34c-0.425,0-0.562-0.195-0.562-0.492v-1.402
		c0-1.012,0.586-1.318,0.901-1.318c0.306,0.002,0.485,0.213,0.562,0.596h0.44v-1.088c-0.151-0.018-0.373-0.033-0.603-0.033
		c-0.662,0-1.045,0.238-1.352,0.857h-0.018v-0.857c-0.381,0.043-1.111,0.068-1.443,0.068V43.958z M74.685,43.958h0.313
		c0.358,0,0.485,0.127,0.485,0.527c0,0.416-0.034,0.959-0.034,1.367c0,0.885-0.468,1.361-1.037,1.361
		c-0.553,0-0.815-0.281-0.815-1.131v-2.574c-0.392,0.051-0.892,0.068-1.394,0.068v0.381h0.289c0.264,0,0.391,0.102,0.391,0.484
		v1.998c0,0.875,0.476,1.266,1.283,1.266c0.638,0,1.055-0.223,1.326-0.773h0.018c0.008,0.223,0.008,0.484,0.017,0.67h1.358v-0.355
		h-0.178c-0.392,0-0.511-0.059-0.511-0.619v-3.119c-0.212,0.059-0.721,0.068-1.512,0.068V43.958z M74.735,42.301
		c0,0.271,0.146,0.475,0.484,0.475c0.288,0,0.45-0.117,0.45-0.525c0-0.273-0.145-0.477-0.484-0.477
		C74.897,41.774,74.735,41.893,74.735,42.301 M73.258,42.301c0,0.271,0.144,0.475,0.484,0.475c0.287,0,0.448-0.117,0.448-0.525
		c0-0.273-0.144-0.477-0.483-0.477C73.418,41.774,73.258,41.893,73.258,42.301 M68.668,43.958h0.799v2.908
		c0,0.279-0.161,0.381-0.476,0.381h-0.323v0.355h2.464v-0.355h-0.416c-0.409,0-0.536-0.102-0.536-0.637v-2.652h1.071v-0.381h-1.071
		V43.1c0-0.918,0.365-1.242,0.85-1.242c0.417,0,0.527,0.314,0.544,0.893h0.492v-1.121c-0.288-0.068-0.67-0.127-0.951-0.127
		c-1.012,0-1.648,0.408-1.648,1.658v0.416h-0.799V43.958z M63.46,44.663c0,0.451-0.034,1.539-0.034,1.955
		c0,0.766,0.356,1.088,1.061,1.088c0.748,0,1.138-0.34,1.138-1.258h-0.525c-0.017,0.604-0.171,0.816-0.485,0.816
		c-0.273,0-0.443-0.127-0.443-0.783v-2.523h1.097v-0.381h-1.097v-1.131h-0.492c-0.051,0.756-0.169,1.131-0.96,1.131v0.381h0.74
		V44.663z M59.839,43.958h0.315c0.357,0,0.485,0.127,0.485,0.527c0,0.416-0.034,0.959-0.034,1.367c0,0.885-0.468,1.361-1.038,1.361
		c-0.552,0-0.816-0.281-0.816-1.131v-2.574c-0.39,0.051-0.891,0.068-1.392,0.068v0.381h0.289c0.263,0,0.39,0.102,0.39,0.484v1.998
		c0,0.875,0.476,1.266,1.283,1.266c0.637,0,1.054-0.223,1.326-0.773h0.017c0.009,0.223,0.009,0.484,0.017,0.67h1.359v-0.355h-0.179
		c-0.391,0-0.51-0.059-0.51-0.619v-3.119c-0.212,0.059-0.721,0.068-1.512,0.068V43.958z M54.624,44.663
		c0,0.451-0.034,1.539-0.034,1.955c0,0.766,0.356,1.088,1.061,1.088c0.748,0,1.138-0.34,1.138-1.258h-0.525
		c-0.017,0.604-0.171,0.816-0.485,0.816c-0.273,0-0.443-0.127-0.443-0.783v-2.523h1.097v-0.381h-1.097v-1.131h-0.492
		c-0.051,0.756-0.169,1.131-0.96,1.131v0.381h0.74V44.663z M51.556,42.063c0,0.357,0.187,0.561,0.501,0.561s0.501-0.203,0.501-0.561
		c0-0.355-0.187-0.561-0.501-0.561S51.556,41.708,51.556,42.063 M50.918,43.958h0.416c0.323,0,0.383,0.195,0.383,0.416v2.381
		c0,0.297-0.136,0.492-0.561,0.492h-0.238v0.355h2.242v-0.355h-0.17c-0.425,0-0.561-0.195-0.561-0.492v-3.246
		c-0.449,0.043-1.18,0.068-1.511,0.068V43.958z M48.14,44.663c0,0.451-0.034,1.539-0.034,1.955c0,0.766,0.357,1.088,1.062,1.088
		c0.748,0,1.138-0.34,1.138-1.258h-0.526c-0.017,0.604-0.17,0.816-0.485,0.816c-0.272,0-0.442-0.127-0.442-0.783v-2.523h1.097
		v-0.381h-1.097v-1.131H48.36c-0.051,0.756-0.17,1.131-0.96,1.131v0.381h0.739V44.663z M43.296,47.536
		c0.458,0.109,1.019,0.17,1.452,0.17c1.088,0,1.674-0.492,1.674-1.232c0-1.555-2.396-0.977-2.396-1.938
		c0-0.383,0.221-0.654,0.867-0.654c0.62,0,0.842,0.162,0.842,0.934h0.44v-1.146c-0.39-0.127-0.823-0.195-1.231-0.195
		c-1.139,0-1.665,0.477-1.665,1.207c0,1.461,2.396,0.85,2.396,1.896c0,0.467-0.315,0.721-0.961,0.721
		c-0.799,0-0.858-0.238-0.926-1.02h-0.492V47.536z M40.168,47.602h2.192v-0.355h-0.289c-0.263,0-0.391-0.102-0.391-0.484v-2.021
		c0-0.877-0.475-1.268-1.316-1.268c-0.493,0-1.003,0.154-1.301,0.662h-0.025v-0.627c-0.416,0.043-1.146,0.068-1.478,0.068v0.381
		h0.417c0.322,0,0.382,0.195,0.382,0.416v2.381c0,0.297-0.136,0.492-0.561,0.492h-0.238v0.355h2.243v-0.355h-0.17
		c-0.425,0-0.561-0.195-0.561-0.492v-1.463c0-0.738,0.314-1.377,1.088-1.377c0.544,0,0.808,0.332,0.808,1.148v1.674
		c0,0.418-0.17,0.51-0.425,0.51h-0.375V47.602z M35.165,46.61c0,0.561-0.187,0.611-0.552,0.611H34.12v0.381h2.837v-0.381h-0.493
		c-0.365,0-0.552-0.051-0.552-0.611v-3.553c0-0.561,0.187-0.613,0.552-0.613h0.493v-0.381H34.12v0.381h0.493
		c0.365,0,0.552,0.053,0.552,0.613V46.61z M31.315,45.784h2.166v-0.441h-2.166V45.784z M26.896,44.883h0.526
		c0.009-0.697,0.085-0.867,0.527-0.867h1.326l-2.498,3.027v0.559h3.347v-1.357h-0.526c0,0.842-0.119,0.918-0.578,0.918h-1.479
		l2.532-3.061v-0.525h-3.177V44.883z M24.254,42.063c0,0.357,0.186,0.561,0.5,0.561s0.501-0.203,0.501-0.561
		c0-0.355-0.187-0.561-0.501-0.561S24.254,41.708,24.254,42.063 M23.617,43.958h0.417c0.323,0,0.382,0.195,0.382,0.416v2.381
		c0,0.297-0.136,0.492-0.561,0.492h-0.238v0.355h2.243v-0.355h-0.17c-0.425,0-0.561-0.195-0.561-0.492v-3.246
		c-0.45,0.043-1.18,0.068-1.512,0.068V43.958z M20.762,47.602h2.192v-0.355h-0.289c-0.264,0-0.391-0.102-0.391-0.484v-2.021
		c0-0.877-0.475-1.268-1.317-1.268c-0.493,0-1.003,0.154-1.3,0.662H19.63v-0.627c-0.416,0.043-1.146,0.068-1.477,0.068v0.381h0.416
		c0.323,0,0.382,0.195,0.382,0.416v2.381c0,0.297-0.136,0.492-0.56,0.492h-0.238v0.355h2.242v-0.355h-0.17
		c-0.425,0-0.561-0.195-0.561-0.492v-1.463c0-0.738,0.315-1.377,1.088-1.377c0.544,0,0.808,0.332,0.808,1.148v1.674
		c0,0.418-0.17,0.51-0.425,0.51h-0.374V47.602z M16.667,45.59c0,1.113-0.374,1.674-1.097,1.674c-0.714,0-1.097-0.561-1.097-1.674
		c0-1.105,0.383-1.676,1.097-1.676C16.292,43.915,16.667,44.485,16.667,45.59 M12.961,41.883h0.416c0.323,0,0.383,0.197,0.383,0.418
		v4.248c0,0.639-0.162,0.697-0.502,0.697h-0.297v0.355h1.426v-0.584h0.017c0.289,0.449,0.663,0.688,1.275,0.688
		c0.783,0,1.733-0.408,1.733-2.252c0-1.283-0.661-1.98-1.622-1.98c-0.612,0-1.063,0.246-1.301,0.756h-0.017v-2.795
		c-0.449,0.043-1.18,0.068-1.511,0.068V41.883z M10.692,42.063c0,0.357,0.187,0.561,0.501,0.561s0.501-0.203,0.501-0.561
		c0-0.355-0.187-0.561-0.501-0.561S10.692,41.708,10.692,42.063 M10.056,43.958h0.416c0.323,0,0.383,0.195,0.383,0.416v2.381
		c0,0.297-0.136,0.492-0.561,0.492h-0.238v0.355h2.242v-0.355h-0.17c-0.425,0-0.561-0.195-0.561-0.492v-3.246
		c-0.449,0.043-1.18,0.068-1.511,0.068V43.958z M8.585,46.456c-0.102,0.578-0.493,0.842-0.978,0.842
		c-0.672,0-1.063-0.51-1.071-1.684h2.71v-0.482c0-1.174-0.738-1.658-1.622-1.658c-1.139,0-1.835,0.73-1.835,2.115
		c0,1.471,0.637,2.117,1.81,2.117c0.875,0,1.452-0.383,1.58-1.25H8.585z M6.537,45.208c0.034-0.816,0.399-1.326,1.063-1.326
		c0.603,0,0.926,0.484,0.935,1.326H6.537z M0.284,42.444h0.425c0.365,0,0.552,0.053,0.552,0.613v3.553
		c0,0.561-0.187,0.611-0.552,0.611H0.284v0.381h4.545v-1.816h-0.56v0.271c0,1.02-0.102,1.105-0.578,1.105H2.007v-4.105
		c0-0.561,0.187-0.613,0.552-0.613h0.587v-0.381H0.284V42.444z"/>
	<path fill="#B10346" d="M67.291,21.697c0-0.487-0.325-0.975-0.975-0.975h-5.81c-0.651,0-0.976,0.487-0.976,0.975
		c0,0.467,0.325,0.954,0.976,0.954h1.93v11.261c0,0.648,0.488,0.955,0.975,0.955s0.974-0.307,0.974-0.955V22.651h1.931
		C66.966,22.651,67.291,22.164,67.291,21.697 M57.597,30.926v-9.349c0-0.651-0.487-0.977-0.974-0.977
		c-0.488,0-0.975,0.325-0.975,0.977v9.349c0,1.078-0.935,2.012-2.013,2.012h-0.183c-1.119,0-2.034-0.934-2.034-2.012v-9.349
		c0-0.651-0.487-0.977-0.974-0.977c-0.487,0-0.974,0.325-0.974,0.977v9.349c0,2.195,1.786,3.941,3.962,3.941h0.203
		C55.831,34.868,57.597,33.122,57.597,30.926 M47.557,21.697c0-0.487-0.326-0.975-0.976-0.975h-5.81
		c-0.651,0-0.976,0.487-0.976,0.975c0,0.467,0.325,0.954,0.976,0.954h1.931v11.261c0,0.648,0.487,0.955,0.974,0.955
		c0.487,0,0.974-0.307,0.974-0.955V22.651h1.931C47.23,22.651,47.557,22.164,47.557,21.697 M37.699,33.913V21.577
		c0-0.651-0.487-0.977-0.974-0.977c-0.487,0-0.974,0.325-0.974,0.977v12.335c0,0.648,0.487,0.955,0.974,0.955
		C37.212,34.868,37.699,34.561,37.699,33.913 M33.655,21.697c0-0.487-0.325-0.975-0.976-0.975h-5.81
		c-0.65,0-0.976,0.487-0.976,0.975c0,0.467,0.326,0.954,0.976,0.954H28.8v11.261c0,0.648,0.487,0.955,0.974,0.955
		c0.487,0,0.974-0.307,0.974-0.955V22.651h1.931C33.33,22.651,33.655,22.164,33.655,21.697 M24.631,31.108
		c0-4.208-6.138-4.655-6.138-6.606v-0.407c0-0.996,1.017-1.565,1.911-1.565h0.183c1.078,0,1.648,0.224,1.892,1.321
		c0.122,0.549,0.447,0.896,1.015,0.896c0.548,0,0.934-0.366,0.934-0.915v-0.122c0-2.073-1.888-3.108-3.841-3.108h-0.183
		c-1.85,0-3.86,1.401-3.86,3.596v0.366c0,3.68,6.138,3.7,6.138,6.545c0,1.199-0.895,1.852-2.095,1.852h-0.203
		c-1.159,0-2.013-0.732-2.013-2.033c0-0.652-0.487-0.977-0.975-0.977c-0.487,0-0.974,0.324-0.974,0.977
		c0,2.5,1.827,3.941,3.962,3.941h0.203C22.865,34.868,24.631,33.405,24.631,31.108 M13.9,33.913V21.577
		c0-0.651-0.508-0.977-0.995-0.977c-0.487,0-0.954,0.325-0.954,0.977v8.494l-3.884-8.758c-0.305-0.712-0.793-0.712-1.036-0.712
		H6.808c-0.65,0-1.036,0.468-1.036,1.017v12.295c0,0.648,0.508,0.955,0.995,0.955c0.487,0,0.954-0.307,0.954-0.955v-8.617
		l3.884,8.757c0.326,0.752,0.833,0.814,1.097,0.814h0.223C13.473,34.868,13.9,34.42,13.9,33.913 M2.396,33.913V21.577
		c0-0.651-0.487-0.977-0.974-0.977c-0.487,0-0.975,0.325-0.975,0.977v12.335c0,0.648,0.488,0.955,0.975,0.955
		C1.909,34.868,2.396,34.561,2.396,33.913"/>
	<path fill="#B10346" d="M117.639,1.097c0-0.487-0.324-0.974-0.972-0.974h-5.78c-0.648,0-0.972,0.486-0.972,0.974
		c0,0.467,0.323,0.954,0.972,0.954h1.92v11.261c0,0.65,0.485,0.955,0.969,0.955c0.486,0,0.971-0.305,0.971-0.955V2.051h1.921
		C117.314,2.051,117.639,1.563,117.639,1.097 M106.74,4.268c0,1.119-0.809,2.013-1.922,2.013h-2.408V2.051h2.387
		c1.113,0,1.943,0.895,1.943,2.034V4.268z M108.68,4.268V4.085c0-2.196-1.758-3.962-3.943-3.962h-3.297
		c-0.504,0-0.969,0.467-0.969,0.974v12.215c0,0.65,0.484,0.955,0.989,0.955c0.485,0,0.95-0.305,0.95-0.955V8.21h1.639l2.61,5.527
		c0.182,0.388,0.505,0.529,0.827,0.529c0.627,0,1.031-0.407,1.031-0.955c0-0.122-0.021-0.265-0.102-0.427l-2.303-4.858
		C107.648,7.499,108.68,6.017,108.68,4.268 M98.284,13.211c0-0.487-0.324-0.975-0.972-0.975h-5.176V7.904h3.518
		c0.647,0,0.972-0.486,0.972-0.974c0-0.488-0.324-0.954-0.972-0.954h-3.518V2.051h5.176c0.647,0,0.972-0.487,0.972-0.954
		c0-0.487-0.324-0.974-0.972-0.974h-6.146c-0.504,0-0.969,0.467-0.969,0.974V13.19c0,0.507,0.465,0.975,0.969,0.975h6.146
		C97.96,14.165,98.284,13.678,98.284,13.211 M88.01,13.332c0-0.143-0.039-0.284-0.101-0.447l-3.357-6.93l2.993-4.431
		c0.102-0.162,0.162-0.345,0.162-0.549c0-0.548-0.425-0.975-1.012-0.975c-0.262,0-0.566,0.122-0.769,0.427l-4.065,6.015V0.976
		c0-0.649-0.483-0.975-0.969-0.975c-0.484,0-0.97,0.325-0.97,0.975v12.336c0,0.65,0.485,0.955,0.97,0.955
		c0.485,0,0.969-0.305,0.969-0.955V9.918l1.437-2.093l2.853,5.912c0.182,0.388,0.525,0.529,0.849,0.529
		C87.586,14.267,88.01,13.84,88.01,13.332 M77.575,10.895v-0.061c0-0.63-0.345-1.058-0.991-1.058c-0.546,0-0.809,0.325-0.951,0.833
		c-0.182,0.997-0.93,1.749-1.98,1.749h-0.182c-1.113,0-2.004-0.812-2.004-1.952V3.86c0-1.117,0.87-1.932,2.004-1.932h0.182
		c1.051,0,1.799,0.753,1.98,1.749c0.143,0.508,0.405,0.833,0.951,0.833c0.646,0,0.991-0.427,0.991-1.057V3.393
		c0-1.971-1.962-3.392-3.923-3.392h-0.182c-2.185,0-3.943,1.685-3.943,3.88v6.506c0,2.215,1.758,3.88,3.943,3.88h0.182
		C75.613,14.267,77.575,12.887,77.575,10.895 M67.605,13.211c0-0.487-0.324-0.975-0.971-0.975h-5.177V7.904h3.519
		c0.647,0,0.97-0.486,0.97-0.974c0-0.488-0.323-0.954-0.97-0.954h-3.519V2.051h5.177c0.647,0,0.971-0.487,0.971-0.954
		c0-0.487-0.324-0.974-0.971-0.974h-6.147c-0.505,0-0.969,0.467-0.969,0.974V13.19c0,0.507,0.464,0.975,0.969,0.975h6.147
		C67.281,14.165,67.605,13.678,67.605,13.211 M50.577,10.325v-3.05c0-0.548-0.445-0.974-0.99-0.974h-2.589
		c-0.647,0-0.971,0.467-0.971,0.954s0.324,0.974,0.971,0.974h1.64v2.096c0,1.098-0.931,2.033-2.004,2.033h-0.202
		c-1.113,0-2.004-0.834-2.004-1.973V3.882c0-1.119,0.891-1.953,2.004-1.953h0.202c0.992,0,1.923,0.488,2.024,1.404
		c0.081,0.63,0.525,0.874,0.949,0.874c0.485,0,0.949-0.285,0.949-0.915V3.189c-0.161-1.768-1.838-3.188-3.922-3.188h-0.202
		c-2.165,0-3.942,1.685-3.942,3.881v6.504c0,2.216,1.757,3.881,3.942,3.881h0.202C48.819,14.267,50.577,12.541,50.577,10.325
		 M27.201,10.387c0,1.138-0.891,1.972-2.004,1.972h-0.202c-1.113,0-2.003-0.834-2.003-1.972V3.881c0-1.118,0.89-1.952,2.003-1.952
		h0.202c1.113,0,2.004,0.814,2.004,1.952V10.387z M29.14,10.387V3.881c0-2.195-1.757-3.88-3.943-3.88h-0.182
		c-2.185,0-3.962,1.685-3.962,3.88v6.506c0,2.215,1.777,3.88,3.942,3.88h0.202C27.383,14.267,29.14,12.602,29.14,10.387
		 M19.129,13.211c0-0.487-0.324-0.975-0.971-0.975h-5.177V7.904H16.5c0.647,0,0.971-0.486,0.971-0.974
		c0-0.488-0.324-0.954-0.971-0.954h-3.519V2.051h5.177c0.647,0,0.971-0.487,0.971-0.954c0-0.487-0.324-0.974-0.971-0.974h-6.146
		c-0.505,0-0.97,0.467-0.97,0.974V13.19c0,0.507,0.465,0.975,0.97,0.975h6.146C18.805,14.165,19.129,13.678,19.129,13.211
		 M8.087,10.325v-3.05c0-0.548-0.444-0.974-0.99-0.974H4.509c-0.648,0-0.971,0.467-0.971,0.954s0.323,0.974,0.971,0.974h1.639v2.096
		c0,1.098-0.931,2.033-2.003,2.033H3.942c-1.113,0-2.003-0.834-2.003-1.973V3.882c0-1.119,0.89-1.953,2.003-1.953h0.203
		c0.991,0,1.922,0.488,2.023,1.404c0.081,0.63,0.525,0.874,0.95,0.874c0.484,0,0.949-0.285,0.949-0.915V3.189
		C7.905,1.422,6.229,0.001,4.145,0.001H3.942C1.777,0.001,0,1.686,0,3.882v6.504c0,2.216,1.757,3.881,3.942,3.881h0.203
		C6.33,14.267,8.087,12.541,8.087,10.325"/>
	<path fill="#009FE3" d="M33.367,4.268c0,1.119,0.813,2.014,1.932,2.014h2.42v-4.23h-2.4c-1.119,0-1.952,0.896-1.952,2.034V4.268z
		 M31.418,4.268V4.085c0-2.196,1.766-3.962,3.962-3.962h3.313c0.507,0,0.974,0.467,0.974,0.974v12.214
		c0,0.651-0.487,0.956-0.994,0.956c-0.488,0-0.954-0.305-0.954-0.956V8.21h-1.648l-2.623,5.528
		c-0.183,0.386-0.508,0.528-0.832,0.528c-0.63,0-1.036-0.407-1.036-0.956c0-0.121,0.021-0.264,0.102-0.426l2.315-4.858
		C32.453,7.499,31.418,6.017,31.418,4.268"/>
</g>
</svg>
