<svg xmlns="http://www.w3.org/2000/svg" width="142.016" height="59.528"><path fill="#009FE3" d="M82.557 54.965c0 .824-.408 1.141-.893 1.141-.494 0-.902-.316-.902-1.141s.408-1.139.902-1.139c.484.001.893.315.893 1.139m.373 3.366c0 .383-.213.816-1.275.816-1.054 0-1.266-.434-1.266-.816 0-.391.212-.832 1.266-.832 1.062 0 1.275.441 1.275.832m-.366-4.69a2.706 2.706 0 0 0-.876-.17c-.875 0-1.64.568-1.64 1.477 0 .529.222 1.012.697 1.301v.018c-.441.051-.654.289-.654.551 0 .248.213.477.67.502v.018c-.772.18-1.086.52-1.086 1.012 0 .621.568 1.18 1.817 1.18 1.623 0 2.183-.619 2.183-1.24 0-.918-.873-1.104-1.774-1.146-1.054-.051-1.165-.119-1.165-.35 0-.213.137-.332.612-.332 1.317 0 1.92-.652 1.92-1.443 0-.33-.093-.67-.331-1.002h.926v-.441l-1.299.065zM76.795 57.6h2.191v-.357h-.289c-.263 0-.391-.102-.391-.482v-2.023c0-.877-.475-1.266-1.316-1.266-.492 0-1.004.152-1.301.66h-.025v-.627c-.416.043-1.146.068-1.478.068v.381h.416c.323 0 .383.195.383.416v2.381c0 .297-.136.492-.562.492h-.237v.357h2.243v-.357h-.17c-.426 0-.562-.195-.562-.492v-1.463c0-.738.314-1.377 1.09-1.377.543 0 .807.332.807 1.148v1.674c0 .418-.17.51-.426.51h-.373v.357zm-5.431-3.646h.315c.358 0 .485.127.485.527 0 .416-.033.961-.033 1.369 0 .883-.468 1.359-1.039 1.359-.552 0-.816-.279-.816-1.131v-2.574c-.39.051-.891.068-1.392.068v.381h.289c.263 0 .39.104.39.484v1.998c0 .875.476 1.266 1.283 1.266.637 0 1.054-.221 1.326-.771h.018c.009.221.009.482.018.67h1.358v-.357h-.179c-.391 0-.51-.059-.51-.619v-3.119c-.213.061-.722.068-1.513.068v.381zM66.241 57.6h2.191v-.357h-.289c-.263 0-.39-.102-.39-.482v-2.023c0-.877-.476-1.266-1.283-1.266-.493 0-1.003.152-1.301.66h-.025v-2.699c-.45.043-1.18.066-1.512.066v.381h.417c.323 0 .382.197.382.418v4.453c0 .297-.136.492-.561.492h-.238v.357h2.243v-.357h-.17c-.425 0-.561-.195-.561-.492v-1.463c0-.738.314-1.377 1.088-1.377.544 0 .808.332.808 1.148v1.674c0 .418-.17.51-.425.51h-.374v.357zm-3.324-3.867c-.432-.195-.917-.262-1.376-.262-1.045 0-1.971.619-1.971 2.148 0 1.453.722 2.082 1.861 2.082.773 0 1.58-.348 1.58-1.436h-.56c-.06.664-.374 1.027-.986 1.027-.502 0-1.114-.391-1.114-1.656 0-1.189.527-1.76 1.19-1.76.596 0 .783.314.783 1.045h.593v-1.188zm-7.476 3.799c.458.111 1.019.17 1.452.17 1.088 0 1.674-.492 1.674-1.23 0-1.557-2.397-.979-2.397-1.939 0-.383.222-.654.868-.654.62 0 .841.162.841.936h.441v-1.148a4.06 4.06 0 0 0-1.231-.193c-1.139 0-1.665.475-1.665 1.205 0 1.463 2.396.85 2.396 1.896 0 .467-.315.721-.961.721-.799 0-.858-.236-.926-1.02h-.492v1.256zm-4.214-3.578h.417c.323 0 .382.195.382.416v2.381c0 .297-.136.492-.561.492h-.238v.357h2.412v-.357H53.3c-.425 0-.561-.195-.561-.492v-1.402c0-1.012.586-1.318.9-1.318.307.002.486.213.562.596h.441v-1.088a5.951 5.951 0 0 0-.602-.033c-.664 0-1.046.238-1.352.857h-.018v-.857c-.382.043-1.112.068-1.444.068v.38zm-1.7 1.632c0 1.197-.349 1.707-1.131 1.707s-1.131-.51-1.131-1.707c0-1.199.349-1.709 1.131-1.709s1.131.51 1.131 1.709m-3.042 0c0 1.504.891 2.115 1.911 2.115s1.911-.611 1.911-2.115c0-1.506-.891-2.115-1.911-2.115s-1.911.61-1.911 2.115m-3.579-1.632h.799v2.908c0 .279-.162.381-.476.381h-.323v.357h2.464v-.357h-.417c-.408 0-.536-.102-.536-.637v-2.652h1.072v-.381h-1.072v-.477c0-.918.366-1.24.851-1.24.416 0 .527.314.544.893h.492v-1.123a4.779 4.779 0 0 0-.951-.127c-1.012 0-1.648.408-1.648 1.658v.416h-.799v.381zM40.152 57.6h2.192v-.357h-.289c-.263 0-.391-.102-.391-.482v-2.023c0-.877-.475-1.266-1.282-1.266-.493 0-1.003.152-1.301.66h-.025v-2.699c-.45.043-1.18.066-1.512.066v.381h.417c.323 0 .382.197.382.418v4.453c0 .297-.136.492-.561.492h-.238v.357h2.243v-.357h-.17c-.425 0-.561-.195-.561-.492v-1.463c0-.738.314-1.377 1.088-1.377.544 0 .808.332.808 1.148v1.674c0 .418-.17.51-.425.51h-.375v.357zm-3.322-3.867c-.432-.195-.917-.262-1.376-.262-1.046 0-1.971.619-1.971 2.148 0 1.453.722 2.082 1.861 2.082.773 0 1.58-.348 1.58-1.436h-.56c-.06.664-.374 1.027-.986 1.027-.502 0-1.114-.391-1.114-1.656 0-1.189.527-1.76 1.19-1.76.595 0 .782.314.782 1.045h.594v-1.188zm-6.424.221h.314c.358 0 .485.127.485.527 0 .416-.034.961-.034 1.369 0 .883-.468 1.359-1.037 1.359-.553 0-.816-.279-.816-1.131v-2.574c-.391.051-.892.068-1.393.068v.381h.289c.263 0 .391.104.391.484v1.998c0 .875.475 1.266 1.282 1.266.638 0 1.054-.221 1.327-.771h.017c.008.221.008.482.016.67h1.359v-.357h-.178c-.391 0-.51-.059-.51-.619v-3.119c-.212.061-.721.068-1.512.068v.381zm-3.926 1.632c0 1.113-.374 1.674-1.096 1.674-.714 0-1.097-.561-1.097-1.674 0-1.105.383-1.676 1.097-1.676.722.001 1.096.571 1.096 1.676m-3.704-3.707h.416c.323 0 .382.197.382.418v4.248c0 .639-.161.697-.501.697h-.297v.358h1.426v-.586h.017c.289.449.663.688 1.275.688.782 0 1.733-.408 1.733-2.252 0-1.283-.662-1.979-1.622-1.979-.612 0-1.063.246-1.301.756h-.017v-2.795c-.45.043-1.18.066-1.511.066v.381zm-2.906 0h.417c.323 0 .382.197.382.418v4.453c0 .297-.136.492-.561.492h-.238v.358h2.243v-.357h-.17c-.425 0-.561-.195-.561-.492v-5.318c-.45.043-1.18.066-1.512.066v.38zm-2.924 2.075h.315c.357 0 .484.127.484.527 0 .416-.034.961-.034 1.369 0 .883-.467 1.359-1.037 1.359-.553 0-.816-.279-.816-1.131v-2.574c-.391.051-.891.068-1.393.068v.381h.289c.264 0 .391.104.391.484v1.998c0 .875.475 1.266 1.282 1.266.638 0 1.055-.221 1.327-.771h.017c.008.221.008.482.017.67h1.358v-.357h-.178c-.391 0-.51-.059-.51-.619v-3.119c-.212.061-.721.068-1.512.068v.381zM11.822 57.6h2.192v-.357h-.289c-.263 0-.391-.102-.391-.482v-2.023c0-.877-.475-1.266-1.282-1.266-.493 0-1.003.152-1.301.66h-.026v-2.699c-.449.043-1.18.066-1.511.066v.381h.416c.323 0 .383.197.383.418v4.453c0 .297-.136.492-.561.492h-.238v.357h2.243v-.357h-.17c-.426 0-.562-.195-.562-.492v-1.463c0-.738.315-1.377 1.089-1.377.544 0 .807.332.807 1.148v1.674c0 .418-.17.51-.425.51h-.374v.357zM8.5 53.733c-.433-.195-.917-.262-1.376-.262-1.046 0-1.971.619-1.971 2.148 0 1.453.721 2.082 1.86 2.082.774 0 1.58-.348 1.58-1.436h-.56c-.06.664-.375 1.027-.987 1.027-.501 0-1.113-.391-1.113-1.656 0-1.189.527-1.76 1.19-1.76.595 0 .782.314.782 1.045H8.5v-1.188zM.47 57.397a4.08 4.08 0 0 0 1.69.338c1.182 0 2.048-.594 2.048-1.621 0-2.014-2.991-1.266-2.991-2.812 0-.52.408-.936 1.19-.936.765 0 1.012.51 1.012 1.207h.525v-1.334a3.776 3.776 0 0 0-1.461-.314c-1.334 0-2.013.68-2.013 1.537 0 1.93 2.957 1.283 2.957 2.771 0 .629-.518 1.061-1.309 1.061-.74 0-1.08-.348-1.122-1.291H.47v1.394zm140.884-10.941c-.102.578-.493.842-.977.842-.672 0-1.063-.51-1.071-1.684h2.71v-.482c0-1.174-.738-1.658-1.622-1.658-1.14 0-1.835.73-1.835 2.115 0 1.471.636 2.117 1.809 2.117.877 0 1.453-.383 1.58-1.25h-.594zm-2.048-1.248c.034-.816.399-1.326 1.062-1.326.604 0 .928.484.937 1.326h-1.999zm-3.739-3.325h.416c.323 0 .384.197.384.418v4.453c0 .297-.137.492-.562.492h-.238v.355h2.242v-.355h-.17c-.425 0-.562-.195-.562-.492v-5.32a20.19 20.19 0 0 1-1.511.068v.381zm-3.926 4.608c0-.57.383-.902 1.301-.902h.544c0 .477-.034.723-.153 1.012-.119.297-.492.613-.943.613-.427-.001-.749-.256-.749-.723m1.896 1.111h1.299v-.355c-.586 0-.654-.033-.654-.74 0-.688.017-1.316.017-1.938 0-.738-.569-1.096-1.487-1.096-1.502 0-1.682.74-1.698 1.291h.747c.017-.551.152-.908.91-.908.51 0 .815.297.815.9v.451h-.884c-1.198 0-1.708.586-1.708 1.367 0 .697.519 1.131 1.239 1.131.826 0 1.166-.408 1.387-.799h.018v.696zm-5.72 0h2.192v-.355h-.289c-.264 0-.391-.102-.391-.484v-2.021c0-.877-.476-1.268-1.316-1.268-.494 0-1.004.154-1.301.662h-.026v-.627c-.415.043-1.146.068-1.478.068v.381h.416c.324 0 .383.195.383.416v2.381c0 .297-.135.492-.561.492h-.238v.355h2.242v-.355h-.17c-.425 0-.561-.195-.561-.492v-1.463c0-.738.314-1.377 1.089-1.377.544 0 .808.332.808 1.148v1.674c0 .418-.171.51-.426.51h-.374v.355zm-4.036-2.012c0 1.197-.348 1.707-1.13 1.707s-1.131-.51-1.131-1.707c0-1.199.349-1.709 1.131-1.709s1.13.51 1.13 1.709m-3.042 0c0 1.504.892 2.115 1.912 2.115s1.911-.611 1.911-2.115c0-1.506-.891-2.117-1.911-2.117s-1.912.611-1.912 2.117m-2.522-3.527c0 .357.186.561.5.561.313 0 .5-.203.5-.561 0-.355-.187-.561-.5-.561-.315 0-.5.206-.5.561m-.639 1.895h.418c.322 0 .381.195.381.416v2.381c0 .297-.135.492-.561.492h-.238v.355h2.243v-.355h-.17c-.425 0-.562-.195-.562-.492v-3.246c-.449.043-1.18.068-1.512.068v.381zm-2.777.705c0 .451-.034 1.539-.034 1.955 0 .766.356 1.088 1.062 1.088.748 0 1.137-.34 1.137-1.258h-.524c-.017.604-.17.816-.485.816-.271 0-.442-.127-.442-.783v-2.523h1.097v-.381h-1.097v-1.131h-.492c-.051.756-.169 1.131-.96 1.131v.381h.74v.705zm-4.352 1.828c0-.57.381-.902 1.301-.902h.543c0 .477-.033.723-.152 1.012-.119.297-.493.613-.944.613-.426-.001-.748-.256-.748-.723m1.896 1.111h1.299v-.355c-.587 0-.655-.033-.655-.74 0-.688.018-1.316.018-1.938 0-.738-.568-1.096-1.486-1.096-1.504 0-1.682.74-1.699 1.291h.747c.017-.551.153-.908.909-.908.511 0 .816.297.816.9v.451h-.885c-1.197 0-1.707.586-1.707 1.367 0 .697.519 1.131 1.24 1.131.825 0 1.165-.408 1.387-.799h.017v.696zm-5.72 0h2.191v-.355h-.289c-.263 0-.39-.102-.39-.484v-2.021c0-.877-.476-1.268-1.317-1.268-.492 0-1.003.154-1.301.662h-.025v-.627c-.416.043-1.146.068-1.478.068v.381h.417c.322 0 .382.195.382.416v2.381c0 .297-.136.492-.562.492h-.237v.355h2.243v-.355h-.17c-.426 0-.562-.195-.562-.492v-1.463c0-.738.313-1.377 1.089-1.377.543 0 .807.332.807 1.148v1.674c0 .418-.17.51-.424.51h-.375v.355zm-6.619-3.644h.416c.324 0 .384.195.384.416v2.381c0 .297-.136.492-.562.492h-.238v.355h2.412v-.355h-.34c-.425 0-.561-.195-.561-.492v-1.402c0-1.012.587-1.318.9-1.318.308.002.485.213.562.596h.441v-1.088a5.441 5.441 0 0 0-.604-.033c-.663 0-1.046.238-1.352.857h-.018v-.857a17.11 17.11 0 0 1-1.443.068v.38zm-1.469 2.498c-.103.578-.494.842-.979.842-.671 0-1.062-.51-1.071-1.684h2.712v-.482c0-1.174-.74-1.658-1.623-1.658-1.14 0-1.836.73-1.836 2.115 0 1.471.637 2.117 1.811 2.117.875 0 1.451-.383 1.58-1.25h-.594zm-2.05-1.248c.034-.816.4-1.326 1.063-1.326.603 0 .926.484.935 1.326h-1.998zm-3.677-.545c0 .451-.034 1.539-.034 1.955 0 .766.355 1.088 1.061 1.088.748 0 1.14-.34 1.14-1.258h-.526c-.017.604-.17.816-.484.816-.272 0-.443-.127-.443-.783v-2.523h1.098v-.381h-1.098v-1.131h-.492c-.051.756-.169 1.131-.96 1.131v.381h.74v.705zm-3.213 2.939h2.192v-.355H91.5c-.264 0-.392-.102-.392-.484v-2.021c0-.877-.476-1.268-1.315-1.268-.494 0-1.004.154-1.301.662h-.025v-.627a18.64 18.64 0 0 1-1.479.068v.381h.417c.322 0 .382.195.382.416v2.381c0 .297-.136.492-.561.492h-.238v.355h2.243v-.355h-.17c-.425 0-.562-.195-.562-.492v-1.463c0-.738.314-1.377 1.088-1.377.545 0 .809.332.809 1.148v1.674c0 .418-.17.51-.425.51h-.375v.355zm-4.877-5.539c0 .357.187.561.501.561s.501-.203.501-.561c0-.355-.187-.561-.501-.561s-.501.206-.501.561m-.638 1.895h.418c.321 0 .381.195.381.416v2.381c0 .297-.135.492-.561.492h-.238v.355h2.242v-.355h-.17c-.424 0-.56-.195-.56-.492v-3.246c-.45.043-1.181.068-1.513.068v.381zm-6.475 0h.417c.323 0 .382.195.382.416v2.381c0 .297-.136.492-.561.492h-.238v.355h2.413v-.355h-.34c-.425 0-.562-.195-.562-.492v-1.402c0-1.012.586-1.318.901-1.318.306.002.485.213.562.596h.44v-1.088a5.407 5.407 0 0 0-.603-.033c-.662 0-1.045.238-1.352.857h-.018v-.857a17.11 17.11 0 0 1-1.443.068v.38zm-2.922 0h.313c.358 0 .485.127.485.527 0 .416-.034.959-.034 1.367 0 .885-.468 1.361-1.037 1.361-.553 0-.815-.281-.815-1.131v-2.574c-.392.051-.892.068-1.394.068v.381h.289c.264 0 .391.102.391.484v1.998c0 .875.476 1.266 1.283 1.266.638 0 1.055-.223 1.326-.773h.018c.008.223.008.484.017.67h1.358v-.355h-.178c-.392 0-.511-.059-.511-.619v-3.119c-.212.059-.721.068-1.512.068v.381zm.05-1.657c0 .271.146.475.484.475.288 0 .45-.117.45-.525 0-.273-.145-.477-.484-.477-.288 0-.45.119-.45.527m-1.477 0c0 .271.144.475.484.475.287 0 .448-.117.448-.525 0-.273-.144-.477-.483-.477-.289 0-.449.119-.449.527m-4.59 1.657h.799v2.908c0 .279-.161.381-.476.381h-.323v.355h2.464v-.355h-.416c-.409 0-.536-.102-.536-.637v-2.652h1.071v-.381H70.18V43.1c0-.918.365-1.242.85-1.242.417 0 .527.314.544.893h.492V41.63a4.628 4.628 0 0 0-.951-.127c-1.012 0-1.648.408-1.648 1.658v.416h-.799v.381zm-5.208.705c0 .451-.034 1.539-.034 1.955 0 .766.356 1.088 1.061 1.088.748 0 1.138-.34 1.138-1.258H65.1c-.017.604-.171.816-.485.816-.273 0-.443-.127-.443-.783v-2.523h1.097v-.381h-1.097v-1.131h-.492c-.051.756-.169 1.131-.96 1.131v.381h.74v.705zm-3.621-.705h.315c.357 0 .485.127.485.527 0 .416-.034.959-.034 1.367 0 .885-.468 1.361-1.038 1.361-.552 0-.816-.281-.816-1.131v-2.574c-.39.051-.891.068-1.392.068v.381h.289c.263 0 .39.102.39.484v1.998c0 .875.476 1.266 1.283 1.266.637 0 1.054-.223 1.326-.773h.017c.009.223.009.484.017.67h1.359v-.355h-.179c-.391 0-.51-.059-.51-.619v-3.119c-.212.059-.721.068-1.512.068v.381zm-5.215.705c0 .451-.034 1.539-.034 1.955 0 .766.356 1.088 1.061 1.088.748 0 1.138-.34 1.138-1.258h-.525c-.017.604-.171.816-.485.816-.273 0-.443-.127-.443-.783v-2.523h1.097v-.381h-1.097v-1.131h-.492c-.051.756-.169 1.131-.96 1.131v.381h.74v.705zm-3.068-2.6c0 .357.187.561.501.561s.501-.203.501-.561c0-.355-.187-.561-.501-.561s-.501.206-.501.561m-.638 1.895h.416c.323 0 .383.195.383.416v2.381c0 .297-.136.492-.561.492h-.238v.355h2.242v-.355h-.17c-.425 0-.561-.195-.561-.492v-3.246a20.19 20.19 0 0 1-1.511.068v.381zm-2.778.705c0 .451-.034 1.539-.034 1.955 0 .766.357 1.088 1.062 1.088.748 0 1.138-.34 1.138-1.258h-.526c-.017.604-.17.816-.485.816-.272 0-.442-.127-.442-.783v-2.523h1.097v-.381h-1.097v-1.131h-.493c-.051.756-.17 1.131-.96 1.131v.381h.739v.705zm-4.844 2.873a6.78 6.78 0 0 0 1.452.17c1.088 0 1.674-.492 1.674-1.232 0-1.555-2.396-.977-2.396-1.938 0-.383.221-.654.867-.654.62 0 .842.162.842.934h.44V43.67a4.061 4.061 0 0 0-1.231-.195c-1.139 0-1.665.477-1.665 1.207 0 1.461 2.396.85 2.396 1.896 0 .467-.315.721-.961.721-.799 0-.858-.238-.926-1.02h-.492v1.257zm-3.128.066h2.192v-.355h-.289c-.263 0-.391-.102-.391-.484v-2.021c0-.877-.475-1.268-1.316-1.268-.493 0-1.003.154-1.301.662h-.025v-.627c-.416.043-1.146.068-1.478.068v.381h.417c.322 0 .382.195.382.416v2.381c0 .297-.136.492-.561.492h-.238v.355h2.243v-.355h-.17c-.425 0-.561-.195-.561-.492v-1.463c0-.738.314-1.377 1.088-1.377.544 0 .808.332.808 1.148v1.674c0 .418-.17.51-.425.51h-.375v.355zm-5.003-.992c0 .561-.187.611-.552.611h-.493v.381h2.837v-.381h-.493c-.365 0-.552-.051-.552-.611v-3.553c0-.561.187-.613.552-.613h.493v-.381H34.12v.381h.493c.365 0 .552.053.552.613v3.553zm-3.85-.826h2.166v-.441h-2.166v.441zm-4.419-.901h.526c.009-.697.085-.867.527-.867h1.326l-2.498 3.027v.559h3.347v-1.357h-.526c0 .842-.119.918-.578.918h-1.479l2.532-3.061v-.525h-3.177v1.306zm-2.642-2.82c0 .357.186.561.5.561s.501-.203.501-.561c0-.355-.187-.561-.501-.561s-.5.206-.5.561m-.637 1.895h.417c.323 0 .382.195.382.416v2.381c0 .297-.136.492-.561.492h-.238v.355h2.243v-.355h-.17c-.425 0-.561-.195-.561-.492v-3.246c-.45.043-1.18.068-1.512.068v.381zm-2.855 3.644h2.192v-.355h-.289c-.264 0-.391-.102-.391-.484v-2.021c0-.877-.475-1.268-1.317-1.268-.493 0-1.003.154-1.3.662h-.027v-.627c-.416.043-1.146.068-1.477.068v.381h.416c.323 0 .382.195.382.416v2.381c0 .297-.136.492-.56.492h-.238v.355h2.242v-.355h-.17c-.425 0-.561-.195-.561-.492v-1.463c0-.738.315-1.377 1.088-1.377.544 0 .808.332.808 1.148v1.674c0 .418-.17.51-.425.51h-.374v.355zm-4.095-2.012c0 1.113-.374 1.674-1.097 1.674-.714 0-1.097-.561-1.097-1.674 0-1.105.383-1.676 1.097-1.676.722.001 1.097.571 1.097 1.676m-3.706-3.707h.416c.323 0 .383.197.383.418v4.248c0 .639-.162.697-.502.697h-.297v.355h1.426v-.584h.017c.289.449.663.688 1.275.688.783 0 1.733-.408 1.733-2.252 0-1.283-.661-1.98-1.622-1.98-.612 0-1.063.246-1.301.756h-.017v-2.795a20.19 20.19 0 0 1-1.511.068v.381zm-2.269.18c0 .357.187.561.501.561s.501-.203.501-.561c0-.355-.187-.561-.501-.561s-.501.206-.501.561m-.636 1.895h.416c.323 0 .383.195.383.416v2.381c0 .297-.136.492-.561.492h-.238v.355h2.242v-.355h-.17c-.425 0-.561-.195-.561-.492v-3.246a20.19 20.19 0 0 1-1.511.068v.381zm-1.471 2.498c-.102.578-.493.842-.978.842-.672 0-1.063-.51-1.071-1.684h2.71v-.482c0-1.174-.738-1.658-1.622-1.658-1.139 0-1.835.73-1.835 2.115 0 1.471.637 2.117 1.81 2.117.875 0 1.452-.383 1.58-1.25h-.594zm-2.048-1.248c.034-.816.399-1.326 1.063-1.326.603 0 .926.484.935 1.326H6.537zM.284 42.444h.425c.365 0 .552.053.552.613v3.553c0 .561-.187.611-.552.611H.284v.381h4.545v-1.816h-.56v.271c0 1.02-.102 1.105-.578 1.105H2.007v-4.105c0-.561.187-.613.552-.613h.587v-.381H.284v.381z"/><path fill="#B10346" d="M67.291 21.697c0-.487-.325-.975-.975-.975h-5.81c-.651 0-.976.487-.976.975 0 .467.325.954.976.954h1.93v11.261c0 .648.488.955.975.955s.974-.307.974-.955V22.651h1.931c.65 0 .975-.487.975-.954m-9.694 9.229v-9.349c0-.651-.487-.977-.974-.977-.488 0-.975.325-.975.977v9.349c0 1.078-.935 2.012-2.013 2.012h-.183c-1.119 0-2.034-.934-2.034-2.012v-9.349c0-.651-.487-.977-.974-.977s-.974.325-.974.977v9.349c0 2.195 1.786 3.941 3.962 3.941h.203a3.934 3.934 0 0 0 3.962-3.941m-10.04-9.229c0-.487-.326-.975-.976-.975h-5.81c-.651 0-.976.487-.976.975 0 .467.325.954.976.954h1.931v11.261c0 .648.487.955.974.955s.974-.307.974-.955V22.651h1.931c.649 0 .976-.487.976-.954m-9.858 12.216V21.577c0-.651-.487-.977-.974-.977s-.974.325-.974.977v12.335c0 .648.487.955.974.955.487.001.974-.306.974-.954m-4.044-12.216c0-.487-.325-.975-.976-.975h-5.81c-.65 0-.976.487-.976.975 0 .467.326.954.976.954H28.8v11.261c0 .648.487.955.974.955s.974-.307.974-.955V22.651h1.931c.651 0 .976-.487.976-.954m-9.024 9.411c0-4.208-6.138-4.655-6.138-6.606v-.407c0-.996 1.017-1.565 1.911-1.565h.183c1.078 0 1.648.224 1.892 1.321.122.549.447.896 1.015.896.548 0 .934-.366.934-.915v-.122c0-2.073-1.888-3.108-3.841-3.108h-.183c-1.85 0-3.86 1.401-3.86 3.596v.366c0 3.68 6.138 3.7 6.138 6.545 0 1.199-.895 1.852-2.095 1.852h-.203c-1.159 0-2.013-.732-2.013-2.033 0-.652-.487-.977-.975-.977-.487 0-.974.324-.974.977 0 2.5 1.827 3.941 3.962 3.941h.203c2.278-.001 4.044-1.464 4.044-3.761M13.9 33.913V21.577c0-.651-.508-.977-.995-.977s-.954.325-.954.977v8.494l-3.884-8.758c-.305-.712-.793-.712-1.036-.712h-.223c-.65 0-1.036.468-1.036 1.017v12.295c0 .648.508.955.995.955s.954-.307.954-.955v-8.617l3.884 8.757c.326.752.833.814 1.097.814h.223a.97.97 0 0 0 .975-.954m-11.504 0V21.577c0-.651-.487-.977-.974-.977s-.975.325-.975.977v12.335c0 .648.488.955.975.955.487.001.974-.306.974-.954M117.639 1.097c0-.487-.324-.974-.972-.974h-5.78c-.648 0-.972.486-.972.974 0 .467.323.954.972.954h1.92v11.261c0 .65.485.955.969.955.486 0 .971-.305.971-.955V2.051h1.921c.646 0 .971-.488.971-.954M106.74 4.268c0 1.119-.809 2.013-1.922 2.013h-2.408v-4.23h2.387c1.113 0 1.943.895 1.943 2.034v.183zm1.94 0v-.183a3.943 3.943 0 0 0-3.943-3.962h-3.297c-.504 0-.969.467-.969.974v12.215c0 .65.484.955.989.955.485 0 .95-.305.95-.955V8.21h1.639l2.61 5.527a.87.87 0 0 0 .827.529c.627 0 1.031-.407 1.031-.955a.929.929 0 0 0-.102-.427l-2.303-4.858c1.536-.527 2.568-2.009 2.568-3.758m-10.396 8.943c0-.487-.324-.975-.972-.975h-5.176V7.904h3.518c.647 0 .972-.486.972-.974s-.324-.954-.972-.954h-3.518V2.051h5.176c.647 0 .972-.487.972-.954 0-.487-.324-.974-.972-.974h-6.146c-.504 0-.969.467-.969.974V13.19c0 .507.465.975.969.975h6.146c.648 0 .972-.487.972-.954m-10.274.121c0-.143-.039-.284-.101-.447l-3.357-6.93 2.993-4.431c.102-.162.162-.345.162-.549 0-.548-.425-.975-1.012-.975a.924.924 0 0 0-.769.427l-4.065 6.015V.976c0-.649-.483-.975-.969-.975-.484 0-.97.325-.97.975v12.336c0 .65.485.955.97.955s.969-.305.969-.955V9.918l1.437-2.093 2.853 5.912c.182.388.525.529.849.529.586.001 1.01-.426 1.01-.934m-10.435-2.437v-.061c0-.63-.345-1.058-.991-1.058-.546 0-.809.325-.951.833-.182.997-.93 1.749-1.98 1.749h-.182c-1.113 0-2.004-.812-2.004-1.952V3.86c0-1.117.87-1.932 2.004-1.932h.182c1.051 0 1.799.753 1.98 1.749.143.508.405.833.951.833.646 0 .991-.427.991-1.057v-.06c0-1.971-1.962-3.392-3.923-3.392h-.182c-2.185 0-3.943 1.685-3.943 3.88v6.506c0 2.215 1.758 3.88 3.943 3.88h.182c1.961 0 3.923-1.38 3.923-3.372m-9.97 2.316c0-.487-.324-.975-.971-.975h-5.177V7.904h3.519c.647 0 .97-.486.97-.974s-.323-.954-.97-.954h-3.519V2.051h5.177c.647 0 .971-.487.971-.954 0-.487-.324-.974-.971-.974h-6.147c-.505 0-.969.467-.969.974V13.19c0 .507.464.975.969.975h6.147c.647 0 .971-.487.971-.954m-17.028-2.886v-3.05a.977.977 0 0 0-.99-.974h-2.589c-.647 0-.971.467-.971.954s.324.974.971.974h1.64v2.096c0 1.098-.931 2.033-2.004 2.033h-.202c-1.113 0-2.004-.834-2.004-1.973V3.882c0-1.119.891-1.953 2.004-1.953h.202c.992 0 1.923.488 2.024 1.404.081.63.525.874.949.874.485 0 .949-.285.949-.915v-.103C50.395 1.421 48.718.001 46.634.001h-.202c-2.165 0-3.942 1.685-3.942 3.881v6.504c0 2.216 1.757 3.881 3.942 3.881h.202a3.913 3.913 0 0 0 3.943-3.942m-23.376.062c0 1.138-.891 1.972-2.004 1.972h-.202c-1.113 0-2.003-.834-2.003-1.972V3.881c0-1.118.89-1.952 2.003-1.952h.202c1.113 0 2.004.814 2.004 1.952v6.506zm1.939 0V3.881c0-2.195-1.757-3.88-3.943-3.88h-.182c-2.185 0-3.962 1.685-3.962 3.88v6.506c0 2.215 1.777 3.88 3.942 3.88h.202c2.186 0 3.943-1.665 3.943-3.88m-10.011 2.824c0-.487-.324-.975-.971-.975h-5.177V7.904H16.5c.647 0 .971-.486.971-.974s-.324-.954-.971-.954h-3.519V2.051h5.177c.647 0 .971-.487.971-.954 0-.487-.324-.974-.971-.974h-6.146c-.505 0-.97.467-.97.974V13.19c0 .507.465.975.97.975h6.146c.647 0 .971-.487.971-.954M8.087 10.325v-3.05a.976.976 0 0 0-.99-.974H4.509c-.648 0-.971.467-.971.954s.323.974.971.974h1.639v2.096c0 1.098-.931 2.033-2.003 2.033h-.203c-1.113 0-2.003-.834-2.003-1.973V3.882c0-1.119.89-1.953 2.003-1.953h.203c.991 0 1.922.488 2.023 1.404.081.63.525.874.95.874.484 0 .949-.285.949-.915v-.103C7.905 1.422 6.229.001 4.145.001h-.203C1.777.001 0 1.686 0 3.882v6.504c0 2.216 1.757 3.881 3.942 3.881h.203a3.912 3.912 0 0 0 3.942-3.942"/><path fill="#009FE3" d="M33.367 4.268c0 1.119.813 2.014 1.932 2.014h2.42v-4.23h-2.4c-1.119 0-1.952.896-1.952 2.034v.182zm-1.949 0v-.183A3.952 3.952 0 0 1 35.38.123h3.313c.507 0 .974.467.974.974v12.214c0 .651-.487.956-.994.956-.488 0-.954-.305-.954-.956V8.21h-1.648l-2.623 5.528a.879.879 0 0 1-.832.528c-.63 0-1.036-.407-1.036-.956 0-.121.021-.264.102-.426l2.315-4.858c-1.544-.527-2.579-2.009-2.579-3.758"/></svg>