<?xml version="1.0" standalone="no"?>
<!DOCTYPE svg PUBLIC "-//W3C//DTD SVG 1.1//EN" "http://www.w3.org/Graphics/SVG/1.1/DTD/svg11.dtd" >
<svg xmlns="http://www.w3.org/2000/svg">
<metadata></metadata>
<defs>
<font id="GravurCondensedRegular" horiz-adv-x="1165" >
<font-face units-per-em="2048" ascent="1638" descent="-410" />
<missing-glyph horiz-adv-x="706" />
<glyph unicode="fi" horiz-adv-x="1013" d="M92 915q0 31 21 54.5t57 23.5h45v164q0 112 75.5 191t188.5 79q36 0 57 -23t21 -54t-21 -54.5t-57 -23.5q-48 0 -78 -33t-30 -82v-164h389q32 0 55 -23.5t23 -54.5v-849q0 -36 -23 -56t-55 -20t-55 20t-23 56v772h-311v-772q0 -36 -23 -56t-55 -20t-55 20t-23 56v772h-45 q-36 0 -57 23t-21 54zM684 1305v45q0 36 23 56.5t55 20.5t55 -20.5t23 -56.5v-45q0 -36 -23.5 -57t-54.5 -21t-54.5 21t-23.5 57z" />
<glyph unicode="fl" horiz-adv-x="1130" d="M92 915q0 31 21 54.5t57 23.5h61v152q0 112 76 191t189 79h282q31 0 54.5 -23.5t23.5 -54.5v-1079q0 -56 34.5 -83.5t82.5 -31.5q37 -3 56.5 -24.5t19.5 -52.5q0 -32 -20.5 -54t-59.5 -22q-113 0 -191 78t-78 194v998h-204q-49 0 -80 -33.5t-31 -81.5v-152h98 q36 0 57 -23.5t21 -54.5t-21 -54t-57 -23h-98v-772q0 -36 -22 -56t-54 -20t-55 20t-23 56v772h-61q-36 0 -57 23t-21 54z" />
<glyph unicode=" "  horiz-adv-x="706" />
<glyph unicode="&#x09;" horiz-adv-x="706" />
<glyph unicode="&#xa0;" horiz-adv-x="706" />
<glyph unicode="!" horiz-adv-x="524" d="M184 66v45q0 36 23 56.5t55 20.5t55 -20.5t23 -56.5v-45q0 -36 -23 -56t-55 -20t-55 20t-23 56zM184 422v928q0 36 23 56.5t55 20.5t55 -20.5t23 -56.5v-928q0 -39 -23 -58.5t-55 -19.5t-55 19.5t-23 58.5z" />
<glyph unicode="&#x22;" horiz-adv-x="724" d="M164 1067v285q0 36 23 55.5t55 19.5t54.5 -19.5t22.5 -55.5v-285q0 -36 -23 -57t-54 -21t-54.5 21t-23.5 57zM406 1067v285q0 36 22.5 55.5t54.5 19.5t55 -19.5t23 -55.5v-285q0 -36 -23.5 -57t-54.5 -21t-54 21t-23 57z" />
<glyph unicode="#" horiz-adv-x="1429" d="M82 516q0 31 21 54.5t57 23.5h252l45 250h-226q-39 0 -58 23t-19 55t19 54.5t58 22.5h252l66 365q6 31 26.5 47t47.5 16q35 0 57 -21t22 -54v-17l-61 -336h227l64 365q6 31 27 47t49 16q35 0 56 -21t21 -54v-17l-59 -336h244q36 0 57 -23t21 -54t-21 -54.5t-57 -23.5 h-273l-45 -250h246q36 0 57 -23.5t21 -54.5t-21 -54.5t-57 -23.5h-272l-68 -387q-6 -31 -27 -46t-49 -15q-35 0 -57.5 20.5t-22.5 52.5q0 3 1.5 8.5t1.5 8.5l63 358h-225l-70 -387q-6 -30 -26.5 -45.5t-47.5 -15.5q-35 0 -57.5 20.5t-22.5 52.5q0 11 3 17l63 358h-225 q-36 0 -57 23.5t-21 54.5zM569 594h226l45 250h-226z" />
<glyph unicode="$" horiz-adv-x="1019" d="M102 367q0 36 23 55.5t55 19.5t55 -19t23 -58q0 -104 73 -163t179 -59h20q232 0 232 228q0 31 -6.5 58t-13.5 47t-25.5 41t-29 32.5t-38.5 30t-39.5 25t-46.5 25.5t-45 25q-32 18 -83 44t-82 43t-72 42.5t-65.5 51.5t-48 61.5t-34 80t-10.5 99.5q0 131 89.5 227.5 t227.5 116.5v115q0 36 22.5 57t53.5 21t54.5 -21t23.5 -57v-115q130 -21 218.5 -110t88.5 -211q0 -36 -21.5 -56t-52.5 -20t-54.5 19.5t-27.5 54.5q-8 76 -68.5 125t-152.5 49h-18q-60 0 -106 -20t-70.5 -51t-36.5 -62.5t-12 -61.5q0 -27 6 -51.5t14.5 -43t26 -36.5 t30 -29.5t37.5 -27t38.5 -23t43 -22t41.5 -21.5q24 -13 67 -35.5t66.5 -35t60.5 -34t58 -39t48 -42.5t42.5 -51.5t30 -59.5t21 -72t6.5 -85q0 -160 -84.5 -259t-237.5 -116l-2 -92q-1 -37 -23 -57.5t-53 -20.5q-33 0 -55.5 20.5t-22.5 57.5v92q-146 18 -242 117t-96 256z " />
<glyph unicode="%" horiz-adv-x="1507" d="M123 897v291q0 98 67 168.5t166 70.5q97 0 164.5 -70.5t67.5 -168.5v-291q0 -98 -67.5 -169t-164.5 -71q-98 0 -165.5 71t-67.5 169zM279 897q0 -36 23 -60t54 -24q30 0 53 24t23 60v291q0 36 -23 60t-53 24q-31 0 -54 -24t-23 -60v-291zM406 63q0 18 6 33l532 1284 q19 47 68 47q36 0 59 -22t23 -53q0 -14 -7 -31l-532 -1284q-19 -47 -68 -47q-36 0 -58.5 21t-22.5 52zM920 227v291q0 98 67.5 169t165.5 71q97 0 164 -71t67 -169v-291q0 -99 -66.5 -168t-164.5 -69q-99 0 -166 69t-67 168zM1075 227q0 -36 24 -60t54 -24t53 24t23 60v291 q0 36 -23 60t-53 24t-54 -24t-24 -60v-291z" />
<glyph unicode="&#x26;" horiz-adv-x="1128" d="M92 377q0 70 22 131.5t65.5 113.5t85.5 89.5t102 81.5q-40 75 -58.5 112t-35.5 85t-17 83q0 81 41.5 141t101.5 87.5t127 27.5h15q118 0 199 -66t81 -190q0 -51 -18.5 -97t-56 -86.5t-74 -70.5t-92.5 -69q132 -235 239 -394q17 30 25 52q20 49 69 49q33 0 57.5 -20 t24.5 -54q0 -15 -6 -33q-24 -64 -78 -135q26 -35 49.5 -51t61.5 -25q55 -14 55 -73q0 -32 -20.5 -54t-59.5 -22q-107 0 -196 110q-134 -110 -299 -110h-19q-162 0 -276.5 112.5t-114.5 274.5zM248 377q0 -97 69 -165.5t166 -68.5h19q108 0 211 86q-172 259 -269 428 q-46 -34 -77.5 -61.5t-60.5 -62.5t-43.5 -73.5t-14.5 -82.5zM412 1069q0 -24 15.5 -60.5t28.5 -59t42 -68.5q87 60 127.5 101.5t40.5 90.5q0 101 -125 101h-15q-39 0 -76.5 -31.5t-37.5 -73.5z" />
<glyph unicode="'" horiz-adv-x="483" d="M164 1051v299q0 36 23 56.5t55 20.5q31 0 54 -20.5t23 -56.5v-299q0 -36 -23 -57t-54 -21t-54.5 21t-23.5 57z" />
<glyph unicode="(" horiz-adv-x="669" d="M164 668q0 267 86.5 501t220.5 373q28 25 55 24.5t52 -22.5q22 -20 24 -47t-22 -55q-111 -111 -189 -321.5t-78 -452.5q0 -249 79.5 -459.5t193.5 -319.5q25 -27 23.5 -54t-25.5 -48q-23 -21 -50 -23t-57 23q-137 131 -225 368.5t-88 512.5z" />
<glyph unicode=")" horiz-adv-x="669" d="M62 -165q-2 26 22 54q114 109 193 319.5t79 459.5q0 245 -76.5 455.5t-189.5 318.5q-24 28 -22 55t24 47q25 22 52 22.5t55 -24.5q134 -134 220.5 -370t86.5 -504q0 -275 -88 -512.5t-225 -368.5q-48 -48 -107 0q-22 22 -24 48z" />
<glyph unicode="*" horiz-adv-x="759" d="M41 901q0 48 39 66l180 82l-180 84q-39 18 -39 63q0 32 22.5 57t53.5 25q23 0 41 -12l161 -113l-16 197q-3 36 21.5 56.5t56.5 20.5t56.5 -20.5t21.5 -56.5l-19 -197l162 113q18 12 41 12q31 0 53.5 -25t22.5 -57q0 -45 -39 -63l-180 -84l180 -82q39 -18 39 -66 q0 -32 -22.5 -57t-53.5 -25q-23 0 -41 12l-162 113l19 -196q3 -36 -21.5 -57t-56.5 -21t-56.5 21t-21.5 57l16 196l-161 -113q-18 -12 -41 -12q-31 0 -53.5 25t-22.5 57z" />
<glyph unicode="+" horiz-adv-x="925" d="M92 547q0 31 21 54.5t57 23.5h215v215q0 36 23.5 57t54.5 21t54.5 -21t23.5 -57v-215h215q36 0 57 -23.5t21 -54.5t-21 -54.5t-57 -23.5h-215v-215q0 -36 -23.5 -57t-54.5 -21t-54.5 21t-23.5 57v215h-215q-36 0 -57 23.5t-21 54.5z" />
<glyph unicode="," horiz-adv-x="421" d="M0 -223q0 27 23 53l34 37q45 48 60.5 88.5t15.5 124.5v45q0 39 23 58.5t55 19.5q31 0 54.5 -21t23.5 -57v-47q0 -114 -25 -182.5t-96 -139.5l-33 -32q-27 -27 -55 -27q-31 0 -55.5 24t-24.5 56z" />
<glyph unicode="-" horiz-adv-x="874" d="M92 547q0 31 21 54.5t57 23.5h532q39 0 59.5 -23t20.5 -55q0 -33 -19 -55.5t-58 -22.5h-535q-36 0 -57 23.5t-21 54.5z" />
<glyph unicode="." horiz-adv-x="360" d="M102 66v45q0 36 23 56.5t55 20.5t55 -20.5t23 -56.5v-45q0 -36 -23 -56t-55 -20t-55 20t-23 56z" />
<glyph unicode="/" horiz-adv-x="800" d="M-31 -143q0 4 4 16l668 1643q21 51 70 51q36 0 59 -22t23 -54q0 -15 -7 -33l-669 -1644q-21 -50 -68 -50q-36 0 -58 22t-22 54v17z" />
<glyph unicode="0" horiz-adv-x="983" d="M150 317v781q0 136 96 232.5t233 96.5h23q139 0 235.5 -96t96.5 -233v-781q0 -138 -96 -232.5t-236 -94.5h-23q-137 0 -233 95t-96 232zM305 317q0 -72 51 -123t123 -51h23q73 0 124.5 51t51.5 123v781q0 72 -51.5 123t-124.5 51h-23q-72 0 -123 -51t-51 -123v-781z" />
<glyph unicode="1" horiz-adv-x="983" d="M242.5 1086q-0.5 25 15.5 49l197 264q19 28 63 28h66q57 0 57 -67v-1294q0 -36 -23 -56t-55 -20t-55 20t-23 56v1122l-100 -144q-17 -24 -42 -31t-46 2.5t-37.5 27.5t-17 43z" />
<glyph unicode="2" horiz-adv-x="983" d="M145.5 98q1.5 39 20.5 70l465 778q18 30 27 54.5t10.5 38.5t1.5 40v13q0 76 -47.5 128t-126.5 52h-7q-71 0 -120.5 -50.5t-49.5 -121.5v-23q0 -36 -23 -57t-54 -21q-32 0 -56 21t-24 57v23q0 136 95 231.5t230 95.5h7q136 0 233.5 -95t97.5 -232v-15q0 -114 -53 -204 l-432 -725h416q36 0 58 -23.5t22 -54.5t-21 -54.5t-57 -23.5h-529q-42 0 -63.5 29.5t-20 68.5z" />
<glyph unicode="3" horiz-adv-x="983" d="M141 317q0 39 23 58.5t55 19.5t55 -19.5t23 -58.5q0 -72 51 -123t123 -51h39q73 0 124.5 50.5t51.5 123.5v140q0 74 -13.5 119t-46 67.5t-72 29.5t-105.5 7q-39 0 -59.5 23t-20.5 55t20.5 55t59.5 23q30 0 48.5 1t46.5 5.5t45.5 12.5t37.5 24t31.5 38t19.5 56t8 78v49 q0 81 -55.5 127.5t-130.5 46.5t-130 -44.5t-55 -127.5q0 -36 -23 -57t-54 -21t-54.5 21t-23.5 57q0 105 50.5 180.5t126 110t163.5 34.5t164 -35t127 -111t51 -181v-49q0 -194 -113 -293q113 -89 113 -301v-140q0 -137 -98 -232t-234 -95h-39q-137 0 -233.5 95t-96.5 232z " />
<glyph unicode="4" horiz-adv-x="983" d="M100 408q0 16 11 45l407 927q21 47 68 47q36 0 59 -22t23 -53q0 -23 -6 -33l-377 -846h270v164q0 39 23 58.5t55 19.5t55 -19.5t23 -58.5v-164h92q39 0 59.5 -23t20.5 -55t-19.5 -55t-58.5 -23h-92v-251q0 -36 -23 -56t-55 -20t-55 20t-23 56v251h-364q-41 0 -67 27 t-26 64z" />
<glyph unicode="5" horiz-adv-x="983" d="M156 334q0 36 23 57t54 21t54.5 -21t23.5 -57q0 -103 42.5 -147t119.5 -44h23q73 0 124.5 50.5t51.5 123.5v320q0 73 -51 124.5t-123 51.5h-23q-47 0 -86 -22.5t-63 -61.5q-25 -43 -76 -43q-34 0 -59 21.5t-25 58.5v571q0 31 23.5 54.5t54.5 23.5h461q36 0 57.5 -23.5 t21.5 -54.5t-20.5 -54t-56.5 -23h-385v-347q24 23 67 39.5t84 16.5h23q136 0 233.5 -96.5t97.5 -235.5v-320q0 -137 -96 -232t-233 -95h-23q-143 0 -231 91t-88 253z" />
<glyph unicode="6" horiz-adv-x="983" d="M150 317v779q0 136 96.5 233.5t232.5 97.5h23q138 0 226.5 -76.5t102.5 -197.5q3 -3 3 -10q0 -36 -25 -58t-57 -22q-27 0 -47.5 16t-26.5 49q-21 144 -176 144h-21q-73 0 -124.5 -52t-51.5 -124v-258q34 34 89.5 48.5t88.5 14.5h19q139 0 235.5 -95.5t96.5 -232.5v-256 q0 -138 -96 -232.5t-236 -94.5h-23q-137 0 -233 95t-96 232zM305 317q0 -72 51 -123t123 -51h23q73 0 124.5 51t51.5 123v256q0 72 -51 122t-125 50h-19q-76 0 -127 -43t-51 -118v-267z" />
<glyph unicode="7" horiz-adv-x="983" d="M143 1155v182q0 31 23.5 54.5t54.5 23.5h520q48 0 73.5 -24t25.5 -64q0 -23 -9 -47l-385 -1237q-16 -53 -71 -53q-35 0 -57.5 21t-22.5 52q0 19 2 25l365 1172h-361v-105q0 -39 -23 -58.5t-55 -19.5q-33 0 -56.5 20t-23.5 58z" />
<glyph unicode="8" horiz-adv-x="983" d="M150 317v191q0 141 122 248q-122 107 -122 248v94q0 136 96 232.5t233 96.5h23q136 0 234 -96.5t98 -232.5v-94q0 -140 -123 -248q123 -108 123 -248v-191q0 -138 -96 -232.5t-236 -94.5h-23q-137 0 -233 95t-96 232zM305 317q0 -72 51 -123t123 -51h23q73 0 124.5 51 t51.5 123v185q0 73 -52 124.5t-126 51.5h-17q-74 0 -126 -51.5t-52 -124.5v-185zM305 1008q0 -72 52 -124.5t124 -52.5h19q72 0 125 52t53 125v90q0 72 -51.5 123t-124.5 51h-23q-72 0 -123 -51t-51 -123v-90z" />
<glyph unicode="9" horiz-adv-x="983" d="M150 272q0 36 24.5 58t56.5 22q61 0 72 -65q9 -66 54 -105t124 -39h21q73 0 124.5 52t51.5 124v263q-34 -36 -87 -53t-91 -17h-19q-139 0 -235 96.5t-96 233.5v254q0 140 96 235.5t235 95.5h21q140 0 236 -96t96 -235v-777q0 -148 -94.5 -238.5t-237.5 -90.5h-21 q-133 0 -225 76t-104 196q-2 2 -2 10zM305 842q0 -72 51.5 -123t124.5 -51h19q73 0 125.5 51.5t52.5 128.5v248q0 74 -51 125t-125 51h-21q-73 0 -124.5 -51t-51.5 -125v-254z" />
<glyph unicode=":" horiz-adv-x="391" d="M119 66v45q0 36 23 56.5t55 20.5q31 0 54 -20.5t23 -56.5v-45q0 -36 -22.5 -56t-54.5 -20t-55 20t-23 56zM119 653v45q0 36 23.5 57t54.5 21t54 -21t23 -57v-45q0 -39 -22.5 -58.5t-54.5 -19.5t-55 19.5t-23 58.5z" />
<glyph unicode=";" horiz-adv-x="391" d="M0 -223q0 27 23 53l34 37q45 48 60.5 88.5t15.5 124.5v45q0 39 23 58.5t55 19.5q31 0 54.5 -21t23.5 -57v-47q0 -114 -25 -182.5t-96 -139.5l-33 -32q-27 -27 -55 -27q-31 0 -55.5 24t-24.5 56zM133 653v45q0 36 23.5 57t54.5 21t54.5 -21t23.5 -57v-45q0 -39 -23 -58.5 t-55 -19.5t-55 19.5t-23 58.5z" />
<glyph unicode="&#x3c;" horiz-adv-x="677" d="M92 494q0 38 27 73l323 402q23 30 62 30q32 0 57 -22.5t25 -54.5q0 -25 -19 -50l-301 -378l299 -388q21 -29 21 -45q0 -30 -23.5 -50.5t-58.5 -20.5q-36 0 -62 33l-323 401q-27 34 -27 70z" />
<glyph unicode="=" horiz-adv-x="1091" d="M143 426q0 31 21 54.5t57 23.5h649q36 0 57 -23.5t21 -54.5t-21 -54.5t-57 -23.5h-649q-36 0 -57 23.5t-21 54.5zM143 713q0 31 21 54.5t57 23.5h649q36 0 57 -23.5t21 -54.5t-21 -54.5t-57 -23.5h-649q-36 0 -57 23.5t-21 54.5z" />
<glyph unicode="&#x3e;" horiz-adv-x="677" d="M92 61q0 16 21 45l299 388l-301 378q-19 25 -19 50q0 32 25 54.5t57 22.5q35 0 59 -30l326 -402q27 -35 27 -73q0 -36 -27 -70l-326 -401q-26 -33 -59 -33q-35 0 -58.5 20.5t-23.5 50.5z" />
<glyph unicode="?" horiz-adv-x="817" d="M41 1081v19q0 136 96.5 233t233.5 97h14q137 0 233.5 -97t96.5 -233v-82q0 -68 -24.5 -116t-67.5 -95q-21 -21 -59 -52t-59 -50t-38.5 -56t-17.5 -84v-141q0 -39 -23 -58.5t-55 -19.5t-55 19.5t-23 58.5v141q0 48 7 85.5t17.5 61.5t31.5 49t38 40t49.5 42.5t55.5 49.5 q34 34 50.5 62t16.5 63v82q0 72 -51 123t-123 51h-14q-72 0 -123 -51t-51 -123v-19q0 -36 -23 -56.5t-55 -20.5t-55 20.5t-23 56.5zM293 66v45q0 36 23 56.5t55 20.5t55 -20.5t23 -56.5v-45q0 -36 -23 -56t-55 -20t-55 20t-23 56z" />
<glyph unicode="@" horiz-adv-x="1738" d="M164 313v353q0 133 52 254.5t139.5 209t209 139.5t254.5 52h101q133 0 254.5 -52t209 -139.5t139.5 -209t52 -254.5v-392q0 -143 -70 -213.5t-192 -70.5h-13q-133 0 -206 98q-92 -98 -242 -98h-14q-87 0 -161 32.5t-121.5 101t-47.5 159.5v14q0 79 35 136.5t87.5 86.5 t116.5 49.5t120.5 28t101 19t55.5 26.5q6 8 6 35q0 87 -46 126.5t-120 39.5h-12q-61 0 -99 -25t-69 -78q-21 -41 -70 -41q-30 0 -53.5 20.5t-23.5 51.5q0 24 8 37q31 70 84.5 114t107.5 60t115 16h12q137 0 229.5 -91.5t92.5 -223.5v-387q0 -47 12.5 -80t32.5 -47.5 t36.5 -20.5t32.5 -6h13q51 0 78.5 27.5t27.5 103.5v392q0 137 -67.5 252t-182.5 181t-249 66h-101q-209 0 -354.5 -145t-145.5 -354v-353q0 -137 66.5 -251.5t181.5 -180t252 -65.5h101q106 0 190 37q13 8 33 8q34 0 55 -24.5t21 -57.5q0 -50 -48 -70q-116 -49 -251 -49 h-101q-133 0 -254.5 51.5t-209 139t-139.5 208.5t-52 254zM664 287q0 -66 48 -105t126 -39h16q73 0 124.5 50.5t51.5 123.5v162q-33 -9 -94 -19.5t-101.5 -19.5t-83.5 -25t-65 -44t-22 -68v-16z" />
<glyph unicode="A" horiz-adv-x="1116" d="M61 63l5 25l399 1282q9 28 34 42.5t58 14.5q76 0 94 -57l400 -1282q4 -20 4 -25q0 -31 -22.5 -52t-57.5 -21q-58 0 -74 53l-90 295h-506l-92 -295q-16 -53 -72 -53q-35 0 -57.5 21t-22.5 52zM354 494h408l-205 655z" />
<glyph unicode="B" horiz-adv-x="1089" d="M184 78v1259q0 31 23.5 54.5t54.5 23.5h316q163 0 267.5 -106t104.5 -267v-2q0 -110 -44.5 -191t-114.5 -120q74 -42 125 -124t51 -197v-19q0 -161 -114 -275t-275 -114h-316q-31 0 -54.5 23.5t-23.5 54.5zM340 156h238q97 0 165 68t68 165v19q0 99 -69.5 171t-163.5 72 h-238v-495zM340 807h238q93 0 155 65.5t62 167.5v2q0 98 -60 158t-157 60h-238v-453z" />
<glyph unicode="C" horiz-adv-x="1030" d="M154 377v663q0 160 114 273.5t275 113.5h20q147 0 256 -95t129 -238v-13q0 -35 -22.5 -55t-53.5 -20q-28 0 -49 16.5t-28 50.5q-18 86 -82 142.5t-150 56.5h-20q-96 0 -165 -69t-69 -163v-663q0 -97 68.5 -165.5t165.5 -68.5h20q86 0 150 56.5t82 142.5q7 33 28.5 50.5 t48.5 17.5q31 0 53.5 -20.5t22.5 -55.5v-15q-20 -141 -130 -235t-255 -94h-20q-162 0 -275.5 112.5t-113.5 274.5z" />
<glyph unicode="D" horiz-adv-x="1134" d="M184 78v1259q0 31 23.5 54.5t54.5 23.5h332q160 0 273.5 -113.5t113.5 -273.5v-639q0 -161 -113.5 -275t-273.5 -114h-332q-31 0 -54.5 23.5t-23.5 54.5zM340 156h254q97 0 165 68t68 165v637q0 97 -67.5 165.5t-163.5 68.5h-256v-1104z" />
<glyph unicode="E" horiz-adv-x="1042" d="M184 78v1259q0 31 23.5 54.5t54.5 23.5h641q39 0 58.5 -23t19.5 -55t-19.5 -54.5t-58.5 -22.5h-563v-451h391q36 0 57 -23.5t21 -54.5t-21 -54.5t-57 -23.5h-391v-497h563q39 0 58.5 -23t19.5 -55t-19.5 -55t-58.5 -23h-641q-31 0 -54.5 23.5t-23.5 54.5z" />
<glyph unicode="F" horiz-adv-x="980" d="M184 66v1271q0 31 23.5 54.5t54.5 23.5h641q39 0 58.5 -23t19.5 -55t-19.5 -54.5t-58.5 -22.5h-563v-451h391q36 0 57 -23.5t21 -54.5t-21 -54.5t-57 -23.5h-391v-587q0 -36 -23 -56t-55 -20t-55 20t-23 56z" />
<glyph unicode="G" horiz-adv-x="1105" d="M154 377v661q0 162 113.5 275.5t275.5 113.5h20q149 0 259 -94t130 -239v-13q0 -35 -23.5 -55t-54.5 -20q-29 0 -50 16t-27 49q-18 91 -78 146t-156 55h-20q-96 0 -165 -69t-69 -163v-663q0 -97 68.5 -165.5t165.5 -68.5h20q97 0 165.5 68.5t68.5 165.5v239h-215 q-36 0 -57 23.5t-21 54.5t21 54.5t57 23.5h292q31 0 54.5 -23.5t23.5 -54.5v-317q0 -162 -113.5 -274.5t-275.5 -112.5h-20q-162 0 -275.5 112.5t-113.5 274.5z" />
<glyph unicode="H" d="M184 66v1284q0 36 23 56.5t55 20.5t55 -20.5t23 -56.5v-541h485v541q0 36 23 56.5t55 20.5t55 -20.5t23 -56.5v-1284q0 -38 -22.5 -57t-55.5 -19t-55.5 19t-22.5 57v587h-485v-587q0 -36 -23 -56t-55 -20t-55 20t-23 56z" />
<glyph unicode="I" horiz-adv-x="565" d="M205 66v1284q0 36 23 56.5t55 20.5q31 0 54 -20.5t23 -56.5v-1284q0 -36 -22.5 -56t-54.5 -20t-55 20t-23 56z" />
<glyph unicode="J" horiz-adv-x="974" d="M0 311q0 34 23.5 55t54.5 21q25 0 45.5 -14.5t30.5 -42.5q30 -89 87 -138t140 -49h20q96 0 165 69t69 163v975q0 36 23 56.5t55 20.5t55 -20.5t23 -56.5v-975q0 -161 -114 -273t-276 -112h-20q-139 0 -242 83t-137 218q-2 4 -2 20z" />
<glyph unicode="K" horiz-adv-x="1044" d="M184 66v1284q0 36 23 56.5t55 20.5t55 -20.5t23 -56.5v-648l469 691q21 34 61 34q35 0 58.5 -23t23.5 -54q0 -25 -14 -45l-322 -471l359 -734q8 -19 8 -34q0 -32 -23.5 -54t-58.5 -22q-46 0 -67 43l-318 653l-176 -260v-360q0 -36 -23 -56t-55 -20t-55 20t-23 56z" />
<glyph unicode="L" horiz-adv-x="960" d="M184 78v1272q0 36 23 56.5t55 20.5t55 -20.5t23 -56.5v-1194h481q36 0 57 -23.5t21 -54.5t-21 -54.5t-57 -23.5h-559q-31 0 -54.5 23.5t-23.5 54.5z" />
<glyph unicode="M" horiz-adv-x="1402" d="M184 66v1271q0 44 20.5 67t71.5 23h7q65 0 92 -59l327 -733l326 733q27 59 94 59h6q51 0 71 -22.5t20 -67.5v-1271q0 -36 -23 -56t-55 -20t-55 20t-23 56v1001l-270 -621q-22 -53 -86 -53q-65 0 -89 53l-278 621v-1001q0 -36 -23 -56t-55 -20t-55 20t-23 56z" />
<glyph unicode="N" d="M184 66v1282q0 39 26.5 59t65.5 20t63 -13t42 -52l444 -1014v1002q0 36 24 56.5t56 20.5q31 0 53.5 -20.5t22.5 -56.5v-1270q0 -90 -88 -90q-17 0 -26.5 1t-26 6.5t-30 20.5t-24.5 39l-446 1010v-1001q0 -36 -23 -56t-55 -20t-55 20t-23 56z" />
<glyph unicode="O" horiz-adv-x="1103" d="M154 377v663q0 160 114 273.5t275 113.5h20q160 0 273.5 -113.5t113.5 -273.5v-663q0 -162 -113.5 -274.5t-273.5 -112.5h-20q-162 0 -275.5 112.5t-113.5 274.5zM309 377q0 -97 68.5 -165.5t165.5 -68.5h20q97 0 164.5 68.5t67.5 165.5v661q0 97 -67.5 165.5 t-164.5 68.5h-20q-96 0 -165 -69t-69 -163v-663z" />
<glyph unicode="P" horiz-adv-x="1032" d="M184 66v1271q0 31 23.5 54.5t54.5 23.5h330q162 0 275.5 -112t113.5 -273t-114 -275t-275 -114h-252v-575q0 -36 -23 -56t-55 -20t-55 20t-23 56zM340 797h252q97 0 165 68t68 165q0 94 -68.5 162t-164.5 68h-252v-463z" />
<glyph unicode="Q" horiz-adv-x="1103" d="M154 377v663q0 160 114 273.5t275 113.5h20q160 0 273.5 -113.5t113.5 -273.5v-663q0 -122 -65 -217l37 -39q24 -24 24 -53q0 -32 -23 -55t-57 -23q-33 0 -55 22l-37 37q-95 -59 -211 -59h-20q-162 0 -275.5 112.5t-113.5 274.5zM309 377q0 -97 68.5 -165.5t165.5 -68.5 h20q45 0 99 23l-33 31q-25 28 -25 55q0 31 24.5 55.5t55.5 24.5q30 0 55 -25l33 -33q2 3 6.5 11.5t5.5 11t4 9.5t3.5 12t1.5 14t1.5 19.5t0.5 25.5v661q0 97 -67.5 165.5t-164.5 68.5h-20q-96 0 -165 -69t-69 -163v-663z" />
<glyph unicode="R" horiz-adv-x="1097" d="M184 66v1271q0 31 23.5 54.5t54.5 23.5h344q161 0 275 -114t114 -275v-18q0 -134 -77.5 -237t-202.5 -140l254 -531q8 -13 8 -34q0 -33 -23 -54.5t-59 -21.5q-47 0 -68 43l-278 585h-209v-552q0 -36 -23 -56t-55 -20t-55 20t-23 56zM340 774h274q96 0 161 68t65 166v18 q0 97 -68.5 165.5t-165.5 68.5h-266v-486z" />
<glyph unicode="S" horiz-adv-x="1019" d="M102 367q0 36 23 55.5t55 19.5t55 -19t23 -58q0 -104 73 -163t179 -59h20q232 0 232 228q0 31 -6.5 58t-13.5 47t-25.5 41t-29 32.5t-38.5 30t-39.5 25t-46.5 25.5t-45 25q-32 18 -83 44t-82 43t-72 42.5t-65.5 51.5t-48 61.5t-34 80t-10.5 99.5q0 149 111.5 249.5 t273.5 100.5h20q151 0 262 -94.5t111 -232.5q0 -36 -21.5 -56t-52.5 -20t-54.5 19.5t-27.5 54.5q-8 76 -68.5 125t-152.5 49h-18q-60 0 -106 -20t-70.5 -51t-36.5 -62.5t-12 -61.5q0 -27 6 -51.5t14.5 -43t26 -36.5t30 -29.5t37.5 -27t38.5 -23t43 -22t41.5 -21.5 q24 -13 67 -35.5t66.5 -35t60.5 -34t58 -39t48 -42.5t42.5 -51.5t30 -59.5t21 -72t6.5 -85q0 -178 -103.5 -278.5t-288.5 -100.5h-18q-80 0 -152.5 24.5t-129.5 70.5t-90.5 119t-33.5 163z" />
<glyph unicode="T" horiz-adv-x="823" d="M31 1337q0 31 21 54.5t57 23.5h606q36 0 57 -23.5t21 -54.5t-21 -54t-57 -23h-226v-1194q0 -36 -22.5 -56t-54.5 -20t-55 20t-23 56v1194h-225q-36 0 -57 23t-21 54z" />
<glyph unicode="U" d="M184 377v973q0 36 23 56.5t55 20.5t55 -20.5t23 -56.5v-973q0 -97 68 -165.5t165 -68.5h21q96 0 163.5 68.5t67.5 165.5v973q0 36 23 56.5t55 20.5t55 -20.5t23 -56.5v-973q0 -162 -113.5 -274.5t-273.5 -112.5h-21q-162 0 -275.5 112.5t-113.5 274.5z" />
<glyph unicode="V" horiz-adv-x="976" d="M82 1352q0 32 22.5 53.5t57.5 21.5q26 0 46.5 -15t27.5 -44l251 -1071l252 1071q7 29 28 44t46 15q35 0 58.5 -21.5t23.5 -53.5q0 -1 -4 -21l-320 -1282q-7 -29 -30 -44t-54 -15q-28 0 -51 15t-30 44l-322 1282q-2 6 -2 21z" />
<glyph unicode="W" horiz-adv-x="1585" d="M84 1333q-2 10 -2 20q0 27 16 47q22 28 64 27q60 0 74 -61l221 -1030l241 1036q13 55 78 55h33q65 0 78 -55l241 -1036l222 1030q6 30 26 45.5t47 15.5q41 1 63 -27q17 -20 17 -47q0 -9 -2 -20l-274 -1284q-5 -26 -24 -42.5t-52 -16.5h-37q-30 0 -50.5 17.5t-25.5 39.5 l-245 1051l-246 -1051q-5 -25 -25 -41t-51 -16h-37q-31 0 -51 17t-25 42z" />
<glyph unicode="X" horiz-adv-x="1021" d="M111 100l313 631l-289 584q-9 19 -9 37q0 20 12 40q22 36 69 35q48 0 67 -43l238 -479l238 479q19 43 67 43q47 1 69 -35q12 -19 12 -40q0 -18 -9 -37l-291 -584l313 -631q10 -20 10 -38q0 -20 -12 -38q-22 -34 -69 -34t-68 41l-260 524l-262 -524q-19 -41 -66 -41 t-70 34q-12 18 -12 39q0 18 9 37z" />
<glyph unicode="Y" horiz-adv-x="974" d="M88 1319q-7 17 -7 33q0 22 14 42q24 33 69 33q47 0 67 -49l256 -614l256 614q20 49 70 49q45 0 68 -33q13 -20 13 -42q0 -16 -7 -33l-322 -772v-481q0 -36 -23 -56t-55 -20t-54.5 20t-22.5 56v481z" />
<glyph unicode="Z" horiz-adv-x="950" d="M82 98q0 28 12 49l580 1113h-486q-39 0 -58 22.5t-19 54.5q0 33 19.5 55.5t57.5 22.5h586q56 -1 82 -45q12 -21 13 -44q0 -26 -15 -54l-582 -1116h516q36 0 57 -23.5t21 -54.5t-21 -54.5t-57 -23.5h-616q-41 0 -65.5 29t-24.5 69z" />
<glyph unicode="[" horiz-adv-x="645" d="M225 -162v1512q0 31 23.5 54t54.5 23h162q36 0 57 -23t21 -54t-21 -54.5t-57 -23.5h-84v-1356h84q36 0 57 -23.5t21 -54.5t-21 -54.5t-57 -23.5h-162q-31 0 -54.5 23.5t-23.5 54.5z" />
<glyph unicode="\" horiz-adv-x="831" d="M25 1489q0 32 22.5 55t58.5 23q50 0 70 -49l668 -1645q6 -15 6 -33q0 -32 -23 -54t-59 -22q-47 0 -68 50l-669 1642q-6 14 -6 33z" />
<glyph unicode="]" horiz-adv-x="645" d="M102 -162q0 31 21 54.5t57 23.5h84v1356h-84q-36 0 -57 23.5t-21 54.5t21 54t57 23h162q31 0 54.5 -23t23.5 -54v-1512q0 -31 -23.5 -54.5t-54.5 -23.5h-162q-36 0 -57 23.5t-21 54.5z" />
<glyph unicode="^" horiz-adv-x="1011" d="M0 891q0 30 18 51l396 459q23 26 75 26q40 0 68 -22l432 -461q23 -23 23 -53q0 -34 -24 -56t-56 -22q-30 0 -55 25l-388 411l-354 -409q-24 -27 -57 -27q-31 0 -54.5 22t-23.5 56z" />
<glyph unicode="_" horiz-adv-x="1013" d="M92 78q0 31 21 54.5t57 23.5h674q36 0 57 -23.5t21 -54.5t-21 -54.5t-57 -23.5h-674q-36 0 -57 23.5t-21 54.5z" />
<glyph unicode="`" horiz-adv-x="929" d="M252 1286q0 30 22.5 55t53.5 25q18 0 37 -8l301 -146q45 -22 45 -67q0 -32 -21.5 -57t-54.5 -25q-9 0 -37 8l-301 148q-45 20 -45 67z" />
<glyph unicode="a" horiz-adv-x="972" d="M102 283v24q0 77 35 132.5t88 83.5t117.5 47.5t121 27t101.5 19t56 26.5q6 8 6 35q0 87 -46 126.5t-120 39.5h-15q-60 0 -97 -24.5t-68 -78.5q-21 -41 -70 -41q-31 0 -54.5 20.5t-23.5 51.5q0 24 8 37q31 69 85 113.5t108 60.5t112 16h15q136 0 228.5 -92t92.5 -223v-475 q0 -59 54 -68q33 -6 49 -26t16 -47q0 -32 -20.5 -55t-55.5 -23q-12 0 -14 2q-94 13 -139 78q-93 -80 -221 -80h-19q-85 0 -158.5 32t-122.5 100.5t-49 160.5zM258 287q0 -66 48 -105t126 -39h19q73 0 124.5 50.5t51.5 123.5v162q-30 -7 -79.5 -16t-84.5 -15t-76.5 -18.5 t-67.5 -27.5t-43.5 -40.5t-17.5 -58.5v-16z" />
<glyph unicode="b" horiz-adv-x="997" d="M184 61v1289q0 36 23 56.5t55 20.5t55 -20.5t23 -56.5v-418q26 32 74.5 49.5t103.5 17.5h14q139 0 235.5 -96t96.5 -233v-353q0 -137 -98 -232t-234 -95h-18q-117 0 -176 59q-4 -29 -25.5 -44t-50.5 -15q-32 0 -55 18t-23 53zM340 305q0 -73 51 -117.5t123 -44.5h18 q73 0 125 51t52 123v353q0 72 -52 123t-125 51h-18q-71 0 -122.5 -44t-51.5 -114v-381z" />
<glyph unicode="c" horiz-adv-x="915" d="M133 317v353q0 138 97 233.5t233 95.5h20q135 0 232.5 -96.5t97.5 -232.5q0 -36 -23.5 -57t-54.5 -21t-54 20t-24 56q-4 78 -53 127t-121 49h-20q-72 0 -123 -51t-51 -123v-353q0 -72 51.5 -123t124.5 -51h18q71 0 120 50.5t54 123.5q1 39 23.5 59.5t54.5 20.5t55 -20.5 t23 -59.5q0 -137 -96.5 -232t-233.5 -95h-20q-137 0 -233.5 95t-96.5 232z" />
<glyph unicode="d" horiz-adv-x="995" d="M131 317v353q0 137 96.5 233t235.5 96h14q55 0 103.5 -17.5t74.5 -49.5v418q0 36 23 56.5t55 20.5t55 -20.5t23 -56.5v-1289q0 -35 -23 -53t-55 -18q-29 0 -50.5 15t-25.5 44q-59 -59 -176 -59h-18q-140 0 -236 94.5t-96 232.5zM287 317q0 -72 51 -123t123 -51h20 q72 0 123 44.5t51 117.5v381q0 70 -51.5 114t-122.5 44h-18q-73 0 -124.5 -51t-51.5 -123v-353z" />
<glyph unicode="e" horiz-adv-x="923" d="M131 317v353q0 136 96.5 232.5t233.5 96.5h20q138 0 234 -95t96 -236v-168q0 -31 -23 -54.5t-55 -23.5h-446v-105q0 -72 51 -123t123 -51h20q57 0 97.5 29t62.5 76q20 49 68 49q32 0 55.5 -23t23.5 -57q0 -22 -8 -35q-37 -88 -116.5 -140t-182.5 -52h-20 q-137 0 -233.5 95t-96.5 232zM287 567h368v101q0 74 -51.5 125t-120.5 51h-20q-73 0 -124.5 -50.5t-51.5 -123.5v-103z" />
<glyph unicode="f" horiz-adv-x="608" d="M92 915q0 31 21 54.5t57 23.5h45v164q0 117 75 193.5t189 76.5q36 0 57 -23t21 -54t-21 -54.5t-57 -23.5q-48 0 -78 -33t-30 -82v-164h96q39 0 58.5 -23t19.5 -55q0 -31 -21 -54t-57 -23h-96v-772q0 -36 -23 -56t-55 -20t-55 20t-23 56v772h-45q-36 0 -57 23t-21 54z" />
<glyph unicode="g" horiz-adv-x="974" d="M123 -188q0 34 23.5 53.5t56.5 19.5q52 0 71 -53q19 -52 72.5 -84.5t126.5 -32.5h19q72 0 123 51.5t51 124.5v158q-25 -28 -74 -43.5t-105 -15.5h-14q-136 0 -234 95t-98 232v353q0 136 98 232.5t234 96.5h19q115 0 176 -61q4 29 25.5 45t49.5 16q32 0 55 -19.5t23 -55.5 v-1033q0 -139 -96 -235t-233 -96h-19q-73 0 -142 23.5t-126.5 76.5t-77.5 125q-4 20 -4 27zM297 317q0 -73 51.5 -123.5t124.5 -50.5h19q71 0 122.5 44t51.5 114v381q0 73 -51 117.5t-123 44.5h-19q-73 0 -124.5 -50.5t-51.5 -123.5v-353z" />
<glyph unicode="h" horiz-adv-x="987" d="M184 66v1284q0 36 23 56.5t55 20.5t55 -20.5t23 -56.5v-412q26 29 74.5 45t103.5 16h17q137 0 233 -96.5t96 -232.5v-604q0 -36 -23 -56t-55 -20t-54.5 20t-22.5 56v604q0 85 -54 129.5t-129 44.5q-74 0 -130 -44.5t-56 -119.5v-614q0 -36 -23 -56t-55 -20t-55 20t-23 56 z" />
<glyph unicode="i" horiz-adv-x="503" d="M174 66v856q0 36 23 56.5t55 20.5t55 -20.5t23 -56.5v-856q0 -36 -23 -56t-55 -20t-55 20t-23 56zM174 1305v45q0 36 23 56.5t55 20.5t55 -20.5t23 -56.5v-45q0 -36 -23.5 -57t-54.5 -21t-54.5 21t-23.5 57z" />
<glyph unicode="j" horiz-adv-x="499" d="M10 -362q0 31 21 54t57 23q82 0 82 95v1112q0 36 23 56.5t55 20.5t55 -20.5t23 -56.5v-1123q0 -134 -58 -186.5t-180 -52.5q-36 0 -57 23.5t-21 54.5zM170 1305v45q0 36 23 56.5t55 20.5t55 -20.5t23 -56.5v-45q0 -36 -23.5 -57t-54.5 -21t-54.5 21t-23.5 57z" />
<glyph unicode="k" horiz-adv-x="950" d="M184 66v1284q0 36 23 56.5t55 20.5t55 -20.5t23 -56.5v-791l389 414q23 26 55 26q34 0 57 -23.5t23 -55.5t-22 -54l-254 -270l280 -492q11 -19 11 -38q0 -31 -22.5 -53.5t-57.5 -22.5q-46 0 -66 39l-256 448l-137 -147v-264q0 -36 -23 -56t-55 -20t-55 20t-23 56z" />
<glyph unicode="l" horiz-adv-x="602" d="M174 258v1092q0 36 23 56.5t55 20.5t55 -20.5t23 -56.5v-1092q0 -47 32.5 -80t79.5 -35q39 0 58.5 -22.5t19.5 -54.5t-19.5 -54t-58.5 -22q-112 0 -190 78t-78 190z" />
<glyph unicode="m" horiz-adv-x="1492" d="M154 66v856q0 35 23.5 56t55.5 21q27 0 48.5 -16t27.5 -45q61 61 176 61h19q152 0 254 -116q102 116 254 116h18q67 0 125.5 -20t104.5 -59t73 -102.5t27 -145.5v-606q0 -36 -23 -56t-55 -20t-55 20t-23 56v606q0 84 -47 128t-127 44h-18q-74 0 -125 -50.5t-51 -125.5 v-598q0 -39 -23 -59.5t-55 -20.5t-55 20.5t-23 59.5v598q0 77 -50.5 126.5t-125.5 49.5h-19q-72 0 -124 -44t-52 -114v-620q0 -36 -23 -56t-55 -20t-54.5 20t-22.5 56z" />
<glyph unicode="n" horiz-adv-x="966" d="M154 66v856q0 35 23.5 56t55.5 21q28 0 50 -16t28 -45q61 61 176 61h19q140 0 234 -84.5t94 -244.5v-604q0 -36 -22 -56t-54 -20t-55 20t-23 56v604q0 72 -51.5 123t-124.5 51h-19q-73 0 -124.5 -50.5t-51.5 -123.5v-604q0 -36 -23 -56t-55 -20t-54.5 20t-22.5 56z" />
<glyph unicode="o" horiz-adv-x="942" d="M131 317v353q0 136 96.5 232.5t233.5 96.5h20q137 0 233.5 -96.5t96.5 -232.5v-353q0 -137 -96.5 -232t-233.5 -95h-20q-137 0 -233.5 95t-96.5 232zM287 317q0 -72 51.5 -123t124.5 -51h18q72 0 123 51t51 123v353q0 72 -51 123t-123 51h-20q-72 0 -123 -51t-51 -123 v-353z" />
<glyph unicode="p" horiz-adv-x="995" d="M184 -362v1286q0 36 23 55.5t55 19.5q28 0 50 -16t26 -45q25 25 72.5 43t103.5 18h18q136 0 234 -96.5t98 -232.5v-353q0 -138 -96 -232.5t-236 -94.5h-14q-125 0 -178 59v-411q0 -36 -23.5 -57t-54.5 -21t-54.5 21t-23.5 57zM340 301q0 -70 51.5 -114t122.5 -44h18 q73 0 125 51t52 123v353q0 72 -52 123t-125 51h-18q-72 0 -123 -44.5t-51 -117.5v-381z" />
<glyph unicode="q" horiz-adv-x="995" d="M131 317v353q0 137 96.5 233t235.5 96h18q54 0 102.5 -18t73.5 -43q4 29 26 45t50 16q32 0 55 -19.5t23 -55.5v-1286q0 -36 -23.5 -57t-54.5 -21t-54.5 21t-23.5 57v411q-53 -59 -178 -59h-16q-137 0 -233.5 95t-96.5 232zM287 317q0 -72 51.5 -123t124.5 -51h18 q71 0 122.5 44t51.5 114v381q0 73 -51 117.5t-123 44.5h-20q-72 0 -123 -51t-51 -123v-353z" />
<glyph unicode="r" horiz-adv-x="710" d="M143 70v852q0 35 24.5 56t55.5 21q49 0 68 -41q5 5 14.5 11.5t47.5 18t85 11.5q145 0 213 -100q19 -29 19 -53q0 -32 -22.5 -53t-53.5 -21q-35 0 -64 29q-43 43 -94 43q-44 0 -73 -11.5t-42 -33t-17.5 -42.5t-4.5 -50v-637q0 -39 -23 -59.5t-55 -20.5t-55 20.5t-23 59.5z " />
<glyph unicode="s" horiz-adv-x="911" d="M92 231q0 34 24 55t56 21q47 0 70 -35q40 -54 100 -91.5t115 -37.5h10q89 -1 142 41q55 43 55 101q0 45 -21 77q-22 34 -59.5 50.5t-85.5 30.5t-98.5 23t-98.5 28.5t-86 46t-61 77t-23 119.5q0 47 16 87.5t43 68t60.5 49t72 33.5t74.5 18t70 6h8q92 0 161 -28.5 t107 -59.5q29 -23 29 -59q0 -30 -21 -52t-53 -22q-19 0 -45 13q-3 1 -21.5 11.5t-24.5 13.5t-24.5 10.5t-32 10.5t-34.5 6t-43 3h-8q-82 0 -129 -32t-49 -79q-1 -35 16 -60t47.5 -39t70.5 -24.5t84.5 -21t89 -22.5t85 -34t71.5 -53t49.5 -81t18.5 -115v-9 q0 -91 -53.5 -157.5t-132.5 -97.5t-168 -31h-12q-103 0 -203 55.5t-148 147.5q-10 23 -10 38z" />
<glyph unicode="t" horiz-adv-x="659" d="M82 915q0 31 21 54.5t57 23.5h71v357q0 36 23 56.5t55 20.5t55 -20.5t23 -56.5v-357h111q36 0 56.5 -23t20.5 -55q0 -31 -20.5 -54t-56.5 -23h-111v-578q0 -52 34.5 -83t84.5 -34q35 -3 53.5 -24.5t18.5 -52.5q0 -32 -19.5 -54t-58.5 -22q-113 0 -191 78t-78 190v580h-71 q-36 0 -57 23t-21 54z" />
<glyph unicode="u" horiz-adv-x="960" d="M135 317v605q0 36 23 56.5t55 20.5t55 -20.5t23 -56.5v-605q0 -72 51 -123t123 -51h18q73 0 124.5 51t51.5 123v605q0 36 23 56.5t55 20.5t55 -20.5t23 -56.5v-856q0 -35 -23.5 -55.5t-54.5 -20.5q-28 0 -50 15t-28 44q-59 -59 -176 -59h-18q-142 0 -236 83t-94 244z" />
<glyph unicode="v" horiz-adv-x="899" d="M82 924q0 31 22.5 53t57.5 22q55 0 71 -53l216 -659l215 659q16 53 71 53q35 0 58.5 -22t23.5 -53q0 -15 -6 -27l-279 -856q-8 -24 -30 -37.5t-43 -13.5h-19q-59 0 -75 51l-279 856q-4 20 -4 27z" />
<glyph unicode="w" horiz-adv-x="1372" d="M82 924q0 32 22.5 53.5t57.5 21.5q57 0 74 -57l176 -623l184 625q15 55 88 55h2q44 0 62.5 -14t25.5 -41l187 -627l178 625q17 57 71 57q35 0 57.5 -21.5t22.5 -53.5q0 -17 -2 -23l-241 -856q-7 -23 -26.5 -39t-49.5 -16h-17q-28 0 -49 17.5t-28 39.5q-16 58 -65.5 241 t-85.5 313.5t-42 143.5l-188 -698q-7 -22 -28 -39.5t-48 -17.5h-19q-30 0 -49 16t-26 39l-240 856q-4 16 -4 23z" />
<glyph unicode="x" horiz-adv-x="892" d="M92 66q0 22 12 40l250 402l-231 371q-12 21 -12 43q0 31 23.5 54t58.5 23q42 0 63 -36l190 -308l191 308q20 36 63 36q34 0 57 -22.5t23 -54.5q0 -22 -12 -43l-229 -371l247 -402q15 -15 15 -40q0 -31 -23.5 -53.5t-58.5 -22.5q-43 0 -64 35l-209 335l-208 -335 q-21 -35 -64 -35q-35 0 -58.5 22.5t-23.5 53.5z" />
<glyph unicode="y" horiz-adv-x="845" d="M72 -360q0 28 17 49.5t50 25.5q46 7 81.5 46t64.5 130l71 224l-272 782q-4 8 -4 12v15q0 31 22.5 53t57.5 22q52 0 71 -53l203 -584l187 584q16 53 71 53q35 0 58.5 -22t23.5 -53q0 -7 -4 -27l-338 -1053q-38 -120 -102 -192t-170 -90q-2 -2 -13 -2q-32 0 -53.5 22.5 t-21.5 57.5z" />
<glyph unicode="z" horiz-adv-x="851" d="M90 56q-8 21 -9 41q0 34 23 67l455 667h-385q-36 0 -57 23.5t-21 54.5t21 54.5t57 23.5h500q62 -1 84 -53q9 -20 9 -40q0 -32 -22 -65l-456 -673h403q36 0 57 -23.5t21 -54.5t-21 -54.5t-57 -23.5h-522q-58 0 -80 56z" />
<glyph unicode="{" horiz-adv-x="813" d="M205 707q0 28 12.5 47t40.5 43q76 68 76 137v303q0 87 17.5 141.5t58.5 98.5q36 39 87 56t136 17q39 0 58.5 -22.5t19.5 -54.5t-19.5 -55t-58.5 -23q-78 0 -111 -38.5t-33 -139.5v-289q0 -114 -116 -221q39 -36 58.5 -57.5t38.5 -60t19 -79.5v-385q0 -103 34 -143.5 t110 -40.5q39 0 58.5 -23t19.5 -55t-19.5 -55t-58.5 -23q-87 0 -136 19t-87 59q-44 44 -60 97.5t-16 152.5v391q0 14 -6 28t-22 33t-21.5 24.5l-26.5 26.5q-24 24 -32.5 33.5t-14.5 24t-6 33.5z" />
<glyph unicode="|" horiz-adv-x="708" d="M276 -242v1737q0 36 23.5 57t54.5 21t54.5 -21t23.5 -57v-1737q0 -36 -23 -56.5t-55 -20.5t-55 20.5t-23 56.5z" />
<glyph unicode="}" horiz-adv-x="813" d="M102 -137q0 32 19.5 55t58.5 23q76 0 110 40.5t34 143.5v385q0 41 19 79.5t38.5 60t58.5 57.5q-116 107 -116 221v289q0 101 -33 139.5t-111 38.5q-39 0 -58.5 23t-19.5 55t19.5 54.5t58.5 22.5q85 0 136 -17t87 -56q41 -44 58.5 -98.5t17.5 -141.5v-303q0 -69 76 -137 q28 -24 40.5 -43t12.5 -47q0 -27 -10 -42.5t-43 -48.5q-56 -56 -68 -82q-8 -16 -8 -30v-391q0 -99 -16 -152.5t-60 -97.5q-38 -40 -87 -59t-136 -19q-39 0 -58.5 23t-19.5 55z" />
<glyph unicode="~" horiz-adv-x="942" d="M154 532q0 30 18 48q34 37 70.5 54t95.5 17q60 0 139 -26.5t103 -26.5q22 0 41.5 7.5t35 18t17.5 11.5q20 14 43 14q30 0 50.5 -22t20.5 -52q0 -32 -26 -55q-51 -41 -84.5 -53t-99.5 -12q-58 0 -132.5 26.5t-97.5 26.5q-41 0 -72 -29q-22 -22 -49 -22q-29 0 -51 23 t-22 52z" />
<glyph unicode="&#xa1;" horiz-adv-x="524" d="M184 66v981q0 36 23 56.5t55 20.5t55 -20.5t23 -56.5v-981q0 -36 -23 -56t-55 -20t-55 20t-23 56zM184 1305v45q0 36 23 56.5t55 20.5t55 -20.5t23 -56.5v-45q0 -36 -23.5 -57t-54.5 -21t-54.5 21t-23.5 57z" />
<glyph unicode="&#xa2;" horiz-adv-x="915" d="M133 317v353q0 119 74.5 208.5t189.5 114.5v84q0 36 23.5 57t54.5 21t54.5 -21t23.5 -57v-86q114 -25 187 -113.5t73 -207.5q0 -36 -23.5 -57t-54.5 -21t-54.5 21t-23.5 57q0 72 -51 123t-123 51h-20q-72 0 -123 -51t-51 -123v-353q0 -72 51 -123t123 -51h20q72 0 123 51 t51 123q0 39 23 58.5t55 19.5t55 -19.5t23 -58.5q0 -117 -73.5 -209.5t-186.5 -117.5v-78q0 -36 -23.5 -57t-54.5 -21t-54.5 21t-23.5 57v78q-114 25 -189 117t-75 210z" />
<glyph unicode="&#xa3;" horiz-adv-x="1058" d="M41 700q0 31 21 54.5t57 23.5h90q-30 76 -42 109t-27 89t-15 95v29q0 135 93 231t243 96h14q124 0 230.5 -82t123.5 -206v-9q0 -34 -24.5 -55.5t-56.5 -21.5q-26 0 -46.5 16.5t-27.5 50.5q-12 61 -64.5 106.5t-134.5 45.5h-14q-85 0 -132.5 -46.5t-47.5 -125.5v-27 q0 -14 1.5 -28.5t3 -26.5t6 -28.5t7 -27t9 -29.5t10 -28t12 -31t12 -30t14 -33.5t13.5 -32.5h206q39 0 58.5 -23t19.5 -55t-19.5 -54.5t-58.5 -22.5h-143q57 -152 57 -261q0 -112 -61 -206h268q18 0 33 1t46 7.5t52.5 18t38.5 36.5t17 60q0 39 22.5 58t55.5 19 q32 0 54.5 -19t22.5 -58q0 -72 -30 -127.5t-80.5 -87.5t-110.5 -48t-127 -16h-495q-39 0 -60.5 20.5t-21.5 51.5q0 27 18 50.5t51 33.5q148 45 148 202q0 15 -1 30t-4 32t-5 29.5t-7.5 32t-8 29.5t-9.5 31.5t-9 27t-9.5 28.5t-8.5 25h-149q-36 0 -57 23t-21 54z" />
<glyph unicode="&#xa4;" horiz-adv-x="1204" d="M100 252v508q0 83 54 137.5t137 54.5q63 0 112 -34v145q0 83 54 137.5t137 54.5t136.5 -54.5t53.5 -137.5v-127h129q83 0 137 -54.5t54 -136.5q0 -83 -54 -137.5t-137 -54.5h-147q35 -47 35 -111q0 -83 -54 -136.5t-137 -53.5h-510zM438 588h475q69 0 112.5 44t43.5 113 t-43.5 112.5t-112.5 43.5h-161v162q0 69 -44.5 113.5t-113.5 44.5t-112.5 -44.5t-43.5 -113.5v-475z" />
<glyph unicode="&#xa5;" horiz-adv-x="1017" d="M102 1352q0 31 23 53t59 22q48 0 68 -49l256 -614l256 614q20 49 70 49q35 0 58 -22t23 -53q0 -20 -8 -33l-282 -680h112q39 0 58.5 -23t19.5 -55t-19.5 -55t-58.5 -23h-151v-59h151q36 0 57 -23.5t21 -54.5t-21 -54.5t-57 -23.5h-151v-202q0 -36 -23 -56t-55 -20t-55 20 t-23 56v202h-137q-36 0 -57 23.5t-21 54.5t21 54.5t57 23.5h137v59h-135q-36 0 -57 23.5t-21 54.5t21 54.5t57 23.5h96l-282 680q-7 17 -7 33z" />
<glyph unicode="&#xa6;" horiz-adv-x="524" d="M184 66v444q0 36 23.5 57t54.5 21t54.5 -21t23.5 -57v-444q0 -36 -23 -56t-55 -20t-55 20t-23 56zM184 905v445q0 36 23 56.5t55 20.5t55 -20.5t23 -56.5v-445q0 -36 -23.5 -57t-54.5 -21t-54.5 21t-23.5 57z" />
<glyph unicode="&#xa7;" horiz-adv-x="993" d="M143 606q0 98 60 176q43 56 125 90q-70 62 -98.5 116t-28.5 145q0 55 17 105t51.5 93.5t95 69.5t139.5 26q129 0 208 -72t79 -190q0 -36 -23.5 -57t-54.5 -21t-54.5 21t-23.5 57q0 50 -37.5 78.5t-101.5 28.5q-140 0 -140 -148q0 -28 5.5 -50t10.5 -35.5t27.5 -36t35 -33 t54.5 -45.5l263 -213q98 -78 98 -203q0 -91 -55.5 -167t-141.5 -101q79 -69 119.5 -134t40.5 -153q0 -75 -28.5 -134.5t-75.5 -96t-105.5 -55.5t-122.5 -19q-130 0 -226.5 73.5t-96.5 198.5q0 36 22 57t53 21q32 0 56 -21t24 -57q1 -53 51 -85t119 -32q72 0 123 38t51 112 q0 43 -25.5 88.5t-68.5 81.5l-325 280q-95 83 -95 203zM295 612q0 -51 39 -84l213 -176q69 17 110 66q33 39 33 88q0 55 -41 88l-209 172q-6 0 -17 -2.5t-41 -20.5t-54 -49q-33 -39 -33 -82z" />
<glyph unicode="&#xa8;" horiz-adv-x="942" d="M211 1186v57q0 37 24 58.5t56 21.5q33 0 56.5 -21t23.5 -59v-57q0 -39 -23.5 -59.5t-56.5 -20.5q-32 0 -56 20.5t-24 59.5zM571 1186v57q0 38 23.5 59t56.5 21q32 0 56 -21.5t24 -58.5v-57q0 -39 -24 -59.5t-56 -20.5q-33 0 -56.5 20.5t-23.5 59.5z" />
<glyph unicode="&#xa9;" horiz-adv-x="1804" d="M143 668q0 155 60 295.5t161.5 242t242 161.5t294.5 60q155 0 296 -60t242.5 -161.5t161.5 -242t60 -295.5q0 -154 -60 -294t-161.5 -241t-242.5 -161t-296 -60q-154 0 -294.5 60t-242 161t-161.5 241t-60 294zM287 668q0 -166 82.5 -308t224 -224.5t307.5 -82.5 q168 0 310 82.5t224.5 224.5t82.5 308q0 167 -82.5 309t-224.5 224.5t-310 82.5q-166 0 -307.5 -82.5t-224 -224.5t-82.5 -309zM633 461v409q0 110 76.5 184t187.5 74h12q99 0 174.5 -63t87.5 -158v-12q0 -31 -20.5 -48.5t-48.5 -17.5q-26 0 -46 15t-24 43q-6 44 -41 74 t-82 30h-12q-51 0 -87 -35t-36 -86v-409q0 -51 36 -87t87 -36h12q47 0 82 30t41 74q4 30 23.5 45t46.5 15q28 0 50 -18.5t22 -47.5v-6q-3 -3 -3 -8q-12 -92 -88 -156.5t-174 -64.5h-12q-110 0 -187 77t-77 183z" />
<glyph unicode="&#xaa;" horiz-adv-x="686" d="M92 999v2q0 44 16.5 77t41.5 50.5t60 30.5t65 18t64.5 11.5t51.5 11.5q15 6 15 31v2q0 31 -26 54.5t-61 23.5h-10q-66 0 -86 -51q-14 -35 -51 -35q-24 0 -42.5 15.5t-18.5 39.5q0 15 6 27q51 120 194 120h8q82 0 142.5 -60t60.5 -140v-285q0 -23 23 -29q24 -6 36.5 -22.5 t12.5 -36.5q0 -24 -15 -40.5t-40 -16.5q-11 0 -13 2q-57 9 -84 49q-48 -51 -129 -51h-12q-84 0 -146.5 56t-62.5 146zM209 997q0 -84 92 -84h12q39 0 66 27t27 68v82q-21 -7 -53.5 -13t-54.5 -10.5t-44 -12.5t-33.5 -22t-11.5 -35z" />
<glyph unicode="&#xab;" horiz-adv-x="1239" d="M102 532q0 47 27 74l324 324q31 31 61 31q34 0 57 -23t23 -59q0 -29 -33 -62l-285 -285l285 -284q33 -33 33 -62q0 -36 -23 -59t-57 -23q-30 0 -61 31l-324 324q-27 27 -27 73zM543 532q0 54 26 74l326 324q3 2 8 6.5t7.5 6t7 5t7 5t6.5 3.5t7.5 3t7.5 1.5t8 0.5 q37 0 60 -23q20 -22 20 -59q0 -35 -30 -62l-287 -285l287 -284q30 -27 30 -62q0 -36 -20 -59q-23 -23 -60 -23q-5 0 -9 0.5t-8.5 2.5t-7.5 3.5t-8.5 5t-7.5 5.5t-8.5 7t-9.5 7l-326 324q-26 20 -26 73z" />
<glyph unicode="&#xac;" horiz-adv-x="841" d="M102 719q0 31 21 54.5t57 23.5h441q31 0 54 -23.5t23 -54.5v-195q0 -36 -23 -57t-54 -21t-54.5 21t-23.5 57v117h-363q-36 0 -57 23.5t-21 54.5z" />
<glyph unicode="&#xad;" horiz-adv-x="874" d="M92 547q0 31 21 54.5t57 23.5h532q39 0 59.5 -23t20.5 -55q0 -33 -19 -55.5t-58 -22.5h-535q-36 0 -57 23.5t-21 54.5z" />
<glyph unicode="&#xae;" horiz-adv-x="1804" d="M143 668q0 155 60 295.5t161.5 242t242 161.5t294.5 60q155 0 296 -60t242.5 -161.5t161.5 -242t60 -295.5q0 -154 -60 -294t-161.5 -241t-242.5 -161t-296 -60q-154 0 -294.5 60t-242 161t-161.5 241t-60 294zM287 668q0 -166 82.5 -308t224 -224.5t307.5 -82.5 q168 0 310 82.5t224.5 224.5t82.5 308q0 167 -82.5 309t-224.5 224.5t-310 82.5q-166 0 -307.5 -82.5t-224 -224.5t-82.5 -309zM662 270v789q0 26 21 47.5t46 21.5h219q112 0 190.5 -77t78.5 -187v-12q0 -80 -47 -144t-128 -100l154 -307q8 -13 8 -33q0 -30 -19.5 -48.5 t-54.5 -18.5q-40 0 -59 41l-176 350h-92v-322q0 -34 -20.5 -51.5t-51.5 -17.5q-29 0 -49 18t-20 51zM803 731h143q55 0 92 35t37 88v12q0 62 -37.5 93.5t-91.5 31.5h-143v-260z" />
<glyph unicode="&#xaf;" horiz-adv-x="923" d="M180 1217q0 31 22.5 54t61.5 23h383q42 0 64 -23.5t22 -56.5t-22.5 -56t-61.5 -23h-383q-42 0 -64 23.5t-22 58.5z" />
<glyph unicode="&#xb0;" horiz-adv-x="679" d="M102 1202q0 97 70.5 167.5t167.5 70.5q98 0 168 -70.5t70 -167.5q0 -98 -70 -167.5t-168 -69.5q-97 0 -167.5 69.5t-70.5 167.5zM219 1202q0 -51 35.5 -87t85.5 -36q51 0 87 36t36 87q0 50 -36 85.5t-87 35.5q-50 0 -85.5 -35.5t-35.5 -85.5z" />
<glyph unicode="&#xb1;" horiz-adv-x="987" d="M123 641q0 31 21 54.5t57 23.5h215v215q0 36 23.5 57t54.5 21t54 -21t23 -57v-215h215q36 0 57 -23.5t21 -54.5t-21 -54.5t-57 -23.5h-215v-215q0 -36 -23 -57t-54 -21t-54.5 21t-23.5 57v215h-215q-36 0 -57 23.5t-21 54.5zM184 78q0 31 21 54.5t57 23.5h459 q39 0 58.5 -23t19.5 -55t-19.5 -55t-58.5 -23h-459q-36 0 -57 23.5t-21 54.5z" />
<glyph unicode="&#xb2;" horiz-adv-x="796" d="M154 670q0 24 12 45l278 432q21 35 21 53q0 38 -21 56t-51 18q-65 0 -65 -64q0 -36 -23 -56.5t-55 -20.5t-55 20.5t-23 56.5q0 93 60.5 155t152.5 62h18q96 0 157 -66t61 -161q0 -72 -43 -133l-230 -334h217q36 0 57 -23.5t21 -54.5t-21 -54t-57 -23h-332q-35 0 -57 27.5 t-22 64.5z" />
<glyph unicode="&#xb3;" horiz-adv-x="755" d="M154 793q0 36 23 56.5t54 20.5q32 0 55 -20.5t23 -56.5q0 -25 17.5 -42.5t42.5 -17.5h20q24 0 40.5 17.5t16.5 42.5v73q0 59 -16.5 72.5t-73.5 13.5q-39 0 -60.5 23t-21.5 55t21.5 55t60.5 23q51 0 70.5 13.5t19.5 66.5v26q0 28 -18.5 44t-44.5 16t-45 -15t-19 -42 q0 -36 -23 -57t-54 -21t-54.5 21t-23.5 57q0 100 64.5 155t154.5 55q87 0 153 -57t66 -156v-38q0 -82 -49 -146q26 -33 37.5 -63t11.5 -80v-94q0 -90 -61.5 -152.5t-151.5 -62.5h-20q-89 0 -152 63t-63 152z" />
<glyph unicode="&#xb4;" horiz-adv-x="925" d="M205 1145q0 45 45 67l301 146q19 8 37 8q31 0 53.5 -25t22.5 -55q0 -46 -46 -67l-301 -148q-28 -8 -36 -8q-33 0 -54.5 25t-21.5 57z" />
<glyph unicode="&#xb6;" horiz-adv-x="1052" d="M41 1028q0 160 114 273.5t275 113.5h361q32 0 54.5 -23.5t22.5 -54.5v-1425q0 -36 -23 -57t-54 -21t-54.5 21t-23.5 57v1348h-97v-1348q0 -36 -23 -57t-54 -21t-54.5 21t-23.5 57v727h-31q-161 0 -275 114t-114 275zM197 1028q0 -97 68 -165t165 -68h31v465h-31 q-96 0 -164.5 -69t-68.5 -163z" />
<glyph unicode="&#xb7;" horiz-adv-x="360" d="M102 709v45q0 36 23 56.5t55 20.5t55 -20.5t23 -56.5v-45q0 -36 -23.5 -57t-54.5 -21t-54.5 21t-23.5 57z" />
<glyph unicode="&#xb8;" horiz-adv-x="921" d="M287 -262q0 24 17 38.5t40 14.5q37 0 51 -41q12 -39 54 -39h20q23 0 40 16.5t17 39.5v20q0 24 -16.5 39.5t-40.5 15.5h-10q-22 0 -37.5 16.5t-15.5 39.5v147q0 27 15 41t38 14q25 0 41 -14t16 -41v-100q52 -14 86.5 -57.5t34.5 -100.5v-20q0 -70 -49 -118t-119 -48h-20 q-54 0 -97.5 31t-58.5 77q-6 15 -6 29z" />
<glyph unicode="&#xb9;" horiz-adv-x="598" d="M154 1206q0 21 20 47l121 144q15 19 29 24.5t43 5.5q32 0 54.5 -23t22.5 -54v-695q0 -36 -23 -56.5t-54 -20.5q-32 0 -55 20.5t-23 56.5v506q-26 -26 -60 -26q-31 0 -53 21t-22 50z" />
<glyph unicode="&#xba;" horiz-adv-x="616" d="M92 1008v211q0 86 61.5 147t149.5 61h10q88 0 149.5 -61t61.5 -147v-211q0 -88 -61.5 -149.5t-149.5 -61.5h-10q-88 0 -149.5 61.5t-61.5 149.5zM209 1008q0 -41 26.5 -68t67.5 -27h10q39 0 67 27t28 68v211q0 38 -28 65t-67 27h-10q-41 0 -67.5 -26.5t-26.5 -65.5v-211z " />
<glyph unicode="&#xbb;" horiz-adv-x="1239" d="M205 186q0 29 33 62l284 284l-284 285q-33 33 -33 62q0 37 20 59q26 23 60 23q5 0 9 -0.5t8.5 -2.5t7.5 -3.5t8.5 -5t7.5 -5.5t8.5 -7t9.5 -7l326 -324q26 -26 26 -74q0 -47 -26 -73l-326 -324q-3 -2 -8 -6.5t-7.5 -6t-7 -5t-7 -5t-6.5 -3.5t-7.5 -3t-7.5 -1.5t-8 -0.5 q-34 0 -60 23q-20 23 -20 59zM645 186q0 36 33 62l287 284l-287 285q-33 26 -33 62q0 33 23 59q23 23 59 23q28 0 59 -31l324 -324q27 -27 27 -74q0 -46 -27 -73l-324 -324q-31 -31 -59 -31q-36 0 -59 23q-23 26 -23 59z" />
<glyph unicode="&#xbc;" horiz-adv-x="1705" d="M154 1206q0 21 20 47l121 144q15 19 29 24.5t43 5.5q32 0 54.5 -23t22.5 -54v-695q0 -36 -23 -56.5t-54 -20.5q-32 0 -55 20.5t-23 56.5v506q-26 -26 -60 -26q-31 0 -53 21t-22 50zM317 66q0 16 15 40l770 1283q23 38 63 38q32 0 57 -21.5t25 -55.5q0 -20 -12 -41 l-770 -1282q-21 -37 -66 -37q-33 0 -57.5 21t-24.5 55zM963 252q0 25 12 49l254 492q22 45 71 45q31 0 55.5 -20.5t24.5 -51.5q0 -10 -10 -37l-205 -407h115v49q0 37 21.5 57.5t52.5 20.5t52 -20.5t21 -57.5v-49h50q36 0 55.5 -23.5t19.5 -56.5q0 -32 -19 -55t-58 -23h-48 v-98q0 -36 -21 -56t-52 -20t-52.5 20t-21.5 56v98h-238q-35 0 -57 25.5t-22 62.5z" />
<glyph unicode="&#xbd;" horiz-adv-x="1683" d="M154 1206q0 21 20 47l121 144q15 19 29 24.5t43 5.5q32 0 54.5 -23t22.5 -54v-695q0 -36 -23 -56.5t-54 -20.5q-32 0 -55 20.5t-23 56.5v506q-26 -26 -60 -26q-31 0 -53 21t-22 50zM305 66q0 18 14 40l771 1283q23 38 63 38q32 0 57 -21.5t25 -55.5q0 -20 -12 -41 l-770 -1282q-21 -37 -66 -37q-33 0 -57.5 21t-24.5 55zM1038 92q0 24 15 45l276 432q21 27 21 54q0 38 -21 55.5t-51 17.5q-28 0 -47 -15t-19 -48q0 -36 -23 -57t-54 -21t-54.5 21t-23.5 57q0 91 61.5 154t153.5 63h16q97 0 157 -64.5t60 -162.5q0 -76 -41 -134l-231 -333 h219q36 0 57 -23.5t21 -54.5q0 -32 -20.5 -55t-59.5 -23h-330q-36 0 -59 27.5t-23 64.5z" />
<glyph unicode="&#xbe;" horiz-adv-x="1718" d="M154 793q0 36 23 56.5t54 20.5q32 0 55 -20.5t23 -56.5q0 -25 17.5 -42.5t42.5 -17.5h20q24 0 40.5 17.5t16.5 42.5v73q0 59 -16.5 72.5t-73.5 13.5q-39 0 -60.5 23t-21.5 55t21.5 55t60.5 23q51 0 70.5 13.5t19.5 66.5v26q0 28 -18.5 44t-44.5 16t-45 -15t-19 -42 q0 -36 -23 -57t-54 -21t-54.5 21t-23.5 57q0 100 64.5 155t154.5 55q87 0 153 -57t66 -156v-38q0 -82 -49 -146q26 -33 37.5 -63t11.5 -80v-94q0 -90 -61.5 -152.5t-151.5 -62.5h-20q-89 0 -152 63t-63 152zM387 66q0 19 12 40l770 1283q23 38 64 38q32 0 57 -21.5t25 -55.5 q0 -20 -12 -41l-771 -1282q-21 -37 -65 -37q-32 0 -56 21t-24 55zM973 252q0 25 12 49l254 492q22 45 72 45q32 0 56 -20.5t24 -51.5q0 -8 -11 -37l-202 -407h114v49q0 36 22 57t50 21q31 0 52.5 -20.5t21.5 -57.5v-49h49q36 0 57 -23.5t21 -56.5q0 -31 -21 -54.5t-57 -23.5 h-49v-98q0 -36 -21.5 -56t-52.5 -20t-51.5 19.5t-20.5 56.5v98h-239q-35 0 -57.5 25.5t-22.5 62.5z" />
<glyph unicode="&#xbf;" horiz-adv-x="817" d="M102 317v89q0 54 32 112t77 100q17 16 47 40t45 38.5t33 37.5t25.5 50.5t7.5 63.5v145q0 39 22.5 58.5t54.5 19.5t55 -19.5t23 -58.5v-145q0 -48 -8 -86.5t-17.5 -63.5t-33.5 -53.5t-39.5 -43t-52 -46t-56.5 -49.5q-59 -59 -59 -100v-89q0 -72 51 -123t123 -51h14 q72 0 123.5 51t51.5 123v27q0 39 22.5 58.5t54.5 19.5t55 -19.5t23 -58.5v-27q0 -137 -96.5 -232t-233.5 -95h-14q-137 0 -233.5 95t-96.5 232zM369 1305v45q0 36 23 56.5t54 20.5q32 0 55 -20.5t23 -56.5v-45q0 -39 -23 -58.5t-55 -19.5t-54.5 19.5t-22.5 58.5z" />
<glyph unicode="&#xc0;" horiz-adv-x="1116" d="M61 63l5 25l399 1282q9 28 34 42.5t58 14.5q76 0 94 -57l400 -1282q4 -20 4 -25q0 -31 -22.5 -52t-57.5 -21q-58 0 -74 53l-90 295h-506l-92 -295q-16 -53 -72 -53q-35 0 -57.5 21t-22.5 52zM289 1718q0 32 22.5 57t53.5 25q8 0 36 -8l299 -152q45 -19 45 -67 q0 -30 -22 -55t-53 -25q-21 0 -37 8l-299 150q-45 20 -45 67zM354 494h408l-205 655z" />
<glyph unicode="&#xc1;" horiz-adv-x="1116" d="M61 63l5 25l399 1282q9 28 34 42.5t58 14.5q76 0 94 -57l400 -1282q4 -20 4 -25q0 -31 -22.5 -52t-57.5 -21q-58 0 -74 53l-90 295h-506l-92 -295q-16 -53 -72 -53q-35 0 -57.5 21t-22.5 52zM354 494h408l-205 655zM375 1573q0 48 45 67l299 152q28 8 37 8q31 0 53 -25 t22 -57q0 -47 -45 -67l-299 -150q-16 -8 -36 -8q-31 0 -53.5 25t-22.5 55z" />
<glyph unicode="&#xc2;" horiz-adv-x="1116" d="M61 63l5 25l399 1282q9 28 34 42.5t58 14.5q76 0 94 -57l400 -1282q4 -20 4 -25q0 -31 -22.5 -52t-57.5 -21q-58 0 -74 53l-90 295h-506l-92 -295q-16 -53 -72 -53q-35 0 -57.5 21t-22.5 52zM276 1567q0 31 29 51l191 141q31 21 65 21q33 0 64 -21l186 -141 q29 -19 29 -49t-23 -53t-53 -23q-22 0 -39 14l-164 129l-174 -129q-20 -14 -39 -14q-30 0 -51 22t-21 52zM354 494h408l-205 655z" />
<glyph unicode="&#xc3;" horiz-adv-x="1116" d="M61 63l5 25l399 1282q9 28 34 42.5t58 14.5q76 0 94 -57l400 -1282q4 -20 4 -25q0 -31 -22.5 -52t-57.5 -21q-58 0 -74 53l-90 295h-506l-92 -295q-16 -53 -72 -53q-35 0 -57.5 21t-22.5 52zM217 1612q0 20 10 37q29 43 84.5 65.5t110.5 22.5q46 0 132 -29t126 -29 q17 0 35 5t28 9.5t27 14.5t21 12q19 13 36 13q30 0 50 -19.5t20 -46.5q0 -25 -10 -37q-26 -41 -85 -61.5t-124 -20.5q-48 0 -133 29t-123 29q-21 0 -41.5 -10t-28.5 -16.5t-28 -25.5q-15 -10 -37 -10q-30 0 -50 20.5t-20 47.5zM354 494h408l-205 655z" />
<glyph unicode="&#xc4;" horiz-adv-x="1116" d="M61 63l5 25l399 1282q9 28 34 42.5t58 14.5q76 0 94 -57l400 -1282q4 -20 4 -25q0 -31 -22.5 -52t-57.5 -21q-58 0 -74 53l-90 295h-506l-92 -295q-16 -53 -72 -53q-35 0 -57.5 21t-22.5 52zM297 1593v58q0 37 24 58.5t56 21.5q33 0 56.5 -21t23.5 -59v-58 q0 -39 -23.5 -59.5t-56.5 -20.5q-32 0 -56 20.5t-24 59.5zM354 494h408l-205 655zM657 1593v58q0 38 23.5 59t56.5 21q32 0 56 -21.5t24 -58.5v-58q0 -39 -24 -59.5t-56 -20.5q-33 0 -56.5 20.5t-23.5 59.5z" />
<glyph unicode="&#xc5;" horiz-adv-x="1116" d="M61 63l5 25l399 1282q9 28 34 42.5t58 14.5q76 0 94 -57l400 -1282q4 -20 4 -25q0 -31 -22.5 -52t-57.5 -21q-58 0 -74 53l-90 295h-506l-92 -295q-16 -53 -72 -53q-35 0 -57.5 21t-22.5 52zM354 494h408l-205 655zM387 1649q0 71 50 120.5t122 49.5t121 -49.5t49 -120.5 q0 -72 -49 -122t-121 -50t-122 50t-50 122zM492 1649q0 -29 19.5 -49.5t47.5 -20.5t48 20.5t20 49.5q0 27 -20 46t-48 19t-47.5 -18.5t-19.5 -46.5z" />
<glyph unicode="&#xc6;" horiz-adv-x="1531" d="M61 61q0 2 5 27l417 1245q15 44 40 63t69 19h801q39 0 58 -22.5t19 -55.5q0 -32 -19 -54.5t-58 -22.5h-486v-455h314q36 0 56.5 -23t20.5 -55t-20.5 -55t-56.5 -23h-314v-493h486q39 0 58 -23t19 -55t-19 -55t-58 -23h-564q-31 0 -54 23.5t-23 54.5v297h-424l-113 -332 q-19 -53 -76 -53q-35 0 -56.5 20t-21.5 51zM375 530h377v730h-131z" />
<glyph unicode="&#xc7;" horiz-adv-x="1030" d="M154 377v663q0 160 114 273.5t275 113.5h20q147 0 256 -95t129 -238v-13q0 -35 -22.5 -55t-53.5 -20q-28 0 -49 16.5t-28 50.5q-18 86 -82 142.5t-150 56.5h-20q-96 0 -165 -69t-69 -163v-663q0 -97 68.5 -165.5t165.5 -68.5h20q86 0 150 56.5t82 142.5q7 33 28.5 50.5 t48.5 17.5q31 0 53.5 -20.5t22.5 -55.5v-15q-17 -129 -112.5 -221t-223.5 -104v-49q52 -18 84.5 -60t32.5 -98v-20q0 -68 -48.5 -116t-117.5 -48h-20q-57 0 -100 32t-60 86q0 3 -1 9.5t-1 9.5q0 25 18 40t43 15q43 0 54 -41q9 -35 47 -35h20q20 0 34.5 14t14.5 34v20 q0 20 -14.5 34.5t-34.5 14.5h-10q-23 0 -40 17.5t-17 42.5v96q-144 17 -243 127t-99 258z" />
<glyph unicode="&#xc8;" horiz-adv-x="1042" d="M184 78v1259q0 31 23.5 54.5t54.5 23.5h641q39 0 58.5 -23t19.5 -55t-19.5 -54.5t-58.5 -22.5h-563v-451h391q36 0 57 -23.5t21 -54.5t-21 -54.5t-57 -23.5h-391v-497h563q39 0 58.5 -23t19.5 -55t-19.5 -55t-58.5 -23h-641q-31 0 -54.5 23.5t-23.5 54.5zM344 1718 q0 32 22.5 57t53.5 25q9 0 37 -8l299 -152q45 -19 45 -67q0 -30 -22.5 -55t-53.5 -25q-21 0 -37 8l-299 150q-45 20 -45 67z" />
<glyph unicode="&#xc9;" horiz-adv-x="1042" d="M184 78v1259q0 31 23.5 54.5t54.5 23.5h641q39 0 58.5 -23t19.5 -55t-19.5 -54.5t-58.5 -22.5h-563v-451h391q36 0 57 -23.5t21 -54.5t-21 -54.5t-57 -23.5h-391v-497h563q39 0 58.5 -23t19.5 -55t-19.5 -55t-58.5 -23h-641q-31 0 -54.5 23.5t-23.5 54.5zM356 1573 q0 48 45 67l299 152q28 8 37 8q31 0 53.5 -25t22.5 -57q0 -47 -45 -67l-299 -150q-16 -8 -37 -8q-31 0 -53.5 25t-22.5 55z" />
<glyph unicode="&#xca;" horiz-adv-x="1042" d="M184 78v1259q0 31 23.5 54.5t54.5 23.5h641q39 0 58.5 -23t19.5 -55t-19.5 -54.5t-58.5 -22.5h-563v-451h391q36 0 57 -23.5t21 -54.5t-21 -54.5t-57 -23.5h-391v-497h563q39 0 58.5 -23t19.5 -55t-19.5 -55t-58.5 -23h-641q-31 0 -54.5 23.5t-23.5 54.5zM301 1567 q0 31 29 51l190 141q31 21 66 21q32 0 63 -21l187 -141q28 -19 28 -49t-23 -53t-53 -23q-21 0 -38 14l-164 129l-174 -129q-20 -14 -39 -14q-30 0 -51 22t-21 52z" />
<glyph unicode="&#xcb;" horiz-adv-x="1042" d="M184 78v1259q0 31 23.5 54.5t54.5 23.5h641q39 0 58.5 -23t19.5 -55t-19.5 -54.5t-58.5 -22.5h-563v-451h391q36 0 57 -23.5t21 -54.5t-21 -54.5t-57 -23.5h-391v-497h563q39 0 58.5 -23t19.5 -55t-19.5 -55t-58.5 -23h-641q-31 0 -54.5 23.5t-23.5 54.5zM317 1593v58 q0 37 24 58.5t56 21.5q33 0 56.5 -21t23.5 -59v-58q0 -39 -23.5 -59.5t-56.5 -20.5q-32 0 -56 20.5t-24 59.5zM678 1593v58q0 38 23.5 59t56.5 21q32 0 56 -21.5t24 -58.5v-58q0 -39 -24 -59.5t-56 -20.5q-33 0 -56.5 20.5t-23.5 59.5z" />
<glyph unicode="&#xcc;" horiz-adv-x="565" d="M14 1718q0 32 22.5 57t53.5 25q9 0 37 -8l299 -152q45 -19 45 -67q0 -30 -22.5 -55t-53.5 -25q-21 0 -37 8l-299 150q-45 20 -45 67zM205 66v1284q0 36 23 56.5t55 20.5q31 0 54 -20.5t23 -56.5v-1284q0 -36 -22.5 -56t-54.5 -20t-55 20t-23 56z" />
<glyph unicode="&#xcd;" horiz-adv-x="565" d="M78 1573q0 48 45 67l299 152q28 8 37 8q31 0 53.5 -25t22.5 -57q0 -46 -46 -67l-299 -150q-16 -8 -36 -8q-31 0 -53.5 25t-22.5 55zM205 66v1284q0 36 23 56.5t55 20.5q31 0 54 -20.5t23 -56.5v-1284q0 -36 -22.5 -56t-54.5 -20t-55 20t-23 56z" />
<glyph unicode="&#xce;" horiz-adv-x="565" d="M2 1567q0 31 29 51l190 141q31 21 66 21q31 0 63 -21l187 -141q28 -19 28 -49t-23 -53t-53 -23q-21 0 -38 14l-164 129l-174 -129q-20 -14 -39 -14q-30 0 -51 22t-21 52zM205 66v1284q0 36 23 56.5t55 20.5q31 0 54 -20.5t23 -56.5v-1284q0 -36 -22.5 -56t-54.5 -20 t-55 20t-23 56z" />
<glyph unicode="&#xcf;" horiz-adv-x="565" d="M23 1593v58q0 38 23.5 59t55.5 21q33 0 56.5 -21t23.5 -59v-58q0 -39 -23.5 -59.5t-56.5 -20.5q-32 0 -55.5 20.5t-23.5 59.5zM205 66v1284q0 36 23 56.5t55 20.5q31 0 54 -20.5t23 -56.5v-1284q0 -36 -22.5 -56t-54.5 -20t-55 20t-23 56zM383 1593v58q0 38 23.5 59 t56.5 21q32 0 56 -21.5t24 -58.5v-58q0 -39 -24 -59.5t-56 -20.5q-33 0 -56.5 20.5t-23.5 59.5z" />
<glyph unicode="&#xd0;" horiz-adv-x="1134" d="M49 780q0 31 21 54.5t57 23.5h57v479q0 31 22.5 54.5t53.5 23.5h332q161 0 275 -113.5t114 -273.5v-639q0 -161 -113.5 -275t-273.5 -114h-332q-31 0 -54.5 23.5t-23.5 54.5v624h-57q-36 0 -57 23.5t-21 54.5zM340 156h254q97 0 165 68t68 165v637q0 97 -68 165.5 t-165 68.5h-254v-402h190q36 0 57 -23.5t21 -54.5t-21 -54.5t-57 -23.5h-190v-546z" />
<glyph unicode="&#xd1;" d="M184 66v1282q0 39 26.5 59t65.5 20t63 -13t42 -52l444 -1014v1002q0 36 24 56.5t56 20.5q31 0 53.5 -20.5t22.5 -56.5v-1270q0 -90 -88 -90q-17 0 -26.5 1t-26 6.5t-30 20.5t-24.5 39l-446 1010v-1001q0 -36 -23 -56t-55 -20t-55 20t-23 56zM242 1612q0 20 10 37 q29 43 84 65.5t110 22.5q46 0 132.5 -29t126.5 -29q17 0 34.5 5t28 10t26.5 14.5t21 11.5q19 13 37 13q30 0 50 -19.5t20 -46.5q0 -23 -11 -37q-26 -41 -85 -61.5t-124 -20.5q-48 0 -133 29t-123 29q-21 0 -41.5 -10t-28.5 -16.5t-28 -25.5q-15 -10 -37 -10 q-30 0 -49.5 20.5t-19.5 47.5z" />
<glyph unicode="&#xd2;" horiz-adv-x="1103" d="M154 377v663q0 160 114 273.5t275 113.5h20q160 0 273.5 -113.5t113.5 -273.5v-663q0 -162 -113.5 -274.5t-273.5 -112.5h-20q-162 0 -275.5 112.5t-113.5 274.5zM303 1718q0 32 22.5 57t53.5 25q9 0 37 -8l299 -152q45 -19 45 -67q0 -30 -22.5 -55t-53.5 -25 q-21 0 -37 8l-299 150q-45 20 -45 67zM309 377q0 -97 68.5 -165.5t165.5 -68.5h20q97 0 164.5 68.5t67.5 165.5v661q0 97 -67.5 165.5t-164.5 68.5h-20q-96 0 -165 -69t-69 -163v-663z" />
<glyph unicode="&#xd3;" horiz-adv-x="1103" d="M154 377v663q0 160 114 273.5t275 113.5h20q160 0 273.5 -113.5t113.5 -273.5v-663q0 -162 -113.5 -274.5t-273.5 -112.5h-20q-162 0 -275.5 112.5t-113.5 274.5zM309 377q0 -97 68.5 -165.5t165.5 -68.5h20q97 0 164.5 68.5t67.5 165.5v661q0 97 -67.5 165.5 t-164.5 68.5h-20q-96 0 -165 -69t-69 -163v-663zM367 1573q0 48 45 67l299 152q28 8 37 8q31 0 53 -25t22 -57q0 -47 -45 -67l-299 -150q-16 -8 -37 -8q-31 0 -53 25t-22 55z" />
<glyph unicode="&#xd4;" horiz-adv-x="1103" d="M154 377v663q0 160 114 273.5t275 113.5h20q160 0 273.5 -113.5t113.5 -273.5v-663q0 -162 -113.5 -274.5t-273.5 -112.5h-20q-162 0 -275.5 112.5t-113.5 274.5zM270 1567q0 31 29 51l190 141q31 21 66 21q31 0 63 -21l187 -141q29 -19 29 -49t-23 -53t-53 -23 q-22 0 -39 14l-164 129l-174 -129q-20 -14 -39 -14q-30 0 -51 22t-21 52zM309 377q0 -97 68.5 -165.5t165.5 -68.5h20q97 0 164.5 68.5t67.5 165.5v661q0 97 -67.5 165.5t-164.5 68.5h-20q-96 0 -165 -69t-69 -163v-663z" />
<glyph unicode="&#xd5;" horiz-adv-x="1103" d="M154 377v663q0 160 114 273.5t275 113.5h20q160 0 273.5 -113.5t113.5 -273.5v-663q0 -162 -113.5 -274.5t-273.5 -112.5h-20q-162 0 -275.5 112.5t-113.5 274.5zM211 1612q0 20 10 37q29 43 84.5 65.5t110.5 22.5q46 0 132 -29t126 -29q17 0 34.5 5t28 10t26.5 14.5 t21 11.5q19 13 37 13q30 0 50 -19.5t20 -46.5q0 -25 -10 -37q-26 -41 -85 -61.5t-124 -20.5q-48 0 -133 29t-123 29q-21 0 -41.5 -10t-29.5 -17t-28 -25q-15 -10 -36 -10q-30 0 -50 20.5t-20 47.5zM309 377q0 -97 68.5 -165.5t165.5 -68.5h20q97 0 164.5 68.5t67.5 165.5 v661q0 97 -67.5 165.5t-164.5 68.5h-20q-96 0 -165 -69t-69 -163v-663z" />
<glyph unicode="&#xd6;" horiz-adv-x="1103" d="M154 377v663q0 160 114 273.5t275 113.5h20q160 0 273.5 -113.5t113.5 -273.5v-663q0 -162 -113.5 -274.5t-273.5 -112.5h-20q-162 0 -275.5 112.5t-113.5 274.5zM291 1593v58q0 37 24 58.5t56 21.5q33 0 56.5 -21t23.5 -59v-58q0 -39 -23.5 -59.5t-56.5 -20.5 q-32 0 -56 20.5t-24 59.5zM309 377q0 -97 68.5 -165.5t165.5 -68.5h20q97 0 164.5 68.5t67.5 165.5v661q0 97 -67.5 165.5t-164.5 68.5h-20q-96 0 -165 -69t-69 -163v-663zM651 1593v58q0 38 23.5 59t56.5 21q32 0 56 -21.5t24 -58.5v-58q0 -39 -24 -59.5t-56 -20.5 q-33 0 -56.5 20.5t-23.5 59.5z" />
<glyph unicode="&#xd7;" horiz-adv-x="1257" d="M123 68q0 31 22 53l369 373l-367 370q-24 24 -24 56t23 55.5t57 23.5q29 0 53 -24l373 -367l370 367q27 24 56 24q34 0 57 -23.5t23 -55.5q0 -31 -23 -54l-379 -372l377 -371q25 -22 25 -55q0 -32 -23 -55t-57 -23q-32 0 -54 22l-372 375l-371 -375q-22 -22 -55 -22 q-34 0 -57 23t-23 55z" />
<glyph unicode="&#xd8;" horiz-adv-x="1173" d="M154 0q0 18 10 35l76 151q-52 85 -52 191v663q0 160 114.5 273.5t275.5 113.5h20q129 0 227 -73l47 96q19 43 68 43q32 0 56 -21t24 -55q0 -24 -8 -37l-76 -149q51 -86 51 -191v-663q0 -162 -113.5 -274.5t-275.5 -112.5h-20q-133 0 -228 71l-47 -94q-19 -43 -67 -43 q-32 0 -57 22.5t-25 53.5zM344 397l410 815q-66 60 -156 60h-20q-96 0 -165 -69t-69 -163v-643zM422 203q66 -60 156 -60h20q97 0 165 68.5t68 165.5v643z" />
<glyph unicode="&#xd9;" d="M184 377v973q0 36 23 56.5t55 20.5t55 -20.5t23 -56.5v-973q0 -97 68 -165.5t165 -68.5h21q96 0 163.5 68.5t67.5 165.5v973q0 36 23 56.5t55 20.5t55 -20.5t23 -56.5v-973q0 -162 -113.5 -274.5t-273.5 -112.5h-21q-162 0 -275.5 112.5t-113.5 274.5zM334 1718 q0 32 22.5 57t53.5 25q8 0 36 -8l299 -152q46 -20 46 -67q0 -30 -22.5 -55t-53.5 -25q-21 0 -37 8l-299 150q-45 20 -45 67z" />
<glyph unicode="&#xda;" d="M184 377v973q0 36 23 56.5t55 20.5t55 -20.5t23 -56.5v-973q0 -97 68 -165.5t165 -68.5h21q96 0 163.5 68.5t67.5 165.5v973q0 36 23 56.5t55 20.5t55 -20.5t23 -56.5v-973q0 -162 -113.5 -274.5t-273.5 -112.5h-21q-162 0 -275.5 112.5t-113.5 274.5zM397 1573 q0 48 45 67l299 152q28 8 37 8q31 0 53.5 -25t22.5 -57q0 -47 -45 -67l-299 -150q-16 -8 -37 -8q-31 0 -53.5 25t-22.5 55z" />
<glyph unicode="&#xdb;" d="M184 377v973q0 36 23 56.5t55 20.5t55 -20.5t23 -56.5v-973q0 -97 68 -165.5t165 -68.5h21q96 0 163.5 68.5t67.5 165.5v973q0 36 23 56.5t55 20.5t55 -20.5t23 -56.5v-973q0 -162 -113.5 -274.5t-273.5 -112.5h-21q-162 0 -275.5 112.5t-113.5 274.5zM301 1567 q0 31 29 51l190 141q31 21 66 21q32 0 63 -21l187 -141q28 -19 28 -49t-23 -53t-53 -23q-21 0 -38 14l-164 129l-174 -129q-20 -14 -39 -14q-30 0 -51 22t-21 52z" />
<glyph unicode="&#xdc;" d="M184 377v973q0 36 23 56.5t55 20.5t55 -20.5t23 -56.5v-973q0 -97 68 -165.5t165 -68.5h21q96 0 163.5 68.5t67.5 165.5v973q0 36 23 56.5t55 20.5t55 -20.5t23 -56.5v-973q0 -162 -113.5 -274.5t-273.5 -112.5h-21q-162 0 -275.5 112.5t-113.5 274.5zM322 1593v58 q0 38 23.5 59t55.5 21q33 0 56.5 -21t23.5 -59v-58q0 -39 -23.5 -59.5t-56.5 -20.5q-32 0 -55.5 20.5t-23.5 59.5zM682 1593v58q0 38 23.5 59t56.5 21q32 0 56 -21.5t24 -58.5v-58q0 -39 -24 -59.5t-56 -20.5q-33 0 -56.5 20.5t-23.5 59.5z" />
<glyph unicode="&#xdd;" horiz-adv-x="974" d="M88 1319q-17 41 7 74.5t69 33.5q47 0 67 -49l256 -614l256 614q20 49 70 49q45 0 68 -33.5t6 -74.5l-322 -772v-481q0 -36 -23 -56t-55 -20t-54.5 20t-22.5 56v481zM303 1573q0 48 45 67l299 152q28 8 37 8q31 0 53.5 -25t22.5 -57q0 -47 -45 -67l-299 -150 q-16 -8 -37 -8q-31 0 -53.5 25t-22.5 55z" />
<glyph unicode="&#xde;" horiz-adv-x="1017" d="M205 66v1284q0 36 23 56.5t55 20.5q31 0 54 -20.5t23 -56.5v-195h195q137 0 233.5 -96t96.5 -232v-237q0 -136 -97 -234t-233 -98h-195v-192q0 -36 -22.5 -56t-54.5 -20t-55 20t-23 56zM360 414h195q73 0 123.5 51.5t50.5 124.5v237q0 72 -51 122t-123 50h-195v-585z" />
<glyph unicode="&#xdf;" horiz-adv-x="1069" d="M184 -43v1098q0 161 105 266.5t268 105.5h21q163 0 267.5 -107.5t104.5 -268.5v-9q0 -46 -23 -111t-77 -112q117 -100 117 -315v-127q0 -154 -98.5 -270.5t-227.5 -116.5q-39 0 -59.5 21t-20.5 52q0 30 20 53t56 27q25 2 53.5 18t56 43t46 73t18.5 100v141 q0 54 -14.5 96.5t-34 64.5t-43 36t-38 18t-22.5 4q-39 0 -60 24.5t-21 59.5q0 34 21 58t60 24q67 0 101.5 48.5t34.5 90.5v9q0 98 -60 159.5t-157 61.5h-21q-97 0 -157 -61.5t-60 -159.5v-1094q0 -36 -23.5 -57t-54.5 -21t-54.5 21t-23.5 57z" />
<glyph unicode="&#xe0;" horiz-adv-x="972" d="M102 283v24q0 77 35 132.5t88 83.5t117.5 47.5t121 27t101.5 19t56 26.5q6 8 6 35q0 87 -46 126.5t-120 39.5h-15q-60 0 -97 -24.5t-68 -78.5q-21 -41 -70 -41q-31 0 -54.5 20.5t-23.5 51.5q0 24 8 37q31 69 85 113.5t108 60.5t112 16h15q136 0 228.5 -92t92.5 -223v-475 q0 -59 54 -68q33 -6 49 -26t16 -47q0 -32 -20.5 -55t-55.5 -23q-12 0 -14 2q-94 13 -139 78q-93 -80 -221 -80h-19q-85 0 -158.5 32t-122.5 100.5t-49 160.5zM246 1286q0 30 22.5 55t53.5 25q17 0 36 -8l301 -146q46 -22 46 -67q0 -32 -21.5 -57t-54.5 -25q-9 0 -37 8 l-301 148q-45 20 -45 67zM258 287q0 -66 48 -105t126 -39h19q73 0 124.5 50.5t51.5 123.5v162q-30 -7 -79.5 -16t-84.5 -15t-76.5 -18.5t-67.5 -27.5t-43.5 -40.5t-17.5 -58.5v-16z" />
<glyph unicode="&#xe1;" horiz-adv-x="972" d="M102 283v24q0 77 35 132.5t88 83.5t117.5 47.5t121 27t101.5 19t56 26.5q6 8 6 35q0 87 -46 126.5t-120 39.5h-15q-60 0 -97 -24.5t-68 -78.5q-21 -41 -70 -41q-31 0 -54.5 20.5t-23.5 51.5q0 24 8 37q31 69 85 113.5t108 60.5t112 16h15q136 0 228.5 -92t92.5 -223v-475 q0 -59 54 -68q33 -6 49 -26t16 -47q0 -32 -20.5 -55t-55.5 -23q-12 0 -14 2q-94 13 -139 78q-93 -80 -221 -80h-19q-85 0 -158.5 32t-122.5 100.5t-49 160.5zM258 287q0 -66 48 -105t126 -39h19q73 0 124.5 50.5t51.5 123.5v162q-30 -7 -79.5 -16t-84.5 -15t-76.5 -18.5 t-67.5 -27.5t-43.5 -40.5t-17.5 -58.5v-16zM262 1145q0 45 45 67l301 146q19 8 37 8q31 0 53.5 -25t22.5 -55q0 -47 -45 -67l-301 -148q-28 -8 -37 -8q-33 0 -54.5 25t-21.5 57z" />
<glyph unicode="&#xe2;" horiz-adv-x="972" d="M102 283v24q0 77 35 132.5t88 83.5t117.5 47.5t121 27t101.5 19t56 26.5q6 8 6 35q0 87 -46 126.5t-120 39.5h-15q-60 0 -97 -24.5t-68 -78.5q-21 -41 -70 -41q-31 0 -54.5 20.5t-23.5 51.5q0 24 8 37q31 69 85 113.5t108 60.5t112 16h15q136 0 228.5 -92t92.5 -223v-475 q0 -59 54 -68q33 -6 49 -26t16 -47q0 -32 -20.5 -55t-55.5 -23q-12 0 -14 2q-94 13 -139 78q-93 -80 -221 -80h-19q-85 0 -158.5 32t-122.5 100.5t-49 160.5zM184 1147q0 29 31 51l191 143q28 19 63 19q37 0 66 -19l184 -143q29 -19 29 -49t-22 -52t-52 -22q-20 0 -41 12 l-164 132l-172 -132q-21 -12 -39 -12q-31 0 -52.5 21.5t-21.5 50.5zM258 287q0 -66 48 -105t126 -39h19q73 0 124.5 50.5t51.5 123.5v162q-30 -7 -79.5 -16t-84.5 -15t-76.5 -18.5t-67.5 -27.5t-43.5 -40.5t-17.5 -58.5v-16z" />
<glyph unicode="&#xe3;" horiz-adv-x="972" d="M102 283v24q0 77 35 132.5t88 83.5t117.5 47.5t121 27t101.5 19t56 26.5q6 8 6 35q0 87 -46 126.5t-120 39.5h-15q-60 0 -97 -24.5t-68 -78.5q-21 -41 -70 -41q-31 0 -54.5 20.5t-23.5 51.5q0 24 8 37q31 69 85 113.5t108 60.5t112 16h15q136 0 228.5 -92t92.5 -223v-475 q0 -59 54 -68q33 -6 49 -26t16 -47q0 -32 -20.5 -55t-55.5 -23q-12 0 -14 2q-94 13 -139 78q-93 -80 -221 -80h-19q-85 0 -158.5 32t-122.5 100.5t-49 160.5zM145 1192q0 26 21 51q32 36 83 55t101 19q46 0 132 -28.5t126 -28.5q15 0 28 2.5t27 8.5t20.5 9.5t21.5 12.5 t16 10q17 10 35 10q30 0 49.5 -19.5t19.5 -46.5q0 -31 -22 -53q-32 -32 -86 -49t-111 -17q-48 0 -132.5 29t-123.5 29q-45 0 -96 -47q-19 -15 -39 -15q-30 0 -50 20.5t-20 47.5zM258 287q0 -66 48 -105t126 -39h19q73 0 124.5 50.5t51.5 123.5v162q-30 -7 -79.5 -16 t-84.5 -15t-76.5 -18.5t-67.5 -27.5t-43.5 -40.5t-17.5 -58.5v-16z" />
<glyph unicode="&#xe4;" horiz-adv-x="972" d="M102 283v24q0 77 35 132.5t88 83.5t117.5 47.5t121 27t101.5 19t56 26.5q6 8 6 35q0 87 -46 126.5t-120 39.5h-15q-60 0 -97 -24.5t-68 -78.5q-21 -41 -70 -41q-31 0 -54.5 20.5t-23.5 51.5q0 24 8 37q31 69 85 113.5t108 60.5t112 16h15q136 0 228.5 -92t92.5 -223v-475 q0 -59 54 -68q33 -6 49 -26t16 -47q0 -32 -20.5 -55t-55.5 -23q-12 0 -14 2q-94 13 -139 78q-93 -80 -221 -80h-19q-85 0 -158.5 32t-122.5 100.5t-49 160.5zM215 1186v57q0 37 24 58.5t56 21.5q33 0 56.5 -21t23.5 -59v-57q0 -39 -23.5 -59.5t-56.5 -20.5q-32 0 -56 20.5 t-24 59.5zM258 287q0 -66 48 -105t126 -39h19q73 0 124.5 50.5t51.5 123.5v162q-30 -7 -79.5 -16t-84.5 -15t-76.5 -18.5t-67.5 -27.5t-43.5 -40.5t-17.5 -58.5v-16zM575 1186v57q0 38 23.5 59t56.5 21q32 0 56 -21.5t24 -58.5v-57q0 -39 -24 -59.5t-56 -20.5 q-33 0 -56.5 20.5t-23.5 59.5z" />
<glyph unicode="&#xe5;" horiz-adv-x="972" d="M102 283v24q0 77 35 132.5t88 83.5t117.5 47.5t121 27t101.5 19t56 26.5q6 8 6 35q0 87 -46 126.5t-120 39.5h-15q-60 0 -97 -24.5t-68 -78.5q-21 -41 -70 -41q-31 0 -54.5 20.5t-23.5 51.5q0 24 8 37q31 69 85 113.5t108 60.5t112 16h15q136 0 228.5 -92t92.5 -223v-475 q0 -59 54 -68q33 -6 49 -26t16 -47q0 -32 -20.5 -55t-55.5 -23q-12 0 -14 2q-94 13 -139 78q-93 -80 -221 -80h-19q-85 0 -158.5 32t-122.5 100.5t-49 160.5zM258 287q0 -66 48 -105t126 -39h19q73 0 124.5 50.5t51.5 123.5v162q-30 -7 -79.5 -16t-84.5 -15t-76.5 -18.5 t-67.5 -27.5t-43.5 -40.5t-17.5 -58.5v-16zM303 1247q0 71 50 121.5t122 50.5q71 0 120.5 -50.5t49.5 -121.5t-49.5 -121.5t-120.5 -50.5q-72 0 -122 50.5t-50 121.5zM406 1247q0 -29 20 -48t49 -19q28 0 48 19t20 48q0 28 -20 47t-48 19q-29 0 -49 -19t-20 -47z" />
<glyph unicode="&#xe6;" horiz-adv-x="1421" d="M102 283v24q0 77 35 132.5t88 83.5t117.5 47.5t121 27t101.5 19t56 26.5q6 8 6 31v4q0 87 -46 126.5t-120 39.5h-15q-60 0 -97 -24.5t-68 -78.5q-21 -41 -70 -41q-31 0 -54.5 20.5t-23.5 51.5q0 24 8 37q31 69 85 113.5t108 60.5t112 16h15q159 0 248 -112 q98 112 247 112h21q140 0 236 -94.5t96 -236.5v-168q0 -31 -23.5 -54.5t-54.5 -23.5h-449v-105q0 -72 51.5 -123t124.5 -51h19q57 0 97.5 29t62.5 76q22 49 67 49q32 0 56 -23t24 -57q0 -22 -8 -35q-37 -88 -116.5 -140t-182.5 -52h-21q-158 0 -251 114q-100 -114 -254 -114 h-19q-85 0 -158.5 32t-122.5 100.5t-49 160.5zM258 287q0 -66 48 -105t126 -39h19q73 0 124.5 50.5t51.5 123.5v162q-34 -9 -96 -19.5t-102.5 -19.5t-83.5 -25t-65 -44t-22 -68v-16zM782 567h371v101q0 74 -52 125t-122 51h-18q-74 0 -126.5 -50.5t-52.5 -123.5v-103z" />
<glyph unicode="&#xe7;" horiz-adv-x="915" d="M133 317v353q0 138 97 233.5t233 95.5h20q135 0 232.5 -96.5t97.5 -232.5q0 -36 -23.5 -57t-54.5 -21t-54 20t-24 56q-4 78 -53 127t-121 49h-20q-72 0 -123 -51t-51 -123v-353q0 -72 51.5 -123t124.5 -51h18q71 0 120 50.5t54 123.5q1 39 23.5 59.5t54.5 20.5t55 -20.5 t23 -59.5q0 -123 -81.5 -217t-201.5 -106v-49q52 -18 84.5 -60.5t32.5 -97.5v-20q0 -69 -48.5 -117.5t-117.5 -48.5h-20q-56 0 -100 33.5t-58 84.5q-1 4 -2 8.5t-1.5 7t-0.5 3.5q0 25 18.5 41t42.5 16q43 0 54 -43q9 -35 47 -35h20q20 0 34.5 15t14.5 35v20q0 20 -14.5 34.5 t-34.5 14.5h-8q-23 0 -41 17.5t-18 40.5v100q-119 17 -200 109t-81 214z" />
<glyph unicode="&#xe8;" horiz-adv-x="923" d="M131 317v353q0 136 96.5 232.5t233.5 96.5h20q138 0 234 -95t96 -236v-168q0 -31 -23 -54.5t-55 -23.5h-446v-105q0 -72 51 -123t123 -51h20q57 0 97.5 29t62.5 76q20 49 68 49q32 0 55.5 -23t23.5 -57q0 -22 -8 -35q-37 -88 -116.5 -140t-182.5 -52h-20 q-137 0 -233.5 95t-96.5 232zM223 1286q0 30 22.5 55t53.5 25q18 0 37 -8l301 -146q45 -22 45 -67q0 -32 -21.5 -57t-54.5 -25q-9 0 -37 8l-301 148q-45 20 -45 67zM287 567h368v101q0 74 -51.5 125t-120.5 51h-20q-73 0 -124.5 -50.5t-51.5 -123.5v-103z" />
<glyph unicode="&#xe9;" horiz-adv-x="923" d="M131 317v353q0 136 96.5 232.5t233.5 96.5h20q138 0 234 -95t96 -236v-168q0 -31 -23 -54.5t-55 -23.5h-446v-105q0 -72 51 -123t123 -51h20q57 0 97.5 29t62.5 76q20 49 68 49q32 0 55.5 -23t23.5 -57q0 -22 -8 -35q-37 -88 -116.5 -140t-182.5 -52h-20 q-137 0 -233.5 95t-96.5 232zM279 1145q0 45 45 67l301 146q19 8 37 8q31 0 53 -25t22 -55q0 -47 -45 -67l-301 -148q-28 -8 -37 -8q-32 0 -53.5 25t-21.5 57zM287 567h368v101q0 74 -51.5 125t-120.5 51h-20q-73 0 -124.5 -50.5t-51.5 -123.5v-103z" />
<glyph unicode="&#xea;" horiz-adv-x="923" d="M131 317v353q0 136 96.5 232.5t233.5 96.5h20q138 0 234 -95t96 -236v-168q0 -31 -23 -54.5t-55 -23.5h-446v-105q0 -72 51 -123t123 -51h20q57 0 97.5 29t62.5 76q20 49 68 49q32 0 55.5 -23t23.5 -57q0 -22 -8 -35q-37 -88 -116.5 -140t-182.5 -52h-20 q-137 0 -233.5 95t-96.5 232zM180 1147q0 29 31 51l190 143q28 19 64 19q37 0 65 -19l185 -143q28 -19 28 -49t-21.5 -52t-51.5 -22q-20 0 -41 12l-164 132l-172 -132q-21 -12 -39 -12q-31 0 -52.5 21.5t-21.5 50.5zM287 567h368v101q0 74 -51.5 125t-120.5 51h-20 q-73 0 -124.5 -50.5t-51.5 -123.5v-103z" />
<glyph unicode="&#xeb;" horiz-adv-x="923" d="M131 317v353q0 136 96.5 232.5t233.5 96.5h20q138 0 234 -95t96 -236v-168q0 -31 -23 -54.5t-55 -23.5h-446v-105q0 -72 51 -123t123 -51h20q57 0 97.5 29t62.5 76q20 49 68 49q32 0 55.5 -23t23.5 -57q0 -22 -8 -35q-37 -88 -116.5 -140t-182.5 -52h-20 q-137 0 -233.5 95t-96.5 232zM203 1186v57q0 37 24 58.5t56 21.5q33 0 56 -21t23 -59v-57q0 -39 -23 -59.5t-56 -20.5q-32 0 -56 20.5t-24 59.5zM287 567h368v101q0 74 -51.5 125t-120.5 51h-20q-73 0 -124.5 -50.5t-51.5 -123.5v-103zM563 1186v57q0 38 23.5 59t56.5 21 q32 0 56 -21.5t24 -58.5v-57q0 -39 -24 -59.5t-56 -20.5q-33 0 -56.5 20.5t-23.5 59.5z" />
<glyph unicode="&#xec;" horiz-adv-x="503" d="M-8 1286q0 30 22.5 55t53.5 25q17 0 36 -8l302 -146q45 -22 45 -67q0 -32 -21.5 -57t-54.5 -25q-9 0 -37 8l-301 148q-45 20 -45 67zM174 66v856q0 36 23 56.5t55 20.5t55 -20.5t23 -56.5v-856q0 -36 -23 -56t-55 -20t-55 20t-23 56z" />
<glyph unicode="&#xed;" horiz-adv-x="503" d="M49 1145q0 45 45 67l301 146q19 8 37 8q31 0 53.5 -25t22.5 -55q0 -47 -45 -67l-301 -148q-28 -8 -37 -8q-33 0 -54.5 25t-21.5 57zM174 66v856q0 36 23 56.5t55 20.5t55 -20.5t23 -56.5v-856q0 -36 -23 -56t-55 -20t-55 20t-23 56z" />
<glyph unicode="&#xee;" horiz-adv-x="503" d="M-29 1147q0 29 31 51l191 143q29 19 63 19q38 0 66 -19l184 -143q29 -19 29 -49t-22 -52t-52 -22q-20 0 -41 12l-164 132l-172 -132q-21 -12 -39 -12q-31 0 -52.5 21.5t-21.5 50.5zM174 66v856q0 36 23 56.5t55 20.5t55 -20.5t23 -56.5v-856q0 -36 -23 -56t-55 -20 t-55 20t-23 56z" />
<glyph unicode="&#xef;" horiz-adv-x="503" d="M-8 1186v57q0 37 24 58.5t56 21.5q33 0 56.5 -21t23.5 -59v-57q0 -39 -23.5 -59.5t-56.5 -20.5q-32 0 -56 20.5t-24 59.5zM174 66v856q0 36 23 56.5t55 20.5t55 -20.5t23 -56.5v-856q0 -36 -23 -56t-55 -20t-55 20t-23 56zM352 1186v57q0 38 23.5 59t56.5 21 q32 0 56 -21.5t24 -58.5v-57q0 -39 -24 -59.5t-56 -20.5q-33 0 -56.5 20.5t-23.5 59.5z" />
<glyph unicode="&#xf0;" horiz-adv-x="997" d="M131 319v254q0 137 96.5 233.5t233.5 96.5h22q100 0 176 -49v205q0 59 -22 84l-119 -84q-25 -16 -49.5 -16.5t-41 15.5t-25 36t-0.5 44t32 40l88 61l-155 41q-29 7 -43.5 27t-14.5 45q0 31 20 53t54 22q13 0 25 -4l75 -18q113 -27 181 -70l110 78q24 17 47 17 q32 0 53 -22.5t17 -54.5t-35 -55l-90 -65q49 -58 49 -174v-740q0 -137 -96.5 -233t-235.5 -96h-22q-137 0 -233.5 96.5t-96.5 232.5zM287 319q0 -73 50.5 -124.5t123.5 -51.5h22q73 0 124.5 52t51.5 124v254q0 72 -51.5 123.5t-124.5 51.5h-22q-72 0 -123 -51.5t-51 -123.5 v-254z" />
<glyph unicode="&#xf1;" horiz-adv-x="966" d="M143 1192q0 26 21 51q32 36 83 55t101 19q46 0 132 -28.5t126 -28.5q15 0 28 2.5t27 8.5t20.5 9.5t21.5 12.5t16 10q17 10 35 10q30 0 49.5 -19.5t19.5 -46.5q0 -31 -22 -53q-32 -32 -86 -49t-111 -17q-48 0 -133 29t-123 29q-45 0 -96 -47q-19 -15 -39 -15 q-30 0 -50 20.5t-20 47.5zM154 66v856q0 35 23.5 56t55.5 21q28 0 50 -16t28 -45q61 61 176 61h19q140 0 234 -84.5t94 -244.5v-604q0 -36 -22 -56t-54 -20t-55 20t-23 56v604q0 72 -51.5 123t-124.5 51h-19q-73 0 -124.5 -50.5t-51.5 -123.5v-604q0 -36 -23 -56t-55 -20 t-54.5 20t-22.5 56z" />
<glyph unicode="&#xf2;" horiz-adv-x="942" d="M131 317v353q0 136 96.5 232.5t233.5 96.5h20q137 0 233.5 -96.5t96.5 -232.5v-353q0 -137 -96.5 -232t-233.5 -95h-20q-137 0 -233.5 95t-96.5 232zM231 1286q0 30 22.5 55t53.5 25q18 0 37 -8l301 -146q45 -22 45 -67q0 -32 -21.5 -57t-54.5 -25q-8 0 -36 8l-302 148 q-45 20 -45 67zM287 317q0 -72 51.5 -123t124.5 -51h18q72 0 123 51t51 123v353q0 72 -51 123t-123 51h-20q-72 0 -123 -51t-51 -123v-353z" />
<glyph unicode="&#xf3;" horiz-adv-x="942" d="M131 317v353q0 136 96.5 232.5t233.5 96.5h20q137 0 233.5 -96.5t96.5 -232.5v-353q0 -137 -96.5 -232t-233.5 -95h-20q-137 0 -233.5 95t-96.5 232zM248 1145q0 45 45 67l301 146q19 8 37 8q31 0 53.5 -25t22.5 -55q0 -47 -45 -67l-302 -148q-28 -8 -36 -8 q-33 0 -54.5 25t-21.5 57zM287 317q0 -72 51.5 -123t124.5 -51h18q72 0 123 51t51 123v353q0 72 -51 123t-123 51h-20q-72 0 -123 -51t-51 -123v-353z" />
<glyph unicode="&#xf4;" horiz-adv-x="942" d="M131 317v353q0 136 96.5 232.5t233.5 96.5h20q137 0 233.5 -96.5t96.5 -232.5v-353q0 -137 -96.5 -232t-233.5 -95h-20q-137 0 -233.5 95t-96.5 232zM188 1147q0 29 31 51l191 143q28 19 63 19q37 0 66 -19l184 -143q29 -19 29 -49t-22 -52t-52 -22q-20 0 -41 12 l-164 132l-172 -132q-21 -12 -39 -12q-31 0 -52.5 21.5t-21.5 50.5zM287 317q0 -72 51.5 -123t124.5 -51h18q72 0 123 51t51 123v353q0 72 -51 123t-123 51h-20q-72 0 -123 -51t-51 -123v-353z" />
<glyph unicode="&#xf5;" horiz-adv-x="942" d="M131 317v353q0 136 96.5 232.5t233.5 96.5h20q137 0 233.5 -96.5t96.5 -232.5v-353q0 -137 -96.5 -232t-233.5 -95h-20q-137 0 -233.5 95t-96.5 232zM131 1192q0 26 21 51q32 36 83 55t101 19q46 0 132 -28.5t126 -28.5q15 0 28 2.5t27 8.5t20.5 9.5t21.5 12.5t16 10 q17 10 34 10q30 0 50 -19.5t20 -46.5q0 -30 -23 -53q-32 -32 -85.5 -49t-110.5 -17q-48 0 -133 29t-123 29q-45 0 -96 -47q-19 -15 -39 -15q-30 0 -50 20.5t-20 47.5zM287 317q0 -72 51.5 -123t124.5 -51h18q72 0 123 51t51 123v353q0 72 -51 123t-123 51h-20 q-72 0 -123 -51t-51 -123v-353z" />
<glyph unicode="&#xf6;" horiz-adv-x="942" d="M131 317v353q0 136 96.5 232.5t233.5 96.5h20q137 0 233.5 -96.5t96.5 -232.5v-353q0 -137 -96.5 -232t-233.5 -95h-20q-137 0 -233.5 95t-96.5 232zM211 1186v57q0 37 24 58.5t56 21.5q33 0 56.5 -21t23.5 -59v-57q0 -39 -23.5 -59.5t-56.5 -20.5q-32 0 -56 20.5 t-24 59.5zM287 317q0 -72 51.5 -123t124.5 -51h18q72 0 123 51t51 123v353q0 72 -51 123t-123 51h-20q-72 0 -123 -51t-51 -123v-353zM571 1186v57q0 38 23.5 59t56.5 21q32 0 56 -21.5t24 -58.5v-57q0 -39 -24 -59.5t-56 -20.5q-33 0 -56.5 20.5t-23.5 59.5z" />
<glyph unicode="&#xf7;" horiz-adv-x="901" d="M92 547q0 31 21 54.5t57 23.5h561q39 0 58.5 -23t19.5 -55t-19.5 -55t-58.5 -23h-561q-36 0 -57 23.5t-21 54.5zM373 119v45q0 36 23.5 57t54.5 21t54 -21t23 -57v-45q0 -36 -23 -57t-54 -21t-54.5 21t-23.5 57zM373 930v45q0 36 23.5 57t54.5 21t54 -21t23 -57v-45 q0 -36 -23 -57t-54 -21t-54.5 21t-23.5 57z" />
<glyph unicode="&#xf8;" horiz-adv-x="993" d="M131 25q0 22 12 43l56 88q-43 70 -43 161v353q0 136 96 232.5t233 96.5h19q97 0 180 -53l33 55q21 37 63 37q32 0 57 -22t25 -53q0 -22 -12 -43l-55 -91q41 -77 41 -159v-353q0 -137 -98 -232t-234 -95h-19q-97 0 -176 49l-33 -51q-22 -37 -63 -37q-32 0 -57 22t-25 52z M311 340l291 475q-50 29 -98 29h-19q-72 0 -123 -51t-51 -123v-330zM391 172q43 -29 94 -29h19q73 0 124.5 50.5t51.5 123.5v326z" />
<glyph unicode="&#xf9;" horiz-adv-x="960" d="M135 317v605q0 36 23 56.5t55 20.5t55 -20.5t23 -56.5v-605q0 -72 51 -123t123 -51h18q73 0 124.5 51t51.5 123v605q0 36 23 56.5t55 20.5t55 -20.5t23 -56.5v-856q0 -35 -23.5 -55.5t-54.5 -20.5q-28 0 -50 15t-28 44q-59 -59 -176 -59h-18q-142 0 -236 83t-94 244z M199 1286q0 30 22 55t53 25q18 0 37 -8l301 -146q45 -22 45 -67q0 -32 -21.5 -57t-53.5 -25q-9 0 -37 8l-301 148q-45 20 -45 67z" />
<glyph unicode="&#xfa;" horiz-adv-x="960" d="M135 317v605q0 36 23 56.5t55 20.5t55 -20.5t23 -56.5v-605q0 -72 51 -123t123 -51h18q73 0 124.5 51t51.5 123v605q0 36 23 56.5t55 20.5t55 -20.5t23 -56.5v-856q0 -35 -23.5 -55.5t-54.5 -20.5q-28 0 -50 15t-28 44q-59 -59 -176 -59h-18q-142 0 -236 83t-94 244z M276 1145q0 45 46 67l301 146q19 8 36 8q31 0 53.5 -25t22.5 -55q0 -47 -45 -67l-301 -148q-28 -8 -37 -8q-33 0 -54.5 25t-21.5 57z" />
<glyph unicode="&#xfb;" horiz-adv-x="960" d="M135 317v605q0 36 23 56.5t55 20.5t55 -20.5t23 -56.5v-605q0 -72 51 -123t123 -51h18q73 0 124.5 51t51.5 123v605q0 36 23 56.5t55 20.5t55 -20.5t23 -56.5v-856q0 -35 -23.5 -55.5t-54.5 -20.5q-28 0 -50 15t-28 44q-59 -59 -176 -59h-18q-142 0 -236 83t-94 244z M199 1147q0 30 30 51l191 143q28 19 63 19q37 0 66 -19l184 -143q29 -19 29 -49t-22 -52t-52 -22q-20 0 -41 12l-164 132l-172 -132q-21 -12 -39 -12q-30 0 -51.5 21.5t-21.5 50.5z" />
<glyph unicode="&#xfc;" horiz-adv-x="960" d="M135 317v605q0 36 23 56.5t55 20.5t55 -20.5t23 -56.5v-605q0 -72 51 -123t123 -51h18q73 0 124.5 51t51.5 123v605q0 36 23 56.5t55 20.5t55 -20.5t23 -56.5v-856q0 -35 -23.5 -55.5t-54.5 -20.5q-28 0 -50 15t-28 44q-59 -59 -176 -59h-18q-142 0 -236 83t-94 244z M219 1186v57q0 37 24 58.5t56 21.5q33 0 56.5 -21t23.5 -59v-57q0 -39 -23.5 -59.5t-56.5 -20.5q-32 0 -56 20.5t-24 59.5zM580 1186v57q0 38 23 59t56 21q32 0 56 -21.5t24 -58.5v-57q0 -39 -24 -59.5t-56 -20.5q-33 0 -56 20.5t-23 59.5z" />
<glyph unicode="&#xfd;" horiz-adv-x="845" d="M72 -360q0 28 17 49.5t50 25.5q46 7 81.5 46t64.5 130l71 224l-272 782q-4 8 -4 12v15q0 31 22.5 53t57.5 22q52 0 71 -53l203 -584l187 584q16 53 71 53q35 0 58.5 -22t23.5 -53q0 -7 -4 -27l-338 -1053q-38 -120 -102 -192t-170 -90q-2 -2 -13 -2q-32 0 -53.5 22.5 t-21.5 57.5zM262 1145q0 45 45 67l301 146q19 8 37 8q31 0 53.5 -25t22.5 -55q0 -47 -45 -67l-301 -148q-28 -8 -37 -8q-33 0 -54.5 25t-21.5 57z" />
<glyph unicode="&#xfe;" horiz-adv-x="1017" d="M205 -362v1712q0 36 23 56.5t55 20.5q31 0 54 -20.5t23 -56.5v-412q73 61 175 61h18q136 0 234 -96.5t98 -232.5v-353q0 -137 -98 -232t-234 -95h-18q-101 0 -175 59v-411q0 -36 -23 -57t-54 -21t-54.5 21t-23.5 57zM360 305q0 -67 52.5 -114.5t122.5 -47.5h18 q73 0 124.5 51t51.5 123v353q0 72 -51.5 123t-124.5 51h-18q-71 0 -123 -46t-52 -116v-377z" />
<glyph unicode="&#xff;" horiz-adv-x="845" d="M72 -360q0 28 17 49.5t50 25.5q46 7 81.5 46t64.5 130l71 224l-272 782q-4 8 -4 12v15q0 31 22.5 53t57.5 22q52 0 71 -53l203 -584l187 584q16 53 71 53q35 0 58.5 -22t23.5 -53q0 -7 -4 -27l-338 -1053q-38 -120 -102 -192t-170 -90q-2 -2 -13 -2q-32 0 -53.5 22.5 t-21.5 57.5zM164 1186v57q0 37 24 58.5t56 21.5q33 0 56.5 -21t23.5 -59v-57q0 -39 -23.5 -59.5t-56.5 -20.5q-32 0 -56 20.5t-24 59.5zM524 1186v57q0 38 23.5 59t56.5 21q32 0 56 -21.5t24 -58.5v-57q0 -39 -24 -59.5t-56 -20.5q-33 0 -56.5 20.5t-23.5 59.5z" />
<glyph unicode="&#x100;" horiz-adv-x="1116" d="M61 63l5 25l399 1282q9 28 34 42.5t58 14.5q76 0 94 -57l400 -1282q4 -20 4 -25q0 -31 -22.5 -52t-57.5 -21q-58 0 -74 53l-90 295h-506l-92 -295q-16 -53 -72 -53q-35 0 -57.5 21t-22.5 52zM281 1620q0 33 22.5 55.5t61.5 22.5h383q42 0 64 -22.5t22 -55.5t-22.5 -56.5 t-61.5 -23.5h-383q-42 0 -64 23.5t-22 56.5zM354 494h408l-205 655z" />
<glyph unicode="&#x101;" horiz-adv-x="972" d="M102 283v24q0 77 35 132.5t88 83.5t117.5 47.5t121 27t101.5 19t56 26.5q6 8 6 35q0 87 -46 126.5t-120 39.5h-15q-60 0 -97 -24.5t-68 -78.5q-21 -41 -70 -41q-31 0 -54.5 20.5t-23.5 51.5q0 24 8 37q31 69 85 113.5t108 60.5t112 16h15q136 0 228.5 -92t92.5 -223v-475 q0 -59 54 -68q33 -6 49 -26t16 -47q0 -32 -20.5 -55t-55.5 -23q-12 0 -14 2q-94 13 -139 78q-93 -80 -221 -80h-19q-85 0 -158.5 32t-122.5 100.5t-49 160.5zM193 1217q0 31 22 54t61 23h383q42 0 64 -23.5t22 -56.5t-22 -56t-61 -23h-383q-42 0 -64 23.5t-22 58.5zM258 287 q0 -66 48 -105t126 -39h19q73 0 124.5 50.5t51.5 123.5v162q-30 -7 -79.5 -16t-84.5 -15t-76.5 -18.5t-67.5 -27.5t-43.5 -40.5t-17.5 -58.5v-16z" />
<glyph unicode="&#x102;" horiz-adv-x="1116" d="M61 63l5 25l399 1282q9 28 34 42.5t58 14.5q76 0 94 -57l400 -1282q4 -20 4 -25q0 -31 -22.5 -52t-57.5 -21q-58 0 -74 53l-90 295h-506l-92 -295q-16 -53 -72 -53q-35 0 -57.5 21t-22.5 52zM317 1729q0 29 16 46t44 17q29 0 44 -16t30 -54q6 -39 34 -63.5t70 -24.5h6 q42 0 69.5 24.5t35.5 63.5q11 27 18 39.5t20 21.5t33 9q28 0 45 -17t17 -46q0 -92 -71.5 -157t-162.5 -65h-16q-91 0 -161.5 65t-70.5 157zM354 494h408l-205 655z" />
<glyph unicode="&#x103;" horiz-adv-x="972" d="M102 283v24q0 77 35 132.5t88 83.5t117.5 47.5t121 27t101.5 19t56 26.5q6 8 6 35q0 87 -46 126.5t-120 39.5h-15q-60 0 -97 -24.5t-68 -78.5q-21 -41 -70 -41q-31 0 -54.5 20.5t-23.5 51.5q0 24 8 37q31 69 85 113.5t108 60.5t112 16h15q136 0 228.5 -92t92.5 -223v-475 q0 -59 54 -68q33 -6 49 -26t16 -47q0 -32 -20.5 -55t-55.5 -23q-12 0 -14 2q-94 13 -139 78q-93 -80 -221 -80h-19q-85 0 -158.5 32t-122.5 100.5t-49 160.5zM233 1305q0 29 16 46t44 17q29 0 44 -16t30 -54q8 -39 36 -63.5t68 -24.5h6q42 0 69.5 24.5t35.5 63.5 q11 27 18 39.5t20 21.5t33 9q28 0 45 -17t17 -46q0 -92 -71 -157t-161 -65h-18q-90 0 -161 65t-71 157zM258 287q0 -66 48 -105t126 -39h19q73 0 124.5 50.5t51.5 123.5v162q-30 -7 -79.5 -16t-84.5 -15t-76.5 -18.5t-67.5 -27.5t-43.5 -40.5t-17.5 -58.5v-16z" />
<glyph unicode="&#x104;" horiz-adv-x="1116" d="M61 63l5 25l399 1282q9 28 34 42.5t58 14.5q76 0 94 -57l400 -1282q4 -20 4 -25q0 -29 -19.5 -48.5t-50.5 -24.5q-44 -19 -82.5 -57.5t-38.5 -92.5v-10q0 -27 16.5 -44t43.5 -17h8q22 0 46.5 19.5t33.5 37.5q19 29 51 29q25 0 43 -17.5t18 -46.5q0 -23 -8 -39 q-22 -52 -73.5 -84.5t-110.5 -32.5h-19q-84 0 -139 55.5t-55 135.5v20q0 66 50 129.5t122 100.5l-80 262h-506l-92 -295q-16 -53 -72 -53q-35 0 -57.5 21t-22.5 52zM354 494h408l-205 655z" />
<glyph unicode="&#x105;" horiz-adv-x="972" d="M102 283v24q0 77 35 132.5t88 83.5t117.5 47.5t121 27t101.5 19t56 26.5q6 8 6 35q0 87 -46 126.5t-120 39.5h-15q-60 0 -97 -24.5t-68 -78.5q-21 -41 -70 -41q-31 0 -54.5 20.5t-23.5 51.5q0 24 8 37q31 69 85 113.5t108 60.5t112 16h15q136 0 228.5 -92t92.5 -223v-475 q0 -59 54 -68q33 -6 49 -26t16 -47q0 -31 -18 -53t-49 -25q-44 -19 -82.5 -57.5t-38.5 -92.5v-10q0 -27 16 -44t43 -17h8q22 0 46.5 19.5t33.5 37.5q19 29 51 29q26 0 44 -18t18 -46q0 -23 -8 -39q-22 -52 -74 -84.5t-111 -32.5h-18q-84 0 -139.5 55.5t-55.5 135.5v20 q0 54 34.5 107t88.5 92q-4 4 -10.5 13.5t-7.5 11.5q-93 -80 -221 -80h-19q-85 0 -158.5 32t-122.5 100.5t-49 160.5zM258 287q0 -66 48 -105t126 -39h19q73 0 124.5 50.5t51.5 123.5v162q-30 -7 -79.5 -16t-84.5 -15t-76.5 -18.5t-67.5 -27.5t-43.5 -40.5t-17.5 -58.5v-16z " />
<glyph unicode="&#x106;" horiz-adv-x="1030" d="M154 377v663q0 160 114 273.5t275 113.5h20q147 0 256 -95t129 -238v-13q0 -35 -22.5 -55t-53.5 -20q-28 0 -49 16.5t-28 50.5q-18 86 -82 142.5t-150 56.5h-20q-96 0 -165 -69t-69 -163v-663q0 -97 68.5 -165.5t165.5 -68.5h20q86 0 150 56.5t82 142.5q7 33 28.5 50.5 t48.5 17.5q31 0 53.5 -20.5t22.5 -55.5v-15q-20 -141 -130 -235t-255 -94h-20q-162 0 -275.5 112.5t-113.5 274.5zM350 1573q0 48 45 67l299 152q28 8 37 8q31 0 53.5 -25t22.5 -57q0 -47 -45 -67l-299 -150q-16 -8 -37 -8q-31 0 -53.5 25t-22.5 55z" />
<glyph unicode="&#x107;" horiz-adv-x="915" d="M133 317v353q0 138 97 233.5t233 95.5h20q135 0 232.5 -96.5t97.5 -232.5q0 -36 -23.5 -57t-54.5 -21t-54 20t-24 56q-4 78 -53 127t-121 49h-20q-72 0 -123 -51t-51 -123v-353q0 -72 51.5 -123t124.5 -51h18q71 0 120 50.5t54 123.5q1 39 23.5 59.5t54.5 20.5t55 -20.5 t23 -59.5q0 -137 -96.5 -232t-233.5 -95h-20q-137 0 -233.5 95t-96.5 232zM326 1145q0 45 45 67l301 146q19 8 37 8q31 0 53 -25t22 -55q0 -47 -45 -67l-301 -148q-28 -8 -37 -8q-33 0 -54 25t-21 57z" />
<glyph unicode="&#x10c;" horiz-adv-x="1030" d="M154 377v663q0 160 114 273.5t275 113.5h20q147 0 256 -95t129 -238v-13q0 -35 -22.5 -55t-53.5 -20q-28 0 -49 16.5t-28 50.5q-18 86 -82 142.5t-150 56.5h-20q-96 0 -165 -69t-69 -163v-663q0 -97 68.5 -165.5t165.5 -68.5h20q86 0 150 56.5t82 142.5q7 33 28.5 50.5 t48.5 17.5q31 0 53.5 -20.5t22.5 -55.5v-15q-20 -141 -130 -235t-255 -94h-20q-162 0 -275.5 112.5t-113.5 274.5zM260 1706q0 30 21 52t51 22q18 0 39 -15l174 -129l164 129q18 15 39 15q30 0 52.5 -23t22.5 -53t-28 -49l-187 -142q-30 -20 -63 -20q-36 0 -66 20l-190 142 q-29 20 -29 51z" />
<glyph unicode="&#x10d;" horiz-adv-x="915" d="M133 317v353q0 138 97 233.5t233 95.5h20q135 0 232.5 -96.5t97.5 -232.5q0 -36 -23.5 -57t-54.5 -21t-54 20t-24 56q-4 78 -53 127t-121 49h-20q-72 0 -123 -51t-51 -123v-353q0 -72 51.5 -123t124.5 -51h18q71 0 120 50.5t54 123.5q1 39 23.5 59.5t54.5 20.5t55 -20.5 t23 -59.5q0 -137 -96.5 -232t-233.5 -95h-20q-137 0 -233.5 95t-96.5 232zM190 1286q0 30 21 52t51 22q19 0 39 -14l174 -129l164 129q17 14 39 14q31 0 53.5 -22.5t22.5 -51.5q0 -30 -29 -49l-186 -143q-25 -19 -64 -19q-38 0 -63 19l-191 143q-31 16 -31 49z" />
<glyph unicode="&#x10e;" horiz-adv-x="1134" d="M184 78v1259q0 31 23.5 54.5t54.5 23.5h332q160 0 273.5 -113.5t113.5 -273.5v-639q0 -161 -113.5 -275t-273.5 -114h-332q-31 0 -54.5 23.5t-23.5 54.5zM250 1706q0 30 21 52t51 22q17 0 38 -15l175 -129l163 129q18 15 39 15q30 0 53 -23t23 -53t-29 -49l-186 -142 q-30 -20 -63 -20q-36 0 -66 20l-190 142q-29 20 -29 51zM340 156h254q97 0 165 68t68 165v637q0 97 -67.5 165.5t-163.5 68.5h-256v-1104z" />
<glyph unicode="&#x10f;" horiz-adv-x="995" d="M131 317v353q0 137 96.5 233t235.5 96h14q55 0 103.5 -17.5t74.5 -49.5v418q0 36 23 56.5t55 20.5t55 -20.5t23 -56.5v-1289q0 -35 -23 -53t-55 -18q-29 0 -50.5 15t-25.5 44q-59 -59 -176 -59h-18q-140 0 -236 94.5t-96 232.5zM287 317q0 -72 51 -123t123 -51h20 q72 0 123 44.5t51 117.5v381q0 70 -51.5 114t-122.5 44h-18q-73 0 -124.5 -51t-51.5 -123v-353zM872 1085q0 17 17 43q4 5 15 19t14 18.5t10 17.5t9.5 24.5t4.5 31t2 43.5v80q0 32 22 50t52 18q28 0 48.5 -18.5t20.5 -51.5v-74q0 -61 -9.5 -105t-18.5 -60t-25 -38 q-39 -63 -86 -63h-6q-27 0 -48.5 18t-21.5 47z" />
<glyph unicode="&#x110;" horiz-adv-x="1134" d="M49 780q0 31 21 54.5t57 23.5h57v479q0 31 22.5 54.5t53.5 23.5h332q161 0 275 -113.5t114 -273.5v-639q0 -161 -113.5 -275t-273.5 -114h-332q-31 0 -54.5 23.5t-23.5 54.5v624h-57q-36 0 -57 23.5t-21 54.5zM340 156h254q97 0 165 68t68 165v637q0 97 -68 165.5 t-165 68.5h-254v-402h190q36 0 57 -23.5t21 -54.5t-21 -54.5t-57 -23.5h-190v-546z" />
<glyph unicode="&#x111;" horiz-adv-x="995" d="M131 317v353q0 137 96.5 233t235.5 96h14q55 0 103.5 -17.5t74.5 -49.5v162h-184q-42 0 -64 23.5t-22 58.5q0 31 22.5 54t61.5 23h186v97q0 36 23 56.5t55 20.5t55 -20.5t23 -56.5v-97h61q42 0 64 -23t22 -56t-22.5 -56.5t-61.5 -23.5h-63v-1033q0 -35 -23 -53t-55 -18 q-29 0 -50.5 15t-25.5 44q-59 -59 -176 -59h-18q-140 0 -236 94.5t-96 232.5zM287 317q0 -72 51 -123t123 -51h20q72 0 123 44.5t51 117.5v381q0 70 -51.5 114t-122.5 44h-18q-73 0 -124.5 -51t-51.5 -123v-353z" />
<glyph unicode="&#x112;" horiz-adv-x="1042" d="M184 78v1259q0 31 23.5 54.5t54.5 23.5h641q39 0 58.5 -23t19.5 -55t-19.5 -54.5t-58.5 -22.5h-563v-451h391q36 0 57 -23.5t21 -54.5t-21 -54.5t-57 -23.5h-391v-497h563q39 0 58.5 -23t19.5 -55t-19.5 -55t-58.5 -23h-641q-31 0 -54.5 23.5t-23.5 54.5zM299 1620 q0 33 22.5 55.5t61.5 22.5h383q42 0 64 -22.5t22 -55.5t-22.5 -56.5t-61.5 -23.5h-383q-42 0 -64 23.5t-22 56.5z" />
<glyph unicode="&#x113;" horiz-adv-x="923" d="M131 317v353q0 136 96.5 232.5t233.5 96.5h20q138 0 234 -95t96 -236v-168q0 -31 -23 -54.5t-55 -23.5h-446v-105q0 -72 51 -123t123 -51h20q57 0 97.5 29t62.5 76q20 49 68 49q32 0 55.5 -23t23.5 -57q0 -22 -8 -35q-37 -88 -116.5 -140t-182.5 -52h-20 q-137 0 -233.5 95t-96.5 232zM205 1217q0 31 22.5 54t61.5 23h383q42 0 64 -23.5t22 -56.5t-22.5 -56t-61.5 -23h-383q-42 0 -64 23.5t-22 58.5zM287 567h368v101q0 74 -51.5 125t-120.5 51h-20q-73 0 -124.5 -50.5t-51.5 -123.5v-103z" />
<glyph unicode="&#x116;" horiz-adv-x="1042" d="M184 78v1259q0 31 23.5 54.5t54.5 23.5h641q39 0 58.5 -23t19.5 -55t-19.5 -54.5t-58.5 -22.5h-563v-451h391q36 0 57 -23.5t21 -54.5t-21 -54.5t-57 -23.5h-391v-497h563q39 0 58.5 -23t19.5 -55t-19.5 -55t-58.5 -23h-641q-31 0 -54.5 23.5t-23.5 54.5zM492 1624v64 q0 35 23 55t54 20q33 0 56.5 -20t23.5 -55v-64q0 -35 -23.5 -54.5t-56.5 -19.5q-31 0 -54 19.5t-23 54.5z" />
<glyph unicode="&#x117;" horiz-adv-x="923" d="M131 317v353q0 136 96.5 232.5t233.5 96.5h20q138 0 234 -95t96 -236v-168q0 -31 -23 -54.5t-55 -23.5h-446v-105q0 -72 51 -123t123 -51h20q57 0 97.5 29t62.5 76q20 49 68 49q32 0 55.5 -23t23.5 -57q0 -22 -8 -35q-37 -88 -116.5 -140t-182.5 -52h-20 q-137 0 -233.5 95t-96.5 232zM287 567h368v101q0 74 -51.5 125t-120.5 51h-20q-73 0 -124.5 -50.5t-51.5 -123.5v-103zM381 1214v66q0 35 23.5 54.5t56.5 19.5t56.5 -19.5t23.5 -54.5v-66q0 -34 -23.5 -53.5t-56.5 -19.5t-56.5 19.5t-23.5 53.5z" />
<glyph unicode="&#x118;" horiz-adv-x="1042" d="M184 78v1259q0 31 23.5 54.5t54.5 23.5h641q39 0 58.5 -23t19.5 -55t-19.5 -54.5t-58.5 -22.5h-563v-451h391q36 0 57 -23.5t21 -54.5t-21 -54.5t-57 -23.5h-391v-497h563q39 0 58.5 -23t19.5 -55q0 -30 -17.5 -52.5t-52.5 -25.5q-6 0 -28 -10t-50.5 -28t-50.5 -51 t-22 -71v-10q0 -27 16 -44t43 -17h8q22 0 46.5 19.5t33.5 37.5q19 29 51 29q26 0 44 -18t18 -46q0 -23 -8 -39q-22 -52 -74 -84.5t-111 -32.5h-18q-84 0 -139.5 55.5t-55.5 135.5v20q0 79 72 154h-424q-31 0 -54.5 23.5t-23.5 54.5z" />
<glyph unicode="&#x119;" horiz-adv-x="923" d="M131 317v353q0 136 96.5 232.5t233.5 96.5h20q138 0 234 -95t96 -236v-168q0 -31 -23 -54.5t-55 -23.5h-446v-105q0 -72 51 -123t123 -51h20q57 0 97.5 29t62.5 76q20 49 68 49q32 0 55.5 -23t23.5 -57q0 -22 -8 -35q-28 -67 -75 -108q-148 -165 -148 -234v-10 q0 -27 16 -44t43 -17h9q22 0 46.5 19.5t33.5 37.5q19 29 51 29q26 0 43.5 -17.5t17.5 -46.5q0 -23 -8 -39q-22 -52 -73.5 -84.5t-110.5 -32.5h-19q-84 0 -139 55.5t-55 135.5v20q0 67 57 144h-8q-137 0 -233.5 95t-96.5 232zM287 567h368v101q0 74 -51.5 125t-120.5 51h-20 q-73 0 -124.5 -50.5t-51.5 -123.5v-103z" />
<glyph unicode="&#x11a;" horiz-adv-x="1042" d="M184 78v1259q0 31 23.5 54.5t54.5 23.5h641q39 0 58.5 -23t19.5 -55t-19.5 -54.5t-58.5 -22.5h-563v-451h391q36 0 57 -23.5t21 -54.5t-21 -54.5t-57 -23.5h-391v-497h563q39 0 58.5 -23t19.5 -55t-19.5 -55t-58.5 -23h-641q-31 0 -54.5 23.5t-23.5 54.5zM291 1706 q0 30 20.5 52t50.5 22q18 0 39 -15l174 -129l164 129q18 15 39 15q30 0 53 -23t23 -53t-29 -49l-186 -142q-30 -20 -64 -20q-35 0 -65 20l-191 142q-28 20 -28 51z" />
<glyph unicode="&#x11b;" horiz-adv-x="923" d="M131 317v353q0 136 96.5 232.5t233.5 96.5h20q138 0 234 -95t96 -236v-168q0 -31 -23 -54.5t-55 -23.5h-446v-105q0 -72 51 -123t123 -51h20q57 0 97.5 29t62.5 76q20 49 68 49q32 0 55.5 -23t23.5 -57q0 -22 -8 -35q-37 -88 -116.5 -140t-182.5 -52h-20 q-137 0 -233.5 95t-96.5 232zM193 1286q0 30 20.5 52t50.5 22q19 0 39 -14l174 -129l164 129q17 14 39 14q31 0 53.5 -22.5t22.5 -51.5q0 -30 -29 -49l-186 -143q-25 -19 -64 -19q-38 0 -63 19l-191 143q-30 16 -30 49zM287 567h368v101q0 74 -51.5 125t-120.5 51h-20 q-73 0 -124.5 -50.5t-51.5 -123.5v-103z" />
<glyph unicode="&#x11e;" horiz-adv-x="1105" d="M154 377v661q0 162 113.5 275.5t275.5 113.5h20q149 0 259 -94t130 -239v-13q0 -35 -23.5 -55t-54.5 -20q-29 0 -50 16t-27 49q-18 91 -78 146t-156 55h-20q-96 0 -165 -69t-69 -163v-663q0 -97 68.5 -165.5t165.5 -68.5h20q97 0 165.5 68.5t68.5 165.5v239h-215 q-36 0 -57 23.5t-21 54.5t21 54.5t57 23.5h292q31 0 54.5 -23.5t23.5 -54.5v-317q0 -162 -113.5 -274.5t-275.5 -112.5h-20q-162 0 -275.5 112.5t-113.5 274.5zM301 1729q0 29 15.5 46t43.5 17q29 0 44 -16t30 -54q6 -39 34.5 -63.5t70.5 -24.5h6q42 0 69 24t35 64 q15 38 29.5 54t42.5 16t44.5 -17t16.5 -46q0 -92 -71 -157t-162 -65h-17q-91 0 -161 65t-70 157z" />
<glyph unicode="&#x11f;" horiz-adv-x="974" d="M123 -188q0 34 23.5 53.5t56.5 19.5q52 0 71 -53q19 -52 72.5 -84.5t126.5 -32.5h19q72 0 123 51.5t51 124.5v158q-25 -28 -74 -43.5t-105 -15.5h-14q-136 0 -234 95t-98 232v353q0 136 98 232.5t234 96.5h19q115 0 176 -61q4 29 25.5 45t49.5 16q32 0 55 -19.5t23 -55.5 v-1033q0 -139 -96 -235t-233 -96h-19q-73 0 -142 23.5t-126.5 76.5t-77.5 125q-4 20 -4 27zM244 1305q0 29 15.5 46t43.5 17q29 0 44 -16t30 -54q8 -39 36 -63.5t68 -24.5h6q42 0 69.5 24.5t35.5 63.5q15 38 29.5 54t42.5 16t44.5 -17t16.5 -46q0 -92 -70.5 -157t-160.5 -65 h-19q-90 0 -160.5 65t-70.5 157zM297 317q0 -73 51.5 -123.5t124.5 -50.5h19q71 0 122.5 44t51.5 114v381q0 73 -51 117.5t-123 44.5h-19q-73 0 -124.5 -50.5t-51.5 -123.5v-353z" />
<glyph unicode="&#x122;" horiz-adv-x="1105" d="M154 377v661q0 162 113.5 275.5t275.5 113.5h20q149 0 259 -94t130 -239v-13q0 -35 -23.5 -55t-54.5 -20q-29 0 -50 16t-27 49q-18 91 -78 146t-156 55h-20q-96 0 -165 -69t-69 -163v-663q0 -97 68.5 -165.5t165.5 -68.5h20q97 0 165.5 68.5t68.5 165.5v239h-215 q-36 0 -57 23.5t-21 54.5t21 54.5t57 23.5h292q31 0 54.5 -23.5t23.5 -54.5v-317q0 -162 -113.5 -274.5t-275.5 -112.5h-20q-162 0 -275.5 112.5t-113.5 274.5zM430 -399q0 23 14 43q5 6 15 17t13 15t9 14.5t7.5 21t3.5 27.5t2 40v71q0 33 21 51.5t50 18.5q30 0 51 -19 t21 -53v-63q0 -62 -8 -104t-13.5 -52.5t-21.5 -36.5q-15 -23 -40 -41t-48 -18h-6q-28 0 -49 19t-21 49z" />
<glyph unicode="&#x123;" horiz-adv-x="974" d="M123 -188q0 34 23.5 53.5t56.5 19.5q52 0 71 -53q19 -52 72.5 -84.5t126.5 -32.5h19q72 0 123 51.5t51 124.5v158q-25 -28 -74 -43.5t-105 -15.5h-14q-136 0 -234 95t-98 232v353q0 136 98 232.5t234 96.5h19q115 0 176 -61q4 29 25.5 45t49.5 16q32 0 55 -19.5t23 -55.5 v-1033q0 -139 -96 -235t-233 -96h-19q-73 0 -142 23.5t-126.5 76.5t-77.5 125q-4 20 -4 27zM297 317q0 -73 51.5 -123.5t124.5 -50.5h19q71 0 122.5 44t51.5 114v381q0 73 -51 117.5t-123 44.5h-19q-73 0 -124.5 -50.5t-51.5 -123.5v-353zM393 1145v63q0 62 8 104t13.5 52.5 t21.5 36.5q15 23 40 41t48 18h6q28 0 49 -19t21 -48q0 -23 -14 -43q-4 -5 -12.5 -14.5t-11.5 -13.5t-8.5 -12t-7.5 -15.5t-4.5 -19t-3.5 -26.5t-1 -35v-71q0 -33 -21.5 -51.5t-50.5 -18.5q-30 0 -51 19t-21 53z" />
<glyph unicode="&#x12a;" horiz-adv-x="565" d="M6 1620q0 33 22.5 55.5t61.5 22.5h383q42 0 64 -22.5t22 -55.5t-22.5 -56.5t-61.5 -23.5h-383q-42 0 -64 23.5t-22 56.5zM205 66v1284q0 36 23 56.5t55 20.5q31 0 54 -20.5t23 -56.5v-1284q0 -36 -22.5 -56t-54.5 -20t-55 20t-23 56z" />
<glyph unicode="&#x12b;" horiz-adv-x="503" d="M-25 1217q0 31 22.5 54t61.5 23h383q42 0 64 -23.5t22 -56.5t-22.5 -56t-61.5 -23h-383q-42 0 -64 23.5t-22 58.5zM174 66v856q0 36 23 56.5t55 20.5t55 -20.5t23 -56.5v-856q0 -36 -23 -56t-55 -20t-55 20t-23 56z" />
<glyph unicode="&#x12e;" horiz-adv-x="565" d="M70 -154q0 67 38 128.5t97 99.5v1276q0 36 23 56.5t55 20.5q31 0 54 -20.5t23 -56.5v-1284q0 -28 -14 -47t-37 -25q-33 -17 -63.5 -56.5t-30.5 -97.5v-10q0 -27 16 -44t43 -17h9q22 0 46 19.5t33 37.5q19 29 52 29q26 0 43.5 -17.5t17.5 -46.5q0 -23 -8 -39 q-22 -52 -73.5 -84.5t-110.5 -32.5h-19q-84 0 -139 55.5t-55 135.5v20z" />
<glyph unicode="&#x12f;" horiz-adv-x="503" d="M37 -154q0 67 38.5 129.5t98.5 98.5v848q0 36 23 56.5t55 20.5t55 -20.5t23 -56.5v-856q0 -30 -16 -48.5t-40 -23.5q-34 -20 -63 -58.5t-29 -95.5v-10q0 -27 16.5 -44t43.5 -17h8q22 0 46.5 19.5t33.5 37.5q19 29 51 29q25 0 43 -17.5t18 -46.5q0 -23 -8 -39 q-22 -52 -73.5 -84.5t-110.5 -32.5h-19q-84 0 -139 55.5t-55 135.5v20zM174 1305v45q0 36 23 56.5t55 20.5t55 -20.5t23 -56.5v-45q0 -36 -23.5 -57t-54.5 -21t-54.5 21t-23.5 57z" />
<glyph unicode="&#x130;" horiz-adv-x="565" d="M205 66v1284q0 36 23 56.5t55 20.5q31 0 54 -20.5t23 -56.5v-1284q0 -36 -22.5 -56t-54.5 -20t-55 20t-23 56zM205 1624v64q0 35 23.5 55t54.5 20q33 0 56 -20t23 -55v-64q0 -35 -23 -54.5t-56 -19.5q-32 0 -55 19.5t-23 54.5z" />
<glyph unicode="&#x131;" horiz-adv-x="503" d="M174 66v856q0 36 23 56.5t55 20.5t55 -20.5t23 -56.5v-856q0 -36 -23 -56t-55 -20t-55 20t-23 56z" />
<glyph unicode="&#x136;" horiz-adv-x="1044" d="M184 66v1284q0 36 23 56.5t55 20.5t55 -20.5t23 -56.5v-648l469 691q21 34 61 34q35 0 58.5 -23t23.5 -54q0 -25 -14 -45l-322 -471l359 -734q8 -19 8 -34q0 -32 -23.5 -54t-58.5 -22q-46 0 -67 43l-318 653l-176 -260v-360q0 -36 -23 -56t-55 -20t-55 20t-23 56z M418 -399q0 23 14 43q4 5 14.5 16.5t13 15.5t8.5 14.5t8 21t3.5 27.5t1.5 40v71q0 33 21.5 51.5t50.5 18.5q30 0 51 -19t21 -53v-63q0 -62 -8 -104t-13.5 -52.5t-21.5 -36.5q-15 -23 -40 -41t-48 -18h-7q-27 0 -48 19t-21 49z" />
<glyph unicode="&#x137;" horiz-adv-x="950" d="M184 66v1284q0 36 23 56.5t55 20.5t55 -20.5t23 -56.5v-791l389 414q23 26 55 26q34 0 57 -23.5t23 -55.5t-22 -54l-254 -270l280 -492q11 -19 11 -38q0 -31 -22.5 -53.5t-57.5 -22.5q-46 0 -66 39l-256 448l-137 -147v-264q0 -36 -23 -56t-55 -20t-55 20t-23 56z M391 -399q0 22 15 43q4 5 14.5 16.5t13 15.5t8.5 14.5t8 21t3.5 27.5t1.5 40v71q0 33 21 51.5t50 18.5q30 0 51 -19t21 -53v-63q0 -62 -8 -104t-13.5 -52.5t-21.5 -36.5q-15 -23 -40 -41t-48 -18h-6q-28 0 -49 19t-21 49z" />
<glyph unicode="&#x139;" horiz-adv-x="960" d="M164 1573q0 48 45 67l299 152q28 8 37 8q31 0 53.5 -25t22.5 -57q0 -46 -46 -67l-299 -150q-16 -8 -36 -8q-31 0 -53.5 25t-22.5 55zM184 78v1272q0 36 23 56.5t55 20.5t55 -20.5t23 -56.5v-1194h481q36 0 57 -23.5t21 -54.5t-21 -54.5t-57 -23.5h-559q-31 0 -54.5 23.5 t-23.5 54.5z" />
<glyph unicode="&#x13a;" horiz-adv-x="602" d="M55 1573q0 48 45 67l299 152q28 8 37 8q31 0 53.5 -25t22.5 -57q0 -47 -45 -67l-299 -150q-16 -8 -37 -8q-31 0 -53.5 25t-22.5 55zM174 258v1092q0 36 23 56.5t55 20.5t55 -20.5t23 -56.5v-1092q0 -47 32.5 -80t79.5 -35q39 0 58.5 -22.5t19.5 -54.5t-19.5 -54 t-58.5 -22q-112 0 -190 78t-78 190z" />
<glyph unicode="&#x13b;" horiz-adv-x="960" d="M184 78v1272q0 36 23 56.5t55 20.5t55 -20.5t23 -56.5v-1194h481q36 0 57 -23.5t21 -54.5t-21 -54.5t-57 -23.5h-559q-31 0 -54.5 23.5t-23.5 54.5zM414 -399q0 23 14 43q4 5 14.5 16.5t13 15.5t8.5 14.5t8 21t3.5 27.5t1.5 40v71q0 33 21.5 51.5t50.5 18.5q30 0 51 -19 t21 -53v-63q0 -62 -8 -104t-13.5 -52.5t-21.5 -36.5q-14 -23 -39.5 -41t-49.5 -18h-6q-27 0 -48 19t-21 49z" />
<glyph unicode="&#x13c;" horiz-adv-x="602" d="M174 258v1092q0 36 23 56.5t55 20.5t55 -20.5t23 -56.5v-1092q0 -47 32.5 -80t79.5 -35q39 0 58.5 -22.5t19.5 -54.5t-19.5 -54t-58.5 -22q-112 0 -190 78t-78 190zM199 -399q0 23 14 43q4 5 14.5 16.5t13 15.5t8.5 14.5t8 21t3.5 27.5t1.5 40v71q0 33 21.5 51.5 t50.5 18.5q30 0 51 -19t21 -53v-63q0 -22 -0.5 -40.5t-2.5 -34t-3.5 -27t-5.5 -23t-5.5 -17.5t-6.5 -16t-6 -12.5t-7 -12t-7 -10.5q-15 -23 -40 -41t-48 -18h-6q-27 0 -48 19t-21 49z" />
<glyph unicode="&#x13d;" horiz-adv-x="960" d="M184 78v1272q0 36 23 56.5t55 20.5t55 -20.5t23 -56.5v-1194h481q36 0 57 -23.5t21 -54.5t-21 -54.5t-57 -23.5h-559q-31 0 -54.5 23.5t-23.5 54.5zM504 1167q0 19 16 43q4 5 15 19t14 18.5t10 17.5t9.5 24.5t4.5 31t2 43.5v80q0 32 22 49.5t52 17.5q29 0 49.5 -18 t20.5 -51v-74q0 -61 -9.5 -105t-18.5 -60t-25 -38q-39 -63 -86 -63h-7q-27 0 -48 18t-21 47z" />
<glyph unicode="&#x13e;" horiz-adv-x="602" d="M174 258v1092q0 36 23 56.5t55 20.5t55 -20.5t23 -56.5v-1092q0 -47 32.5 -80t79.5 -35q39 0 58.5 -22.5t19.5 -54.5t-19.5 -54t-58.5 -22q-112 0 -190 78t-78 190zM412 1085q0 19 16 43q4 5 15 19t14 18.5t10 17.5t9.5 24.5t4.5 31t2 43.5v80q0 32 22 50t52 18 q29 0 49.5 -18.5t20.5 -51.5v-74q0 -60 -10 -104.5t-19 -60.5t-25 -38q-39 -63 -86 -63h-6q-27 0 -48 18t-21 47z" />
<glyph unicode="&#x141;" horiz-adv-x="962" d="M10 528q0 43 39 66l137 82v674q0 36 23 56.5t55 20.5t55 -20.5t23 -56.5v-582l307 184q23 13 41 13q31 0 53.5 -25t22.5 -57q0 -43 -39 -66l-385 -229v-432h481q36 0 57 -23.5t21 -54.5t-21 -54.5t-57 -23.5h-559q-31 0 -54.5 23.5t-23.5 54.5v418l-57 -35 q-21 -12 -43 -12q-32 0 -54 24t-22 55z" />
<glyph unicode="&#x142;" horiz-adv-x="659" d="M10 618q0 42 37 64l197 121v547q0 36 23 56.5t55 20.5q31 0 54 -20.5t23 -56.5v-449l129 80q20 14 43 14q32 0 55 -25.5t23 -56.5q0 -40 -39 -63l-211 -133v-459q0 -47 33 -80t80 -35q37 0 57.5 -22.5t20.5 -54.5t-20.5 -55t-57.5 -23q-112 0 -190 78.5t-78 191.5v363 l-113 -70q-20 -14 -43 -14q-32 0 -55 25t-23 56z" />
<glyph unicode="&#x143;" d="M184 66v1282q0 39 26.5 59t65.5 20t63 -13t42 -52l444 -1014v1002q0 36 24 56.5t56 20.5q31 0 53.5 -20.5t22.5 -56.5v-1270q0 -90 -88 -90q-17 0 -26.5 1t-26 6.5t-30 20.5t-24.5 39l-446 1010v-1001q0 -36 -23 -56t-55 -20t-55 20t-23 56zM397 1573q0 48 45 67l299 152 q28 8 37 8q31 0 53.5 -25t22.5 -57q0 -47 -45 -67l-299 -150q-16 -8 -37 -8q-31 0 -53.5 25t-22.5 55z" />
<glyph unicode="&#x144;" horiz-adv-x="966" d="M154 66v856q0 35 23.5 56t55.5 21q28 0 50 -16t28 -45q61 61 176 61h19q140 0 234 -84.5t94 -244.5v-604q0 -36 -22 -56t-54 -20t-55 20t-23 56v604q0 72 -51.5 123t-124.5 51h-19q-73 0 -124.5 -50.5t-51.5 -123.5v-604q0 -36 -23 -56t-55 -20t-54.5 20t-22.5 56z M301 1145q0 45 45 67l301 146q19 8 37 8q31 0 53.5 -25t22.5 -55q0 -47 -45 -67l-301 -148q-28 -8 -37 -8q-33 0 -54.5 25t-21.5 57z" />
<glyph unicode="&#x145;" d="M184 66v1282q0 39 26.5 59t65.5 20t63 -13t42 -52l444 -1014v1002q0 36 24 56.5t56 20.5q31 0 53.5 -20.5t22.5 -56.5v-1270q0 -90 -88 -90q-17 0 -26.5 1t-26 6.5t-30 20.5t-24.5 39l-446 1010v-1001q0 -36 -23 -56t-55 -20t-55 20t-23 56zM479 -399q0 22 15 43 q4 5 14.5 16.5t13 15.5t8.5 14.5t8 21t3.5 27.5t1.5 40v71q0 33 21 51.5t50 18.5q30 0 51 -19t21 -53v-63q0 -62 -8 -104t-13.5 -52.5t-21.5 -36.5q-15 -23 -40 -41t-48 -18h-6q-28 0 -49 19t-21 49z" />
<glyph unicode="&#x146;" horiz-adv-x="966" d="M154 66v856q0 35 23.5 56t55.5 21q28 0 50 -16t28 -45q61 61 176 61h19q140 0 234 -84.5t94 -244.5v-604q0 -36 -22 -56t-54 -20t-55 20t-23 56v604q0 72 -51.5 123t-124.5 51h-19q-73 0 -124.5 -50.5t-51.5 -123.5v-604q0 -36 -23 -56t-55 -20t-54.5 20t-22.5 56z M377 -399q0 23 14 43q4 5 14.5 16.5t13 15.5t8.5 14.5t8 21t3.5 27.5t1.5 40v71q0 33 21.5 51.5t50.5 18.5q30 0 51 -19t21 -53v-63q0 -62 -8 -104t-13.5 -52.5t-21.5 -36.5q-15 -23 -40 -41t-48 -18h-7q-27 0 -48 19t-21 49z" />
<glyph unicode="&#x147;" d="M184 66v1282q0 39 26.5 59t65.5 20t63 -13t42 -52l444 -1014v1002q0 36 24 56.5t56 20.5q31 0 53.5 -20.5t22.5 -56.5v-1270q0 -90 -88 -90q-17 0 -26.5 1t-26 6.5t-30 20.5t-24.5 39l-446 1010v-1001q0 -36 -23 -56t-55 -20t-55 20t-23 56zM301 1706q0 30 21 52t51 22 q18 0 39 -15l174 -129l164 129q18 15 38 15q30 0 53 -23t23 -53t-28 -49l-187 -142q-30 -20 -63 -20q-36 0 -66 20l-190 142q-29 20 -29 51z" />
<glyph unicode="&#x148;" horiz-adv-x="966" d="M154 66v856q0 35 23.5 56t55.5 21q28 0 50 -16t28 -45q61 61 176 61h19q140 0 234 -84.5t94 -244.5v-604q0 -36 -22 -56t-54 -20t-55 20t-23 56v604q0 72 -51.5 123t-124.5 51h-19q-73 0 -124.5 -50.5t-51.5 -123.5v-604q0 -36 -23 -56t-55 -20t-54.5 20t-22.5 56z M213 1286q0 30 21 52t51 22q19 0 39 -14l174 -129l164 129q17 14 38 14q31 0 53.5 -22.5t22.5 -51.5q0 -30 -28 -49l-187 -143q-25 -19 -63 -19q-39 0 -64 19l-190 143q-31 16 -31 49z" />
<glyph unicode="&#x14c;" horiz-adv-x="1103" d="M154 377v663q0 160 114 273.5t275 113.5h20q160 0 273.5 -113.5t113.5 -273.5v-663q0 -162 -113.5 -274.5t-273.5 -112.5h-20q-162 0 -275.5 112.5t-113.5 274.5zM274 1620q0 33 22.5 55.5t61.5 22.5h383q42 0 64 -22.5t22 -55.5t-22.5 -56.5t-61.5 -23.5h-383 q-42 0 -64 23.5t-22 56.5zM309 377q0 -97 68.5 -165.5t165.5 -68.5h20q97 0 164.5 68.5t67.5 165.5v661q0 97 -67.5 165.5t-164.5 68.5h-20q-96 0 -165 -69t-69 -163v-663z" />
<glyph unicode="&#x14d;" horiz-adv-x="942" d="M131 317v353q0 136 96.5 232.5t233.5 96.5h20q137 0 233.5 -96.5t96.5 -232.5v-353q0 -137 -96.5 -232t-233.5 -95h-20q-137 0 -233.5 95t-96.5 232zM195 1217q0 31 22.5 54t61.5 23h383q42 0 64 -23.5t22 -56.5t-22.5 -56t-61.5 -23h-383q-42 0 -64 23.5t-22 58.5z M287 317q0 -72 51.5 -123t124.5 -51h18q72 0 123 51t51 123v353q0 72 -51 123t-123 51h-20q-72 0 -123 -51t-51 -123v-353z" />
<glyph unicode="&#x150;" horiz-adv-x="1103" d="M154 377v663q0 160 114 273.5t275 113.5h20q160 0 273.5 -113.5t113.5 -273.5v-663q0 -162 -113.5 -274.5t-273.5 -112.5h-20q-162 0 -275.5 112.5t-113.5 274.5zM279 1550q0 23 10.5 35.5t34.5 22.5q50 19 74 51.5t24 101.5q0 34 20.5 53t49.5 19q28 0 47.5 -19 t19.5 -53q0 -224 -182 -272q-16 -4 -27 -4q-31 0 -51 17.5t-20 47.5zM309 377q0 -97 68.5 -165.5t165.5 -68.5h20q97 0 164.5 68.5t67.5 165.5v661q0 97 -67.5 165.5t-164.5 68.5h-20q-96 0 -165 -69t-69 -163v-663zM584 1550q0 24 10.5 36.5t34.5 21.5q49 19 72.5 51.5 t23.5 101.5q0 34 20.5 53t49.5 19q28 0 48.5 -19.5t20.5 -52.5q0 -221 -178 -272q-20 -4 -33 -4q-31 0 -50 17.5t-19 47.5z" />
<glyph unicode="&#x151;" horiz-adv-x="942" d="M131 317v353q0 136 96.5 232.5t233.5 96.5h20q137 0 233.5 -96.5t96.5 -232.5v-353q0 -137 -96.5 -232t-233.5 -95h-20q-137 0 -233.5 95t-96.5 232zM219 1112q0 23 10.5 35t34.5 22q50 19 74 52t24 102q0 34 20.5 53t49.5 19q28 0 48 -19t20 -53q0 -224 -183 -272 q-16 -4 -26 -4q-32 0 -52 17.5t-20 47.5zM287 317q0 -72 51.5 -123t124.5 -51h18q72 0 123 51t51 123v353q0 72 -51 123t-123 51h-20q-72 0 -123 -51t-51 -123v-353zM524 1112q0 24 10 35.5t35 21.5q49 19 73 52t24 102q0 34 20 53t49 19q28 0 49 -19.5t21 -52.5 q0 -221 -178 -272q-20 -4 -33 -4q-31 0 -50.5 17.5t-19.5 47.5z" />
<glyph unicode="&#x152;" horiz-adv-x="1656" d="M154 377v663q0 160 114 273.5t275 113.5h20q138 0 234 -90q0 31 23 54.5t54 23.5h644q36 0 56.5 -23t20.5 -55q0 -31 -20.5 -54t-56.5 -23h-566v-455h391q36 0 57 -23.5t21 -54.5t-21 -54.5t-57 -23.5h-391v-493h566q36 0 56.5 -23t20.5 -55t-20.5 -55t-56.5 -23h-644 q-31 0 -54 23.5t-23 54.5q-40 -42 -103 -65t-131 -23h-20q-162 0 -275.5 112.5t-113.5 274.5zM309 377q0 -97 68.5 -165.5t165.5 -68.5h20q92 0 163 61t71 146v709q0 89 -70 151t-164 62h-20q-96 0 -165 -69t-69 -163v-663z" />
<glyph unicode="&#x153;" horiz-adv-x="1447" d="M131 317v353q0 136 96.5 232.5t233.5 96.5h20q151 0 252 -116q45 55 110.5 85.5t139.5 30.5h21q140 0 235.5 -94.5t95.5 -236.5v-168q0 -31 -23.5 -54.5t-54.5 -23.5h-446v-105q0 -72 50.5 -123t123.5 -51h19q109 0 159 105q22 49 72 49q31 0 54.5 -22t23.5 -56 q0 -18 -8 -37q-39 -88 -118.5 -140t-182.5 -52h-19q-75 0 -141.5 30t-110.5 84q-100 -114 -252 -114h-20q-137 0 -233.5 95t-96.5 232zM287 317q0 -72 51.5 -123t124.5 -51h18q72 0 123 51t51 123v353q0 72 -51 123t-123 51h-20q-72 0 -123 -51t-51 -123v-353zM811 567h369 v101q0 74 -51.5 125t-120.5 51h-21q-73 0 -124.5 -51t-51.5 -123v-103z" />
<glyph unicode="&#x154;" horiz-adv-x="1097" d="M184 66v1271q0 31 23.5 54.5t54.5 23.5h344q161 0 275 -114t114 -275v-18q0 -134 -77.5 -237t-202.5 -140l254 -531q8 -13 8 -34q0 -33 -23 -54.5t-59 -21.5q-47 0 -68 43l-278 585h-209v-552q0 -36 -23 -56t-55 -20t-55 20t-23 56zM340 774h274q96 0 161 68t65 166v18 q0 97 -68.5 165.5t-165.5 68.5h-266v-486zM344 1573q0 48 45 67l299 152q28 8 37 8q31 0 53.5 -25t22.5 -57q0 -47 -45 -67l-299 -150q-16 -8 -37 -8q-31 0 -53.5 25t-22.5 55z" />
<glyph unicode="&#x155;" horiz-adv-x="710" d="M143 70v852q0 35 24.5 56t55.5 21q49 0 68 -41q5 5 14.5 11.5t47.5 18t85 11.5q145 0 213 -100q19 -29 19 -53q0 -32 -22.5 -53t-53.5 -21q-35 0 -64 29q-43 43 -94 43q-44 0 -73 -11.5t-42 -33t-17.5 -42.5t-4.5 -50v-637q0 -39 -23 -59.5t-55 -20.5t-55 20.5t-23 59.5z M195 1145q0 45 45 67l301 146q19 8 37 8q31 0 53 -25t22 -55q0 -47 -45 -67l-301 -148q-28 -8 -37 -8q-32 0 -53.5 25t-21.5 57z" />
<glyph unicode="&#x156;" horiz-adv-x="1097" d="M184 66v1271q0 31 23.5 54.5t54.5 23.5h344q161 0 275 -114t114 -275v-18q0 -134 -77.5 -237t-202.5 -140l254 -531q8 -13 8 -34q0 -33 -23 -54.5t-59 -21.5q-47 0 -68 43l-278 585h-209v-552q0 -36 -23 -56t-55 -20t-55 20t-23 56zM340 774h274q96 0 161 68t65 166v18 q0 97 -68.5 165.5t-165.5 68.5h-266v-486zM430 -399q0 23 14 43q5 6 15 17t13 15t9 14.5t7.5 21t3.5 27.5t2 40v71q0 33 21 51.5t50 18.5q30 0 51 -19t21 -53v-63q0 -62 -8 -104t-13.5 -52.5t-21.5 -36.5q-15 -23 -40 -41t-48 -18h-6q-28 0 -49 19t-21 49z" />
<glyph unicode="&#x157;" horiz-adv-x="710" d="M90 -399q0 23 14 43q5 6 15 17t13 15t9 14.5t7.5 21t3.5 27.5t2 40v71q0 33 21 51.5t50 18.5q30 0 51 -19t21 -53v-63q0 -62 -8 -104t-13.5 -52.5t-21.5 -36.5q-15 -23 -40 -41t-48 -18h-6q-28 0 -49 19t-21 49zM143 70v852q0 35 24.5 56t55.5 21q49 0 68 -41 q5 5 14.5 11.5t47.5 18t85 11.5q145 0 213 -100q19 -29 19 -53q0 -32 -22.5 -53t-53.5 -21q-35 0 -64 29q-43 43 -94 43q-44 0 -73 -11.5t-42 -33t-17.5 -42.5t-4.5 -50v-637q0 -39 -23 -59.5t-55 -20.5t-55 20.5t-23 59.5z" />
<glyph unicode="&#x158;" horiz-adv-x="1097" d="M184 66v1271q0 31 23.5 54.5t54.5 23.5h344q161 0 275 -114t114 -275v-18q0 -134 -77.5 -237t-202.5 -140l254 -531q8 -13 8 -34q0 -33 -23 -54.5t-59 -21.5q-47 0 -68 43l-278 585h-209v-552q0 -36 -23 -56t-55 -20t-55 20t-23 56zM262 1706q0 30 21 52t51 22 q18 0 39 -15l174 -129l164 129q18 15 39 15q30 0 52.5 -23t22.5 -53t-28 -49l-187 -142q-30 -20 -63 -20q-36 0 -66 20l-190 142q-29 20 -29 51zM340 774h274q96 0 161 68t65 166v18q0 97 -68.5 165.5t-165.5 68.5h-266v-486z" />
<glyph unicode="&#x159;" horiz-adv-x="710" d="M100 1286q0 30 21 52t51 22q19 0 39 -14l174 -129l164 129q17 14 39 14q31 0 53.5 -22.5t22.5 -51.5q0 -30 -29 -49l-186 -143q-25 -19 -64 -19q-38 0 -63 19l-191 143q-31 16 -31 49zM143 70v852q0 35 24.5 56t55.5 21q49 0 68 -41q5 5 14.5 11.5t47.5 18t85 11.5 q145 0 213 -100q19 -29 19 -53q0 -32 -22.5 -53t-53.5 -21q-35 0 -64 29q-43 43 -94 43q-44 0 -73 -11.5t-42 -33t-17.5 -42.5t-4.5 -50v-637q0 -39 -23 -59.5t-55 -20.5t-55 20.5t-23 59.5z" />
<glyph unicode="&#x15a;" horiz-adv-x="1019" d="M102 367q0 36 23 55.5t55 19.5t55 -19t23 -58q0 -104 73 -163t179 -59h20q232 0 232 228q0 31 -6.5 58t-13.5 47t-25.5 41t-29 32.5t-38.5 30t-39.5 25t-46.5 25.5t-45 25q-32 18 -83 44t-82 43t-72 42.5t-65.5 51.5t-48 61.5t-34 80t-10.5 99.5q0 149 111.5 249.5 t273.5 100.5h20q151 0 262 -94.5t111 -232.5q0 -36 -21.5 -56t-52.5 -20t-54.5 19.5t-27.5 54.5q-8 76 -68.5 125t-152.5 49h-18q-60 0 -106 -20t-70.5 -51t-36.5 -62.5t-12 -61.5q0 -27 6 -51.5t14.5 -43t26 -36.5t30 -29.5t37.5 -27t38.5 -23t43 -22t41.5 -21.5 q24 -13 67 -35.5t66.5 -35t60.5 -34t58 -39t48 -42.5t42.5 -51.5t30 -59.5t21 -72t6.5 -85q0 -178 -103.5 -278.5t-288.5 -100.5h-18q-80 0 -152.5 24.5t-129.5 70.5t-90.5 119t-33.5 163zM305 1573q0 48 45 67l299 152q28 8 37 8q31 0 53.5 -25t22.5 -57q0 -47 -45 -67 l-299 -150q-16 -8 -37 -8q-31 0 -53.5 25t-22.5 55z" />
<glyph unicode="&#x15b;" horiz-adv-x="911" d="M92 231q0 34 24 55t56 21q47 0 70 -35q40 -54 100 -91.5t115 -37.5h10q89 0 142 41.5t55 96.5q1 48 -21 81.5t-59.5 50t-85.5 30.5t-98.5 23t-98.5 28.5t-86 46t-61 77t-23 119.5q0 47 16 87.5t43 68t60.5 49t72 33.5t74.5 18t70 6h8q92 0 161 -28.5t107 -59.5 q29 -23 29 -59q0 -30 -21 -52t-53 -22q-19 0 -45 13q-3 1 -21.5 11.5t-24.5 13.5t-24.5 10.5t-32 10.5t-34.5 6t-43 3h-8q-82 0 -129 -32t-49 -79q-1 -35 16 -60t47.5 -39t70.5 -24.5t84.5 -21t89 -22.5t85 -34t71.5 -53t49.5 -81t18.5 -115v-9q0 -91 -53.5 -157.5 t-132.5 -97.5t-168 -31h-12q-103 0 -203 55.5t-148 147.5q-10 23 -10 38zM293 1145q0 45 45 67l301 146q19 8 37 8q31 0 53.5 -25t22.5 -55q0 -47 -45 -67l-301 -148q-28 -8 -37 -8q-33 0 -54.5 25t-21.5 57z" />
<glyph unicode="&#x15e;" horiz-adv-x="1019" d="M102 367q0 36 23 55.5t55 19.5t55 -19t23 -58q0 -104 73 -163t179 -59h20q232 0 232 228q0 31 -6.5 58t-13.5 47t-25.5 41t-29 32.5t-38.5 30t-39.5 25t-46.5 25.5t-45 25q-32 18 -83 44t-82 43t-72 42.5t-65.5 51.5t-48 61.5t-34 80t-10.5 99.5q0 149 111.5 249.5 t273.5 100.5h20q151 0 262 -94.5t111 -232.5q0 -36 -21.5 -56t-52.5 -20t-54.5 19.5t-27.5 54.5q-8 76 -68.5 125t-152.5 49h-18q-60 0 -106 -20t-70.5 -51t-36.5 -62.5t-12 -61.5q0 -27 6 -51.5t14.5 -43t26 -36.5t30 -29.5t37.5 -27t38.5 -23t43 -22t41.5 -21.5 q24 -13 67 -35.5t66.5 -35t60.5 -34t58 -39t48 -42.5t42.5 -51.5t30 -59.5t21 -72t6.5 -85q0 -166 -90.5 -265.5t-254.5 -111.5v-47q52 -14 86.5 -57.5t34.5 -100.5v-20q0 -70 -49 -118t-119 -48h-20q-54 0 -97.5 31t-58.5 77q-6 15 -6 29q0 24 17 38.5t40 14.5q38 0 52 -41 q12 -39 53 -39h20q23 0 40.5 16.5t17.5 39.5v20q0 24 -17 39.5t-41 15.5h-10q-22 0 -37.5 16.5t-15.5 39.5v94q-154 13 -257.5 111.5t-103.5 263.5z" />
<glyph unicode="&#x15f;" horiz-adv-x="911" d="M92 231q0 34 24 55t56 21q47 0 70 -35q40 -54 100 -91.5t115 -37.5h10q89 0 142 41.5t55 96.5q1 48 -21 81.5t-59.5 50t-85.5 30.5t-98.5 23t-98.5 28.5t-86 46t-61 77t-23 119.5q0 47 16 87.5t43 68t60.5 49t72 33.5t74.5 18t70 6h8q92 0 161 -28.5t107 -59.5 q29 -23 29 -59q0 -30 -21 -52t-53 -22q-19 0 -45 13q-3 1 -21.5 11.5t-24.5 13.5t-24.5 10.5t-32 10.5t-34.5 6t-43 3h-8q-82 0 -129 -32t-49 -79q-1 -35 16 -60t47.5 -39t70.5 -24.5t84.5 -21t89 -22.5t85 -34t71.5 -53t49.5 -81t18.5 -115v-9q0 -118 -84 -192t-205 -90 v-49q52 -14 86.5 -57.5t34.5 -100.5v-20q0 -70 -49 -118t-119 -48h-20q-54 0 -97.5 31t-58.5 77q-6 15 -6 29q0 24 17 38.5t40 14.5q38 0 52 -41q12 -39 53 -39h20q23 0 40.5 16.5t17.5 39.5v20q0 24 -17 39.5t-41 15.5h-10q-22 0 -37.5 16.5t-15.5 39.5v94q-97 8 -186 62 t-132 139q-10 23 -10 38z" />
<glyph unicode="&#x160;" horiz-adv-x="1019" d="M102 367q0 36 23 55.5t55 19.5t55 -19t23 -58q0 -104 73 -163t179 -59h20q232 0 232 228q0 31 -6.5 58t-13.5 47t-25.5 41t-29 32.5t-38.5 30t-39.5 25t-46.5 25.5t-45 25q-32 18 -83 44t-82 43t-72 42.5t-65.5 51.5t-48 61.5t-34 80t-10.5 99.5q0 149 111.5 249.5 t273.5 100.5h20q151 0 262 -94.5t111 -232.5q0 -36 -21.5 -56t-52.5 -20t-54.5 19.5t-27.5 54.5q-8 76 -68.5 125t-152.5 49h-18q-60 0 -106 -20t-70.5 -51t-36.5 -62.5t-12 -61.5q0 -27 6 -51.5t14.5 -43t26 -36.5t30 -29.5t37.5 -27t38.5 -23t43 -22t41.5 -21.5 q24 -13 67 -35.5t66.5 -35t60.5 -34t58 -39t48 -42.5t42.5 -51.5t30 -59.5t21 -72t6.5 -85q0 -178 -103.5 -278.5t-288.5 -100.5h-18q-80 0 -152.5 24.5t-129.5 70.5t-90.5 119t-33.5 163zM229 1706q0 30 21 52t51 22q18 0 39 -15l174 -129l164 129q18 15 39 15q30 0 53 -23 t23 -53t-29 -49l-186 -142q-30 -20 -64 -20q-35 0 -65 20l-191 142q-29 20 -29 51z" />
<glyph unicode="&#x161;" horiz-adv-x="911" d="M92 231q0 34 24 55t56 21q47 0 70 -35q40 -54 100 -91.5t115 -37.5h10q89 0 142 41.5t55 96.5q1 48 -21 81.5t-59.5 50t-85.5 30.5t-98.5 23t-98.5 28.5t-86 46t-61 77t-23 119.5q0 47 16 87.5t43 68t60.5 49t72 33.5t74.5 18t70 6h8q92 0 161 -28.5t107 -59.5 q29 -23 29 -59q0 -30 -21 -52t-53 -22q-19 0 -45 13q-3 1 -21.5 11.5t-24.5 13.5t-24.5 10.5t-32 10.5t-34.5 6t-43 3h-8q-82 0 -129 -32t-49 -79q-1 -35 16 -60t47.5 -39t70.5 -24.5t84.5 -21t89 -22.5t85 -34t71.5 -53t49.5 -81t18.5 -115v-9q0 -91 -53.5 -157.5 t-132.5 -97.5t-168 -31h-12q-103 0 -203 55.5t-148 147.5q-10 23 -10 38zM174 1286q0 30 21 52t51 22q19 0 39 -14l174 -129l164 129q17 14 39 14q30 0 52.5 -22t22.5 -52t-28 -49l-187 -143q-25 -19 -63 -19q-39 0 -64 19l-190 143q-31 16 -31 49z" />
<glyph unicode="&#x162;" horiz-adv-x="823" d="M31 1337q0 31 21 54.5t57 23.5h606q36 0 57 -23.5t21 -54.5t-21 -54t-57 -23h-226v-1194q0 -36 -22.5 -56t-54.5 -20t-55 20t-23 56v1194h-225q-36 0 -57 23t-21 54zM274 -399q0 22 15 43q4 5 14.5 16.5t13 15.5t8.5 14.5t8 21t3.5 27.5t1.5 40v71q0 33 21.5 51.5 t50.5 18.5t50 -19t21 -53v-63q0 -62 -8 -104t-13.5 -52.5t-21.5 -36.5q-15 -23 -40 -41t-48 -18h-6q-28 0 -49 19t-21 49z" />
<glyph unicode="&#x163;" horiz-adv-x="659" d="M82 915q0 31 21 54.5t57 23.5h71v357q0 36 23 56.5t55 20.5t55 -20.5t23 -56.5v-357h111q36 0 56.5 -23t20.5 -55q0 -31 -20.5 -54t-56.5 -23h-111v-578q0 -52 34.5 -83t84.5 -34q35 -3 53.5 -24.5t18.5 -52.5q0 -32 -19.5 -54t-58.5 -22q-113 0 -191 78t-78 190v580h-71 q-36 0 -57 23t-21 54zM246 -399q0 23 14 43q4 5 14.5 16.5t13 15.5t8.5 14.5t8 21t3.5 27.5t1.5 40v71q0 33 21.5 51.5t50.5 18.5q30 0 51 -19t21 -53v-63q0 -62 -8 -104t-13.5 -52.5t-21.5 -36.5q-15 -23 -40 -41t-48 -18h-7q-27 0 -48 19t-21 49z" />
<glyph unicode="&#x164;" horiz-adv-x="823" d="M31 1337q0 31 21 54.5t57 23.5h606q36 0 57 -23.5t21 -54.5t-21 -54t-57 -23h-226v-1194q0 -36 -22.5 -56t-54.5 -20t-55 20t-23 56v1194h-225q-36 0 -57 23t-21 54zM129 1706q0 30 21 52t51 22q18 0 39 -15l174 -129l164 129q18 15 38 15q30 0 53 -23t23 -53t-28 -49 l-187 -142q-30 -20 -63 -20q-36 0 -66 20l-190 142q-29 20 -29 51z" />
<glyph unicode="&#x165;" horiz-adv-x="659" d="M82 915q0 31 21 54.5t57 23.5h71v357q0 36 23 56.5t55 20.5t55 -20.5t23 -56.5v-357h111q36 0 56.5 -23t20.5 -55q0 -31 -20.5 -54t-56.5 -23h-111v-578q0 -52 34.5 -83t84.5 -34q35 -3 53.5 -24.5t18.5 -52.5q0 -32 -19.5 -54t-58.5 -22q-113 0 -191 78t-78 190v580h-71 q-36 0 -57 23t-21 54zM469 1167q0 19 16 43q5 6 15.5 19t14 18t10.5 18t9.5 24.5t4.5 31t2 43.5v80q0 32 21.5 49.5t51.5 17.5q29 0 49.5 -18t20.5 -51v-74q0 -61 -9.5 -105t-18.5 -60t-25 -38q-39 -63 -86 -63h-6q-27 0 -48.5 18t-21.5 47z" />
<glyph unicode="&#x16a;" d="M184 377v973q0 36 23 56.5t55 20.5t55 -20.5t23 -56.5v-973q0 -97 68 -165.5t165 -68.5h21q96 0 163.5 68.5t67.5 165.5v973q0 36 23 56.5t55 20.5t55 -20.5t23 -56.5v-973q0 -162 -113.5 -274.5t-273.5 -112.5h-21q-162 0 -275.5 112.5t-113.5 274.5zM305 1620 q0 33 22.5 55.5t61.5 22.5h383q42 0 64 -22.5t22 -55.5t-22.5 -56.5t-61.5 -23.5h-383q-42 0 -64 23.5t-22 56.5z" />
<glyph unicode="&#x16b;" horiz-adv-x="960" d="M135 317v605q0 36 23 56.5t55 20.5t55 -20.5t23 -56.5v-605q0 -72 51 -123t123 -51h18q73 0 124.5 51t51.5 123v605q0 36 23 56.5t55 20.5t55 -20.5t23 -56.5v-856q0 -35 -23.5 -55.5t-54.5 -20.5q-28 0 -50 15t-28 44q-59 -59 -176 -59h-18q-142 0 -236 83t-94 244z M203 1217q0 31 22.5 54t61.5 23h383q42 0 64 -23.5t22 -56.5t-22.5 -56t-61.5 -23h-383q-42 0 -64 23.5t-22 58.5z" />
<glyph unicode="&#x16e;" d="M184 377v973q0 36 23 56.5t55 20.5t55 -20.5t23 -56.5v-973q0 -97 68 -165.5t165 -68.5h21q96 0 163.5 68.5t67.5 165.5v973q0 36 23 56.5t55 20.5t55 -20.5t23 -56.5v-973q0 -162 -113.5 -274.5t-273.5 -112.5h-21q-162 0 -275.5 112.5t-113.5 274.5zM412 1649 q0 71 50 120.5t122 49.5t121 -49.5t49 -120.5q0 -72 -49 -122t-121 -50t-122 50t-50 122zM516 1649q0 -29 20 -49.5t48 -20.5t47.5 20.5t19.5 49.5q0 28 -19.5 46.5t-47.5 18.5t-48 -19t-20 -46z" />
<glyph unicode="&#x16f;" horiz-adv-x="960" d="M135 317v605q0 36 23 56.5t55 20.5t55 -20.5t23 -56.5v-605q0 -72 51 -123t123 -51h18q73 0 124.5 51t51.5 123v605q0 36 23 56.5t55 20.5t55 -20.5t23 -56.5v-856q0 -35 -23.5 -55.5t-54.5 -20.5q-28 0 -50 15t-28 44q-59 -59 -176 -59h-18q-142 0 -236 83t-94 244z M309 1247q0 71 50 121.5t122 50.5q71 0 120.5 -50.5t49.5 -121.5t-49.5 -121.5t-120.5 -50.5q-72 0 -122 50.5t-50 121.5zM412 1247q0 -29 20 -48t49 -19q28 0 48 19t20 48q0 28 -20 47t-48 19q-29 0 -49 -19t-20 -47z" />
<glyph unicode="&#x170;" d="M184 377v973q0 36 23 56.5t55 20.5t55 -20.5t23 -56.5v-973q0 -97 68 -165.5t165 -68.5h21q96 0 163.5 68.5t67.5 165.5v973q0 36 23 56.5t55 20.5t55 -20.5t23 -56.5v-973q0 -162 -113.5 -274.5t-273.5 -112.5h-21q-162 0 -275.5 112.5t-113.5 274.5zM330 1550 q0 23 10.5 35.5t34.5 22.5q50 19 74 51.5t24 101.5q0 34 20.5 53t49.5 19q28 0 47.5 -19t19.5 -53q0 -224 -182 -272q-16 -4 -27 -4q-31 0 -51 17.5t-20 47.5zM635 1550q0 24 10.5 36.5t34.5 21.5q49 19 72.5 51.5t23.5 101.5q0 34 20.5 53t49.5 19q28 0 48.5 -19.5 t20.5 -52.5q0 -221 -178 -272q-20 -4 -32 -4q-31 0 -50.5 17.5t-19.5 47.5z" />
<glyph unicode="&#x171;" horiz-adv-x="960" d="M135 317v605q0 36 23 56.5t55 20.5t55 -20.5t23 -56.5v-605q0 -72 51 -123t123 -51h18q73 0 124.5 51t51.5 123v605q0 36 23 56.5t55 20.5t55 -20.5t23 -56.5v-856q0 -35 -23.5 -55.5t-54.5 -20.5q-28 0 -50 15t-28 44q-59 -59 -176 -59h-18q-142 0 -236 83t-94 244z M207 1112q0 23 10.5 35t34.5 22q50 19 74 52t24 102q0 34 20.5 53t49.5 19q28 0 47.5 -19t19.5 -53q0 -224 -182 -272q-16 -4 -26 -4q-32 0 -52 17.5t-20 47.5zM512 1112q0 24 10 35.5t35 21.5q49 19 72.5 52t23.5 102q0 34 20.5 53t49.5 19q28 0 49 -19.5t21 -52.5 q0 -221 -179 -272q-20 -4 -32 -4q-31 0 -50.5 17.5t-19.5 47.5z" />
<glyph unicode="&#x172;" d="M184 377v973q0 36 23 56.5t55 20.5t55 -20.5t23 -56.5v-973q0 -97 68 -165.5t165 -68.5h21q96 0 163.5 68.5t67.5 165.5v973q0 36 23 56.5t55 20.5t55 -20.5t23 -56.5v-973q0 -92 -38.5 -170.5t-106.5 -132.5q-148 -165 -148 -234v-10q0 -27 16.5 -44t43.5 -17h8 q22 0 46.5 19.5t33.5 37.5q19 29 51 29q25 0 43 -17.5t18 -46.5q0 -23 -8 -39q-22 -52 -73.5 -84.5t-110.5 -32.5h-19q-84 0 -139 55.5t-55 135.5v20q0 67 57 144h-27q-162 0 -275.5 112.5t-113.5 274.5z" />
<glyph unicode="&#x173;" horiz-adv-x="960" d="M135 317v605q0 36 23 56.5t55 20.5t55 -20.5t23 -56.5v-605q0 -72 51 -123t123 -51h18q73 0 124.5 51t51.5 123v605q0 36 23 56.5t55 20.5t55 -20.5t23 -56.5v-856q0 -27 -14 -45.5t-37 -24.5q-20 -11 -39 -27.5t-38 -52t-19 -76.5v-10q0 -27 16 -44t43 -17h8 q22 0 46.5 19.5t33.5 37.5q19 29 51 29q26 0 44 -18t18 -46q0 -23 -8 -39q-22 -52 -74 -84.5t-111 -32.5h-18q-84 0 -139.5 55.5t-55.5 135.5v20q0 85 58 156q-44 -12 -97 -12h-18q-142 0 -236 83t-94 244z" />
<glyph unicode="&#x178;" horiz-adv-x="974" d="M88 1319q-17 41 7 74.5t69 33.5q47 0 67 -49l256 -614l256 614q20 49 70 49q45 0 68 -33.5t6 -74.5l-322 -772v-481q0 -36 -23 -56t-55 -20t-54.5 20t-22.5 56v481zM227 1593v58q0 37 24 58.5t56 21.5q33 0 56.5 -21t23.5 -59v-58q0 -39 -23.5 -59.5t-56.5 -20.5 q-32 0 -56 20.5t-24 59.5zM588 1593v58q0 38 23.5 59t56.5 21q32 0 56 -21.5t24 -58.5v-58q0 -39 -24 -59.5t-56 -20.5q-33 0 -56.5 20.5t-23.5 59.5z" />
<glyph unicode="&#x179;" horiz-adv-x="950" d="M82 98q0 28 12 49l580 1113h-486q-39 0 -58 22.5t-19 54.5q0 33 19.5 55.5t57.5 22.5h586q57 0 82.5 -44.5t-2.5 -98.5l-582 -1116h516q36 0 57 -23.5t21 -54.5t-21 -54.5t-57 -23.5h-616q-41 0 -65.5 29t-24.5 69zM291 1573q0 48 45 67l299 152q28 8 37 8q31 0 53.5 -25 t22.5 -57q0 -46 -46 -67l-299 -150q-16 -8 -36 -8q-31 0 -53.5 25t-22.5 55z" />
<glyph unicode="&#x17a;" horiz-adv-x="851" d="M89.5 56q-21.5 56 14.5 108l455 667h-385q-36 0 -57 23.5t-21 54.5t21 54.5t57 23.5h500q62 0 84.5 -52.5t-13.5 -105.5l-456 -673h403q36 0 57 -23.5t21 -54.5t-21 -54.5t-57 -23.5h-522q-59 0 -80.5 56zM223 1145q0 45 45 67l301 146q19 8 37 8q31 0 53.5 -25t22.5 -55 q0 -47 -45 -67l-301 -148q-28 -8 -37 -8q-33 0 -54.5 25t-21.5 57z" />
<glyph unicode="&#x17b;" horiz-adv-x="950" d="M82 98q0 28 12 49l580 1113h-486q-39 0 -58 22.5t-19 54.5q0 33 19.5 55.5t57.5 22.5h586q57 0 82.5 -44.5t-2.5 -98.5l-582 -1116h516q36 0 57 -23.5t21 -54.5t-21 -54.5t-57 -23.5h-616q-41 0 -65.5 29t-24.5 69zM412 1624v64q0 35 23 55t54 20q33 0 56.5 -20t23.5 -55 v-64q0 -35 -23.5 -54.5t-56.5 -19.5q-31 0 -54 19.5t-23 54.5z" />
<glyph unicode="&#x17c;" horiz-adv-x="851" d="M89.5 56q-21.5 56 14.5 108l455 667h-385q-36 0 -57 23.5t-21 54.5t21 54.5t57 23.5h500q62 0 84.5 -52.5t-13.5 -105.5l-456 -673h403q36 0 57 -23.5t21 -54.5t-21 -54.5t-57 -23.5h-522q-59 0 -80.5 56zM346 1214v66q0 35 23.5 54.5t56.5 19.5t56.5 -19.5t23.5 -54.5 v-66q0 -34 -23.5 -53.5t-56.5 -19.5t-56.5 19.5t-23.5 53.5z" />
<glyph unicode="&#x17d;" horiz-adv-x="950" d="M82 98q0 28 12 49l580 1113h-486q-39 0 -58 22.5t-19 54.5q0 33 19.5 55.5t57.5 22.5h586q57 0 82.5 -44.5t-2.5 -98.5l-582 -1116h516q36 0 57 -23.5t21 -54.5t-21 -54.5t-57 -23.5h-616q-41 0 -65.5 29t-24.5 69zM197 1706q0 30 20.5 52t50.5 22q18 0 39 -15l174 -129 l164 129q18 15 39 15q30 0 53 -23t23 -53t-29 -49l-186 -142q-30 -20 -64 -20q-35 0 -65 20l-191 142q-28 20 -28 51z" />
<glyph unicode="&#x17e;" horiz-adv-x="851" d="M89.5 56q-21.5 56 14.5 108l455 667h-385q-36 0 -57 23.5t-21 54.5t21 54.5t57 23.5h500q62 0 84.5 -52.5t-13.5 -105.5l-456 -673h403q36 0 57 -23.5t21 -54.5t-21 -54.5t-57 -23.5h-522q-59 0 -80.5 56zM145 1286q0 30 21 52t51 22q19 0 39 -14l174 -129l164 129 q17 14 39 14q31 0 53.5 -22.5t22.5 -51.5q0 -30 -29 -49l-186 -143q-25 -19 -64 -19q-38 0 -63 19l-191 143q-31 16 -31 49z" />
<glyph unicode="&#x192;" horiz-adv-x="776" d="M-49 -88q0 32 19.5 55t54.5 23q55 0 97.5 34t51.5 87l127 733h-29q-36 0 -56.5 23t-20.5 55q0 31 20.5 54t56.5 23h58l30 172q20 110 98 183t199 73q36 0 57 -23t21 -54t-21 -54.5t-57 -23.5q-67 0 -99 -34t-44 -95l-27 -144h82q39 0 58.5 -22.5t19.5 -54.5t-19.5 -55 t-58.5 -23h-108l-135 -768q-19 -105 -103.5 -173.5t-193.5 -68.5q-36 0 -57 23.5t-21 54.5z" />
<glyph unicode="&#x218;" horiz-adv-x="1019" d="M102 367q0 36 23 55.5t55 19.5t55 -19t23 -58q0 -104 73 -163t179 -59h20q232 0 232 228q0 31 -6.5 58t-13.5 47t-25.5 41t-29 32.5t-38.5 30t-39.5 25t-46.5 25.5t-45 25q-32 18 -83 44t-82 43t-72 42.5t-65.5 51.5t-48 61.5t-34 80t-10.5 99.5q0 149 111.5 249.5 t273.5 100.5h20q151 0 262 -94.5t111 -232.5q0 -36 -21.5 -56t-52.5 -20t-54.5 19.5t-27.5 54.5q-8 76 -68.5 125t-152.5 49h-18q-60 0 -106 -20t-70.5 -51t-36.5 -62.5t-12 -61.5q0 -27 6 -51.5t14.5 -43t26 -36.5t30 -29.5t37.5 -27t38.5 -23t43 -22t41.5 -21.5 q24 -13 67 -35.5t66.5 -35t60.5 -34t58 -39t48 -42.5t42.5 -51.5t30 -59.5t21 -72t6.5 -85q0 -178 -103.5 -278.5t-288.5 -100.5h-18q-80 0 -152.5 24.5t-129.5 70.5t-90.5 119t-33.5 163zM385 -399q0 23 14 43q5 6 15 17t13 15t9 14.5t7.5 21t3.5 27.5t2 40v71 q0 33 21 51.5t50 18.5q30 0 51 -19t21 -53v-63q0 -62 -8 -104t-13.5 -52.5t-21.5 -36.5q-15 -23 -40 -41t-48 -18h-6q-28 0 -49 19t-21 49z" />
<glyph unicode="&#x219;" horiz-adv-x="911" d="M92 231q0 34 24 55t56 21q47 0 70 -35q40 -54 100 -91.5t115 -37.5h10q89 0 142 41.5t55 96.5q1 48 -21 81.5t-59.5 50t-85.5 30.5t-98.5 23t-98.5 28.5t-86 46t-61 77t-23 119.5q0 47 16 87.5t43 68t60.5 49t72 33.5t74.5 18t70 6h8q92 0 161 -28.5t107 -59.5 q29 -23 29 -59q0 -30 -21 -52t-53 -22q-19 0 -45 13q-3 1 -21.5 11.5t-24.5 13.5t-24.5 10.5t-32 10.5t-34.5 6t-43 3h-8q-82 0 -129 -32t-49 -79q-1 -35 16 -60t47.5 -39t70.5 -24.5t84.5 -21t89 -22.5t85 -34t71.5 -53t49.5 -81t18.5 -115v-9q0 -91 -53.5 -157.5 t-132.5 -97.5t-168 -31h-12q-103 0 -203 55.5t-148 147.5q-10 23 -10 38zM346 -399q0 23 14 43q5 6 15 17t13 15t9 14.5t7.5 21t3.5 27.5t2 40v71q0 33 21 51.5t50 18.5q30 0 51 -19t21 -53v-63q0 -62 -8 -104t-13.5 -52.5t-21.5 -36.5q-15 -23 -40 -41t-48 -18h-6 q-28 0 -49 19t-21 49z" />
<glyph unicode="&#x2c6;" horiz-adv-x="944" d="M188 1147q0 29 31 51l191 143q28 19 63 19q37 0 66 -19l184 -143q29 -19 29 -49t-22 -52t-52 -22q-20 0 -41 12l-164 132l-172 -132q-21 -12 -39 -12q-31 0 -52.5 21.5t-21.5 50.5z" />
<glyph unicode="&#x2c7;" horiz-adv-x="931" d="M184 1286q0 30 21 52t51 22q19 0 39 -14l174 -129l164 129q17 14 39 14q31 0 53.5 -22.5t22.5 -51.5q0 -30 -29 -49l-187 -143q-25 -19 -63 -19t-63 19l-191 143q-31 16 -31 49z" />
<glyph unicode="&#x2d8;" horiz-adv-x="937" d="M225 1305q0 29 16 46t44 17q29 0 43.5 -16t29.5 -54q8 -39 36 -63.5t69 -24.5h6q42 0 69 24t35 64q15 38 29.5 54t42.5 16t45 -17t17 -46q0 -92 -71 -157t-161 -65h-18q-90 0 -161 65t-71 157z" />
<glyph unicode="&#x2d9;" horiz-adv-x="706" d="M276 1214v66q0 35 23.5 54.5t56.5 19.5t56.5 -19.5t23.5 -54.5v-66q0 -34 -23.5 -53.5t-56.5 -19.5t-56.5 19.5t-23.5 53.5z" />
<glyph unicode="&#x2da;" horiz-adv-x="899" d="M279 1247q0 71 50 121.5t122 50.5q71 0 120.5 -50.5t49.5 -121.5t-49.5 -121.5t-120.5 -50.5q-72 0 -122 50.5t-50 121.5zM381 1247q0 -29 20 -48t50 -19q28 0 47.5 19t19.5 48q0 28 -19.5 47t-47.5 19q-29 0 -49.5 -19t-20.5 -47z" />
<glyph unicode="&#x2db;" horiz-adv-x="925" d="M262 -154q0 89 86.5 168.5t177.5 94.5q45 0 45 -33q0 -10 -7 -36.5t-5 -39.5q-6 0 -28 -10t-50.5 -28t-50.5 -51t-22 -71v-10q0 -27 16 -44t43 -17h8q22 0 46.5 19.5t33.5 37.5q19 29 51 29q26 0 44 -18t18 -46q0 -21 -9 -39q-22 -52 -73.5 -84.5t-110.5 -32.5h-18 q-84 0 -139.5 55.5t-55.5 135.5v20z" />
<glyph unicode="&#x2dc;" horiz-adv-x="929" d="M125 1192q0 28 20 51q32 36 83.5 55t101.5 19q46 0 132 -28.5t126 -28.5q15 0 28 2.5t26.5 8.5t20.5 9.5t20.5 12t16.5 10.5q17 10 35 10q30 0 50 -19.5t20 -46.5q0 -30 -23 -53q-32 -32 -85.5 -49t-110.5 -17q-48 0 -133 29t-123 29q-46 0 -97 -47q-19 -15 -38 -15 q-30 0 -50 20.5t-20 47.5z" />
<glyph unicode="&#x2dd;" horiz-adv-x="956" d="M139 1112q0 23 10.5 35t34.5 22q51 19 75 52t24 102q0 34 20 53t49 19q28 0 48 -19t20 -53q0 -224 -182 -272q-16 -4 -27 -4q-32 0 -52 17.5t-20 47.5zM444 1112q0 24 10 35.5t35 21.5q49 19 73 52t24 102q0 34 20 53t49 19q28 0 49 -19.5t21 -52.5q0 -221 -178 -272 q-20 -4 -33 -4q-31 0 -50.5 17.5t-19.5 47.5z" />
<glyph unicode="&#x394;" horiz-adv-x="1370" d="M25 98q0 24 8 37l565 1163q12 25 36 39.5t50 14.5q67 0 92 -54l561 -1163q9 -15 9 -39q0 -37 -25 -66.5t-64 -29.5h-1140q-41 0 -66.5 29.5t-25.5 68.5zM217 156h938l-471 970z" />
<glyph unicode="&#x3a9;" horiz-adv-x="1521" d="M119 78q0 32 19.5 55t58.5 23h290v69q-165 80 -264.5 233.5t-99.5 344.5q0 130 50.5 248t135.5 203t203 135.5t248 50.5t248 -50.5t204 -135.5t136.5 -203t50.5 -248q0 -191 -100 -344.5t-265 -233.5v-69h291q36 0 57 -23.5t21 -54.5t-21 -54.5t-57 -23.5h-364 q-38 0 -60 23t-22 59v158q0 64 53 98q6 3 18 11q32 18 50 29.5t53 37.5t57 49t50 60t44 76t27.5 91.5t11.5 110.5q0 131 -64.5 241.5t-175.5 175t-243 64.5q-131 0 -241.5 -64.5t-175 -175t-64.5 -241.5q0 -46 7 -88t17.5 -75.5t29 -66t33.5 -55t41 -47.5t42 -39t44.5 -33.5 t40 -27t38.5 -22.5q12 -8 18 -11q53 -34 53 -98v-158q0 -36 -23 -59t-59 -23h-364q-39 0 -58.5 23t-19.5 55z" />
<glyph unicode="&#x3bc;" horiz-adv-x="958" d="M133 -362v1284q0 36 23 56.5t55 20.5t55 -20.5t23 -56.5v-617q0 -67 52 -114.5t122 -47.5h18q73 0 124.5 51t51.5 123v603q0 39 23 59t55 20t55 -20t23 -59v-854q0 -35 -23.5 -55.5t-54.5 -20.5q-28 0 -50 15t-28 44q-59 -59 -184 -59t-184 59v-411q0 -36 -23.5 -57 t-54.5 -21t-54.5 21t-23.5 57z" />
<glyph unicode="&#x3c0;" horiz-adv-x="1118" d="M82 922q0 31 21 54t57 23h798q36 0 57 -23t21 -54t-21 -54.5t-57 -23.5h-157v-565q0 -114 82 -148q55 -20 55 -70q0 -30 -21.5 -50.5t-56.5 -20.5q-66 0 -116.5 47.5t-74.5 112t-24 129.5v565h-174v-778q0 -38 -22.5 -57t-55.5 -19t-55.5 19t-22.5 57v778h-155 q-36 0 -57 23.5t-21 54.5z" />
<glyph unicode="&#x2000;" horiz-adv-x="916" />
<glyph unicode="&#x2001;" horiz-adv-x="1833" />
<glyph unicode="&#x2002;" horiz-adv-x="916" />
<glyph unicode="&#x2003;" horiz-adv-x="1833" />
<glyph unicode="&#x2004;" horiz-adv-x="611" />
<glyph unicode="&#x2005;" horiz-adv-x="458" />
<glyph unicode="&#x2006;" horiz-adv-x="305" />
<glyph unicode="&#x2007;" horiz-adv-x="305" />
<glyph unicode="&#x2008;" horiz-adv-x="229" />
<glyph unicode="&#x2009;" horiz-adv-x="366" />
<glyph unicode="&#x200a;" horiz-adv-x="101" />
<glyph unicode="&#x2010;" horiz-adv-x="874" d="M92 547q0 31 21 54.5t57 23.5h532q39 0 59.5 -23t20.5 -55q0 -33 -19 -55.5t-58 -22.5h-535q-36 0 -57 23.5t-21 54.5z" />
<glyph unicode="&#x2011;" horiz-adv-x="874" d="M92 547q0 31 21 54.5t57 23.5h532q39 0 59.5 -23t20.5 -55q0 -33 -19 -55.5t-58 -22.5h-535q-36 0 -57 23.5t-21 54.5z" />
<glyph unicode="&#x2012;" horiz-adv-x="874" d="M92 547q0 31 21 54.5t57 23.5h532q39 0 59.5 -23t20.5 -55q0 -33 -19 -55.5t-58 -22.5h-535q-36 0 -57 23.5t-21 54.5z" />
<glyph unicode="&#x2013;" horiz-adv-x="1013" d="M92 547q0 31 21 54.5t57 23.5h674q36 0 57 -23.5t21 -54.5t-21 -54.5t-57 -23.5h-674q-36 0 -57 23.5t-21 54.5z" />
<glyph unicode="&#x2014;" horiz-adv-x="1196" d="M41 547q0 31 21 54.5t57 23.5h958q39 0 58.5 -23t19.5 -55t-19.5 -55t-58.5 -23h-958q-36 0 -57 23.5t-21 54.5z" />
<glyph unicode="&#x2018;" horiz-adv-x="346" d="M61 1051v41q0 109 17.5 175t62.5 128q20 32 62 32q35 0 58.5 -23t23.5 -54q0 -16 -17 -47q-29 -44 -40 -83.5t-11 -127.5v-41q0 -36 -23.5 -57t-54.5 -21t-54.5 21t-23.5 57z" />
<glyph unicode="&#x2019;" horiz-adv-x="346" d="M61 1051q0 27 17 47q28 42 39.5 83t11.5 128v41q0 36 23 56.5t55 20.5t55 -20.5t23 -56.5v-41q0 -108 -18.5 -174t-63.5 -129q-23 -33 -62 -33q-34 0 -57 23t-23 55z" />
<glyph unicode="&#x201a;" horiz-adv-x="346" d="M61 -231q0 27 17 47q28 41 39.5 83t11.5 126v41q0 36 23 56.5t55 20.5t55 -20.5t23 -56.5v-41q0 -107 -18.5 -172.5t-63.5 -128.5q-23 -33 -62 -33q-34 0 -57 23t-23 55z" />
<glyph unicode="&#x201c;" horiz-adv-x="641" d="M72 1051v41q0 109 17.5 175t62.5 128q20 32 61 32q35 0 58.5 -23t23.5 -54q0 -18 -16 -47q-20 -31 -29 -50.5t-16 -59.5t-7 -101v-41q0 -36 -23 -57t-54 -21t-54.5 21t-23.5 57zM348 1051v41q0 109 17.5 175t62.5 128q22 32 61 32q35 0 57.5 -22.5t22.5 -54.5 q0 -27 -14 -47q-29 -44 -40 -83.5t-11 -127.5v-41q0 -36 -23.5 -57t-54.5 -21t-54.5 21t-23.5 57z" />
<glyph unicode="&#x201d;" horiz-adv-x="641" d="M72 1051q0 28 16 47q28 42 39.5 83t11.5 128v41q0 36 23 56.5t55 20.5t55 -20.5t23 -56.5v-41q0 -108 -18.5 -174t-63.5 -129q-23 -33 -61 -33q-34 0 -57 23t-23 55zM348 1051q0 27 14 47q20 31 29 50.5t16 59.5t7 101v41q0 36 23 56.5t55 20.5q33 0 55 -20t22 -57v-41 q0 -109 -17.5 -175t-62.5 -128q-23 -33 -61 -33q-34 0 -57 23t-23 55z" />
<glyph unicode="&#x201e;" horiz-adv-x="641" d="M72 -231q0 28 16 47q28 41 39.5 83t11.5 126v41q0 36 23 56.5t55 20.5t55 -20.5t23 -56.5v-41q0 -107 -18.5 -172.5t-63.5 -128.5q-23 -33 -61 -33q-34 0 -57 23t-23 55zM348 -236q0 28 14 48q20 31 29 50.5t16 59.5t7 101v40q0 36 23.5 57t54.5 21q32 0 54.5 -20.5 t22.5 -57.5v-40q0 -109 -17.5 -175.5t-62.5 -128.5q-22 -32 -61 -32q-34 0 -57 22.5t-23 54.5z" />
<glyph unicode="&#x2020;" horiz-adv-x="925" d="M102 942q0 28 19.5 50t52.5 22h217v342q0 34 20.5 52.5t51.5 18.5t51.5 -18.5t20.5 -52.5v-342h217q35 0 53 -20.5t18 -51.5t-18 -51.5t-53 -20.5h-217v-811q0 -35 -20 -52t-52 -17t-52 17t-20 52v811h-217q-34 0 -53 20.5t-19 51.5z" />
<glyph unicode="&#x2021;" horiz-adv-x="944" d="M102 442q0 28 19.5 49t52.5 21h238v403h-238q-34 0 -53 20.5t-19 51.5q0 28 19.5 49t52.5 21h238v301q0 33 21 51t50 18q31 0 51.5 -17.5t20.5 -51.5v-301h215q33 0 52.5 -21t19.5 -49q0 -31 -19 -51.5t-53 -20.5h-215v-403h215q33 0 52.5 -21t19.5 -49q0 -31 -19 -51 t-53 -20h-215v-314q0 -33 -20.5 -50t-51.5 -17q-29 0 -50 17t-21 50v314h-238q-34 0 -53 20t-19 51z" />
<glyph unicode="&#x2022;" horiz-adv-x="692" d="M133 690q0 88 62.5 150.5t150.5 62.5q90 0 151.5 -62.5t61.5 -150.5q0 -90 -61.5 -152.5t-151.5 -62.5q-88 0 -150.5 63t-62.5 152z" />
<glyph unicode="&#x2026;" horiz-adv-x="1007" d="M61 66v45q0 36 23 56.5t55 20.5t55 -20.5t23 -56.5v-45q0 -36 -23 -56t-55 -20t-55 20t-23 56zM430 66v45q0 36 23 56.5t55 20.5t55 -20.5t23 -56.5v-45q0 -36 -23 -56t-55 -20t-55 20t-23 56zM780 66v45q0 36 23 56.5t55 20.5t55 -20.5t23 -56.5v-45q0 -36 -23 -56 t-55 -20t-55 20t-23 56z" />
<glyph unicode="&#x202f;" horiz-adv-x="366" />
<glyph unicode="&#x2030;" horiz-adv-x="2058" d="M123 897v291q0 98 67 168.5t166 70.5q97 0 164.5 -70.5t67.5 -168.5v-291q0 -98 -67.5 -169t-164.5 -71q-98 0 -165.5 71t-67.5 169zM279 897q0 -36 23 -60t54 -24q30 0 53 24t23 60v291q0 36 -23 60t-53 24q-31 0 -54 -24t-23 -60v-291zM406 63q0 18 6 33l532 1284 q19 47 68 47q36 0 59 -22t23 -53q0 -14 -7 -31l-532 -1284q-19 -47 -68 -47q-36 0 -58.5 21t-22.5 52zM920 227v291q0 98 67.5 169t165.5 71q97 0 164 -71t67 -169v-291q0 -99 -66.5 -168t-164.5 -69q-99 0 -166 69t-67 168zM1075 227q0 -36 24 -60t54 -24t53 24t23 60v291 q0 36 -23 60t-53 24t-54 -24t-24 -60v-291zM1468 227v291q0 98 68.5 169t165.5 71t165 -71t68 -169v-291q0 -99 -67.5 -168t-165.5 -69t-166 69t-68 168zM1624 227q0 -36 24 -60t54 -24t54 24t24 60v291q0 36 -24 60t-54 24t-54 -24t-24 -60v-291z" />
<glyph unicode="&#x2039;" horiz-adv-x="798" d="M102 532q0 47 27 74l324 324q31 31 61 31q34 0 57 -23t23 -59q0 -29 -33 -62l-285 -285l285 -284q33 -33 33 -62q0 -36 -23 -59t-57 -23q-30 0 -61 31l-324 324q-27 27 -27 73z" />
<glyph unicode="&#x203a;" horiz-adv-x="798" d="M205 186q0 29 33 62l284 284l-284 285q-33 33 -33 62q0 37 20 59q26 23 60 23q5 0 9 -0.5t8.5 -2.5t7.5 -3.5t8.5 -5t7.5 -5.5t8.5 -7t9.5 -7l326 -324q26 -26 26 -74q0 -47 -26 -73l-326 -324q-3 -2 -8 -6.5t-7.5 -6t-7 -5t-7 -5t-6.5 -3.5t-7.5 -3t-7.5 -1.5t-8 -0.5 q-34 0 -60 23q-20 23 -20 59z" />
<glyph unicode="&#x2044;" horiz-adv-x="811" d="M61 63q0 12 7 33l520 1282q20 49 69 49q36 0 59 -22t23 -53q0 -15 -6 -33l-522 -1282q-19 -47 -68 -47q-36 0 -59 21t-23 52z" />
<glyph unicode="&#x205f;" horiz-adv-x="458" />
<glyph unicode="&#x20ac;" horiz-adv-x="1157" d="M102 547q0 31 21 54.5t57 23.5h80v135h-80q-36 0 -57 23.5t-21 54.5t21 54t57 23h80v125q0 160 114 273.5t275 113.5h21q147 0 256 -95t129 -238v-13q0 -35 -22.5 -55t-53.5 -20q-28 0 -49.5 17t-28.5 50q-18 86 -81.5 142.5t-149.5 56.5h-21q-96 0 -164.5 -69 t-68.5 -163v-125h389q36 0 57 -23t21 -54t-21 -54.5t-57 -23.5h-389v-135h389q36 0 57 -23.5t21 -54.5t-21 -54.5t-57 -23.5h-389v-92q0 -97 68 -165.5t165 -68.5h21q86 0 149.5 56.5t81.5 142.5q7 33 29 50.5t49 17.5q31 0 53.5 -20.5t22.5 -55.5v-15q-20 -141 -130 -235 t-255 -94h-21q-162 0 -275.5 112.5t-113.5 274.5v92h-80q-36 0 -57 23.5t-21 54.5z" />
<glyph unicode="&#x2122;" horiz-adv-x="1263" d="M41 1366q0 26 15.5 43.5t43.5 17.5h340q28 0 44 -17.5t16 -43.5q0 -25 -16 -43t-44 -18h-104v-471q0 -31 -17 -46.5t-43 -15.5q-25 0 -42 16t-17 46v471h-117q-28 0 -43.5 18t-15.5 43zM604 834v532q0 24 18 42.5t42 18.5h24q34 0 51 -32q99 -187 144 -275l143 277 q15 30 49 30h27q23 0 41 -18t18 -43v-532q0 -30 -17 -46t-42 -16t-42.5 16t-17.5 46v380l-110 -237q-19 -41 -49 -41q-34 0 -52 43l-108 233v-378q0 -30 -17 -46t-42 -16t-42.5 16t-17.5 46z" />
<glyph unicode="&#x2202;" horiz-adv-x="995" d="M131 319v254q0 137 96.5 233.5t233.5 96.5h22q100 0 176 -49v205q0 31 -8 57.5t-21 45t-33.5 34t-40 25.5t-47 19.5t-48 14.5t-49 12.5t-45.5 12.5q-58 17 -58 72q0 31 20 53t54 22q5 0 25 -4l75 -18q332 -80 332 -346v-740q0 -137 -96.5 -233t-235.5 -96h-22 q-137 0 -233.5 96.5t-96.5 232.5zM287 319q0 -73 50.5 -124.5t123.5 -51.5h22q73 0 124.5 52t51.5 124v254q0 72 -51.5 123.5t-124.5 51.5h-22q-72 0 -123 -51.5t-51 -123.5v-254z" />
<glyph unicode="&#x220f;" horiz-adv-x="1415" d="M205 -362v1699q0 31 23.5 54.5t54.5 23.5h850q31 0 54 -23.5t23 -54.5v-1699q0 -36 -23 -57t-54 -21t-54.5 21t-23.5 57v1622h-695v-1622q0 -36 -23 -57t-54 -21t-54.5 21t-23.5 57z" />
<glyph unicode="&#x2211;" horiz-adv-x="1087" d="M52.5 -346.5q0.5 32.5 17.5 65.5l477 773l-479 778q-32 50 -10 97.5t83 47.5h848q39 0 58.5 -23t19.5 -55t-19.5 -54.5t-58.5 -22.5h-733l449 -728q12 -18 12 -40q0 -21 -12 -39l-449 -725h733q39 0 58.5 -23t19.5 -55t-19.5 -55t-58.5 -23h-848q-40 0 -64.5 24.5t-24 57 z" />
<glyph unicode="&#x2212;" horiz-adv-x="1245" d="M133 492q0 31 21 54t57 23l823 2q36 0 57 -23t21 -54t-21 -54.5t-57 -23.5l-823 -2q-36 0 -57 23.5t-21 54.5z" />
<glyph unicode="&#x221a;" horiz-adv-x="964" d="M82 600q0 34 24.5 55t57.5 21q49 0 69 -49l156 -371l383 1118q19 53 72 53q31 0 55.5 -20.5t24.5 -54.5v-15q0 -2 -4 -14l-443 -1282q-17 -51 -71 -51h-21q-54 0 -72 45l-225 532q-6 15 -6 33z" />
<glyph unicode="&#x221e;" horiz-adv-x="1501" d="M143 477q0 117 73.5 203t195.5 86q85 0 173.5 -48t164.5 -124q180 172 340 172q123 0 195.5 -86t72.5 -203q0 -119 -72.5 -205t-195.5 -86q-158 0 -340 174q-174 -174 -338 -174q-122 0 -195.5 86t-73.5 205zM299 477q0 -64 32 -98.5t81 -34.5q100 0 233 133 q-47 51 -112.5 92t-120.5 41q-49 0 -81 -34.5t-32 -98.5zM856 477q51 -51 115 -92t119 -41q49 0 80.5 34.5t31.5 98.5t-31.5 98.5t-80.5 34.5q-55 0 -118.5 -40.5t-115.5 -92.5z" />
<glyph unicode="&#x222b;" horiz-adv-x="763" d="M102 -362q0 31 21 54t57 23q48 0 78.5 33.5t30.5 81.5v1337q0 112 75.5 186t188.5 74q39 0 58.5 -22.5t19.5 -54.5t-19.5 -55t-58.5 -23q-47 0 -78 -33.5t-31 -81.5v-1339q0 -113 -74.5 -185.5t-189.5 -72.5q-36 0 -57 23.5t-21 54.5z" />
<glyph unicode="&#x2248;" horiz-adv-x="970" d="M143 305q0 30 23 53q39 44 82 64t112 20q68 0 162.5 -30.5t124.5 -30.5q11 0 22.5 2t21 5.5t17.5 7t16.5 9t13 8.5t11 7.5t7.5 5.5q25 14 51 14q36 0 60 -25.5t24 -58.5q0 -37 -33 -67q-50 -47 -94.5 -61.5t-122.5 -14.5q-66 0 -153 31.5t-115 31.5q-48 0 -82 -34 q-27 -27 -60 -27q-35 0 -61.5 27.5t-26.5 62.5zM143 592q0 30 23 53q40 44 83 65t111 21t162.5 -31.5t124.5 -31.5q19 0 38.5 6t31 13t24.5 16t15 10q29 16 51 16q36 0 60 -25t24 -61q0 -35 -33 -65q-56 -46 -99.5 -62t-117.5 -16q-66 0 -153 31.5t-115 31.5q-47 0 -82 -35 q-16 -16 -28 -20t-32 -4q-35 0 -61.5 26.5t-26.5 61.5z" />
<glyph unicode="&#x2260;" horiz-adv-x="1091" d="M143 569q0 31 21 54.5t57 23.5h197l76 117h-273q-36 0 -57 23.5t-21 54.5t21 54.5t57 23.5h373l98 151q24 37 64 37q35 0 58.5 -23.5t23.5 -54.5q0 -22 -15 -43l-43 -67h90q36 0 57 -23.5t21 -54.5t-21 -54.5t-57 -23.5h-192l-74 -117h266q36 0 57 -23.5t21 -54.5 t-21 -54t-57 -23h-368l-94 -148q-24 -37 -64 -37q-35 0 -58.5 23.5t-23.5 54.5q0 23 14 43l41 64h-96q-36 0 -57 23t-21 54z" />
<glyph unicode="&#x2264;" horiz-adv-x="901" d="M143 78q0 31 21 54.5t57 23.5h459q39 0 58.5 -23t19.5 -55t-19.5 -55t-58.5 -23h-459q-36 0 -57 23.5t-21 54.5zM154 676q0 53 36 76l377 245q21 15 45 15q32 0 55 -25.5t23 -56.5q0 -42 -37 -64l-297 -190l297 -191q37 -24 37 -63q0 -31 -23 -55.5t-55 -24.5 q-21 0 -45 12l-377 246q-36 23 -36 76z" />
<glyph unicode="&#x2265;" horiz-adv-x="901" d="M143 78q0 31 21 54.5t57 23.5h459q39 0 58.5 -23t19.5 -55t-19.5 -55t-58.5 -23h-459q-36 0 -57 23.5t-21 54.5zM213 422q0 42 35 63l297 191l-297 190q-35 21 -35 64q0 32 22.5 57t53.5 25q24 0 45 -15l379 -245q35 -21 35 -76t-35 -76l-379 -246q-24 -12 -45 -12 q-32 0 -54 24.5t-22 55.5z" />
<glyph unicode="&#x25ca;" horiz-adv-x="1183" d="M82 741q0 46 22 68l420 420q22 22 68 22q48 0 70 -22l419 -420q21 -21 21 -68q0 -48 -21 -69l-419 -420q-21 -21 -70 -21q-47 0 -68 21l-420 420q-22 22 -22 69zM256 741l336 -338l336 338l-336 336z" />
<glyph unicode="&#xe000;" horiz-adv-x="1003" d="M0 0v1004h1004v-1004h-1004z" />
<glyph horiz-adv-x="706" />
<glyph horiz-adv-x="929" d="M227 1718q0 32 22.5 57t53.5 25q9 0 37 -8l299 -152q45 -19 45 -67q0 -30 -22.5 -55t-53.5 -25q-21 0 -37 8l-299 150q-45 20 -45 67z" />
<glyph horiz-adv-x="614" d="M43 1573q0 48 45 67l299 152q28 8 37 8q31 0 53.5 -25t22.5 -57q0 -47 -45 -67l-299 -150q-16 -8 -37 -8q-31 0 -53.5 25t-22.5 55z" />
<glyph horiz-adv-x="944" d="M16 1567q0 31 29 51l191 141q31 21 65 21q33 0 64 -21l186 -141q29 -19 29 -49t-23 -53t-53 -23q-22 0 -39 14l-164 129l-174 -129q-20 -14 -39 -14q-30 0 -51 22t-21 52z" />
<glyph horiz-adv-x="614" d="M16 1706q0 30 21 52t51 22q18 0 39 -15l174 -129l164 129q18 15 39 15q30 0 53 -23t23 -53t-29 -49l-186 -142q-30 -20 -64 -20q-35 0 -65 20l-191 142q-29 20 -29 51z" />
<glyph horiz-adv-x="929" d="M150 1612q0 20 10 37q29 43 84 65.5t110 22.5q46 0 132 -29t126 -29q17 0 35 5t28 9.5t27 14.5t21 12q19 13 37 13q30 0 49.5 -19.5t19.5 -46.5q0 -25 -10 -37q-26 -41 -85 -61.5t-124 -20.5q-48 0 -133 29t-123 29q-21 0 -41.5 -10t-28.5 -16.5t-28 -25.5 q-15 -10 -37 -10q-30 0 -49.5 20.5t-19.5 47.5z" />
<glyph horiz-adv-x="942" d="M211 1593v58q0 37 24 58.5t56 21.5q33 0 56.5 -21t23.5 -59v-58q0 -39 -23.5 -59.5t-56.5 -20.5q-32 0 -56 20.5t-24 59.5zM571 1593v58q0 38 23.5 59t56.5 21q32 0 56 -21.5t24 -58.5v-58q0 -39 -24 -59.5t-56 -20.5q-33 0 -56.5 20.5t-23.5 59.5z" />
<glyph horiz-adv-x="614" d="M31 1620q0 33 22.5 55.5t61.5 22.5h383q42 0 64 -22.5t22 -55.5t-22.5 -56.5t-61.5 -23.5h-383q-42 0 -64 23.5t-22 56.5z" />
<glyph horiz-adv-x="614" d="M68 1729q0 29 15.5 46t43.5 17q29 0 44 -16t30 -54q6 -39 34 -63.5t70 -24.5h6q42 0 69.5 24.5t35.5 63.5q11 27 18 39.5t20 21.5t33 9q28 0 45 -17t17 -46q0 -92 -71.5 -157t-162.5 -65h-16q-91 0 -161 65t-70 157z" />
<glyph horiz-adv-x="614" d="M135 1382q0 71 50 120.5t122 49.5t121 -49.5t49 -120.5q0 -72 -49 -122t-121 -50t-122 50t-50 122zM240 1382q0 -29 19.5 -49t47.5 -20t48 20t20 49q0 28 -20 47t-48 19t-47.5 -19t-19.5 -47z" />
<glyph horiz-adv-x="614" d="M37 1550q0 23 10.5 35.5t34.5 22.5q50 19 74 51.5t24 101.5q0 34 20.5 53t49.5 19q28 0 47.5 -19t19.5 -53q0 -224 -182 -272q-16 -4 -26 -4q-32 0 -52 17.5t-20 47.5zM342 1550q0 24 10.5 36.5t34.5 21.5q49 19 72.5 51.5t23.5 101.5q0 34 20.5 53t49.5 19 q28 0 49 -19.5t21 -52.5q0 -221 -179 -272q-20 -4 -32 -4q-31 0 -50.5 17.5t-19.5 47.5z" />
<glyph horiz-adv-x="614" d="M227 1624v64q0 35 23.5 55t54.5 20q33 0 56.5 -20t23.5 -55v-64q0 -35 -23.5 -54.5t-56.5 -19.5q-32 0 -55 19.5t-23 54.5z" />
<glyph horiz-adv-x="1204" d="M100 252v508q0 83 54 137.5t137 54.5q63 0 112 -34v145q0 83 54 137.5t137 54.5t136.5 -54.5t53.5 -137.5v-127h129q83 0 137 -54.5t54 -136.5q0 -83 -54 -137.5t-137 -54.5h-147q35 -47 35 -111q0 -83 -54 -136.5t-137 -53.5h-510zM438 588h475q69 0 112.5 44t43.5 113 t-43.5 112.5t-112.5 43.5h-161v162q0 69 -44.5 113.5t-113.5 44.5t-112.5 -44.5t-43.5 -113.5v-475z" />
<glyph horiz-adv-x="614" d="M190 1085q0 17 17 43q4 5 15 19t14 18.5t10 17.5t9.5 24.5t4.5 31t2 43.5v80q0 32 22 50t52 18q29 0 49.5 -18.5t20.5 -51.5v-74q0 -60 -10 -104.5t-19 -60.5t-25 -38q-39 -63 -86 -63h-6q-27 0 -48.5 18t-21.5 47z" />
<glyph horiz-adv-x="614" d="M219 -399q0 23 14 43q5 6 15 17t13 15t9 14.5t7.5 21t3.5 27.5t2 40v71q0 33 21 51.5t50 18.5q30 0 51 -19t21 -53v-63q0 -62 -8 -104t-13.5 -52.5t-21.5 -36.5q-15 -23 -40 -41t-48 -18h-6q-28 0 -49 19t-21 49z" />
<glyph horiz-adv-x="1318" d="M154 494q0 32 18 54.5t51 22.5h692l-290 293q-25 25 -25 56q0 32 23 55.5t57 23.5q29 0 53 -24l406 -416q26 -26 26 -63q0 -38 -26 -64l-406 -420q-22 -22 -53 -22q-34 0 -57 23t-23 55q0 30 25 55l290 293h-692q-33 0 -51 23t-18 55z" />
<glyph horiz-adv-x="1318" d="M154 496v426q0 36 23 56.5t54 20.5q32 0 55 -20.5t23 -56.5v-351h606l-290 293q-25 25 -25 56q0 32 23 55.5t57 23.5q29 0 53 -24l406 -416q26 -26 26 -63q0 -38 -26 -64l-406 -420q-22 -22 -53 -22t-55.5 23.5t-24.5 54.5q0 27 25 55l290 293h-684q-31 0 -54 24t-23 56z " />
<glyph horiz-adv-x="983" d="M141 319q0 36 23.5 57t54.5 21t54.5 -21t23.5 -57q0 -73 50.5 -124.5t123.5 -51.5h39q72 0 124 52t52 124v193q0 71 -40.5 113.5t-121.5 42.5h-59q-30 0 -59 26t-29 66q0 29 18 59l254 441h-323v-140q0 -36 -23 -56t-55 -20t-55 19.5t-23 58.5v217q0 30 24.5 53t55.5 23 h514q36 0 57 -25t21 -59q0 -24 -17 -55l-264 -459q78 0 134 -24t87.5 -67.5t45.5 -96t14 -117.5v-193q0 -136 -98 -232.5t-234 -96.5h-39q-137 0 -233.5 96.5t-96.5 232.5z" />
</font>
</defs>
</svg>
