<svg xmlns="http://www.w3.org/2000/svg" width="883" height="371"><path d="M26.019 266.439L467.482 29.231m274.502 99.271L308.479 340.993m0 0l-123.457-153.27m123.457 153.27L575.774 26M424.6 179.327L26 86.761m667.821 257.461L575.774 26M424.6 179.327l151.174 164.27m0 0L467.482 29.231m298.712 189.634l-190.42 124.732" opacity=".5" fill="none" stroke="#CFC7B9" stroke-width="12" stroke-linecap="round" stroke-miterlimit="10"/><path d="M575.774 26v317.597M308.479 28.924v312.069M467.482 29.231H308.479m159.003 311.762H308.479M424.663 179.32H308.479M26 86.761v179.678m159.029-74.668v74.668m0-78.716h-64.937m64.937-100.962C185.029 50.78 152.561 26 102.916 26M26 86.761C25.99 66.771 46 26 102.916 26m0 317.597c52.562 0 79.896-34.817 82.113-77.158m-159.029 0c.019 34.675 23.478 77.158 76.916 77.158m753.63-148.943c-18.266 31.64-58.71 42.472-90.352 24.211-31.644-18.266-42.473-58.719-24.21-90.363 18.262-31.632 58.727-42.47 90.36-24.208 31.634 18.263 42.482 58.72 24.202 90.36zm-90.352 24.211l-72.373 125.357" fill="none" stroke="#797C82" stroke-width="21" stroke-linecap="round" stroke-miterlimit="10"/><path fill="#B00046" d="M467.482 52.231c-12.683 0-23-10.318-23-23s10.317-23 23-23 23 10.318 23 23-10.317 23-23 23z"/><path fill="#FFF" d="M467.482 9.231c11.048 0 20 8.952 20 20s-8.952 20-20 20-20-8.952-20-20 8.953-20 20-20m0-6c-14.337 0-26 11.664-26 26s11.663 26 26 26 26-11.664 26-26-11.663-26-26-26z"/><path fill="#425A6C" d="M308.479 52.231c-12.683 0-23-10.318-23-23s10.318-23 23-23 23 10.318 23 23-10.317 23-23 23z"/><path fill="#FFF" d="M308.479 9.231c11.048 0 20 8.952 20 20s-8.952 20-20 20-20-8.952-20-20 8.953-20 20-20m0-6c-14.337 0-26 11.664-26 26s11.664 26 26 26 26-11.664 26-26-11.663-26-26-26z"/><path fill="#B00046" d="M308.479 363.993c-12.683 0-23-10.327-23-23.021 0-12.671 10.318-22.979 23-22.979s23 10.309 23 22.979c0 12.694-10.317 23.021-23 23.021z"/><path fill="#FFF" d="M308.479 320.993c11.048 0 20 8.952 20 19.979 0 11.068-8.952 20.021-20 20.021s-20-8.952-20-20.021c0-11.027 8.953-19.979 20-19.979m0-6c-14.337 0-26 11.654-26 25.979 0 14.348 11.664 26.021 26 26.021s26-11.673 26-26.021c0-14.325-11.663-25.979-26-25.979z"/><path fill="#ADC32B" d="M308.479 202.346c-12.682 0-23-10.327-23-23.021 0-12.671 10.318-22.979 23-22.979 12.683 0 23 10.309 23 22.979 0 12.694-10.317 23.021-23 23.021z"/><path fill="#FFF" d="M308.479 159.346c11.047 0 20 8.952 20 19.979 0 11.067-8.953 20.021-20 20.021-11.048 0-20-8.953-20-20.021 0-11.027 8.953-19.979 20-19.979m0-6c-14.336 0-26 11.654-26 25.979 0 14.348 11.664 26.021 26 26.021 14.337 0 26-11.673 26-26.021 0-14.325-11.663-25.979-26-25.979z"/><path fill="#92C7EC" d="M424.6 202.327c-12.685 0-23.005-10.315-23.005-22.995 0-12.685 10.32-23.005 23.005-23.005s23.005 10.32 23.005 23.005c-.001 12.679-10.321 22.995-23.005 22.995z"/><path fill="#FFF" d="M424.6 159.327c11.05 0 20.005 8.955 20.005 20.005 0 11.051-8.955 19.995-20.005 19.995s-20.005-8.944-20.005-19.995 8.955-20.005 20.005-20.005m0-6c-14.339 0-26.005 11.666-26.005 26.005 0 14.334 11.666 25.995 26.005 25.995s26.005-11.661 26.005-25.995c-.001-14.34-11.667-26.005-26.005-26.005z"/><path fill="#009EE0" d="M467.482 363.993c-12.683 0-23-10.327-23-23.021 0-12.671 10.317-22.979 23-22.979s23 10.309 23 22.979c0 12.694-10.317 23.021-23 23.021z"/><path fill="#FFF" d="M467.482 320.993c11.048 0 20 8.952 20 19.979 0 11.068-8.952 20.021-20 20.021s-20-8.952-20-20.021c0-11.027 8.953-19.979 20-19.979m0-6c-14.337 0-26 11.654-26 25.979 0 14.348 11.663 26.021 26 26.021s26-11.673 26-26.021c0-14.325-11.663-25.979-26-25.979z"/><path fill="#B00046" d="M575.774 366.597c-12.683 0-23-10.317-23-23s10.317-23 23-23 23 10.317 23 23-10.317 23-23 23z"/><path fill="#FFF" d="M575.774 323.597c11.048 0 20 8.952 20 20s-8.952 20-20 20-20-8.952-20-20 8.953-20 20-20m0-6c-14.337 0-26 11.663-26 26s11.663 26 26 26 26-11.663 26-26-11.663-26-26-26z"/><path fill="#009EE0" d="M575.774 49c-12.683 0-23-10.318-23-23s10.317-23 23-23 23 10.318 23 23-10.317 23-23 23z"/><path fill="#FFF" d="M575.774 6c11.048 0 20 8.952 20 20s-8.952 20-20 20-20-8.952-20-20 8.953-20 20-20m0-6c-14.337 0-26 11.664-26 26s11.663 26 26 26 26-11.664 26-26-11.663-26-26-26z"/><path fill="#009EE0" d="M185.029 109.761c-12.682 0-23-10.318-23-23s10.318-23 23-23 23 10.318 23 23-10.318 23-23 23z"/><path fill="#FFF" d="M185.029 66.761c11.047 0 20 8.952 20 20s-8.953 20-20 20c-11.048 0-20-8.952-20-20s8.952-20 20-20m0-6c-14.336 0-26 11.664-26 26s11.664 26 26 26 26-11.664 26-26-11.664-26-26-26z"/><path fill="#425A6C" d="M117.563 210.723c-12.682 0-23-10.317-23-23 0-12.682 10.318-23 23-23s23 10.318 23 23c0 12.683-10.318 23-23 23z"/><path fill="#FFF" d="M117.563 167.723c11.048 0 20 8.952 20 20s-8.952 20-20 20-20-8.952-20-20 8.952-20 20-20m0-6c-14.336 0-26 11.664-26 26 0 14.337 11.664 26 26 26s26-11.663 26-26c0-14.336-11.664-26-26-26z"/><path fill="#B00046" d="M185.018 210.723c-12.682 0-23-10.317-23-23 0-12.682 10.318-23 23-23 12.688 0 23.01 10.318 23.01 23-.001 12.683-10.323 23-23.01 23z"/><path fill="#FFF" d="M185.018 167.723c11.058 0 20.01 8.952 20.01 20s-8.952 20-20.01 20c-11.048 0-20-8.952-20-20s8.952-20 20-20m0-6c-14.336 0-26 11.664-26 26 0 14.337 11.664 26 26 26 14.342 0 26.01-11.663 26.01-26-.001-14.336-11.669-26-26.01-26z"/><path fill="#B00046" d="M102.916 49c-12.682 0-23-10.318-23-23s10.318-23 23-23 23 10.318 23 23-10.318 23-23 23z"/><path fill="#FFF" d="M102.916 6c11.048 0 20 8.952 20 20s-8.952 20-20 20-20-8.952-20-20 8.951-20 20-20m0-6c-14.336 0-26 11.664-26 26s11.664 26 26 26 26-11.664 26-26-11.664-26-26-26z"/><path fill="#B00046" d="M102.916 366.597c-12.682 0-23-10.317-23-23s10.318-23 23-23 23 10.317 23 23-10.318 23-23 23z"/><path fill="#FFF" d="M102.916 323.597c11.048 0 20 8.952 20 20s-8.952 20-20 20-20-8.952-20-20 8.952-20 20-20m0-6c-14.336 0-26 11.663-26 26s11.664 26 26 26 26-11.663 26-26-11.664-26-26-26z"/><path fill="#92C7EC" d="M185.027 289.439c-12.688 0-23.01-10.317-23.01-23s10.322-23 23.01-23c12.682 0 23 10.317 23 23s-10.318 23-23 23z"/><path fill="#FFF" d="M185.027 246.439c11.048 0 20 8.952 20 20s-8.952 20-20 20c-11.058 0-20.01-8.952-20.01-20s8.953-20 20.01-20m0-6c-14.342 0-26.01 11.663-26.01 26s11.668 26 26.01 26c14.336 0 26-11.663 26-26s-11.663-26-26-26z"/><path fill="#009EE0" d="M26.024 289.439c-12.688 0-23.01-10.317-23.01-23s10.322-23 23.01-23c12.682 0 23 10.317 23 23s-10.318 23-23 23z"/><path fill="#FFF" d="M26.024 246.439c11.048 0 20 8.952 20 20s-8.952 20-20 20c-11.058 0-20.01-8.952-20.01-20s8.952-20 20.01-20m0-6c-14.342 0-26.01 11.663-26.01 26s11.668 26 26.01 26c14.336 0 26-11.663 26-26s-11.664-26-26-26z"/><path fill="#ADC32B" d="M25.99 109.751C13.313 109.751 3 99.438 3 86.761s10.313-22.99 22.99-22.99c12.688 0 23.01 10.313 23.01 22.99s-10.322 22.99-23.01 22.99z"/><path fill="#FFF" d="M25.99 66.771c11.062 0 20.01 8.947 20.01 19.99s-8.948 19.99-20.01 19.99C14.948 106.751 6 97.804 6 86.761s8.948-19.99 19.99-19.99m0-6C11.659 60.771 0 72.431 0 86.761s11.659 25.99 25.99 25.99c14.342 0 26.01-11.659 26.01-25.99s-11.668-25.99-26.01-25.99z"/><path fill="#92C7EC" d="M832.345 127.293c-12.683 0-23-10.318-23-23s10.317-23 23-23 23 10.318 23 23-10.318 23-23 23z"/><path fill="#FFF" d="M832.345 84.293c11.048 0 20 8.952 20 20s-8.952 20-20 20-20-8.952-20-20 8.952-20 20-20m0-6c-14.337 0-26 11.664-26 26s11.663 26 26 26 26-11.664 26-26-11.663-26-26-26z"/><path fill="#B00046" d="M741.984 151.502c-12.683 0-23-10.318-23-23s10.317-23 23-23 23 10.318 23 23-10.317 23-23 23z"/><path fill="#FFF" d="M741.984 108.502c11.048 0 20 8.952 20 20s-8.952 20-20 20-20-8.952-20-20 8.953-20 20-20m0-6c-14.336 0-26 11.664-26 26s11.664 26 26 26 26-11.664 26-26-11.664-26-26-26z"/><path fill="#425A6C" d="M856.546 217.655c-12.683 0-23-10.318-23-23.001 0-12.682 10.317-23 23-23s23 10.318 23 23-10.317 23.001-23 23.001z"/><path fill="#FFF" d="M856.546 174.654c11.048 0 20 8.952 20 20s-8.952 20.001-20 20.001-20-8.953-20-20.001 8.952-20 20-20m0-6c-14.337 0-26 11.664-26 26 0 14.337 11.663 26.001 26 26.001s26-11.664 26-26.001c0-14.337-11.663-26-26-26z"/><path fill="#ADC32B" d="M766.194 241.865c-12.683 0-23-10.317-23-23s10.317-23.001 23-23.001 23 10.318 23 23.001-10.317 23-23 23z"/><path fill="#FFF" d="M766.194 198.864c11.048 0 20 8.953 20 20.001 0 11.047-8.952 20-20 20s-20-8.953-20-20c0-11.048 8.952-20.001 20-20.001m0-6c-14.337 0-26 11.664-26 26.001s11.663 26 26 26 26-11.663 26-26-11.663-26.001-26-26.001z"/><path fill="#009EE0" d="M693.821 367.222c-12.683 0-23-10.318-23-23.001s10.317-23 23-23 23 10.317 23 23-10.317 23.001-23 23.001z"/><path fill="#FFF" d="M693.821 324.221c11.048 0 20 8.953 20 20 0 11.048-8.952 20.001-20 20.001s-20-8.953-20-20.001c0-11.047 8.952-20 20-20m0-6c-14.337 0-26 11.664-26 26 0 14.337 11.663 26.001 26 26.001s26-11.664 26-26.001c0-14.336-11.663-26-26-26z"/></svg>