<?xml version="1.0" standalone="no"?>
<!DOCTYPE svg PUBLIC "-//W3C//DTD SVG 1.1//EN" "http://www.w3.org/Graphics/SVG/1.1/DTD/svg11.dtd" >
<svg xmlns="http://www.w3.org/2000/svg">
<metadata></metadata>
<defs>
<font id="gestaitalic" horiz-adv-x="488" >
<font-face units-per-em="1000" ascent="731" descent="-269" />
<missing-glyph horiz-adv-x="208" />
<glyph unicode="&#xfb01;" horiz-adv-x="494" d="M53 0l71 404h-62l9 49l62 5l12 67q12 68 44.5 98.5t92.5 30.5q39 0 75 -10l-12 -59q-37 7 -62 7q-30 0 -46 -15.5t-23 -56.5l-10 -58h254l-81 -462h-70l71 404h-184l-71 -404h-70zM405 556l16 88h70l-16 -88h-70z" />
<glyph unicode="&#xfb02;" horiz-adv-x="495" d="M53 0l71 404h-62l9 49l62 5l8 48q13 79 57.5 113.5t119.5 34.5q72 0 169 -30l-110 -624h-70l102 580q-51 12 -92 12q-44 0 -70.5 -20t-35.5 -72l-7 -38h96l-10 -58h-96l-71 -404h-70z" />
<glyph horiz-adv-x="0" />
<glyph horiz-adv-x="0" />
<glyph horiz-adv-x="333" />
<glyph unicode="&#xd;" horiz-adv-x="227" />
<glyph unicode=" "  horiz-adv-x="208" />
<glyph unicode="&#x09;" horiz-adv-x="208" />
<glyph unicode="&#xa0;" horiz-adv-x="208" />
<glyph unicode="!" horiz-adv-x="264" d="M52 0l15 86h78l-15 -86h-78zM103 197l57 447h87l-100 -447h-44z" />
<glyph unicode="&#x22;" horiz-adv-x="298" d="M105 468q0 73 19 190h71q-21 -125 -55 -214h-34q-1 8 -1 24zM234 468q0 73 19 190h71q-21 -125 -55 -214h-34q-1 8 -1 24z" />
<glyph unicode="#" horiz-adv-x="596" d="M47 201l18 47h101l57 148h-101l18 47h101l78 201h49l-78 -201h140l78 201h49l-78 -201h101l-18 -47h-101l-57 -148h100l-18 -47h-100l-78 -201h-49l78 201h-140l-78 -201h-49l78 201h-101zM215 248h140l57 148h-140z" />
<glyph unicode="$" horiz-adv-x="541" d="M69 62l18 63q85 -26 147 -26q59 0 97 26.5t38 77.5q0 17 -5.5 29.5t-11 20.5t-23 18.5t-27.5 15t-39 17.5q-33 15 -51.5 25t-38 26.5t-27.5 38.5t-8 51q0 69 45 111.5t121 49.5l17 98h59l-17 -97q53 -4 116 -22l-16 -62q-75 22 -131 22q-52 0 -86.5 -24.5t-34.5 -69.5 q0 -32 19 -48t70 -39q10 -4 16 -7q67 -30 96.5 -59t29.5 -88q0 -75 -48.5 -120.5t-130.5 -52.5l-17 -95h-59l17 94q-69 6 -135 26z" />
<glyph unicode="%" horiz-adv-x="710" d="M66 468q0 72 35 126q41 60 116 60q57 0 88.5 -30.5t31.5 -88.5q0 -72 -35 -126q-41 -60 -116 -60q-57 0 -88.5 30.5t-31.5 88.5zM124 472q0 -73 65 -73q46 0 69 42q21 42 21 90q0 73 -65 73q-46 0 -69 -42q-21 -42 -21 -90zM128 0l426 644h61l-426 -644h-61zM406 109 q0 72 35 126q41 60 116 60q57 0 88.5 -30.5t31.5 -88.5q0 -72 -35 -126q-41 -60 -116 -60q-57 0 -88.5 30.5t-31.5 88.5zM464 113q0 -73 65 -73q46 0 69 42q21 42 21 90q0 73 -65 73q-46 0 -69 -42q-21 -42 -21 -90z" />
<glyph unicode="&#x26;" horiz-adv-x="600" d="M62 155q0 68 35.5 120.5t101.5 67.5v4q-73 31 -73 117t54 138q55 52 155 52q75 0 178 -28l-17 -63q-92 26 -164 26q-66 0 -99 -34q-32 -33 -32 -90q0 -99 124 -99h272l-11 -60h-89q0 -115 -20 -177q-45 -139 -214 -139q-89 0 -145 39t-56 126zM137 161q0 -106 129 -106 q44 0 74.5 13t47.5 32.5t26 55t11 67.5t2 83h-133q-74 0 -115.5 -38t-41.5 -107z" />
<glyph unicode="'" horiz-adv-x="169" d="M105 468q0 73 19 190h71q-21 -125 -55 -214h-34q-1 8 -1 24z" />
<glyph unicode="(" horiz-adv-x="255" d="M45 118q0 164 61.5 307t163.5 248l35 -26q-87 -99 -143 -239.5t-56 -297.5q0 -149 56 -274l-43 -21q-74 140 -74 303z" />
<glyph unicode=")" horiz-adv-x="255" d="M-47 -159q87 99 143 239.5t56 297.5q0 149 -56 274l43 21q74 -140 74 -303q0 -164 -61.5 -307t-163.5 -248z" />
<glyph unicode="*" horiz-adv-x="344" d="M86 460l98 51l-79 51l23 32l80 -51l18 101h36l-18 -101l97 51l13 -32l-98 -51l79 -51l-23 -32l-80 51l-18 -101h-36l18 101l-97 -51z" />
<glyph unicode="+" horiz-adv-x="565" d="M54 203l10 56h193l37 203h57l-36 -203h194l-10 -56h-194l-36 -203h-57l36 203h-194z" />
<glyph unicode="," horiz-adv-x="242" d="M20 -115q37 98 37 196l74 3q-8 -112 -77 -204z" />
<glyph unicode="-" horiz-adv-x="294" d="M45 219l10 58h200l-10 -58h-200z" />
<glyph unicode="." horiz-adv-x="242" d="M41 0l15 86h79l-15 -86h-79z" />
<glyph unicode="/" horiz-adv-x="366" d="M-29 -20l390 684h67l-390 -684h-67z" />
<glyph unicode="0" horiz-adv-x="558" d="M63 184q0 59 14 140.5t36 144.5q32 94 83.5 139.5t143.5 45.5q97 0 141 -49.5t44 -144.5q0 -59 -14 -140.5t-36 -144.5q-32 -95 -84.5 -140t-143.5 -45q-96 0 -140 49.5t-44 144.5zM138 184q0 -64 26 -96.5t90 -32.5t98 35.5t57 115.5q41 143 41 253q0 64 -26 97t-89 33 q-66 0 -99.5 -36t-56.5 -115q-41 -144 -41 -254z" />
<glyph unicode="1" horiz-adv-x="376" d="M84 571l182 73h63l-114 -644h-74l100 565l-139 -47z" />
<glyph unicode="2" horiz-adv-x="490" d="M12 0l10 55q159 121 256 223q116 121 116 213q0 50 -30.5 74t-82.5 24q-59 0 -145 -32l-19 58q89 39 171 39q84 0 132.5 -41t48.5 -118q0 -117 -136 -256q-67 -69 -192 -170l1 -4h268l-11 -65h-387z" />
<glyph unicode="3" horiz-adv-x="456" d="M1 18l18 63q87 -26 156 -26q81 0 118 41q37 42 37 111q0 94 -108 94h-68l11 64h73q68 0 102 43q29 37 29 89q0 92 -108 92q-64 0 -141 -30l-19 59q89 36 167 36q80 0 128 -38t48 -111q0 -58 -30 -105.5t-81 -62.5v-4q72 -28 72 -125q0 -96 -56 -156q-59 -62 -176 -62 q-80 0 -172 28z" />
<glyph unicode="4" horiz-adv-x="526" d="M11 148l10 54q129 189 324 442h80q-209 -274 -317 -431h208l34 142h63l-25 -142h114l-11 -65h-114l-26 -148h-74l26 148h-292z" />
<glyph unicode="5" d="M22 18l18 62q89 -25 162 -25q93 0 131 56q30 44 30 111q0 54 -30.5 76.5t-99.5 22.5h-148l67 323h324l-11 -65h-252l-40 -194h71q194 0 194 -160q0 -99 -55 -163q-60 -71 -184 -71q-86 0 -177 27z" />
<glyph unicode="6" horiz-adv-x="522" d="M59 183q0 72 21 168.5t56 165.5q35 68 86.5 102.5t130.5 34.5q70 0 147 -24l-16 -62q-78 21 -132 21q-76 0 -122.5 -52.5t-71.5 -172.5q74 24 140 24q173 0 173 -157q0 -101 -58 -171t-170 -70q-93 0 -138.5 47.5t-45.5 145.5zM134 182q0 -64 26.5 -95.5t87.5 -31.5 q75 0 111 48q37 49 37 125q0 53 -29 75t-87 22q-69 0 -132 -21q-14 -70 -14 -122z" />
<glyph unicode="7" horiz-adv-x="436" d="M71 0q166 286 320 579h-303l11 65h387l-8 -46q-145 -279 -329 -598h-78z" />
<glyph unicode="8" horiz-adv-x="530" d="M44 147q0 70 38.5 125t101.5 66v4q-72 27 -72 119q0 85 60 141q56 52 152 52q84 0 133.5 -37t49.5 -110q0 -62 -35 -110t-88 -61v-4q83 -30 83 -129q0 -95 -65 -157q-58 -56 -163 -56q-90 0 -142.5 38.5t-52.5 118.5zM119 158q0 -103 123 -103q69 0 109.5 39.5 t40.5 105.5q0 54 -34 79t-89 25q-74 0 -113 -42q-37 -40 -37 -104zM187 458q0 -47 29.5 -70t78.5 -23q70 0 107 44q30 36 30 88q0 92 -112 92q-64 0 -97 -35q-36 -38 -36 -96z" />
<glyph unicode="9" horiz-adv-x="523" d="M51 14l16 64q79 -22 135 -22q79 0 124.5 52.5t70.5 172.5q-69 -25 -139 -25q-77 0 -125 37.5t-48 119.5q0 96 53 165q60 76 176 76q182 0 182 -192q0 -68 -19 -160t-51 -160q-35 -76 -88 -113.5t-137 -37.5q-69 0 -150 23zM160 420q0 -101 116 -101q68 0 132 22 q13 71 13 120q0 65 -27 96.5t-88 31.5q-74 0 -111 -50q-35 -48 -35 -119z" />
<glyph unicode=":" horiz-adv-x="242" d="M41 0l15 86h79l-15 -86h-79zM108 376l15 86h79l-15 -86h-79z" />
<glyph unicode=";" horiz-adv-x="242" d="M20 -115q37 98 37 196l74 3q-8 -112 -77 -204zM108 376l15 86h79l-15 -86h-79z" />
<glyph unicode="&#x3c;" horiz-adv-x="573" d="M60 211l7 40l482 215l-12 -70l-372 -163l-1 -4l315 -163l-12 -70z" />
<glyph unicode="=" horiz-adv-x="565" d="M39 111l10 56h445l-10 -56h-445zM71 295l10 56h445l-10 -56h-445z" />
<glyph unicode="&#x3e;" horiz-adv-x="573" d="M23 -4l12 70l372 163l1 4l-315 163l12 70l407 -215l-7 -40z" />
<glyph unicode="?" horiz-adv-x="399" d="M92 621q77 33 152 33q73 0 118.5 -36t45.5 -105q0 -52 -26 -89t-84 -87q-59 -52 -75 -74t-25 -66h-64q10 64 34.5 98.5t84.5 86.5q28 24 42.5 39t26.5 38.5t12 49.5q0 40 -25 60.5t-67 20.5q-55 0 -130 -28zM94 0l15 86h78l-15 -86h-78z" />
<glyph unicode="@" horiz-adv-x="740" d="M72 263q0 67 19.5 139t58.5 128q87 124 261 124q131 0 211 -68.5t80 -209.5q0 -58 -12.5 -107.5t-48.5 -88t-91 -38.5t-85 36q-51 -37 -116 -37q-58 0 -87.5 34.5t-29.5 96.5q0 86 36 153q42 78 133 78q59 0 133 -33l-31 -171q-4 -20 -4 -42q0 -66 55 -66q49 0 72.5 52.5 t23.5 124.5q0 119 -63.5 178.5t-179.5 59.5q-149 0 -219 -107q-65 -99 -65 -234q0 -114 63.5 -170.5t183.5 -56.5q58 0 124 16l9 -47q-63 -17 -135 -17q-135 0 -215.5 66.5t-80.5 206.5zM291 275q0 -83 73 -83q46 0 83 25q-5 18 -5 36q0 23 5 50l25 138q-43 13 -71 13 q-57 0 -82 -54q-28 -58 -28 -125z" />
<glyph unicode="A" horiz-adv-x="537" d="M-19 0q159 372 308 644h101q53 -263 83 -644h-74l-15 161h-257l-71 -161h-75zM154 225h225q-21 192 -49 353h-4q-106 -210 -172 -353z" />
<glyph unicode="B" horiz-adv-x="551" d="M44 9l111 629q92 16 178 16q199 0 199 -145q0 -58 -30 -107t-91 -63v-5q86 -25 86 -127t-65 -163q-58 -53 -189 -53q-95 0 -199 18zM128 65q70 -10 126 -10q92 0 129 42q39 42 39 108q0 100 -128 100h-124zM181 366h129q79 0 113 37q34 39 34 96q0 52 -34.5 71.5 t-96.5 19.5q-51 0 -107 -7z" />
<glyph unicode="C" horiz-adv-x="508" d="M60 225q0 68 17.5 148.5t51.5 142.5q76 138 239 138q70 0 157 -23l-17 -63q-92 21 -141 21q-117 0 -174 -106q-28 -53 -43 -124.5t-15 -131.5q0 -87 37 -129.5t117 -42.5q71 0 143 28l19 -59q-80 -34 -166 -34q-225 0 -225 235z" />
<glyph unicode="D" horiz-adv-x="585" d="M43 4l112 635q79 15 152 15q251 0 251 -234q0 -62 -16.5 -138t-47.5 -137q-41 -80 -107.5 -117t-175.5 -37q-71 0 -168 13zM127 62q56 -6 94 -6q78 0 128 28t82 94q24 50 38 116.5t14 120.5q0 93 -44.5 133.5t-132.5 40.5q-49 0 -87 -6z" />
<glyph unicode="E" horiz-adv-x="478" d="M42 0l114 644h349l-11 -65h-276l-38 -216h230l-11 -64h-230l-41 -234h276l-11 -65h-351z" />
<glyph unicode="F" horiz-adv-x="464" d="M42 0l114 644h348l-11 -65h-275l-40 -227h231l-11 -64h-231l-51 -288h-74z" />
<glyph unicode="G" horiz-adv-x="559" d="M60 224q0 68 17.5 147t49.5 139q77 144 249 144q73 0 171 -27l-16 -63q-90 25 -159 25q-125 0 -182 -114q-26 -52 -40.5 -120.5t-14.5 -126.5q0 -173 151 -173q57 0 112 22l44 249h74l-52 -294q-86 -42 -183 -42q-221 0 -221 234z" />
<glyph unicode="H" horiz-adv-x="604" d="M42 0l114 644h74l-49 -278h289l49 278h74l-114 -644h-74l53 301h-289l-53 -301h-74z" />
<glyph unicode="I" horiz-adv-x="241" d="M42 0l114 644h74l-114 -644h-74z" />
<glyph unicode="J" horiz-adv-x="352" d="M-26 3l14 64q51 -11 88 -11q55 0 78.5 28t36.5 99l81 461h74l-83 -468q-18 -100 -62 -143t-126 -43q-45 0 -101 13z" />
<glyph unicode="K" horiz-adv-x="532" d="M42 0l114 644h74l-53 -298l2 -1q188 164 320 299h90l1 -2q-149 -149 -323 -301q87 -151 219 -339l-1 -2h-90q-103 145 -195 305h-30l-54 -305h-74z" />
<glyph unicode="L" horiz-adv-x="454" d="M42 0l114 644h74l-102 -579h271l-11 -65h-346z" />
<glyph unicode="M" horiz-adv-x="732" d="M30 0q80 395 144 644h108l76 -436h4l231 436h108q-24 -258 -82 -644h-75q36 241 76 553h-4l-235 -445h-77l-78 445h-4q-47 -208 -119 -553h-73z" />
<glyph unicode="N" horiz-adv-x="634" d="M42 0l114 644h107l185 -555h4l98 555h73l-114 -644h-107l-185 555h-4l-98 -555h-73z" />
<glyph unicode="O" horiz-adv-x="615" d="M60 216q0 64 16.5 143t47.5 142q76 153 245 153q217 0 217 -227q0 -64 -16.5 -143t-47.5 -142q-75 -152 -243 -152q-219 0 -219 226zM135 221q0 -83 35 -124.5t113 -41.5q64 0 105.5 29.5t69.5 91.5q53 118 53 248q0 82 -35.5 123.5t-113.5 41.5q-61 0 -102.5 -28 t-70.5 -93q-24 -53 -39 -121t-15 -126z" />
<glyph unicode="P" horiz-adv-x="522" d="M42 0l113 640q87 13 154 13q219 0 219 -168q0 -110 -71 -177q-61 -57 -184 -57q-51 0 -111 9l-46 -260h-74zM173 323q50 -8 100 -8q93 0 135 42q45 46 45 124q0 61 -38.5 84t-112.5 23q-41 0 -83 -5z" />
<glyph unicode="Q" horiz-adv-x="615" d="M60 216q0 65 16.5 143.5t47.5 141.5q76 153 245 153q217 0 217 -227q0 -63 -16.5 -142.5t-47.5 -142.5q-36 -72 -90.5 -107t-134.5 -36v-4q78 -18 165 -71l-46 -67q-54 41 -146.5 92.5t-118.5 68.5q-46 30 -68.5 76t-22.5 122zM135 221q0 -83 35 -124.5t113 -41.5 q63 0 104.5 29t70.5 92q53 118 53 248q0 82 -35.5 123.5t-112.5 41.5q-63 0 -104 -29t-70 -92q-24 -53 -39 -121t-15 -126z" />
<glyph unicode="R" horiz-adv-x="537" d="M42 0l112 637q108 17 169 17q206 0 206 -162q0 -101 -68 -166q-39 -37 -99 -47q36 -111 113 -277l-1 -2h-80q-60 132 -109 271q-43 0 -120 9l-49 -280h-74zM177 342q59 -9 111 -9q85 0 123 39q43 43 43 116q0 56 -36 78t-102 22q-34 0 -97 -7z" />
<glyph unicode="S" horiz-adv-x="461" d="M6 18l17 63q95 -26 159 -26q86 0 127 44q34 36 34 90q0 15 -2.5 27.5t-11 22.5t-13.5 16.5t-20.5 15t-21 11.5t-26.5 12.5t-26 11.5q-71 32 -104.5 65.5t-33.5 93.5q0 92 69 145q57 44 154 44q72 0 157 -24l-16 -64q-82 23 -145 23q-64 0 -100 -27q-44 -34 -44 -90 q0 -22 7 -38t27 -30t33 -20.5t48 -22.5t56 -27.5t44 -31t33.5 -46t10.5 -62.5q0 -87 -56 -143q-60 -61 -178 -61q-80 0 -178 28z" />
<glyph unicode="T" horiz-adv-x="501" d="M88 579l11 65h448l-11 -65h-187l-102 -579h-74l102 579h-187z" />
<glyph unicode="U" horiz-adv-x="603" d="M72 167q0 34 8 82l70 395h74l-68 -388q-8 -46 -8 -78q0 -123 127 -123q81 0 125 51q38 43 56 147l69 391h73l-71 -402q-22 -125 -75 -182q-64 -70 -181 -70q-93 0 -146 44t-53 133z" />
<glyph unicode="V" horiz-adv-x="533" d="M97 644h75q20 -297 63 -578h4q143 281 267 578h76q-68 -160 -157.5 -348t-149.5 -296h-97q-23 106 -46.5 293.5t-34.5 350.5z" />
<glyph unicode="W" horiz-adv-x="852" d="M104 644h75q2 -295 33 -578h4q126 295 227 578h112q0 -263 24 -578h4q136 295 236 578h74q-57 -161 -135.5 -346t-137.5 -298h-104q-25 253 -28 568h-4q-101 -274 -229 -568h-105q-19 122 -32.5 302.5t-13.5 341.5z" />
<glyph unicode="X" horiz-adv-x="567" d="M0 0q118 164 257 331q-72 148 -136 313h80q36 -97 109 -255h4q125 156 195 255h82q-105 -145 -245 -314q80 -170 142 -330h-80q-58 147 -114 272h-4q-105 -130 -209 -272h-81z" />
<glyph unicode="Y" horiz-adv-x="530" d="M95 644h78q40 -177 104 -331h4q120 159 220 331h79q-117 -201 -276 -404l-42 -240h-74l42 239q-91 210 -135 405z" />
<glyph unicode="Z" horiz-adv-x="484" d="M-11 0l10 55l418 524h-314l11 65h411l-10 -55l-418 -524h328l-11 -65h-425z" />
<glyph unicode="[" horiz-adv-x="264" d="M0 -156l141 800h159l-10 -54h-97l-122 -692h98l-10 -54h-159z" />
<glyph unicode="\" horiz-adv-x="347" d="M90 664h61l138 -684h-61z" />
<glyph unicode="]" horiz-adv-x="264" d="M-33 -156l10 54h97l122 692h-98l10 54h159l-141 -800h-159z" />
<glyph unicode="^" horiz-adv-x="539" d="M70 233l224 316h60l115 -316h-63l-91 243h-4l-176 -243h-65z" />
<glyph unicode="_" horiz-adv-x="485" d="M-60 -120l8 47h481l-8 -47h-481z" />
<glyph unicode="`" horiz-adv-x="341" d="M153 649l64 39l67 -149l-37 -21z" />
<glyph unicode="a" horiz-adv-x="481" d="M43 153q0 119 47 210q54 109 178 109q80 0 173 -38l-77 -434h-54v34q-58 -44 -124 -44q-70 0 -106.5 42t-36.5 121zM114 156q0 -105 87 -105q53 0 109 38l54 306q-58 18 -97 18q-80 0 -116 -78q-16 -35 -26.5 -88t-10.5 -91z" />
<glyph unicode="b" horiz-adv-x="483" d="M41 28l109 616h70l-36 -205q57 33 112 33q69 0 105.5 -42.5t36.5 -122.5q0 -119 -49 -214q-27 -53 -68.5 -78t-104.5 -25q-86 0 -175 38zM118 66q56 -17 96 -17q82 0 117 77q36 80 36 176q0 109 -91 109q-50 0 -102 -30z" />
<glyph unicode="c" horiz-adv-x="411" d="M44 166q0 114 50 204q57 102 180 102q58 0 130 -20l-14 -60q-67 18 -117 18q-83 0 -120 -75q-38 -76 -38 -166q0 -117 110 -117q52 0 111 23l17 -58q-62 -27 -132 -27q-84 0 -130.5 44t-46.5 132z" />
<glyph unicode="d" horiz-adv-x="480" d="M41 152q0 108 42 202q52 118 178 118q46 0 112 -17l33 189h70l-114 -644h-54v34q-58 -44 -124 -44q-69 0 -106 42t-37 120zM112 155q0 -104 88 -104q53 0 108 38l54 307q-59 17 -98 17q-45 0 -73 -20.5t-45 -64.5q-14 -34 -24 -84.5t-10 -88.5z" />
<glyph unicode="e" horiz-adv-x="450" d="M40 164q0 52 16 112.5t46 106.5q59 89 159 89q72 0 110 -43t38 -114q0 -43 -16 -109h-279q-3 -21 -3 -41q0 -113 109 -113q57 0 121 27l18 -59q-75 -31 -143 -31q-84 0 -130 44t-46 131zM123 262h212q4 23 4 47q0 101 -82 101q-99 0 -134 -148z" />
<glyph unicode="f" horiz-adv-x="287" d="M53 0l71 404h-62l9 49l62 5l12 67q12 68 44.5 98.5t92.5 30.5q36 0 81 -10l-13 -60q-34 8 -66 8q-31 0 -47 -15.5t-23 -56.5l-10 -58h96l-10 -58h-96l-71 -404h-70z" />
<glyph unicode="g" horiz-adv-x="480" d="M28 -168l16 61q82 -23 134 -23q44 0 71.5 19.5t36.5 70.5l11 63q-53 -30 -110 -30q-70 0 -107 41.5t-37 120.5q0 111 45 204q54 113 179 113q84 0 172 -38l-84 -478q-14 -79 -58 -113.5t-120 -34.5q-63 0 -149 24zM114 159q0 -106 88 -106q49 0 104 31l55 312 q-51 17 -94 17q-83 0 -118 -82q-35 -81 -35 -172z" />
<glyph unicode="h" d="M36 0l114 644h70l-38 -217q69 45 135 45q55 0 87.5 -30t32.5 -83q0 -23 -4 -44l-56 -315h-70l55 310q4 26 4 39q0 61 -68 61q-53 0 -127 -43l-65 -367h-70z" />
<glyph unicode="i" horiz-adv-x="223" d="M36 0l81 462h70l-81 -462h-70zM134 556l16 88h70l-16 -88h-70z" />
<glyph unicode="j" horiz-adv-x="225" d="M-40 -182q65 101 86 222l74 422h70l-74 -421q-24 -135 -88 -223h-68zM137 556l16 88h70l-16 -88h-70z" />
<glyph unicode="k" horiz-adv-x="451" d="M36 0l114 644h70l-68 -385l3 -1q138 117 229 204h91v-2q-89 -85 -237 -207q74 -133 162 -251l-1 -2h-86q-75 103 -137 217h-31l-39 -217h-70z" />
<glyph unicode="l" horiz-adv-x="224" d="M36 0l114 644h70l-114 -644h-70z" />
<glyph unicode="m" horiz-adv-x="722" d="M36 0l81 462h55l-1 -38q76 48 136 48q75 0 101 -57q90 57 152 57q50 0 80.5 -28.5t30.5 -83.5q0 -17 -5 -49l-55 -311h-70l55 311q5 23 5 40q0 59 -63 59q-48 0 -120 -44q0 -28 -5 -55l-54 -311h-70l55 311q4 28 4 40q0 59 -62 59q-45 0 -115 -41l-65 -369h-70z" />
<glyph unicode="n" d="M36 0l81 462h55l-2 -41q76 51 147 51q55 0 87.5 -30t32.5 -83q0 -23 -4 -44l-56 -315h-70l55 310q4 26 4 39q0 61 -68 61q-53 0 -127 -43l-65 -367h-70z" />
<glyph unicode="o" horiz-adv-x="477" d="M41 164q0 107 46 196q58 112 182 112q80 0 122.5 -44t42.5 -130q0 -107 -46 -196q-58 -112 -182 -112q-80 0 -122.5 44t-42.5 130zM112 165q0 -113 98 -113q80 0 118 84q35 75 35 161q0 113 -98 113q-80 0 -118 -84q-35 -75 -35 -161z" />
<glyph unicode="p" horiz-adv-x="483" d="M4 -182l114 644h55v-34q58 44 125 44q69 0 104.5 -43t35.5 -121q0 -110 -41 -201q-53 -117 -178 -117q-55 0 -112 17l-33 -189h-70zM118 66q53 -17 99 -17q82 0 117 83q33 75 33 170q0 109 -86 109q-55 0 -109 -38z" />
<glyph unicode="q" horiz-adv-x="482" d="M43 154q0 116 47 209q54 109 177 109q79 0 174 -38l-109 -616h-71l36 202q-51 -30 -108 -30q-71 0 -108.5 42t-37.5 122zM114 156q0 -106 89 -106q52 0 106 31l55 314q-58 18 -97 18q-79 0 -116 -77q-16 -35 -26.5 -88t-10.5 -92z" />
<glyph unicode="r" horiz-adv-x="334" d="M36 0l81 462h55l-1 -46q57 56 125 56q28 0 54 -7l-12 -66q-25 7 -51 7q-68 0 -118 -51l-63 -355h-70z" />
<glyph unicode="s" horiz-adv-x="377" d="M-7 16l18 61q75 -25 138 -25q46 0 76 19.5t30 57.5q0 13 -5 23t-9.5 16.5t-20 15t-23 12t-31.5 14.5q-31 14 -45 21t-33.5 22t-27.5 34.5t-8 46.5q0 64 47 101t125 37q63 0 132 -22l-18 -60q-69 20 -120 20q-41 0 -68 -18t-27 -52q0 -8 2 -14t4 -11t8 -10t10 -8.5t14 -8 t16 -7.5t20 -9t22 -10q58 -26 82.5 -52t24.5 -72q0 -69 -49 -108.5t-130 -39.5q-69 0 -154 26z" />
<glyph unicode="t" horiz-adv-x="322" d="M58 404l9 49l66 5l32 139h60l-24 -135h123l-10 -58h-123l-48 -274q-4 -20 -4 -35q0 -22 11 -32.5t39 -10.5q29 0 59 10l12 -58q-42 -14 -81 -14q-112 0 -112 97q0 15 5 40l49 277h-63z" />
<glyph unicode="u" d="M50 103q0 17 5 44l56 315h70l-55 -310q-4 -26 -4 -39q0 -61 66 -61q55 0 129 43l65 367h70l-81 -462h-56l2 41q-74 -51 -146 -51q-56 0 -88.5 30t-32.5 83z" />
<glyph unicode="v" horiz-adv-x="430" d="M68 462h70q13 -227 46 -402h4q89 164 186 402h69q-116 -291 -222 -462h-93q-44 177 -60 462z" />
<glyph unicode="w" horiz-adv-x="661" d="M67 462h69q2 -220 25 -399h5q84 197 156 399h100q4 -242 15 -399h5q88 182 165 399h68q-88 -252 -197 -462h-96q-18 207 -19 399h-4q-79 -214 -159 -399h-98q-33 202 -35 462z" />
<glyph unicode="x" horiz-adv-x="438" d="M-10 0q108 142 187 235q-53 105 -101 227h74q33 -90 76 -176h4q81 97 138 176h75q-76 -102 -180 -227q48 -99 105 -235h-75q-29 74 -80 183h-4q-63 -76 -144 -183h-75z" />
<glyph unicode="y" horiz-adv-x="420" d="M46 -182q42 70 103 182h-30q-20 75 -36 209t-20 253h69q12 -234 42 -402h4q110 209 192 402h68q-149 -354 -323 -644h-69z" />
<glyph unicode="z" horiz-adv-x="396" d="M-1 0l8 47l286 354h-219l11 61h310l-8 -47l-286 -354h226l-11 -61h-317z" />
<glyph unicode="{" horiz-adv-x="265" d="M40 244q75 53 88 128l28 156q11 62 47 93t104 33l-7 -43q-34 -4 -54.5 -22.5t-28.5 -61.5l-28 -160q-12 -74 -83 -123q42 -38 42 -90q0 -14 -3 -31l-27 -157q-4 -17 -4 -35q0 -47 56 -54l-8 -43q-110 3 -110 90q0 16 4 37l27 156q3 17 3 31q0 54 -46 96z" />
<glyph unicode="|" horiz-adv-x="294" d="M40 -202l153 866h61l-153 -866h-61z" />
<glyph unicode="}" horiz-adv-x="265" d="M-38 -166l7 43q34 4 54.5 22.5t28.5 61.5l28 160q14 77 83 123q-42 38 -42 90q0 14 3 31l27 157q4 26 4 35q0 47 -56 54l8 43q110 -3 110 -90q0 -16 -4 -37l-27 -156q-3 -17 -3 -31q0 -54 46 -96q-75 -53 -88 -128l-28 -156q-11 -62 -47 -93t-104 -33z" />
<glyph unicode="~" horiz-adv-x="452" d="M69 297q12 34 37 57.5t61 23.5q29 0 82 -28q5 -3 20.5 -11.5t21 -11t15 -5.5t18.5 -3q34 0 55 41l36 -13q-12 -34 -37 -57.5t-61 -23.5q-29 0 -82 28q-5 3 -20.5 11.5t-21 11t-15 5.5t-18.5 3q-34 0 -55 -41z" />
<glyph unicode="&#xa1;" horiz-adv-x="264" d="M16 -182l100 447h44l-57 -447h-87zM118 376l15 86h78l-15 -86h-78z" />
<glyph unicode="&#xa2;" horiz-adv-x="451" d="M66 259q0 114 49 202q51 92 155 101l17 96h59l-17 -96q39 -3 97 -19l-14 -59q-70 19 -117 19q-82 0 -120 -76q-38 -78 -38 -167q0 -116 109 -116q53 0 112 23l17 -59q-64 -26 -131 -26l-17 -94h-59l18 100q-120 25 -120 171z" />
<glyph unicode="&#xa3;" horiz-adv-x="498" d="M31 0l8 46q116 79 116 190q0 21 -3 48h-85l9 51l70 4q-8 60 -8 93q0 98 47 155q55 67 171 67q65 0 148 -22l-16 -63q-75 20 -134 20q-73 0 -108 -40q-33 -39 -33 -118q0 -35 7 -88h153l-10 -59h-136q1 -10 1 -37q0 -114 -79 -178l1 -4h272l-11 -65h-380z" />
<glyph unicode="&#xa4;" horiz-adv-x="494" d="M64 139l67 67q-12 27 -12 65q0 44 13 92t38 81l-41 62l46 31l37 -56q33 19 75 19q51 0 81 -24l60 61l36 -32l-67 -67q12 -27 12 -65q0 -44 -13 -92t-38 -81l41 -62l-46 -31l-37 56q-33 -19 -75 -19q-51 0 -81 24l-60 -61zM175 275q0 -82 71 -82q55 0 82 59q25 53 25 117 q0 82 -71 82q-55 0 -82 -59q-25 -53 -25 -117z" />
<glyph unicode="&#xa5;" horiz-adv-x="517" d="M64 153l10 56h144l14 80h-144l10 56h114q-62 149 -101 299h77q37 -143 92 -276h4q105 140 188 276h79q-92 -150 -205 -299h114l-10 -56h-144l-14 -80h144l-10 -56h-144l-27 -153h-74l27 153h-144z" />
<glyph unicode="&#xa6;" horiz-adv-x="294" d="M40 -202l60 338h61l-60 -338h-61zM133 326l60 338h61l-60 -338h-61z" />
<glyph unicode="&#xa7;" horiz-adv-x="539" d="M47 -112l16 61q80 -20 129 -20q95 0 142 84q18 32 31 75q-39 -7 -71 -7q-95 0 -146.5 52t-51.5 153q0 57 15.5 125t45.5 122q67 121 209 121q63 0 144 -22l-16 -61q-82 20 -128 20q-99 0 -144 -84q-17 -33 -30 -76q34 8 69 8q95 0 147 -51.5t52 -154.5q0 -57 -15 -125 t-45 -121q-67 -121 -209 -121q-63 0 -144 22zM170 287q0 -143 132 -143q35 0 77 10q7 39 7 76q0 146 -131 146q-37 0 -78 -11q-7 -49 -7 -78z" />
<glyph unicode="&#xa8;" horiz-adv-x="341" d="M105 538l14 78h70l-14 -78h-70zM274 538l14 78h70l-14 -78h-70z" />
<glyph unicode="&#xa9;" horiz-adv-x="730" d="M71 322q0 154 82.5 243t227.5 89t227.5 -89t82.5 -243t-82.5 -243t-227.5 -89t-227.5 89t-82.5 243zM122 322q0 -137 68 -210.5t191 -73.5t191 73.5t68 210.5t-68 210.5t-191 73.5t-191 -73.5t-68 -210.5zM231 321q0 183 155 183q46 0 90 -11l-7 -49q-45 9 -79 9 q-58 0 -79.5 -33t-21.5 -99q0 -61 20 -96t75 -35q48 0 93 19l17 -45q-52 -25 -114 -25q-78 0 -113.5 49.5t-35.5 132.5z" />
<glyph unicode="&#xaa;" horiz-adv-x="323" d="M93 460q0 67 28 126q33 68 110 68q50 0 107 -24l-46 -262h-38l-1 20q-35 -26 -75 -26q-41 0 -63 25.5t-22 72.5zM145 464q0 -56 48 -56q31 0 59 19l30 173q-26 9 -52 9q-44 0 -64 -45q-21 -48 -21 -100z" />
<glyph unicode="&#xab;" horiz-adv-x="454" d="M42 225q0 49 54 98q55 51 118 102l37 -41q-81 -68 -119 -105q-28 -28 -28 -52q0 -16 13 -37q20 -32 89 -118l-48 -38q-68 85 -89 117q-27 41 -27 74zM205 225q0 49 54 98q55 51 118 102l37 -41q-80 -68 -119 -105q-28 -28 -28 -52q0 -16 13 -37q20 -32 89 -118l-48 -38 q-68 85 -89 117q-27 40 -27 74z" />
<glyph unicode="&#xac;" horiz-adv-x="571" d="M75 305l10 56h444l-45 -259h-59l36 203h-386z" />
<glyph unicode="&#xad;" horiz-adv-x="294" d="M45 219l10 58h200l-10 -58h-200z" />
<glyph unicode="&#xae;" horiz-adv-x="437" d="M106 488q0 77 42 121.5t116 44.5t116 -44.5t42 -121.5t-42 -121.5t-116 -44.5t-116 44.5t-42 121.5zM139 488q0 -65 32.5 -100t92.5 -35t92.5 35t32.5 100t-32.5 100t-92.5 35t-92.5 -35t-32.5 -100zM202 401v178q34 4 55 4q72 0 72 -57q0 -38 -36 -51q17 -34 41 -73 l-1 -1h-38q-19 34 -36 69q-15 0 -24 1v-70h-33zM235 498q7 -1 19 -1q42 0 42 29q0 27 -37 27q-16 0 -24 -1v-54z" />
<glyph unicode="&#xaf;" horiz-adv-x="341" d="M114 552l9 50h225l-9 -50h-225z" />
<glyph unicode="&#xb0;" horiz-adv-x="339" d="M101 531q0 53 35 88t87 35q51 0 86 -35t35 -88t-35 -88t-86 -35q-52 0 -87 35t-35 88zM142 531q0 -36 23.5 -60.5t57.5 -24.5t57 24.5t23 60.5t-23 60.5t-57 24.5t-57.5 -24.5t-23.5 -60.5z" />
<glyph unicode="&#xb1;" horiz-adv-x="565" d="M32 0l10 56h409l-10 -56h-409zM88 316l10 56h176l30 173h57l-30 -173h176l-10 -56h-176l-30 -173h-57l30 173h-176z" />
<glyph unicode="&#xb2;" horiz-adv-x="329" d="M67 293l7 40q40 31 66 53t59.5 54.5t51 62.5t17.5 56q0 47 -58 47q-35 0 -75 -17l-13 45q50 20 94 20q49 0 77.5 -24t28.5 -67q0 -39 -28 -83t-58.5 -72t-75.5 -64l1 -4h130l-8 -47h-216z" />
<glyph unicode="&#xb3;" horiz-adv-x="313" d="M62 304l13 47q42 -14 82 -14q37 0 57.5 18t20.5 51q0 25 -12 36t-39 11h-39l8 46h39q28 0 46.5 17t18.5 46q0 44 -52 44q-33 0 -75 -16l-13 45q49 19 92 19q46 0 73.5 -22t27.5 -62q0 -31 -16 -55.5t-43 -34.5v-4q37 -16 37 -68q0 -54 -34.5 -86.5t-97.5 -32.5 q-48 0 -94 15z" />
<glyph unicode="&#xb4;" horiz-adv-x="341" d="M163 543l117 145l50 -47l-140 -124z" />
<glyph unicode="&#xb5;" horiz-adv-x="519" d="M32 -182q47 102 47 226v418h70v-315q0 -95 90 -95q67 0 132 44v366h70v-462h-55l-6 43q-74 -53 -153 -53q-47 0 -79 20q-4 -107 -48 -192h-68z" />
<glyph unicode="&#xb6;" horiz-adv-x="481" d="M93 445q0 83 52 141t141 58h183l-146 -826h-61l90 510h-62l-90 -510h-61l90 510q-71 2 -103.5 29t-32.5 88z" />
<glyph unicode="&#xb7;" horiz-adv-x="241" d="M75 197l15 86h79l-15 -86h-79z" />
<glyph unicode="&#xb8;" horiz-adv-x="341" d="M43 -185l12 33q20 -6 34 -6q26 0 41 15.5t15 35.5q0 33 -64 34l11 31q96 0 96 -62q0 -35 -26 -62.5t-69 -27.5q-23 0 -50 9z" />
<glyph unicode="&#xb9;" horiz-adv-x="292" d="M109 598l106 46h44l-62 -351h-53l52 294l-73 -26z" />
<glyph unicode="&#xba;" horiz-adv-x="323" d="M89 466q0 67 28 120q35 68 112 68q102 0 102 -104q0 -67 -28 -120q-35 -68 -112 -68q-102 0 -102 104zM141 468q0 -60 54 -60q44 0 64 46q20 45 20 94q0 60 -54 60q-44 0 -64 -46q-20 -45 -20 -94z" />
<glyph unicode="&#xbb;" horiz-adv-x="454" d="M40 75q80 68 119 105q28 28 28 52q0 16 -13 37q-20 32 -89 118l48 38q68 -85 89 -117q27 -40 27 -74q0 -49 -54 -98q-55 -51 -118 -102zM203 75q81 68 119 105q28 28 28 52q0 16 -13 37q-20 32 -89 118l48 38q68 -85 89 -117q27 -41 27 -74q0 -49 -54 -98 q-55 -51 -118 -102z" />
<glyph unicode="&#xbc;" horiz-adv-x="688" d="M77 0l476 644h62l-476 -644h-62zM96 598l106 46h44l-62 -351h-53l52 294l-73 -26zM370 76l7 38q70 102 171 237h59q-87 -114 -167 -230h94l20 73h46l-13 -73h56l-8 -45h-56l-13 -76h-53l13 76h-156z" />
<glyph unicode="&#xbd;" horiz-adv-x="722" d="M77 0l476 644h62l-476 -644h-62zM96 598l106 46h44l-62 -351h-53l52 294l-73 -26zM427 1l7 40q40 31 66 53t59.5 54.5t51 62.5t17.5 56q0 47 -58 47q-35 0 -75 -17l-13 45q50 20 94 20q49 0 77.5 -24t28.5 -67q0 -39 -28 -83t-58.5 -72t-75.5 -64l1 -4h130l-8 -47h-216z " />
<glyph unicode="&#xbe;" horiz-adv-x="733" d="M60 304l13 47q42 -14 82 -14q37 0 57.5 18t20.5 51q0 25 -12 36t-39 11h-39l8 46h39q28 0 46.5 17t18.5 46q0 44 -52 44q-33 0 -75 -16l-13 45q49 19 92 19q46 0 73.5 -22t27.5 -62q0 -31 -16 -55.5t-43 -34.5v-4q37 -16 37 -68q0 -54 -34.5 -86.5t-97.5 -32.5 q-47 0 -94 15zM122 0l476 644h62l-476 -644h-62zM415 76l7 38q70 102 171 237h59q-87 -114 -167 -230h94l20 73h46l-13 -73h56l-8 -45h-56l-13 -76h-53l13 76h-156z" />
<glyph unicode="&#xbf;" horiz-adv-x="399" d="M-10 -51q0 52 26 89t84 87q59 52 75 74t25 66h64q-10 -64 -34.5 -98.5t-84.5 -86.5q-28 -24 -42.5 -39t-26.5 -38.5t-12 -49.5q0 -40 25 -60.5t67 -20.5q55 0 130 28l20 -59q-77 -33 -152 -33q-73 0 -118.5 36t-45.5 105zM211 376l15 86h78l-15 -86h-78z" />
<glyph unicode="&#xc0;" horiz-adv-x="537" d="M-19 0q159 372 308 644h101q53 -263 83 -644h-74l-15 161h-257l-71 -161h-75zM154 225h225q-21 192 -49 353h-4q-106 -210 -172 -353zM281 825l64 39l67 -149l-37 -21z" />
<glyph unicode="&#xc1;" horiz-adv-x="537" d="M-19 0q159 372 308 644h101q53 -263 83 -644h-74l-15 161h-257l-71 -161h-75zM154 225h225q-21 192 -49 353h-4q-106 -210 -172 -353zM291 719l117 145l50 -47l-140 -124z" />
<glyph unicode="&#xc2;" horiz-adv-x="537" d="M-19 0q159 372 308 644h101q53 -263 83 -644h-74l-15 161h-257l-71 -161h-75zM154 225h225q-21 192 -49 353h-4q-106 -210 -172 -353zM224 714l121 116h56l80 -116l-30 -24l-85 93l-117 -93z" />
<glyph unicode="&#xc3;" horiz-adv-x="537" d="M-19 0q159 372 308 644h101q53 -263 83 -644h-74l-15 161h-257l-71 -161h-75zM154 225h225q-21 192 -49 353h-4q-106 -210 -172 -353zM212 732q34 80 92 80q25 0 65.5 -22t58.5 -22q30 0 50 39l32 -11q-34 -80 -92 -80q-25 0 -65.5 22t-58.5 22q-30 0 -50 -39z" />
<glyph unicode="&#xc4;" horiz-adv-x="537" d="M-19 0q159 372 308 644h101q53 -263 83 -644h-74l-15 161h-257l-71 -161h-75zM154 225h225q-21 192 -49 353h-4q-106 -210 -172 -353zM233 714l14 78h70l-14 -78h-70zM402 714l14 78h70l-14 -78h-70z" />
<glyph unicode="&#xc5;" horiz-adv-x="537" d="M-19 0q159 372 308 644h101q53 -263 83 -644h-74l-15 161h-257l-71 -161h-75zM154 225h225q-21 192 -49 353h-4q-106 -210 -172 -353zM276 773q0 40 26.5 68t68.5 28q36 0 58 -20.5t22 -57.5q0 -40 -26.5 -68t-68.5 -28q-36 0 -58 20.5t-22 57.5zM312 775q0 -47 47 -47 q26 0 41 17.5t15 43.5q0 47 -47 47q-26 0 -41 -17.5t-15 -43.5z" />
<glyph unicode="&#xc6;" horiz-adv-x="730" d="M-24 0q228 397 398 644h383l-11 -65h-258l-38 -216h212l-11 -64h-212l-41 -234h258l-11 -65h-333l28 161h-191l-93 -161h-80zM186 225h166l62 353h-8q-145 -227 -220 -353z" />
<glyph unicode="&#xc7;" horiz-adv-x="508" d="M60 225q0 68 17.5 148.5t51.5 142.5q76 138 239 138q70 0 157 -23l-17 -63q-92 21 -141 21q-117 0 -174 -106q-28 -53 -43 -124.5t-15 -131.5q0 -87 37 -129.5t117 -42.5q71 0 143 28l19 -59q-80 -34 -166 -34q-225 0 -225 235zM165 -185l12 33q20 -6 34 -6q26 0 41 15.5 t15 35.5q0 33 -64 34l11 31q96 0 96 -62q0 -35 -26 -62.5t-69 -27.5q-23 0 -50 9z" />
<glyph unicode="&#xc8;" horiz-adv-x="478" d="M42 0l114 644h349l-11 -65h-276l-38 -216h230l-11 -64h-230l-41 -234h276l-11 -65h-351zM272 825l64 39l67 -149l-37 -21z" />
<glyph unicode="&#xc9;" horiz-adv-x="478" d="M42 0l114 644h349l-11 -65h-276l-38 -216h230l-11 -64h-230l-41 -234h276l-11 -65h-351zM282 719l117 145l50 -47l-140 -124z" />
<glyph unicode="&#xca;" horiz-adv-x="478" d="M42 0l114 644h349l-11 -65h-276l-38 -216h230l-11 -64h-230l-41 -234h276l-11 -65h-351zM215 714l121 116h56l80 -116l-30 -24l-85 93l-117 -93z" />
<glyph unicode="&#xcb;" horiz-adv-x="478" d="M42 0l114 644h349l-11 -65h-276l-38 -216h230l-11 -64h-230l-41 -234h276l-11 -65h-351zM224 714l14 78h70l-14 -78h-70zM393 714l14 78h70l-14 -78h-70z" />
<glyph unicode="&#xcc;" horiz-adv-x="241" d="M42 0l114 644h74l-114 -644h-74zM132 825l64 39l67 -149l-37 -21z" />
<glyph unicode="&#xcd;" horiz-adv-x="241" d="M42 0l114 644h74l-114 -644h-74zM142 719l117 145l50 -47l-140 -124z" />
<glyph unicode="&#xce;" horiz-adv-x="241" d="M42 0l114 644h74l-114 -644h-74zM75 714l121 116h56l80 -116l-30 -24l-85 93l-117 -93z" />
<glyph unicode="&#xcf;" horiz-adv-x="241" d="M42 0l114 644h74l-114 -644h-74zM84 714l14 78h70l-14 -78h-70zM253 714l14 78h70l-14 -78h-70z" />
<glyph unicode="&#xd0;" horiz-adv-x="591" d="M30 301l10 58h73l49 280q77 15 151 15q252 0 252 -232q0 -62 -17 -139.5t-47 -137.5q-41 -80 -107.5 -117t-169.5 -37q-76 0 -174 13l52 297h-72zM134 62q50 -6 95 -6q78 0 127.5 28t81.5 94q24 50 38 117t14 121q0 93 -45.5 133t-134.5 40q-46 0 -84 -6l-39 -224h123 l-10 -58h-124z" />
<glyph unicode="&#xd1;" horiz-adv-x="634" d="M42 0l114 644h107l185 -555h4l98 555h73l-114 -644h-107l-185 555h-4l-98 -555h-73zM262 732q34 80 92 80q25 0 65.5 -22t58.5 -22q30 0 50 39l32 -11q-34 -80 -92 -80q-25 0 -65.5 22t-58.5 22q-30 0 -50 -39z" />
<glyph unicode="&#xd2;" horiz-adv-x="615" d="M60 216q0 64 16.5 143t47.5 142q76 153 245 153q217 0 217 -227q0 -64 -16.5 -143t-47.5 -142q-75 -152 -243 -152q-219 0 -219 226zM135 221q0 -83 35 -124.5t113 -41.5q64 0 105.5 29.5t69.5 91.5q53 118 53 248q0 82 -35.5 123.5t-113.5 41.5q-61 0 -102.5 -28 t-70.5 -93q-24 -53 -39 -121t-15 -126zM321 825l64 39l67 -149l-37 -21z" />
<glyph unicode="&#xd3;" horiz-adv-x="615" d="M60 216q0 64 16.5 143t47.5 142q76 153 245 153q217 0 217 -227q0 -64 -16.5 -143t-47.5 -142q-75 -152 -243 -152q-219 0 -219 226zM135 221q0 -83 35 -124.5t113 -41.5q64 0 105.5 29.5t69.5 91.5q53 118 53 248q0 82 -35.5 123.5t-113.5 41.5q-61 0 -102.5 -28 t-70.5 -93q-24 -53 -39 -121t-15 -126zM331 719l117 145l50 -47l-140 -124z" />
<glyph unicode="&#xd4;" horiz-adv-x="615" d="M60 216q0 64 16.5 143t47.5 142q76 153 245 153q217 0 217 -227q0 -64 -16.5 -143t-47.5 -142q-75 -152 -243 -152q-219 0 -219 226zM135 221q0 -83 35 -124.5t113 -41.5q64 0 105.5 29.5t69.5 91.5q53 118 53 248q0 82 -35.5 123.5t-113.5 41.5q-61 0 -102.5 -28 t-70.5 -93q-24 -53 -39 -121t-15 -126zM264 714l121 116h56l80 -116l-30 -24l-85 93l-117 -93z" />
<glyph unicode="&#xd5;" horiz-adv-x="615" d="M60 216q0 64 16.5 143t47.5 142q76 153 245 153q217 0 217 -227q0 -64 -16.5 -143t-47.5 -142q-75 -152 -243 -152q-219 0 -219 226zM135 221q0 -83 35 -124.5t113 -41.5q64 0 105.5 29.5t69.5 91.5q53 118 53 248q0 82 -35.5 123.5t-113.5 41.5q-61 0 -102.5 -28 t-70.5 -93q-24 -53 -39 -121t-15 -126zM252 732q34 80 92 80q25 0 65.5 -22t58.5 -22q30 0 50 39l32 -11q-34 -80 -92 -80q-25 0 -65.5 22t-58.5 22q-30 0 -50 -39z" />
<glyph unicode="&#xd6;" horiz-adv-x="615" d="M60 216q0 64 16.5 143t47.5 142q76 153 245 153q217 0 217 -227q0 -64 -16.5 -143t-47.5 -142q-75 -152 -243 -152q-219 0 -219 226zM135 221q0 -83 35 -124.5t113 -41.5q64 0 105.5 29.5t69.5 91.5q53 118 53 248q0 82 -35.5 123.5t-113.5 41.5q-61 0 -102.5 -28 t-70.5 -93q-24 -53 -39 -121t-15 -126zM273 714l14 78h70l-14 -78h-70zM442 714l14 78h70l-14 -78h-70z" />
<glyph unicode="&#xd7;" horiz-adv-x="565" d="M73 88l169 144l-117 143l46 38l116 -143l168 143l34 -39l-169 -144l117 -143l-46 -38l-116 143l-168 -143z" />
<glyph unicode="&#xd8;" horiz-adv-x="615" d="M26 0l65 79q-31 52 -31 138q0 63 16.5 142.5t47.5 142.5q75 152 244 152q100 0 153 -48l31 38h68l-65 -79q31 -52 31 -138q0 -63 -16.5 -142.5t-47.5 -142.5q-75 -152 -244 -152q-100 0 -153 48l-31 -38h-68zM135 213q0 -36 9 -65h3l327 401q-36 40 -111 40 q-63 0 -104.5 -29t-70.5 -92q-26 -53 -39.5 -126.5t-13.5 -128.5zM172 95q36 -40 111 -40q63 0 104.5 29t70.5 92q26 53 39.5 126.5t13.5 128.5q0 36 -9 65h-3z" />
<glyph unicode="&#xd9;" horiz-adv-x="603" d="M72 167q0 34 8 82l70 395h74l-68 -388q-8 -46 -8 -78q0 -123 127 -123q81 0 125 51q38 43 56 147l69 391h73l-71 -402q-22 -125 -75 -182q-64 -70 -181 -70q-93 0 -146 44t-53 133zM314 825l64 39l67 -149l-37 -21z" />
<glyph unicode="&#xda;" horiz-adv-x="603" d="M72 167q0 34 8 82l70 395h74l-68 -388q-8 -46 -8 -78q0 -123 127 -123q81 0 125 51q38 43 56 147l69 391h73l-71 -402q-22 -125 -75 -182q-64 -70 -181 -70q-93 0 -146 44t-53 133zM324 719l117 145l50 -47l-140 -124z" />
<glyph unicode="&#xdb;" horiz-adv-x="603" d="M72 167q0 34 8 82l70 395h74l-68 -388q-8 -46 -8 -78q0 -123 127 -123q81 0 125 51q38 43 56 147l69 391h73l-71 -402q-22 -125 -75 -182q-64 -70 -181 -70q-93 0 -146 44t-53 133zM257 714l121 116h56l80 -116l-30 -24l-85 93l-117 -93z" />
<glyph unicode="&#xdc;" horiz-adv-x="603" d="M72 167q0 34 8 82l70 395h74l-68 -388q-8 -46 -8 -78q0 -123 127 -123q81 0 125 51q38 43 56 147l69 391h73l-71 -402q-22 -125 -75 -182q-64 -70 -181 -70q-93 0 -146 44t-53 133zM266 714l14 78h70l-14 -78h-70zM435 714l14 78h70l-14 -78h-70z" />
<glyph unicode="&#xdd;" horiz-adv-x="530" d="M95 644h78q40 -177 104 -331h4q120 159 220 331h79q-117 -201 -276 -404l-42 -240h-74l42 239q-91 210 -135 405zM288 719l117 145l50 -47l-140 -124z" />
<glyph unicode="&#xde;" horiz-adv-x="522" d="M42 0l114 644h74l-21 -117q43 5 80 5q218 0 218 -168q0 -110 -72 -178q-62 -56 -182 -56q-52 0 -112 9l-25 -139h-74zM152 201q54 -7 99 -7q95 0 135 41q46 46 46 124q0 61 -38.5 84.5t-112.5 23.5q-35 0 -83 -6z" />
<glyph unicode="&#xdf;" horiz-adv-x="503" d="M31 0l85 481q16 91 62 132t135 41q76 0 115 -28t39 -79q0 -42 -23.5 -69t-68.5 -56q-61 -38 -73 -54q-12 -15 -12 -32q0 -9 3.5 -16.5t7 -12.5t13.5 -12t15 -9.5t20 -10.5t21 -11q50 -27 72.5 -53.5t22.5 -71.5q0 -67 -47 -108t-127 -41q-63 0 -131 22l17 61 q61 -21 116 -21q45 0 73 20.5t28 59.5q0 16 -4.5 27t-17 21.5t-22 16t-33.5 17.5q-27 14 -39.5 22t-29 22t-23 31t-6.5 40q0 38 22 64.5t74 60.5q25 16 35.5 23.5t23.5 19t17.5 22t4.5 23.5q0 50 -86 50q-58 0 -85.5 -25.5t-39.5 -91.5l-84 -475h-70z" />
<glyph unicode="&#xe0;" horiz-adv-x="481" d="M43 153q0 119 47 210q54 109 178 109q80 0 173 -38l-77 -434h-54v34q-58 -44 -124 -44q-70 0 -106.5 42t-36.5 121zM114 156q0 -105 87 -105q53 0 109 38l54 306q-58 18 -97 18q-80 0 -116 -78q-16 -35 -26.5 -88t-10.5 -91zM228 649l64 39l67 -149l-37 -21z" />
<glyph unicode="&#xe1;" horiz-adv-x="481" d="M43 153q0 119 47 210q54 109 178 109q80 0 173 -38l-77 -434h-54v34q-58 -44 -124 -44q-70 0 -106.5 42t-36.5 121zM114 156q0 -105 87 -105q53 0 109 38l54 306q-58 18 -97 18q-80 0 -116 -78q-16 -35 -26.5 -88t-10.5 -91zM238 543l117 145l50 -47l-140 -124z" />
<glyph unicode="&#xe2;" horiz-adv-x="481" d="M43 153q0 119 47 210q54 109 178 109q80 0 173 -38l-77 -434h-54v34q-58 -44 -124 -44q-70 0 -106.5 42t-36.5 121zM114 156q0 -105 87 -105q53 0 109 38l54 306q-58 18 -97 18q-80 0 -116 -78q-16 -35 -26.5 -88t-10.5 -91zM171 538l121 116h56l80 -116l-30 -24l-85 93 l-117 -93z" />
<glyph unicode="&#xe3;" horiz-adv-x="481" d="M43 153q0 119 47 210q54 109 178 109q80 0 173 -38l-77 -434h-54v34q-58 -44 -124 -44q-70 0 -106.5 42t-36.5 121zM114 156q0 -105 87 -105q53 0 109 38l54 306q-58 18 -97 18q-80 0 -116 -78q-16 -35 -26.5 -88t-10.5 -91zM159 556q34 80 92 80q25 0 65.5 -22t58.5 -22 q31 0 50 39l32 -11q-34 -80 -92 -80q-25 0 -65.5 22t-58.5 22q-31 0 -50 -39z" />
<glyph unicode="&#xe4;" horiz-adv-x="481" d="M43 153q0 119 47 210q54 109 178 109q80 0 173 -38l-77 -434h-54v34q-58 -44 -124 -44q-70 0 -106.5 42t-36.5 121zM114 156q0 -105 87 -105q53 0 109 38l54 306q-58 18 -97 18q-80 0 -116 -78q-16 -35 -26.5 -88t-10.5 -91zM180 538l14 78h70l-14 -78h-70zM349 538 l14 78h70l-14 -78h-70z" />
<glyph unicode="&#xe5;" horiz-adv-x="481" d="M43 153q0 119 47 210q54 109 178 109q80 0 173 -38l-77 -434h-54v34q-58 -44 -124 -44q-70 0 -106.5 42t-36.5 121zM114 156q0 -105 87 -105q53 0 109 38l54 306q-58 18 -97 18q-80 0 -116 -78q-16 -35 -26.5 -88t-10.5 -91zM223 597q0 40 26.5 68t68.5 28q36 0 58 -20.5 t22 -57.5q0 -40 -26.5 -68t-68.5 -28q-36 0 -58 20.5t-22 57.5zM259 599q0 -47 47 -47q26 0 41 17.5t15 43.5q0 47 -47 47q-26 0 -41 -17.5t-15 -43.5z" />
<glyph unicode="&#xe6;" horiz-adv-x="703" d="M43 150q0 113 46 209q53 113 173 113q67 0 149 -29l-4 -20l4 -2q41 51 113 51q67 0 102.5 -42t35.5 -113q0 -50 -16 -111h-261q-3 -24 -3 -44q0 -110 99 -110q51 0 113 26l19 -58q-73 -31 -137 -31q-99 0 -139 65q-68 -64 -157 -64q-67 0 -102 41.5t-35 118.5zM114 155 q0 -104 80 -104q65 0 121 56q-4 21 -4 50q0 38 8 83l28 158q-51 15 -86 15q-76 0 -111 -81q-36 -86 -36 -177zM394 262h193q6 36 6 55q0 93 -75 93q-91 0 -124 -148z" />
<glyph unicode="&#xe7;" horiz-adv-x="411" d="M44 166q0 114 50 204q57 102 180 102q58 0 130 -20l-14 -60q-67 18 -117 18q-83 0 -120 -75q-38 -76 -38 -166q0 -117 110 -117q52 0 111 23l17 -58q-62 -27 -132 -27q-84 0 -130.5 44t-46.5 132zM116 -185l12 33q20 -6 34 -6q26 0 41 15.5t15 35.5q0 33 -64 34l11 31 q96 0 96 -62q0 -35 -26 -62.5t-69 -27.5q-23 0 -50 9z" />
<glyph unicode="&#xe8;" horiz-adv-x="450" d="M40 164q0 52 16 112.5t46 106.5q59 89 159 89q72 0 110 -43t38 -114q0 -43 -16 -109h-279q-3 -21 -3 -41q0 -113 109 -113q57 0 121 27l18 -59q-75 -31 -143 -31q-84 0 -130 44t-46 131zM123 262h212q4 23 4 47q0 101 -82 101q-99 0 -134 -148zM206 649l64 39l67 -149 l-37 -21z" />
<glyph unicode="&#xe9;" horiz-adv-x="450" d="M40 164q0 52 16 112.5t46 106.5q59 89 159 89q72 0 110 -43t38 -114q0 -43 -16 -109h-279q-3 -21 -3 -41q0 -113 109 -113q57 0 121 27l18 -59q-75 -31 -143 -31q-84 0 -130 44t-46 131zM123 262h212q4 23 4 47q0 101 -82 101q-99 0 -134 -148zM216 543l117 145l50 -47 l-140 -124z" />
<glyph unicode="&#xea;" horiz-adv-x="450" d="M40 164q0 52 16 112.5t46 106.5q59 89 159 89q72 0 110 -43t38 -114q0 -43 -16 -109h-279q-3 -21 -3 -41q0 -113 109 -113q57 0 121 27l18 -59q-75 -31 -143 -31q-84 0 -130 44t-46 131zM123 262h212q4 23 4 47q0 101 -82 101q-99 0 -134 -148zM149 538l121 116h56 l80 -116l-30 -24l-85 93l-117 -93z" />
<glyph unicode="&#xeb;" horiz-adv-x="450" d="M40 164q0 52 16 112.5t46 106.5q59 89 159 89q72 0 110 -43t38 -114q0 -43 -16 -109h-279q-3 -21 -3 -41q0 -113 109 -113q57 0 121 27l18 -59q-75 -31 -143 -31q-84 0 -130 44t-46 131zM123 262h212q4 23 4 47q0 101 -82 101q-99 0 -134 -148zM158 538l14 78h70l-14 -78 h-70zM327 538l14 78h70l-14 -78h-70z" />
<glyph unicode="&#xec;" horiz-adv-x="223" d="M36 0l81 462h70l-81 -462h-70zM93 649l64 39l67 -149l-37 -21z" />
<glyph unicode="&#xed;" horiz-adv-x="223" d="M36 0l81 462h70l-81 -462h-70zM103 543l117 145l50 -47l-140 -124z" />
<glyph unicode="&#xee;" horiz-adv-x="223" d="M36 0l81 462h70l-81 -462h-70zM36 538l121 116h56l80 -116l-30 -24l-85 93l-117 -93z" />
<glyph unicode="&#xef;" horiz-adv-x="223" d="M36 0l81 462h70l-81 -462h-70zM45 538l14 78h70l-14 -78h-70zM214 538l14 78h70l-14 -78h-70z" />
<glyph unicode="&#xf0;" horiz-adv-x="482" d="M41 165q0 107 47 195q58 112 175 112q38 0 82 -12q-16 51 -51 99l-94 -60l-27 46l86 54q-19 22 -59 50l36 43q42 -25 80 -60l71 46l27 -46l-63 -40q83 -103 83 -263q0 -142 -46 -227q-58 -112 -183 -112q-79 0 -121.5 44.5t-42.5 130.5zM112 166q0 -114 97 -114 q82 0 120 84q28 58 34 173q0 47 -6 88q-45 15 -90 15q-80 0 -120 -85q-35 -78 -35 -161z" />
<glyph unicode="&#xf1;" d="M36 0l81 462h55l-2 -41q76 51 147 51q55 0 87.5 -30t32.5 -83q0 -23 -4 -44l-56 -315h-70l55 310q4 26 4 39q0 61 -68 61q-53 0 -127 -43l-65 -367h-70zM161 556q34 80 92 80q25 0 65.5 -22t58.5 -22q31 0 50 39l32 -11q-34 -80 -92 -80q-25 0 -65.5 22t-58.5 22 q-31 0 -50 -39z" />
<glyph unicode="&#xf2;" horiz-adv-x="477" d="M41 164q0 107 46 196q58 112 182 112q80 0 122.5 -44t42.5 -130q0 -107 -46 -196q-58 -112 -182 -112q-80 0 -122.5 44t-42.5 130zM112 165q0 -113 98 -113q80 0 118 84q35 75 35 161q0 113 -98 113q-80 0 -118 -84q-35 -75 -35 -161zM220 649l64 39l67 -149l-37 -21z " />
<glyph unicode="&#xf3;" horiz-adv-x="477" d="M41 164q0 107 46 196q58 112 182 112q80 0 122.5 -44t42.5 -130q0 -107 -46 -196q-58 -112 -182 -112q-80 0 -122.5 44t-42.5 130zM112 165q0 -113 98 -113q80 0 118 84q35 75 35 161q0 113 -98 113q-80 0 -118 -84q-35 -75 -35 -161zM230 543l117 145l50 -47l-140 -124z " />
<glyph unicode="&#xf4;" horiz-adv-x="477" d="M41 164q0 107 46 196q58 112 182 112q80 0 122.5 -44t42.5 -130q0 -107 -46 -196q-58 -112 -182 -112q-80 0 -122.5 44t-42.5 130zM112 165q0 -113 98 -113q80 0 118 84q35 75 35 161q0 113 -98 113q-80 0 -118 -84q-35 -75 -35 -161zM163 538l121 116h56l80 -116 l-30 -24l-85 93l-117 -93z" />
<glyph unicode="&#xf5;" horiz-adv-x="477" d="M41 164q0 107 46 196q58 112 182 112q80 0 122.5 -44t42.5 -130q0 -107 -46 -196q-58 -112 -182 -112q-80 0 -122.5 44t-42.5 130zM112 165q0 -113 98 -113q80 0 118 84q35 75 35 161q0 113 -98 113q-80 0 -118 -84q-35 -75 -35 -161zM151 556q34 80 92 80q25 0 65.5 -22 t58.5 -22q31 0 50 39l32 -11q-34 -80 -92 -80q-25 0 -65.5 22t-58.5 22q-31 0 -50 -39z" />
<glyph unicode="&#xf6;" horiz-adv-x="477" d="M41 164q0 107 46 196q58 112 182 112q80 0 122.5 -44t42.5 -130q0 -107 -46 -196q-58 -112 -182 -112q-80 0 -122.5 44t-42.5 130zM112 165q0 -113 98 -113q80 0 118 84q35 75 35 161q0 113 -98 113q-80 0 -118 -84q-35 -75 -35 -161zM172 538l14 78h70l-14 -78h-70z M341 538l14 78h70l-14 -78h-70z" />
<glyph unicode="&#xf7;" horiz-adv-x="565" d="M54 203l10 56h445l-10 -56h-445zM204 0l15 85h75l-15 -85h-75zM271 377l15 85h75l-15 -85h-75z" />
<glyph unicode="&#xf8;" horiz-adv-x="477" d="M10 0l53 62q-22 40 -22 101q0 111 46 197q58 112 181 112q74 0 114 -36l22 26h61l-53 -62q22 -40 22 -101q0 -111 -46 -197q-58 -112 -181 -112q-73 0 -114 36l-23 -26h-60zM112 169q0 -25 3 -40l4 -1l218 255q-24 27 -73 27q-79 0 -117 -84q-15 -31 -25 -77t-10 -80z M138 79q24 -27 73 -27q79 0 117 84q15 31 25 77t10 80q0 25 -3 40l-4 1z" />
<glyph unicode="&#xf9;" d="M50 103q0 17 5 44l56 315h70l-55 -310q-4 -26 -4 -39q0 -61 66 -61q55 0 129 43l65 367h70l-81 -462h-56l2 41q-74 -51 -146 -51q-56 0 -88.5 30t-32.5 83zM223 649l64 39l67 -149l-37 -21z" />
<glyph unicode="&#xfa;" d="M50 103q0 17 5 44l56 315h70l-55 -310q-4 -26 -4 -39q0 -61 66 -61q55 0 129 43l65 367h70l-81 -462h-56l2 41q-74 -51 -146 -51q-56 0 -88.5 30t-32.5 83zM233 543l117 145l50 -47l-140 -124z" />
<glyph unicode="&#xfb;" d="M50 103q0 17 5 44l56 315h70l-55 -310q-4 -26 -4 -39q0 -61 66 -61q55 0 129 43l65 367h70l-81 -462h-56l2 41q-74 -51 -146 -51q-56 0 -88.5 30t-32.5 83zM166 538l121 116h56l80 -116l-30 -24l-85 93l-117 -93z" />
<glyph unicode="&#xfc;" d="M50 103q0 17 5 44l56 315h70l-55 -310q-4 -26 -4 -39q0 -61 66 -61q55 0 129 43l65 367h70l-81 -462h-56l2 41q-74 -51 -146 -51q-56 0 -88.5 30t-32.5 83zM175 538l14 78h70l-14 -78h-70zM344 538l14 78h70l-14 -78h-70z" />
<glyph unicode="&#xfd;" horiz-adv-x="420" d="M46 -182q42 70 103 182h-30q-20 75 -36 209t-20 253h69q12 -234 42 -402h4q110 209 192 402h68q-149 -354 -323 -644h-69zM202 543l117 145l50 -47l-140 -124z" />
<glyph unicode="&#xfe;" horiz-adv-x="483" d="M4 -182l146 826h70l-37 -209q56 37 114 37q69 0 104.5 -43t35.5 -121q0 -110 -41 -201q-52 -117 -178 -117q-54 0 -111 17l-33 -189h-70zM118 66q53 -17 98 -17q82 0 117 83q33 75 33 170q0 109 -86 109q-54 0 -108 -38z" />
<glyph unicode="&#xff;" horiz-adv-x="420" d="M46 -182q42 70 103 182h-30q-20 75 -36 209t-20 253h69q12 -234 42 -402h4q110 209 192 402h68q-149 -354 -323 -644h-69zM144 538l14 78h70l-14 -78h-70zM313 538l14 78h70l-14 -78h-70z" />
<glyph unicode="&#x152;" horiz-adv-x="754" d="M60 217q0 65 17 144t51 141q78 142 262 142h392l-11 -65h-258l-38 -216h212l-11 -64h-212l-41 -234h258l-11 -65h-393q-217 0 -217 217zM135 220q0 -83 36.5 -119t112.5 -36h65l91 514h-60q-70 0 -115.5 -25.5t-75.5 -85.5q-54 -106 -54 -248z" />
<glyph unicode="&#x153;" horiz-adv-x="725" d="M41 160q0 106 45 198q56 114 173 114q105 0 139 -82h4q54 82 144 82q67 0 102.5 -42t35.5 -113q0 -50 -16 -111h-261q-3 -24 -3 -44q0 -110 99 -110q51 0 113 26l19 -58q-73 -31 -137 -31q-112 0 -144 82h-4q-55 -81 -154 -81q-75 0 -115 43t-40 127zM112 162 q0 -110 90 -110q74 0 110 84q34 78 34 164q0 110 -90 110q-74 0 -110 -84q-34 -79 -34 -164zM416 262h193q6 36 6 55q0 93 -75 93q-91 0 -124 -148z" />
<glyph unicode="&#x178;" horiz-adv-x="530" d="M95 644h78q40 -177 104 -331h4q120 159 220 331h79q-117 -201 -276 -404l-42 -240h-74l42 239q-91 210 -135 405zM230 714l14 78h70l-14 -78h-70zM399 714l14 78h70l-14 -78h-70z" />
<glyph unicode="&#x2c6;" horiz-adv-x="341" d="M96 538l121 116h56l80 -116l-30 -24l-85 93l-117 -93z" />
<glyph unicode="&#x2dc;" horiz-adv-x="341" d="M84 556q34 80 92 80q25 0 65.5 -22t58.5 -22q30 0 50 39l32 -11q-34 -80 -92 -80q-25 0 -65.5 22t-58.5 22q-30 0 -50 -39z" />
<glyph unicode="&#x2000;" horiz-adv-x="434" />
<glyph unicode="&#x2001;" horiz-adv-x="869" />
<glyph unicode="&#x2002;" horiz-adv-x="434" />
<glyph unicode="&#x2003;" horiz-adv-x="869" />
<glyph unicode="&#x2004;" horiz-adv-x="289" />
<glyph unicode="&#x2005;" horiz-adv-x="217" />
<glyph unicode="&#x2006;" horiz-adv-x="144" />
<glyph unicode="&#x2007;" horiz-adv-x="144" />
<glyph unicode="&#x2008;" horiz-adv-x="108" />
<glyph unicode="&#x2009;" horiz-adv-x="173" />
<glyph unicode="&#x200a;" horiz-adv-x="48" />
<glyph unicode="&#x2010;" horiz-adv-x="294" d="M45 219l10 58h200l-10 -58h-200z" />
<glyph unicode="&#x2011;" horiz-adv-x="294" d="M45 219l10 58h200l-10 -58h-200z" />
<glyph unicode="&#x2012;" horiz-adv-x="294" d="M45 219l10 58h200l-10 -58h-200z" />
<glyph unicode="&#x2013;" horiz-adv-x="636" d="M85 220l10 54h461l-10 -54h-461z" />
<glyph unicode="&#x2014;" horiz-adv-x="712" d="M41 221l9 53h626l-9 -53h-626z" />
<glyph unicode="&#x2018;" horiz-adv-x="204" d="M108 458q8 106 69 196l32 -5q-31 -98 -35 -189z" />
<glyph unicode="&#x2019;" horiz-adv-x="204" d="M108 463q31 98 35 189l66 2q-8 -106 -69 -196z" />
<glyph unicode="&#x201a;" horiz-adv-x="199" d="M6 -110q31 98 35 189l66 2q-8 -106 -69 -196z" />
<glyph unicode="&#x201c;" horiz-adv-x="328" d="M108 458q8 106 69 196l32 -5q-31 -98 -35 -189zM233 458q8 106 69 196l32 -5q-31 -98 -35 -189z" />
<glyph unicode="&#x201d;" horiz-adv-x="328" d="M108 463q31 98 35 189l66 2q-8 -106 -69 -196zM233 463q31 98 35 189l66 2q-8 -106 -69 -196z" />
<glyph unicode="&#x201e;" horiz-adv-x="314" d="M6 -110q31 98 35 189l66 2q-8 -106 -69 -196zM130 -110q31 98 35 189l66 2q-8 -106 -69 -196z" />
<glyph unicode="&#x2022;" horiz-adv-x="376" d="M103 313q0 51 29 82.5t78 31.5q47 0 71.5 -24.5t24.5 -63.5q0 -51 -29 -82.5t-78 -31.5q-47 0 -71.5 24.5t-24.5 63.5z" />
<glyph unicode="&#x2026;" horiz-adv-x="589" d="M41 0l15 86h79l-15 -86h-79zM214 0l15 86h79l-15 -86h-79zM387 0l15 86h79l-15 -86h-79z" />
<glyph unicode="&#x202f;" horiz-adv-x="173" />
<glyph unicode="&#x2039;" horiz-adv-x="291" d="M42 226q0 49 54 98q55 51 118 102l37 -41q-81 -68 -119 -105q-28 -28 -28 -52q0 -16 13 -37q20 -32 89 -118l-48 -38q-68 85 -89 117q-27 40 -27 74z" />
<glyph unicode="&#x203a;" horiz-adv-x="291" d="M40 76q80 68 119 105q28 28 28 52q0 16 -13 37q-20 32 -89 118l48 38q68 -85 89 -117q27 -41 27 -74q0 -49 -54 -98q-55 -51 -118 -102z" />
<glyph unicode="&#x205f;" horiz-adv-x="217" />
<glyph unicode="&#x20ac;" horiz-adv-x="573" d="M27 229l10 56h76q5 46 13 82h-75l10 56h80q70 231 275 231q65 0 160 -25l-17 -62q-86 22 -144 22q-76 0 -122 -41t-74 -125h191l-10 -56h-197q-8 -34 -14 -82h197l-10 -56h-190q1 -91 36.5 -132.5t113.5 -41.5q68 0 147 30l19 -59q-80 -36 -171 -36q-108 0 -163.5 57.5 t-57.5 181.5h-83z" />
<glyph unicode="&#x2122;" horiz-adv-x="735" d="M79 598v46h266v-46h-108v-312h-50v312h-108zM381 286q4 246 13 358h68l91 -229h4l92 229h67q9 -112 13 -358h-50q-5 226 -7 284h-4l-87 -218h-53l-87 218h-4q-6 -167 -7 -284h-49z" />
<glyph unicode="&#xe000;" horiz-adv-x="460" d="M0 0v460h460v-460h-460z" />
</font>
</defs>
</svg>
