<?xml version="1.0" encoding="utf-8"?>
<!-- Generator: Adobe Illustrator 16.0.4, SVG Export Plug-In . SVG Version: 6.00 Build 0)  -->
<!DOCTYPE svg PUBLIC "-//W3C//DTD SVG 1.1//EN" "http://www.w3.org/Graphics/SVG/1.1/DTD/svg11.dtd">
<svg version="1.1" id="_x38_0_x25__Kopie" xmlns="http://www.w3.org/2000/svg" xmlns:xlink="http://www.w3.org/1999/xlink" x="0px"
	 y="0px" width="883px" height="371px" viewBox="0 0 883 371" enable-background="new 0 0 883 371" xml:space="preserve">
<g id="edges_mute_Kopie" opacity="0.5">
	
		<line fill="none" stroke="#CFC7B9" stroke-width="12" stroke-linecap="round" stroke-miterlimit="10" x1="26.019" y1="266.439" x2="467.482" y2="29.231"/>
	
		<line fill="none" stroke="#CFC7B9" stroke-width="12" stroke-linecap="round" stroke-miterlimit="10" x1="741.984" y1="128.502" x2="308.479" y2="340.993"/>
	
		<line fill="none" stroke="#CFC7B9" stroke-width="12" stroke-linecap="round" stroke-miterlimit="10" x1="308.479" y1="340.993" x2="185.022" y2="187.723"/>
	
		<line fill="none" stroke="#CFC7B9" stroke-width="12" stroke-linecap="round" stroke-miterlimit="10" x1="308.479" y1="340.993" x2="575.774" y2="26"/>
	
		<line fill="none" stroke="#CFC7B9" stroke-width="12" stroke-linecap="round" stroke-miterlimit="10" x1="424.6" y1="179.327" x2="26" y2="86.761"/>
	
		<line fill="none" stroke="#CFC7B9" stroke-width="12" stroke-linecap="round" stroke-miterlimit="10" x1="693.821" y1="344.222" x2="575.774" y2="26"/>
	
		<line fill="none" stroke="#CFC7B9" stroke-width="12" stroke-linecap="round" stroke-miterlimit="10" x1="424.6" y1="179.327" x2="575.774" y2="343.597"/>
	
		<line fill="none" stroke="#CFC7B9" stroke-width="12" stroke-linecap="round" stroke-miterlimit="10" x1="575.774" y1="343.597" x2="467.482" y2="29.231"/>
	
		<line fill="none" stroke="#CFC7B9" stroke-width="12" stroke-linecap="round" stroke-miterlimit="10" x1="766.194" y1="218.865" x2="575.774" y2="343.597"/>
</g>
<g id="edges_Kopie">
	
		<line fill="none" stroke="#797C82" stroke-width="21" stroke-linecap="round" stroke-miterlimit="10" x1="575.774" y1="26" x2="575.774" y2="343.597"/>
	
		<line fill="none" stroke="#797C82" stroke-width="21" stroke-linecap="round" stroke-miterlimit="10" x1="308.479" y1="28.924" x2="308.479" y2="340.993"/>
	
		<line fill="none" stroke="#797C82" stroke-width="21" stroke-linecap="round" stroke-miterlimit="10" x1="467.482" y1="29.231" x2="308.479" y2="29.231"/>
	
		<line fill="none" stroke="#797C82" stroke-width="21" stroke-linecap="round" stroke-miterlimit="10" x1="467.482" y1="340.993" x2="308.479" y2="340.993"/>
	
		<line fill="none" stroke="#797C82" stroke-width="21" stroke-linecap="round" stroke-miterlimit="10" x1="424.663" y1="179.32" x2="308.479" y2="179.32"/>
	
		<line fill="none" stroke="#797C82" stroke-width="21" stroke-linecap="round" stroke-miterlimit="10" x1="26" y1="86.761" x2="26" y2="266.439"/>
	
		<line fill="none" stroke="#797C82" stroke-width="21" stroke-linecap="round" stroke-miterlimit="10" x1="185.029" y1="191.771" x2="185.029" y2="266.439"/>
	
		<line fill="none" stroke="#797C82" stroke-width="21" stroke-linecap="round" stroke-miterlimit="10" x1="185.029" y1="187.723" x2="120.092" y2="187.723"/>
	<path fill="none" stroke="#797C82" stroke-width="21" stroke-linecap="round" stroke-miterlimit="10" d="M185.029,86.761
		C185.029,50.78,152.561,26,102.916,26"/>
	<path fill="none" stroke="#797C82" stroke-width="21" stroke-linecap="round" stroke-miterlimit="10" d="M26,86.761
		C25.99,66.771,46,26,102.916,26"/>
	<path fill="none" stroke="#797C82" stroke-width="21" stroke-linecap="round" stroke-miterlimit="10" d="M102.916,343.597
		c52.562,0,79.896-34.817,82.113-77.158"/>
	<path fill="none" stroke="#797C82" stroke-width="21" stroke-linecap="round" stroke-miterlimit="10" d="M26,266.439
		c0.019,34.675,23.478,77.158,76.916,77.158"/>
	<g>
		<path fill="none" stroke="#797C82" stroke-width="21" stroke-linecap="round" stroke-miterlimit="10" d="M856.546,194.654
			c-18.266,31.64-58.71,42.472-90.352,24.211c-31.644-18.266-42.473-58.719-24.21-90.363c18.262-31.632,58.727-42.47,90.36-24.208
			C863.978,122.557,874.826,163.014,856.546,194.654z"/>
		
			<line fill="none" stroke="#797C82" stroke-width="21" stroke-linecap="round" stroke-miterlimit="10" x1="766.194" y1="218.865" x2="693.821" y2="344.222"/>
	</g>
</g>
<g id="nodes_Kopie">
	<g>
		<path fill="#B00046" d="M467.482,52.231c-12.683,0-23-10.318-23-23s10.317-23,23-23s23,10.318,23,23
			S480.165,52.231,467.482,52.231z"/>
		<path fill="#FFFFFF" d="M467.482,9.231c11.048,0,20,8.952,20,20s-8.952,20-20,20s-20-8.952-20-20S456.435,9.231,467.482,9.231
			 M467.482,3.231c-14.337,0-26,11.664-26,26s11.663,26,26,26s26-11.664,26-26S481.819,3.231,467.482,3.231L467.482,3.231z"/>
	</g>
	<g>
		<path fill="#425A6C" d="M308.479,52.231c-12.683,0-23-10.318-23-23s10.318-23,23-23s23,10.318,23,23
			S321.162,52.231,308.479,52.231z"/>
		<path fill="#FFFFFF" d="M308.479,9.231c11.048,0,20,8.952,20,20s-8.952,20-20,20s-20-8.952-20-20S297.432,9.231,308.479,9.231
			 M308.479,3.231c-14.337,0-26,11.664-26,26s11.664,26,26,26s26-11.664,26-26S322.816,3.231,308.479,3.231L308.479,3.231z"/>
	</g>
	<g>
		<path fill="#B00046" d="M308.479,363.993c-12.683,0-23-10.327-23-23.021c0-12.671,10.318-22.979,23-22.979s23,10.309,23,22.979
			C331.479,353.666,321.162,363.993,308.479,363.993z"/>
		<path fill="#FFFFFF" d="M308.479,320.993c11.048,0,20,8.952,20,19.979c0,11.068-8.952,20.021-20,20.021s-20-8.952-20-20.021
			C288.479,329.945,297.432,320.993,308.479,320.993 M308.479,314.993c-14.337,0-26,11.654-26,25.979
			c0,14.348,11.664,26.021,26,26.021s26-11.673,26-26.021C334.479,326.647,322.816,314.993,308.479,314.993L308.479,314.993z"/>
	</g>
	<g>
		<path fill="#ADC32B" d="M308.479,202.346c-12.682,0-23-10.327-23-23.021c0-12.671,10.318-22.979,23-22.979
			c12.683,0,23,10.309,23,22.979C331.479,192.019,321.162,202.346,308.479,202.346z"/>
		<path fill="#FFFFFF" d="M308.479,159.346c11.047,0,20,8.952,20,19.979c0,11.067-8.953,20.021-20,20.021
			c-11.048,0-20-8.953-20-20.021C288.479,168.298,297.432,159.346,308.479,159.346 M308.479,153.346c-14.336,0-26,11.654-26,25.979
			c0,14.348,11.664,26.021,26,26.021c14.337,0,26-11.673,26-26.021C334.479,165,322.816,153.346,308.479,153.346L308.479,153.346z"
			/>
	</g>
	<g>
		<path fill="#92C7EC" d="M424.6,202.327c-12.685,0-23.005-10.315-23.005-22.995c0-12.685,10.32-23.005,23.005-23.005
			s23.005,10.32,23.005,23.005C447.604,192.011,437.284,202.327,424.6,202.327z"/>
		<path fill="#FFFFFF" d="M424.6,159.327c11.05,0,20.005,8.955,20.005,20.005c0,11.051-8.955,19.995-20.005,19.995
			s-20.005-8.944-20.005-19.995C404.595,168.281,413.55,159.327,424.6,159.327 M424.6,153.327
			c-14.339,0-26.005,11.666-26.005,26.005c0,14.334,11.666,25.995,26.005,25.995s26.005-11.661,26.005-25.995
			C450.604,164.992,438.938,153.327,424.6,153.327L424.6,153.327z"/>
	</g>
	<g>
		<path fill="#009EE0" d="M467.482,363.993c-12.683,0-23-10.327-23-23.021c0-12.671,10.317-22.979,23-22.979s23,10.309,23,22.979
			C490.482,353.666,480.165,363.993,467.482,363.993z"/>
		<path fill="#FFFFFF" d="M467.482,320.993c11.048,0,20,8.952,20,19.979c0,11.068-8.952,20.021-20,20.021s-20-8.952-20-20.021
			C447.482,329.945,456.435,320.993,467.482,320.993 M467.482,314.993c-14.337,0-26,11.654-26,25.979
			c0,14.348,11.663,26.021,26,26.021s26-11.673,26-26.021C493.482,326.647,481.819,314.993,467.482,314.993L467.482,314.993z"/>
	</g>
	<g>
		<path fill="#B00046" d="M575.774,366.597c-12.683,0-23-10.317-23-23s10.317-23,23-23s23,10.317,23,23
			S588.457,366.597,575.774,366.597z"/>
		<path fill="#FFFFFF" d="M575.774,323.597c11.048,0,20,8.952,20,20s-8.952,20-20,20s-20-8.952-20-20
			S564.727,323.597,575.774,323.597 M575.774,317.597c-14.337,0-26,11.663-26,26s11.663,26,26,26s26-11.663,26-26
			S590.111,317.597,575.774,317.597L575.774,317.597z"/>
	</g>
	<g>
		<path fill="#009EE0" d="M575.774,49c-12.683,0-23-10.318-23-23s10.317-23,23-23s23,10.318,23,23S588.457,49,575.774,49z"/>
		<path fill="#FFFFFF" d="M575.774,6c11.048,0,20,8.952,20,20s-8.952,20-20,20s-20-8.952-20-20S564.727,6,575.774,6 M575.774,0
			c-14.337,0-26,11.664-26,26s11.663,26,26,26s26-11.664,26-26S590.111,0,575.774,0L575.774,0z"/>
	</g>
	<g>
		<path fill="#009EE0" d="M185.029,109.761c-12.682,0-23-10.318-23-23s10.318-23,23-23s23,10.318,23,23
			S197.711,109.761,185.029,109.761z"/>
		<path fill="#FFFFFF" d="M185.029,66.761c11.047,0,20,8.952,20,20s-8.953,20-20,20c-11.048,0-20-8.952-20-20
			S173.981,66.761,185.029,66.761 M185.029,60.761c-14.336,0-26,11.664-26,26s11.664,26,26,26s26-11.664,26-26
			S199.365,60.761,185.029,60.761L185.029,60.761z"/>
	</g>
	<g>
		<path fill="#425A6C" d="M117.563,210.723c-12.682,0-23-10.317-23-23c0-12.682,10.318-23,23-23s23,10.318,23,23
			C140.563,200.406,130.245,210.723,117.563,210.723z"/>
		<path fill="#FFFFFF" d="M117.563,167.723c11.048,0,20,8.952,20,20s-8.952,20-20,20s-20-8.952-20-20
			S106.515,167.723,117.563,167.723 M117.563,161.723c-14.336,0-26,11.664-26,26c0,14.337,11.664,26,26,26s26-11.663,26-26
			C143.563,173.387,131.899,161.723,117.563,161.723L117.563,161.723z"/>
	</g>
	<g>
		<path fill="#B00046" d="M185.018,210.723c-12.682,0-23-10.317-23-23c0-12.682,10.318-23,23-23c12.688,0,23.01,10.318,23.01,23
			C208.027,200.406,197.705,210.723,185.018,210.723z"/>
		<path fill="#FFFFFF" d="M185.018,167.723c11.058,0,20.01,8.952,20.01,20s-8.952,20-20.01,20c-11.048,0-20-8.952-20-20
			S173.97,167.723,185.018,167.723 M185.018,161.723c-14.336,0-26,11.664-26,26c0,14.337,11.664,26,26,26
			c14.342,0,26.01-11.663,26.01-26C211.027,173.387,199.359,161.723,185.018,161.723L185.018,161.723z"/>
	</g>
	<g>
		<path fill="#B00046" d="M102.916,49c-12.682,0-23-10.318-23-23s10.318-23,23-23s23,10.318,23,23S115.598,49,102.916,49z"/>
		<path fill="#FFFFFF" d="M102.916,6c11.048,0,20,8.952,20,20s-8.952,20-20,20s-20-8.952-20-20S91.867,6,102.916,6 M102.916,0
			c-14.336,0-26,11.664-26,26s11.664,26,26,26s26-11.664,26-26S117.252,0,102.916,0L102.916,0z"/>
	</g>
	<g>
		<path fill="#B00046" d="M102.916,366.597c-12.682,0-23-10.317-23-23s10.318-23,23-23s23,10.317,23,23
			S115.598,366.597,102.916,366.597z"/>
		<path fill="#FFFFFF" d="M102.916,323.597c11.048,0,20,8.952,20,20s-8.952,20-20,20s-20-8.952-20-20
			S91.868,323.597,102.916,323.597 M102.916,317.597c-14.336,0-26,11.663-26,26s11.664,26,26,26s26-11.663,26-26
			S117.252,317.597,102.916,317.597L102.916,317.597z"/>
	</g>
	<g>
		<path fill="#92C7EC" d="M185.027,289.439c-12.688,0-23.01-10.317-23.01-23s10.322-23,23.01-23c12.682,0,23,10.317,23,23
			S197.709,289.439,185.027,289.439z"/>
		<path fill="#FFFFFF" d="M185.027,246.439c11.048,0,20,8.952,20,20s-8.952,20-20,20c-11.058,0-20.01-8.952-20.01-20
			S173.97,246.439,185.027,246.439 M185.027,240.439c-14.342,0-26.01,11.663-26.01,26s11.668,26,26.01,26c14.336,0,26-11.663,26-26
			S199.364,240.439,185.027,240.439L185.027,240.439z"/>
	</g>
	<g>
		<path fill="#009EE0" d="M26.024,289.439c-12.688,0-23.01-10.317-23.01-23s10.322-23,23.01-23c12.682,0,23,10.317,23,23
			S38.706,289.439,26.024,289.439z"/>
		<path fill="#FFFFFF" d="M26.024,246.439c11.048,0,20,8.952,20,20s-8.952,20-20,20c-11.058,0-20.01-8.952-20.01-20
			S14.966,246.439,26.024,246.439 M26.024,240.439c-14.342,0-26.01,11.663-26.01,26s11.668,26,26.01,26c14.336,0,26-11.663,26-26
			S40.36,240.439,26.024,240.439L26.024,240.439z"/>
	</g>
	<g>
		<path fill="#ADC32B" d="M25.99,109.751C13.313,109.751,3,99.438,3,86.761s10.313-22.99,22.99-22.99
			c12.688,0,23.01,10.313,23.01,22.99S38.678,109.751,25.99,109.751z"/>
		<path fill="#FFFFFF" d="M25.99,66.771c11.062,0,20.01,8.947,20.01,19.99s-8.948,19.99-20.01,19.99
			C14.948,106.751,6,97.804,6,86.761S14.948,66.771,25.99,66.771 M25.99,60.771C11.659,60.771,0,72.431,0,86.761
			s11.659,25.99,25.99,25.99c14.342,0,26.01-11.659,26.01-25.99S40.332,60.771,25.99,60.771L25.99,60.771z"/>
	</g>
	<g>
		<path fill="#92C7EC" d="M832.345,127.293c-12.683,0-23-10.318-23-23s10.317-23,23-23s23,10.318,23,23
			S845.027,127.293,832.345,127.293z"/>
		<path fill="#FFFFFF" d="M832.345,84.293c11.048,0,20,8.952,20,20s-8.952,20-20,20s-20-8.952-20-20S821.297,84.293,832.345,84.293
			 M832.345,78.293c-14.337,0-26,11.664-26,26s11.663,26,26,26s26-11.664,26-26S846.682,78.293,832.345,78.293L832.345,78.293z"/>
	</g>
	<g>
		<path fill="#B00046" d="M741.984,151.502c-12.683,0-23-10.318-23-23s10.317-23,23-23s23,10.318,23,23
			S754.667,151.502,741.984,151.502z"/>
		<g>
			<path fill="#FFFFFF" d="M741.984,108.502c11.048,0,20,8.952,20,20s-8.952,20-20,20s-20-8.952-20-20
				S730.937,108.502,741.984,108.502 M741.984,102.502c-14.336,0-26,11.664-26,26s11.664,26,26,26s26-11.664,26-26
				S756.32,102.502,741.984,102.502L741.984,102.502z"/>
		</g>
	</g>
	<g>
		<path fill="#425A6C" d="M856.546,217.655c-12.683,0-23-10.318-23-23.001c0-12.682,10.317-23,23-23s23,10.318,23,23
			C879.546,207.336,869.229,217.655,856.546,217.655z"/>
		<g>
			<path fill="#FFFFFF" d="M856.546,174.654c11.048,0,20,8.952,20,20s-8.952,20.001-20,20.001s-20-8.953-20-20.001
				S845.498,174.654,856.546,174.654 M856.546,168.654c-14.337,0-26,11.664-26,26c0,14.337,11.663,26.001,26,26.001
				s26-11.664,26-26.001C882.546,180.317,870.883,168.654,856.546,168.654L856.546,168.654z"/>
		</g>
	</g>
	<g>
		<path fill="#ADC32B" d="M766.194,241.865c-12.683,0-23-10.317-23-23s10.317-23.001,23-23.001s23,10.318,23,23.001
			S778.877,241.865,766.194,241.865z"/>
		<g>
			<path fill="#FFFFFF" d="M766.194,198.864c11.048,0,20,8.953,20,20.001c0,11.047-8.952,20-20,20s-20-8.953-20-20
				C746.194,207.817,755.146,198.864,766.194,198.864 M766.194,192.864c-14.337,0-26,11.664-26,26.001s11.663,26,26,26
				s26-11.663,26-26S780.531,192.864,766.194,192.864L766.194,192.864z"/>
		</g>
	</g>
	<g>
		<path fill="#009EE0" d="M693.821,367.222c-12.683,0-23-10.318-23-23.001s10.317-23,23-23s23,10.317,23,23
			S706.504,367.222,693.821,367.222z"/>
		<g>
			<path fill="#FFFFFF" d="M693.821,324.221c11.048,0,20,8.953,20,20c0,11.048-8.952,20.001-20,20.001s-20-8.953-20-20.001
				C673.821,333.174,682.773,324.221,693.821,324.221 M693.821,318.221c-14.337,0-26,11.664-26,26c0,14.337,11.663,26.001,26,26.001
				s26-11.664,26-26.001C719.821,329.885,708.158,318.221,693.821,318.221L693.821,318.221z"/>
		</g>
	</g>
</g>
</svg>
