<?xml version="1.0" standalone="no"?>
<!DOCTYPE svg PUBLIC "-//W3C//DTD SVG 1.1//EN" "http://www.w3.org/Graphics/SVG/1.1/DTD/svg11.dtd" >
<svg xmlns="http://www.w3.org/2000/svg">
<metadata></metadata>
<defs>
<font id="gestamedium" horiz-adv-x="472" >
<font-face units-per-em="1000" ascent="731" descent="-269" />
<missing-glyph horiz-adv-x="237" />
<glyph unicode="&#xfb01;" horiz-adv-x="536" d="M98 0v386h-68v68l68 4v47q0 149 155 149q24 0 66 -6l-7 -79q-30 5 -54 5q-37 0 -53 -15.5t-16 -53.5v-43h276v-462h-91v386h-185v-386h-91zM374 545v99h91v-99h-91z" />
<glyph unicode="&#xfb02;" horiz-adv-x="536" d="M98 0v386h-68v68l68 4v19q0 96 50.5 136.5t146.5 40.5q85 0 170 -19v-635h-91v566q-54 8 -81 8q-49 0 -76.5 -19.5t-27.5 -72.5v-20h102v-76h-102v-386h-91z" />
<glyph unicode="fj" horiz-adv-x="536" d="M98 0v386h-68v68l68 4v47q0 149 155 149q24 0 66 -6l-7 -79q-30 5 -54 5q-37 0 -53 -15.5t-16 -53.5v-43h276v-392q0 -163 -53 -252h-88q27 59 38.5 114.5t11.5 135.5v318h-185v-386h-91zM374 545v99h91v-99h-91z" />
<glyph horiz-adv-x="0" />
<glyph horiz-adv-x="0" />
<glyph horiz-adv-x="333" />
<glyph unicode="&#xd;" horiz-adv-x="249" />
<glyph unicode=" "  horiz-adv-x="237" />
<glyph unicode="&#x09;" horiz-adv-x="237" />
<glyph unicode="&#xa0;" horiz-adv-x="237" />
<glyph unicode="!" horiz-adv-x="267" d="M105 197l-25 447h107l-25 -447h-57zM87 0v99h93v-99h-93z" />
<glyph unicode="&#x22;" horiz-adv-x="319" d="M70 444q-21 86 -23 214h87q-2 -128 -23 -214h-41zM209 444q-21 86 -23 214h87q-2 -128 -23 -214h-41z" />
<glyph unicode="#" horiz-adv-x="588" d="M101 0l39 195h-96l12 60h96l26 134h-96l12 60h96l39 195h61l-39 -195h136l39 195h60l-39 -195h96l-12 -60h-96l-26 -134h96l-12 -60h-96l-39 -195h-61l39 195h-136l-39 -195h-60zM212 255h136l27 134h-136z" />
<glyph unicode="$" horiz-adv-x="526" d="M77 53l13 82q87 -17 150 -17q123 0 123 79q0 12 -2.5 22t-10.5 18.5t-13.5 13.5t-20.5 11.5t-22 9t-28 9.5t-29 10q-80 27 -119.5 60.5t-39.5 98.5q0 63 39 103t113 51v100h72v-96q57 -1 130 -17l-13 -81q-87 16 -136 16q-110 0 -110 -70q0 -12 2.5 -21t11 -17t14.5 -13 t21.5 -11.5t23 -9.5t29.5 -10t31 -10q77 -26 115 -60.5t38 -102.5q0 -66 -40 -107.5t-117 -53.5v-98h-72v93q-75 2 -153 18z" />
<glyph unicode="%" horiz-adv-x="739" d="M183 343q-70 0 -106 41.5t-36 114.5q0 72 36 113.5t106 41.5t106 -41.5t36 -113.5q0 -73 -36 -114.5t-106 -41.5zM143 0l392 644h69l-392 -644h-69zM183 405q38 0 53.5 23t15.5 69q0 95 -69 95q-38 0 -53.5 -23t-15.5 -69q0 -95 69 -95zM422 145q0 73 36 114.5t106 41.5 t106 -41.5t36 -114.5q0 -72 -36 -113.5t-106 -41.5t-106 41.5t-36 113.5zM495 147q0 -95 69 -95q38 0 53.5 23t15.5 69q0 95 -69 95q-38 0 -53.5 -23t-15.5 -69z" />
<glyph unicode="&#x26;" horiz-adv-x="621" d="M59 175q0 125 109 157v5q-95 31 -95 140q0 88 60.5 132.5t168.5 44.5q76 0 167 -20l-13 -82q-91 17 -154 17q-64 0 -97 -22.5t-33 -75.5q0 -52 32.5 -74.5t95.5 -22.5h297v-80h-99q16 -54 16 -109q0 -99 -60.5 -147t-167.5 -48q-109 0 -168 48t-59 137zM158 183 q0 -57 31.5 -82.5t96.5 -25.5q70 0 102.5 27.5t32.5 88.5q0 39 -16 103h-109q-70 0 -104 -25.5t-34 -85.5z" />
<glyph unicode="'" horiz-adv-x="180" d="M70 444q-21 86 -23 214h87q-2 -128 -23 -214h-41z" />
<glyph unicode="(" horiz-adv-x="269" d="M51 244q0 241 140 431l50 -28q-111 -171 -111 -403t111 -403l-50 -28q-140 190 -140 431z" />
<glyph unicode=")" horiz-adv-x="269" d="M28 -159q111 171 111 403t-111 403l50 28q140 -190 140 -431t-140 -431z" />
<glyph unicode="*" horiz-adv-x="351" d="M153 375v95l-83 -47l-22 39l82 47l-82 48l22 39l83 -47v95h45v-95l83 47l22 -39l-82 -47l82 -48l-22 -39l-83 47v-95h-45z" />
<glyph unicode="+" horiz-adv-x="586" d="M63 195v72h192v195h76v-195h192v-72h-192v-195h-76v195h-192z" />
<glyph unicode="," horiz-adv-x="242" d="M86 -6q0 49 -9 97l89 4q2 -12 2 -37q0 -97 -52 -179l-43 5q13 52 13 110z" />
<glyph unicode="-" horiz-adv-x="296" d="M39 213v71h217v-71h-217z" />
<glyph unicode="." horiz-adv-x="242" d="M74 0v99h94v-99h-94z" />
<glyph unicode="/" horiz-adv-x="376" d="M15 -20l267 684h79l-267 -684h-79z" />
<glyph unicode="0" horiz-adv-x="579" d="M289 -10q-134 0 -184.5 80t-50.5 253q0 172 50.5 251.5t184.5 79.5q135 0 185.5 -80t50.5 -251q0 -172 -50.5 -252.5t-185.5 -80.5zM289 75q38 0 63.5 12t40 30.5t22 53t9.5 67t2 85.5t-2 85t-9.5 66.5t-22 52.5t-40 30t-63.5 12t-63.5 -12t-40 -30t-22 -53t-9 -66 t-1.5 -85t1.5 -85.5t9 -67t22 -53.5t40 -30t63.5 -12z" />
<glyph unicode="1" horiz-adv-x="385" d="M184 0v543l-132 -51l-32 68l177 84h83v-644h-96z" />
<glyph unicode="2" horiz-adv-x="513" d="M50 0v72q153 132 227 223.5t74 167.5q0 50 -31 78t-91 28q-70 0 -154 -35l-29 77q95 43 189 43q96 0 155.5 -49.5t59.5 -139.5q0 -50 -19 -99t-58.5 -98.5t-78 -87.5t-98.5 -91l1 -4h266v-85h-413z" />
<glyph unicode="3" horiz-adv-x="481" d="M30 10l14 83q94 -18 161 -18t101 24.5t34 85.5q0 58 -30.5 81.5t-94.5 23.5h-71v82h68q57 0 86 22t29 74q0 101 -109 101q-66 0 -151 -31l-28 77q92 39 180 39q96 0 151.5 -45t55.5 -129q0 -107 -90 -140v-4q103 -30 103 -155q0 -96 -61 -143.5t-174 -47.5q-81 0 -174 20 z" />
<glyph unicode="4" horiz-adv-x="546" d="M26 139v71q90 175 251 434h99q-159 -258 -244 -420h194l9 131h87v-131h110v-85h-110v-139h-96v139h-300z" />
<glyph unicode="5" horiz-adv-x="517" d="M55 8l11 83q94 -16 162 -16q74 0 110 25.5t36 93.5q0 62 -34 88.5t-112 26.5h-156l11 335h349v-85h-256l-6 -167h58q126 0 185.5 -46.5t59.5 -149.5q0 -107 -63 -156.5t-184 -49.5q-79 0 -171 18z" />
<glyph unicode="6" horiz-adv-x="546" d="M283 -10q-123 0 -176 77.5t-53 238.5q0 168 57.5 258t200.5 90q67 0 149 -21l-16 -82q-83 18 -133 18q-84 0 -119.5 -50t-39.5 -155q69 30 150 30q94 0 148.5 -49t54.5 -145q0 -99 -57.5 -154.5t-165.5 -55.5zM287 75q120 0 120 120q0 118 -124 118q-64 0 -130 -24 q2 -111 30 -162.5t104 -51.5z" />
<glyph unicode="7" horiz-adv-x="458" d="M113 0q139 322 226 559h-314v85h420v-57q-84 -237 -232 -587h-100z" />
<glyph unicode="8" horiz-adv-x="554" d="M49 174q0 68 31.5 107.5t80.5 52.5v4q-42 11 -70.5 47t-28.5 95q0 78 55 126t160 48t160 -48t55 -126q0 -59 -28.5 -95t-70.5 -47v-4q49 -13 80.5 -52.5t31.5 -107.5q0 -87 -57.5 -135.5t-170.5 -48.5t-170.5 48.5t-57.5 135.5zM277 375q116 0 116 98q0 96 -116 96 t-116 -96q0 -98 116 -98zM148 182q0 -107 129 -107t129 107q0 110 -129 110t-129 -110z" />
<glyph unicode="9" horiz-adv-x="546" d="M83 10l16 83q76 -18 131 -18q88 0 123.5 50t39.5 154q-68 -29 -150 -29q-97 0 -149.5 49.5t-52.5 144.5q0 100 58 155t165 55q123 0 175.5 -77.5t52.5 -242.5q0 -171 -58.5 -257.5t-202.5 -86.5q-70 0 -148 20zM261 331q66 0 132 24q-2 113 -31.5 163.5t-103.5 50.5 q-118 0 -118 -121q0 -117 121 -117z" />
<glyph unicode=":" horiz-adv-x="242" d="M74 0v99h94v-99h-94zM74 363v99h94v-99h-94z" />
<glyph unicode=";" horiz-adv-x="242" d="M86 -6q0 49 -9 97l89 4q2 -12 2 -37q0 -97 -52 -179l-43 5q13 52 13 110zM74 363v99h94v-99h-94z" />
<glyph unicode="&#x3c;" horiz-adv-x="586" d="M63 204v54l461 209v-88l-328 -146v-4l328 -146v-88z" />
<glyph unicode="=" horiz-adv-x="586" d="M63 284v72h461v-72h-461zM63 106v72h461v-72h-461z" />
<glyph unicode="&#x3e;" horiz-adv-x="586" d="M63 -5v88l328 146v4l-328 146v88l461 -209v-54z" />
<glyph unicode="?" horiz-adv-x="428" d="M144 197q0 63 18 100.5t64 80.5q23 22 33 32.5t21 32t11 44.5q0 40 -26 61t-72 21q-60 0 -138 -37l-32 75q86 47 176 47q83 0 135.5 -43t52.5 -122q0 -37 -14.5 -68.5t-30.5 -49t-48 -47.5q-39 -37 -53.5 -62t-14.5 -65h-82zM138 0v99h94v-99h-94z" />
<glyph unicode="@" horiz-adv-x="748" d="M48 321q0 163 86 248t238 85q155 0 241 -85.5t86 -235.5q0 -192 -144 -192q-62 0 -92 38q-48 -38 -111 -38q-134 0 -134 179q0 93 39 138t119 45q61 0 127 -25v-186q0 -90 61 -90q71 0 71 126q0 127 -67.5 197t-195.5 70q-126 0 -193 -69t-67 -204t67 -204t193 -69 q70 0 155 26l19 -57q-77 -28 -171 -28q-155 0 -241 84t-86 247zM366 204q41 0 74 22q-8 30 -8 63v146q-32 7 -55 7q-46 0 -66 -28.5t-20 -91.5q0 -62 18 -90t57 -28z" />
<glyph unicode="A" horiz-adv-x="570" d="M17 0q97 360 205 644h127q105 -275 204 -644h-99l-41 151h-257l-41 -151h-98zM178 234h212q-42 145 -104 323h-4q-53 -153 -104 -323z" />
<glyph unicode="B" horiz-adv-x="577" d="M81 4v633q113 17 194 17q238 0 238 -171q0 -109 -97 -141v-4q114 -31 114 -158q0 -101 -65 -145.5t-190 -44.5q-85 0 -194 14zM177 372h111q63 0 94.5 22t31.5 76q0 58 -35 78.5t-106 20.5q-47 0 -96 -6v-191zM177 79q51 -4 92 -4q83 0 122.5 22t39.5 87q0 60 -34.5 85 t-105.5 25h-114v-215z" />
<glyph unicode="C" horiz-adv-x="532" d="M321 -10q-147 0 -211 87t-64 245t65.5 245t219.5 87q71 0 156 -18l-14 -83q-91 16 -143 16q-56 0 -94 -18t-57 -54t-26.5 -77.5t-7.5 -99.5q0 -43 3.5 -75.5t15 -65.5t31 -54.5t52 -35t77.5 -13.5q74 0 159 34l29 -79q-93 -41 -191 -41z" />
<glyph unicode="D" horiz-adv-x="618" d="M81 2v635q108 17 185 17q159 0 235 -81t76 -252t-76.5 -251t-241.5 -80q-91 0 -178 12zM177 80q39 -4 80 -4q119 0 170 55t51 188t-50.5 191.5t-164.5 58.5q-38 0 -86 -6v-483z" />
<glyph unicode="E" horiz-adv-x="501" d="M81 0v644h378v-85h-282v-187h238v-83h-238v-204h282v-85h-378z" />
<glyph unicode="F" horiz-adv-x="493" d="M81 0v644h379v-85h-283v-198h240v-83h-240v-278h-96z" />
<glyph unicode="G" horiz-adv-x="601" d="M323 -10q-276 0 -276 335q0 156 68.5 242.5t228.5 86.5q76 0 169 -20l-14 -82q-93 17 -155 17q-59 0 -99 -17.5t-61 -52t-29.5 -76t-8.5 -98.5q0 -54 7.5 -95t26 -78t55.5 -57t91 -20q58 0 112 19v237h96v-293q-96 -48 -211 -48z" />
<glyph unicode="H" horiz-adv-x="644" d="M81 0v644h96v-269h290v269h96v-644h-96v290h-290v-290h-96z" />
<glyph unicode="I" horiz-adv-x="258" d="M81 0v644h96v-644h-96z" />
<glyph unicode="J" horiz-adv-x="400" d="M10 2l12 83q60 -10 103 -10q55 0 77.5 26t22.5 89v454h96v-453q0 -108 -48.5 -154.5t-148.5 -46.5q-52 0 -114 12z" />
<glyph unicode="K" horiz-adv-x="568" d="M81 0v644h96v-292l3 -1q151 159 261 293h117l2 -3q-108 -129 -268 -295q139 -183 279 -343l-2 -3h-124q-123 144 -236 298h-32v-298h-96z" />
<glyph unicode="L" horiz-adv-x="473" d="M81 0v644h96v-559h278v-85h-374z" />
<glyph unicode="M" horiz-adv-x="768" d="M67 0q9 400 33 644h133l149 -417h4l148 417h134q22 -241 33 -644h-97q-9 313 -21 515h-4l-146 -410h-101l-147 410h-4q-14 -273 -20 -515h-94z" />
<glyph unicode="N" horiz-adv-x="674" d="M81 0v644h137l276 -513h4v513h95v-644h-137l-276 513h-4v-513h-95z" />
<glyph unicode="O" horiz-adv-x="648" d="M324 -10q-144 0 -211 83t-67 249t67 249t211 83t211 -83t67 -249t-67 -249t-211 -83zM324 75q96 0 137.5 59t41.5 188t-41.5 188t-137.5 59t-137.5 -59t-41.5 -188t41.5 -188t137.5 -59z" />
<glyph unicode="P" horiz-adv-x="555" d="M81 0v639q105 15 190 15q121 0 189.5 -47t68.5 -160q0 -210 -259 -210q-36 0 -93 5v-242h-96zM177 325q38 -5 92 -5q81 0 121 27t40 98q0 70 -39.5 97t-119.5 27q-44 0 -94 -5v-239z" />
<glyph unicode="Q" horiz-adv-x="648" d="M173 22q-61 38 -94 106t-33 192q0 168 67 251t210 83t211 -82.5t68 -245.5q0 -151 -59 -232t-188 -87v-4q91 -16 180 -58l-42 -86q-68 41 -176 91t-144 72zM324 75q96 0 137.5 59t41.5 188t-41.5 188t-137.5 59t-137.5 -59t-41.5 -188t41.5 -188t137.5 -59z" />
<glyph unicode="R" horiz-adv-x="569" d="M81 0v637q106 16 192 16q246 0 246 -193q0 -147 -137 -185q57 -113 158 -273l-1 -2h-113q-79 131 -145 261q-57 0 -104 6v-267h-96zM177 343q43 -4 91 -4q76 0 114 24.5t38 90.5q0 65 -37 90t-111 25q-43 0 -95 -5v-221z" />
<glyph unicode="S" horiz-adv-x="489" d="M35 9l14 85q95 -19 165 -19q147 0 147 103q0 32 -19 53t-40 30.5t-80 29.5q-5 2 -8 3q-42 15 -68.5 27.5t-54 33.5t-40.5 50.5t-13 68.5q0 83 60 131.5t172 48.5q74 0 164 -20l-14 -84q-89 19 -154 19q-129 0 -129 -87q0 -13 3.5 -24.5t8 -19.5t15 -16.5t17.5 -13 t23.5 -11.5t24.5 -10t29 -10l30 -10q39 -14 65 -26.5t53 -34t40.5 -53t13.5 -73.5q0 -90 -63.5 -140t-184.5 -50q-76 0 -177 19z" />
<glyph unicode="T" horiz-adv-x="514" d="M209 0v559h-189v85h474v-85h-189v-559h-96z" />
<glyph unicode="U" horiz-adv-x="629" d="M70 225v419h96v-406q0 -88 34 -125.5t115 -37.5q82 0 115.5 37.5t33.5 125.5v406h95v-419q0 -119 -60 -177t-184 -58t-184.5 58t-60.5 177z" />
<glyph unicode="V" horiz-adv-x="562" d="M216 0q-105 265 -200 644h101q75 -294 163 -556h4q93 277 163 556h99q-98 -384 -201 -644h-129z" />
<glyph unicode="W" horiz-adv-x="887" d="M188 0q-40 117 -86 299t-76 345h99q51 -279 128 -556h4q70 294 116 556h144q46 -262 116 -556h4q77 277 128 556h96q-31 -166 -76.5 -347.5t-85.5 -296.5h-135q-65 265 -118 546h-4q-53 -281 -118 -546h-136z" />
<glyph unicode="X" horiz-adv-x="599" d="M26 0q99 169 213 333q-111 158 -201 311h110q64 -111 151 -240h4q75 112 151 240h106q-91 -157 -200 -311q96 -138 213 -333h-110q-86 144 -164 260h-4q-82 -122 -163 -260h-106z" />
<glyph unicode="Y" horiz-adv-x="582" d="M243 0v240q-132 206 -220 404h105q64 -149 163 -314h4q99 167 163 314h101q-89 -197 -220 -404v-240h-96z" />
<glyph unicode="Z" horiz-adv-x="513" d="M33 0v71l323 488h-313v85h436v-71l-323 -488h327v-85h-450z" />
<glyph unicode="[" horiz-adv-x="282" d="M78 -156v800h178v-70h-100v-660h100v-70h-178z" />
<glyph unicode="\" horiz-adv-x="382" d="M289 -20l-274 684h78l274 -684h-78z" />
<glyph unicode="]" horiz-adv-x="282" d="M26 -86h100v660h-100v70h178v-800h-178v70z" />
<glyph unicode="^" horiz-adv-x="531" d="M55 233l174 316h73l175 -316h-82l-127 222h-4l-127 -222h-82z" />
<glyph unicode="_" horiz-adv-x="515" d="M0 -70h515v-53h-515v53z" />
<glyph unicode="`" horiz-adv-x="338" d="M198 517l-135 110l59 62l112 -133z" />
<glyph unicode="a" d="M35 134q0 71 51 107.5t144 36.5q43 0 85 -6v32q0 48 -23 68t-72 20q-57 0 -133 -20l-16 77q90 23 155 23q180 0 180 -158v-314h-67l-9 39q-60 -49 -137 -49q-68 0 -113 38t-45 106zM128 137q0 -35 22 -53.5t59 -18.5q60 0 106 36v105q-47 5 -84 5q-103 0 -103 -74z" />
<glyph unicode="b" horiz-adv-x="500" d="M70 22v622h91v-202q55 30 116 30q177 0 177 -243q0 -124 -49 -181.5t-157 -57.5q-86 0 -178 32zM161 79q49 -11 87 -11q64 0 88.5 38t24.5 123q0 88 -23.5 125.5t-80.5 37.5q-50 0 -96 -25v-288z" />
<glyph unicode="c" horiz-adv-x="422" d="M247 -10q-207 0 -207 243q0 116 51.5 177.5t167.5 61.5q57 0 122 -15l-12 -77q-64 12 -108 12q-69 0 -98.5 -37t-29.5 -124q0 -79 26 -119.5t92 -40.5q58 0 125 26l25 -75q-76 -32 -154 -32z" />
<glyph unicode="d" horiz-adv-x="499" d="M224 -10q-179 0 -179 238q0 244 199 244q34 0 94 -10v182h91v-644h-68l-9 35q-59 -45 -128 -45zM238 70q53 0 100 31v283q-45 10 -83 10q-65 0 -91 -39t-26 -126q0 -84 23 -121.5t77 -37.5z" />
<glyph unicode="e" horiz-adv-x="455" d="M39 227q0 116 51 180.5t145 64.5q88 0 134.5 -55.5t46.5 -150.5q0 -38 -6 -68h-278q9 -128 120 -128q57 0 131 31l28 -73q-81 -38 -162 -38q-102 0 -156 59.5t-54 177.5zM132 270h193q-2 122 -91 122q-93 0 -102 -122z" />
<glyph unicode="f" horiz-adv-x="317" d="M98 0v386h-68v68l68 4v47q0 149 154 149q26 0 70 -6l-6 -79q-30 5 -58 5q-37 0 -53 -15.5t-16 -53.5v-43h102v-76h-102v-386h-91z" />
<glyph unicode="g" horiz-adv-x="491" d="M99 -97q75 -15 127 -15q49 0 76.5 19.5t27.5 72.5v43q-52 -28 -110 -28q-181 0 -181 234q0 124 52 183.5t159 59.5q76 0 171 -31v-456q0 -96 -50.5 -136.5t-146.5 -40.5q-61 0 -136 16zM236 75q51 0 94 25v284q-42 10 -79 10q-65 0 -92 -39t-27 -125q0 -81 24 -118 t80 -37z" />
<glyph unicode="h" horiz-adv-x="509" d="M70 0v644h91v-213q64 41 133 41q73 0 111.5 -41t38.5 -114v-317h-91v306q0 86 -79 86q-55 0 -113 -36v-356h-91z" />
<glyph unicode="i" horiz-adv-x="231" d="M70 545v99h91v-99h-91zM70 0v462h91v-462h-91z" />
<glyph unicode="j" horiz-adv-x="232" d="M71 545v99h91v-99h-91zM71 68v394h91v-392q0 -165 -53 -252h-87q49 108 49 250z" />
<glyph unicode="k" d="M70 0v644h91v-382l4 -1q87 89 184 201h111l1 -2q-76 -88 -192 -204q95 -133 202 -254l-1 -2h-116q-82 94 -161 209h-32v-209h-91z" />
<glyph unicode="l" horiz-adv-x="231" d="M70 0v644h91v-644h-91z" />
<glyph unicode="m" horiz-adv-x="764" d="M70 0v462h68l7 -40q69 50 140 50q80 0 117 -57q79 57 151 57q70 0 108 -43t38 -116v-313h-91v303q0 89 -77 89q-49 0 -104 -38q3 -19 3 -41v-313h-91v303q0 89 -76 89q-49 0 -102 -35v-357h-91z" />
<glyph unicode="n" horiz-adv-x="509" d="M70 0v462h68l7 -40q71 50 149 50q73 0 111.5 -41t38.5 -114v-317h-91v306q0 86 -79 86q-55 0 -113 -36v-356h-91z" />
<glyph unicode="o" horiz-adv-x="495" d="M248 -10q-209 0 -209 241t209 241q208 0 208 -241t-208 -241zM248 70q65 0 90 42t25 119t-25 119t-90 42q-66 0 -91 -42t-25 -119t25 -119t91 -42z" />
<glyph unicode="p" horiz-adv-x="500" d="M161 1v-183h-91v644h68l9 -36q61 46 132 46q175 0 175 -239q0 -123 -49 -183t-149 -60q-40 0 -95 11zM161 79q43 -12 86 -12q65 0 89.5 38t24.5 123q0 88 -23 126t-76 38q-50 0 -101 -31v-282z" />
<glyph unicode="q" horiz-adv-x="499" d="M226 -10q-181 0 -181 237q0 125 52.5 185t159.5 60q82 0 172 -32v-622h-91v200q-54 -28 -112 -28zM243 70q51 0 95 25v289q-42 10 -80 10q-66 0 -93 -39t-27 -128q0 -83 24 -120t81 -37z" />
<glyph unicode="r" horiz-adv-x="344" d="M70 0v462h68l10 -54q58 64 134 64q29 0 54 -5l-8 -84q-25 4 -48 4q-73 0 -119 -49v-338h-91z" />
<glyph unicode="s" horiz-adv-x="405" d="M34 7l13 80q79 -17 136 -17q99 0 99 57q0 25 -21.5 38t-73.5 30q-7 2 -11 3q-69 23 -105 52t-36 85q0 65 49 101t136 36q67 0 130 -15l-12 -79q-68 14 -120 14q-90 0 -90 -51q0 -8 2.5 -15t8.5 -12.5t11.5 -9.5t17.5 -8.5t20.5 -7.5t25.5 -8t27 -9q69 -24 101.5 -53 t32.5 -85q0 -69 -49.5 -106t-146.5 -37q-72 0 -145 17z" />
<glyph unicode="t" horiz-adv-x="335" d="M87 124v262h-68v68l72 4l7 136h80v-132h125v-76h-125v-257q0 -31 10.5 -45t36.5 -14q28 0 68 15l22 -72q-51 -22 -103 -22q-125 0 -125 133z" />
<glyph unicode="u" horiz-adv-x="508" d="M64 145v317h91v-306q0 -86 80 -86q58 0 112 35v357h91v-462h-68l-8 39q-68 -49 -147 -49q-73 0 -112 41t-39 114z" />
<glyph unicode="v" horiz-adv-x="462" d="M171 0q-33 75 -75.5 209.5t-70.5 252.5h91q59 -231 115 -382h4q58 160 113 382h90q-30 -122 -72 -255.5t-75 -206.5h-120z" />
<glyph unicode="w" horiz-adv-x="690" d="M139 0q-66 186 -115 462h90q39 -210 89 -379h4q47 195 78 379h124q34 -204 78 -379h4q50 173 88 379h87q-47 -275 -115 -462h-122q-46 183 -82 381h-4q-36 -198 -82 -381h-122z" />
<glyph unicode="x" horiz-adv-x="463" d="M23 0q77 128 152 235q-76 109 -146 227h98q46 -83 104 -163h4q57 81 104 163h95q-71 -117 -146 -227q69 -97 152 -235h-99q-42 72 -108 172h-4q-50 -74 -109 -172h-97z" />
<glyph unicode="y" horiz-adv-x="462" d="M165 0q-32 71 -73 208t-68 254h92q50 -216 109 -381h4q71 200 120 381h89q-95 -357 -219 -644h-90q26 63 73 182h-37z" />
<glyph unicode="z" horiz-adv-x="409" d="M34 0v57l220 325h-216v80h336v-57l-220 -325h222v-80h-342z" />
<glyph unicode="{" horiz-adv-x="288" d="M99 -32v149q0 71 -65 127q65 56 65 127v149q0 131 150 134v-53q-38 -3 -55 -19.5t-17 -63.5v-151q0 -71 -62 -123q62 -52 62 -123v-151q0 -47 17 -63.5t55 -19.5v-53q-150 3 -150 134z" />
<glyph unicode="|" horiz-adv-x="300" d="M111 -202v866h77v-866h-77z" />
<glyph unicode="}" horiz-adv-x="288" d="M111 -30v151q0 71 62 123q-62 52 -62 123v151q0 47 -17 63.5t-55 19.5v53q150 -3 150 -134v-149q0 -71 65 -127q-65 -56 -65 -127v-149q0 -131 -150 -134v53q38 3 55 19.5t17 63.5z" />
<glyph unicode="~" horiz-adv-x="452" d="M97 274l-49 13q5 39 28.5 66t63.5 27q32 0 91 -24q7 -3 19.5 -8t18 -7.5t13.5 -5t14 -3.5t13 -1q36 0 47 40l49 -13q-5 -40 -28.5 -66.5t-65.5 -26.5q-33 0 -89 24q-58 25 -78 25q-37 0 -47 -40z" />
<glyph unicode="&#xa1;" horiz-adv-x="267" d="M87 363v99h93v-99h-93zM80 -182l25 447h57l25 -447h-107z" />
<glyph unicode="&#xa2;" horiz-adv-x="453" d="M211 -12v96q-162 25 -162 240q0 208 162 235v99h72v-95q56 -3 106 -15l-11 -76q-64 12 -109 12q-70 0 -98.5 -37t-28.5 -124q0 -79 25.5 -119.5t91.5 -40.5q57 0 126 26l25 -76q-62 -27 -127 -31v-94h-72z" />
<glyph unicode="&#xa3;" horiz-adv-x="492" d="M51 0v63q87 47 87 135q0 29 -13 77h-83v68l59 4q-27 79 -27 128q0 89 56.5 134t156.5 45q72 0 157 -19l-13 -83q-83 17 -144 17q-114 0 -114 -93q0 -41 24 -123h166v-78h-142q11 -48 11 -76q0 -71 -46 -110l2 -4h266v-85h-403z" />
<glyph unicode="&#xa4;" horiz-adv-x="465" d="M96 107l-50 40l56 65q-24 40 -24 110t24 110l-56 65l50 40l50 -58q33 21 87 21t87 -21l50 58l50 -40l-56 -65q24 -40 24 -110t-24 -110l56 -65l-50 -40l-50 58q-33 -21 -87 -21t-87 21zM233 205q48 0 66.5 30.5t18.5 86.5t-18.5 86.5t-66.5 30.5t-66.5 -30.5t-18.5 -86.5 t18.5 -86.5t66.5 -30.5z" />
<glyph unicode="&#xa5;" horiz-adv-x="550" d="M74 140v72h153v66h-153v72h112q-89 145 -159 294h105q61 -135 143 -268h4q82 138 142 268h101q-70 -149 -159 -294h113v-72h-153v-66h153v-72h-153v-140h-96v140h-153z" />
<glyph unicode="&#xa6;" horiz-adv-x="300" d="M111 326v338h77v-338h-77zM111 136h77v-338h-77v338z" />
<glyph unicode="&#xa7;" horiz-adv-x="554" d="M106 -38q84 -14 126 -14q73 0 108 35.5t44 105.5q-38 -8 -74 -8q-241 0 -241 287q0 137 58.5 211.5t193.5 74.5q67 0 138 -17l-12 -79q-84 14 -126 14q-73 0 -108 -35.5t-45 -105.5q40 8 75 8q241 0 241 -287q0 -137 -58.5 -211.5t-193.5 -74.5q-67 0 -138 17zM313 165 q39 0 75 10q-3 85 -35.5 132.5t-112.5 47.5q-33 0 -75 -10q3 -85 35.5 -132.5t112.5 -47.5z" />
<glyph unicode="&#xa8;" horiz-adv-x="338" d="M219 535v85h82v-85h-82zM37 535v85h82v-85h-82z" />
<glyph unicode="&#xa9;" horiz-adv-x="730" d="M52 322q0 154 83.5 243t229.5 89t229.5 -89t83.5 -243t-83.5 -243t-229.5 -89t-229.5 89t-83.5 243zM116 322q0 -132 65 -202t184 -70t184 70t65 202t-65 202t-184 70t-184 -70t-65 -202zM212 320q0 185 160 185q44 0 90 -11l-8 -60q-40 8 -76 8q-54 0 -74 -28.5 t-20 -91.5q0 -55 18 -86.5t69 -31.5q43 0 90 19l20 -59q-59 -25 -117 -25q-78 0 -115 48.5t-37 132.5z" />
<glyph unicode="&#xaa;" horiz-adv-x="332" d="M137 362q-41 0 -68.5 23t-27.5 65q0 43 31 65.5t88 22.5q22 0 45 -3v16q0 24 -13 34t-41 10q-33 0 -77 -10l-11 56q48 13 94 13q112 0 112 -98v-188h-46l-6 22q-36 -28 -80 -28zM152 416q30 0 53 18v52q-21 3 -43 3q-54 0 -54 -37q0 -36 44 -36z" />
<glyph unicode="&#xab;" horiz-adv-x="468" d="M74 155q-34 38 -34 74t34 74q27 31 128 124l48 -49q-80 -72 -106 -99q-29 -30 -29 -50t29 -50q26 -27 106 -99l-48 -49q-101 93 -128 124zM247 155q-34 38 -34 74t34 74q27 31 128 124l48 -49q-80 -72 -106 -99q-29 -30 -29 -50t29 -50q26 -27 106 -99l-48 -49 q-101 93 -128 124z" />
<glyph unicode="&#xac;" horiz-adv-x="586" d="M63 293v72h461v-267h-76v195h-385z" />
<glyph unicode="&#xad;" horiz-adv-x="296" d="M39 213v71h217v-71h-217z" />
<glyph unicode="&#xae;" horiz-adv-x="424" d="M212 322q-74 0 -116 44.5t-42 121.5t42 121.5t116 44.5t116 -44.5t42 -121.5t-42 -121.5t-116 -44.5zM212 355q59 0 90.5 34t31.5 99t-31.5 99t-90.5 34t-90.5 -34t-31.5 -99t31.5 -99t90.5 -34zM150 401v178q32 4 55 4q74 0 74 -57q0 -39 -34 -51q15 -31 40 -73l-1 -1 h-42q-13 21 -34 68q-12 0 -21 1v-69h-37zM187 498q6 -1 17 -1q38 0 38 28q0 26 -34 26q-14 0 -21 -1v-52z" />
<glyph unicode="&#xaf;" horiz-adv-x="338" d="M55 546v62h228v-62h-228z" />
<glyph unicode="&#xb0;" horiz-adv-x="332" d="M166 408q-52 0 -87.5 35t-35.5 88t35.5 88t87.5 35t87.5 -35t35.5 -88t-35.5 -88t-87.5 -35zM166 453q32 0 54 22.5t22 55.5t-22 55.5t-54 22.5t-54 -22.5t-22 -55.5t22 -55.5t54 -22.5z" />
<glyph unicode="&#xb1;" horiz-adv-x="586" d="M255 143v165h-172v72h172v165h76v-165h172v-72h-172v-165h-76zM83 0v72h420v-72h-420z" />
<glyph unicode="&#xb2;" horiz-adv-x="345" d="M53 293v51q159 131 159 200q0 51 -63 51q-38 0 -80 -17l-20 54q49 22 103 22q56 0 90.5 -28t34.5 -80q0 -50 -31.5 -94.5t-88.5 -96.5l2 -4h124v-58h-230z" />
<glyph unicode="&#xb3;" horiz-adv-x="323" d="M51 299l10 58q49 -9 87 -9q35 0 51 11.5t16 40.5q0 24 -13 35.5t-43 11.5h-43v55h40q54 0 54 46q0 47 -55 47q-43 0 -80 -16l-18 55q50 20 100 20q55 0 86.5 -26t31.5 -71q0 -56 -49 -75v-4q54 -18 54 -82q0 -107 -131 -107q-42 0 -98 10z" />
<glyph unicode="&#xb4;" horiz-adv-x="338" d="M140 517l-36 39l112 133l59 -62z" />
<glyph unicode="&#xb5;" horiz-adv-x="515" d="M71 68v394h92v-308q0 -84 79 -84q57 0 111 35v357h92v-462h-68l-8 39q-68 -49 -147 -49q-37 0 -62 13q-6 -108 -51 -185h-87q49 108 49 250z" />
<glyph unicode="&#xb6;" horiz-adv-x="528" d="M215 -182v499q-156 6 -156 163q0 164 167 164h203v-826h-78v498h-58v-498h-78z" />
<glyph unicode="&#xb7;" horiz-adv-x="236" d="M71 190v99h94v-99h-94z" />
<glyph unicode="&#xb8;" horiz-adv-x="304" d="M113 -41q61 0 86.5 -17t25.5 -53q0 -38 -25.5 -59.5t-67.5 -21.5q-28 0 -50 6l8 39q20 -4 34 -4q50 0 50 38q0 18 -14.5 26.5t-53.5 8.5z" />
<glyph unicode="&#xb9;" horiz-adv-x="307" d="M133 293v282l-68 -28l-23 48l99 49h57v-351h-65z" />
<glyph unicode="&#xba;" horiz-adv-x="332" d="M166 362q-129 0 -129 146t129 146t129 -146t-129 -146zM166 421q62 0 62 87t-62 87q-35 0 -48.5 -22.5t-13.5 -64.5t13.5 -64.5t48.5 -22.5z" />
<glyph unicode="&#xbb;" horiz-adv-x="468" d="M46 80q80 72 106 99q29 30 29 50t-29 50q-26 27 -106 99l48 49q101 -93 128 -124q34 -38 34 -74t-34 -74q-27 -31 -128 -124zM219 80q80 72 106 99q29 30 29 50t-29 50q-26 27 -106 99l48 49q101 -93 128 -124q34 -38 34 -74t-34 -74q-27 -31 -128 -124z" />
<glyph unicode="&#xbc;" horiz-adv-x="711" d="M394 68v50q62 119 134 233h68q-78 -125 -130 -225h87l5 67h60v-67h54v-58h-54v-68h-65v68h-159zM115 0l392 644h69l-392 -644h-69zM134 293v282l-68 -28l-23 48l99 49h57v-351h-65z" />
<glyph unicode="&#xbd;" horiz-adv-x="742" d="M465 0v51q159 131 159 200q0 51 -63 51q-37 0 -80 -17l-20 54q49 22 103 22q56 0 90.5 -28t34.5 -80q0 -50 -31.5 -94.5t-88.5 -96.5l2 -4h124v-58h-230zM115 0l392 644h69l-392 -644h-69zM134 293v282l-68 -28l-23 48l99 49h57v-351h-65z" />
<glyph unicode="&#xbe;" horiz-adv-x="742" d="M426 68v50q62 119 134 233h68q-70 -110 -130 -225h87l5 67h60v-67h53v-58h-53v-68h-65v68h-159zM42 299l10 58q49 -9 87 -9q35 0 51 11.5t16 40.5q0 24 -13 35.5t-43 11.5h-43v55h40q54 0 54 46q0 47 -55 47q-43 0 -80 -16l-18 55q50 20 100 20q55 0 86.5 -26t31.5 -71 q0 -56 -49 -75v-4q54 -18 54 -82q0 -107 -131 -107q-42 0 -98 10zM147 0l392 644h69l-392 -644h-69z" />
<glyph unicode="&#xbf;" horiz-adv-x="428" d="M192 363v99h94v-99h-94zM37 -27q0 37 14.5 68.5t30.5 49t48 47.5q39 37 53.5 62t14.5 65h82q0 -63 -18 -100.5t-64 -80.5q-23 -22 -33 -32.5t-21 -32t-11 -44.5q0 -40 26 -61t72 -21q60 0 138 37l32 -75q-86 -47 -176 -47q-83 0 -135.5 43t-52.5 122z" />
<glyph unicode="&#xc0;" horiz-adv-x="570" d="M17 0q97 360 205 644h127q105 -275 204 -644h-99l-41 151h-257l-41 -151h-98zM178 234h212q-42 145 -104 323h-4q-53 -153 -104 -323zM316 693l-135 110l59 62l112 -133z" />
<glyph unicode="&#xc1;" horiz-adv-x="570" d="M17 0q97 360 205 644h127q105 -275 204 -644h-99l-41 151h-257l-41 -151h-98zM178 234h212q-42 145 -104 323h-4q-53 -153 -104 -323zM258 693l-36 39l112 133l59 -62z" />
<glyph unicode="&#xc2;" horiz-adv-x="570" d="M17 0q97 360 205 644h127q105 -275 204 -644h-99l-41 151h-257l-41 -151h-98zM178 234h212q-42 145 -104 323h-4q-53 -153 -104 -323zM191 689l-34 29l96 112h68l96 -112l-34 -29l-96 86z" />
<glyph unicode="&#xc3;" horiz-adv-x="570" d="M17 0q97 360 205 644h127q105 -275 204 -644h-99l-41 151h-257l-41 -151h-98zM178 234h212q-42 145 -104 323h-4q-53 -153 -104 -323zM181 716l-42 13q17 85 84 85q25 0 69 -19.5t60 -19.5q30 0 41 36l42 -13q-17 -85 -84 -85q-25 0 -69 19.5t-60 19.5q-30 0 -41 -36z " />
<glyph unicode="&#xc4;" horiz-adv-x="570" d="M17 0q97 360 205 644h127q105 -275 204 -644h-99l-41 151h-257l-41 -151h-98zM178 234h212q-42 145 -104 323h-4q-53 -153 -104 -323zM337 711v85h82v-85h-82zM155 711v85h82v-85h-82z" />
<glyph unicode="&#xc5;" horiz-adv-x="570" d="M17 0q97 360 205 644h127q105 -275 204 -644h-99l-41 151h-257l-41 -151h-98zM178 234h212q-42 145 -104 323h-4q-53 -153 -104 -323zM287 693q-41 0 -65.5 24t-24.5 65t24.5 65t65.5 24t65.5 -24t24.5 -65t-24.5 -65t-65.5 -24zM287 730q49 0 49 52t-49 52t-49 -52 t49 -52z" />
<glyph unicode="&#xc6;" horiz-adv-x="769" d="M8 0q152 381 290 644h428v-85h-262v-187h218v-83h-218v-204h262v-85h-358v151h-199l-60 -151h-101zM204 234h164v325h-15q-79 -160 -149 -325z" />
<glyph unicode="&#xc7;" horiz-adv-x="532" d="M321 -10q-147 0 -211 87t-64 245t65.5 245t219.5 87q71 0 156 -18l-14 -83q-91 16 -143 16q-56 0 -94 -18t-57 -54t-26.5 -77.5t-7.5 -99.5q0 -43 3.5 -75.5t15 -65.5t31 -54.5t52 -35t77.5 -13.5q74 0 159 34l29 -79q-93 -41 -191 -41zM271 -41q61 0 86.5 -17t25.5 -53 q0 -38 -25.5 -59.5t-67.5 -21.5q-28 0 -50 6l8 39q20 -4 34 -4q50 0 50 38q0 18 -14.5 26.5t-53.5 8.5z" />
<glyph unicode="&#xc8;" horiz-adv-x="501" d="M81 0v644h378v-85h-282v-187h238v-83h-238v-204h282v-85h-378zM299 693l-135 110l59 62l112 -133z" />
<glyph unicode="&#xc9;" horiz-adv-x="501" d="M241 693l-36 39l112 133l59 -62zM81 0v644h378v-85h-282v-187h238v-83h-238v-204h282v-85h-378z" />
<glyph unicode="&#xca;" horiz-adv-x="501" d="M174 689l-34 29l96 112h68l96 -112l-34 -29l-96 86zM81 0v644h378v-85h-282v-187h238v-83h-238v-204h282v-85h-378z" />
<glyph unicode="&#xcb;" horiz-adv-x="501" d="M320 711v85h82v-85h-82zM138 711v85h82v-85h-82zM81 0v644h378v-85h-282v-187h238v-83h-238v-204h282v-85h-378z" />
<glyph unicode="&#xcc;" horiz-adv-x="258" d="M81 0v644h96v-644h-96zM158 693l-135 110l59 62l112 -133z" />
<glyph unicode="&#xcd;" horiz-adv-x="258" d="M81 0v644h96v-644h-96zM100 693l-36 39l112 133l59 -62z" />
<glyph unicode="&#xce;" horiz-adv-x="258" d="M81 0v644h96v-644h-96zM33 689l-34 29l96 112h68l96 -112l-34 -29l-96 86z" />
<glyph unicode="&#xcf;" horiz-adv-x="258" d="M81 0v644h96v-644h-96zM179 711v85h82v-85h-82zM-3 711v85h82v-85h-82z" />
<glyph unicode="&#xd0;" horiz-adv-x="623" d="M87 2v290h-72v76h72v269q108 17 185 17q159 0 235 -81t76 -252t-76.5 -251t-241.5 -80q-89 0 -178 12zM183 80q37 -4 81 -4q119 0 169.5 55t50.5 188t-50.5 191.5t-164.5 58.5q-38 0 -86 -6v-195h137v-76h-137v-212z" />
<glyph unicode="&#xd1;" horiz-adv-x="674" d="M81 0v644h137l276 -513h4v513h95v-644h-137l-276 513h-4v-513h-95zM231 716l-42 13q17 85 84 85q25 0 69 -19.5t60 -19.5q30 0 41 36l42 -13q-17 -85 -84 -85q-25 0 -69 19.5t-60 19.5q-30 0 -41 -36z" />
<glyph unicode="&#xd2;" horiz-adv-x="648" d="M324 -10q-144 0 -211 83t-67 249t67 249t211 83t211 -83t67 -249t-67 -249t-211 -83zM324 75q96 0 137.5 59t41.5 188t-41.5 188t-137.5 59t-137.5 -59t-41.5 -188t41.5 -188t137.5 -59zM353 693l-135 110l59 62l112 -133z" />
<glyph unicode="&#xd3;" horiz-adv-x="648" d="M295 693l-36 39l112 133l59 -62zM324 -10q-144 0 -211 83t-67 249t67 249t211 83t211 -83t67 -249t-67 -249t-211 -83zM324 75q96 0 137.5 59t41.5 188t-41.5 188t-137.5 59t-137.5 -59t-41.5 -188t41.5 -188t137.5 -59z" />
<glyph unicode="&#xd4;" horiz-adv-x="648" d="M228 689l-34 29l96 112h68l96 -112l-34 -29l-96 86zM324 -10q-144 0 -211 83t-67 249t67 249t211 83t211 -83t67 -249t-67 -249t-211 -83zM324 75q96 0 137.5 59t41.5 188t-41.5 188t-137.5 59t-137.5 -59t-41.5 -188t41.5 -188t137.5 -59z" />
<glyph unicode="&#xd5;" horiz-adv-x="648" d="M324 -10q-144 0 -211 83t-67 249t67 249t211 83t211 -83t67 -249t-67 -249t-211 -83zM324 75q96 0 137.5 59t41.5 188t-41.5 188t-137.5 59t-137.5 -59t-41.5 -188t41.5 -188t137.5 -59zM218 716l-42 13q17 85 84 85q25 0 69 -19.5t60 -19.5q30 0 41 36l42 -13 q-17 -85 -84 -85q-25 0 -69 19.5t-60 19.5q-30 0 -41 -36z" />
<glyph unicode="&#xd6;" horiz-adv-x="648" d="M374 711v85h82v-85h-82zM192 711v85h82v-85h-82zM324 -10q-144 0 -211 83t-67 249t67 249t211 83t211 -83t67 -249t-67 -249t-211 -83zM324 75q96 0 137.5 59t41.5 188t-41.5 188t-137.5 59t-137.5 -59t-41.5 -188t41.5 -188t137.5 -59z" />
<glyph unicode="&#xd7;" horiz-adv-x="586" d="M106 96l135 135l-135 135l52 52l135 -135l135 135l52 -52l-135 -135l135 -135l-52 -52l-135 135l-135 -135z" />
<glyph unicode="&#xd8;" horiz-adv-x="648" d="M54 0l54 77q-63 81 -63 245q0 166 67 249t211 83q100 0 164 -41l22 31h84l-54 -77q63 -81 63 -245q0 -166 -67 -249t-211 -83q-100 0 -164 41l-22 -31h-84zM169 165h2l263 373q-41 31 -111 31q-96 0 -137.5 -59t-41.5 -188q0 -104 25 -157zM213 106q41 -31 111 -31 q96 0 137.5 59t41.5 188q0 104 -25 157h-2z" />
<glyph unicode="&#xd9;" horiz-adv-x="629" d="M70 225v419h96v-406q0 -88 34 -125.5t115 -37.5q82 0 115.5 37.5t33.5 125.5v406h95v-419q0 -119 -60 -177t-184 -58t-184.5 58t-60.5 177zM348 693l-135 110l59 62l112 -133z" />
<glyph unicode="&#xda;" horiz-adv-x="629" d="M290 693l-36 39l112 133l59 -62zM70 225v419h96v-406q0 -88 34 -125.5t115 -37.5q82 0 115.5 37.5t33.5 125.5v406h95v-419q0 -119 -60 -177t-184 -58t-184.5 58t-60.5 177z" />
<glyph unicode="&#xdb;" horiz-adv-x="629" d="M223 689l-34 29l96 112h68l96 -112l-34 -29l-96 86zM70 225v419h96v-406q0 -88 34 -125.5t115 -37.5q82 0 115.5 37.5t33.5 125.5v406h95v-419q0 -119 -60 -177t-184 -58t-184.5 58t-60.5 177z" />
<glyph unicode="&#xdc;" horiz-adv-x="629" d="M369 711v85h82v-85h-82zM187 711v85h82v-85h-82zM70 225v419h96v-406q0 -88 34 -125.5t115 -37.5q82 0 115.5 37.5t33.5 125.5v406h95v-419q0 -119 -60 -177t-184 -58t-184.5 58t-60.5 177z" />
<glyph unicode="&#xdd;" horiz-adv-x="582" d="M243 0v240q-132 206 -220 404h105q64 -149 163 -314h4q99 167 163 314h101q-89 -197 -220 -404v-240h-96zM264 693l-36 39l112 133l59 -62z" />
<glyph unicode="&#xde;" horiz-adv-x="555" d="M81 0v644h96v-112q57 5 97 5q254 0 254 -206q0 -210 -254 -210q-52 0 -97 5v-126h-96zM177 209q39 -5 95 -5q79 0 118 26.5t39 98.5q0 70 -38.5 96.5t-115.5 26.5q-45 0 -98 -5v-238z" />
<glyph unicode="&#xdf;" horiz-adv-x="537" d="M66 0v475q0 86 50.5 132.5t149.5 46.5q78 0 129.5 -30.5t51.5 -96.5q0 -39 -18.5 -66.5t-55.5 -53.5q-5 -3 -18.5 -12t-19 -13.5t-14 -12.5t-12 -15.5t-3.5 -16.5q0 -7 2 -12t7 -10t10 -8.5t15 -8.5t16.5 -7.5t20.5 -8.5t22 -9q58 -24 85 -54t27 -82q0 -68 -47 -107.5 t-136 -39.5q-58 0 -127 16l14 79q75 -15 112 -15q91 0 91 64q0 26 -17 39t-65 34q-7 3 -10 4q-60 26 -86 49t-26 69q0 35 17.5 60.5t57.5 53.5q3 2 11 7.5t11 8t10 7.5t9.5 7.5l7.5 7.5t7 9l4.5 9t3.5 10.5t1 11.5q0 53 -89 53q-59 0 -83.5 -25t-24.5 -74v-475h-91z" />
<glyph unicode="&#xe0;" d="M35 134q0 71 51 107.5t144 36.5q43 0 85 -6v32q0 48 -23 68t-72 20q-57 0 -133 -20l-16 77q90 23 155 23q180 0 180 -158v-314h-67l-9 39q-60 -49 -137 -49q-68 0 -113 38t-45 106zM128 137q0 -35 22 -53.5t59 -18.5q60 0 106 36v105q-47 5 -84 5q-103 0 -103 -74z M263 517l-135 110l59 62l112 -133z" />
<glyph unicode="&#xe1;" d="M35 134q0 71 51 107.5t144 36.5q43 0 85 -6v32q0 48 -23 68t-72 20q-57 0 -133 -20l-16 77q90 23 155 23q180 0 180 -158v-314h-67l-9 39q-60 -49 -137 -49q-68 0 -113 38t-45 106zM128 137q0 -35 22 -53.5t59 -18.5q60 0 106 36v105q-47 5 -84 5q-103 0 -103 -74z M205 517l-36 39l112 133l59 -62z" />
<glyph unicode="&#xe2;" d="M35 134q0 71 51 107.5t144 36.5q43 0 85 -6v32q0 48 -23 68t-72 20q-57 0 -133 -20l-16 77q90 23 155 23q180 0 180 -158v-314h-67l-9 39q-60 -49 -137 -49q-68 0 -113 38t-45 106zM128 137q0 -35 22 -53.5t59 -18.5q60 0 106 36v105q-47 5 -84 5q-103 0 -103 -74z M138 513l-34 29l96 112h68l96 -112l-34 -29l-96 86z" />
<glyph unicode="&#xe3;" d="M35 134q0 71 51 107.5t144 36.5q43 0 85 -6v32q0 48 -23 68t-72 20q-57 0 -133 -20l-16 77q90 23 155 23q180 0 180 -158v-314h-67l-9 39q-60 -49 -137 -49q-68 0 -113 38t-45 106zM128 137q0 -35 22 -53.5t59 -18.5q60 0 106 36v105q-47 5 -84 5q-103 0 -103 -74z M128 540l-42 13q17 85 84 85q25 0 69 -19.5t60 -19.5q30 0 41 36l42 -13q-17 -85 -84 -85q-25 0 -69 19.5t-60 19.5q-30 0 -41 -36z" />
<glyph unicode="&#xe4;" d="M35 134q0 71 51 107.5t144 36.5q43 0 85 -6v32q0 48 -23 68t-72 20q-57 0 -133 -20l-16 77q90 23 155 23q180 0 180 -158v-314h-67l-9 39q-60 -49 -137 -49q-68 0 -113 38t-45 106zM128 137q0 -35 22 -53.5t59 -18.5q60 0 106 36v105q-47 5 -84 5q-103 0 -103 -74z M284 535v85h82v-85h-82zM102 535v85h82v-85h-82z" />
<glyph unicode="&#xe5;" d="M35 134q0 71 51 107.5t144 36.5q43 0 85 -6v32q0 48 -23 68t-72 20q-57 0 -133 -20l-16 77q90 23 155 23q180 0 180 -158v-314h-67l-9 39q-60 -49 -137 -49q-68 0 -113 38t-45 106zM128 137q0 -35 22 -53.5t59 -18.5q60 0 106 36v105q-47 5 -84 5q-103 0 -103 -74z M234 517q-41 0 -65.5 24t-24.5 65t24.5 65t65.5 24t65.5 -24t24.5 -65t-24.5 -65t-65.5 -24zM234 554q49 0 49 52t-49 52t-49 -52t49 -52z" />
<glyph unicode="&#xe6;" horiz-adv-x="703" d="M35 134q0 72 49 108t137 36q41 0 82 -6v32q0 48 -22 68t-69 20q-53 0 -127 -20l-16 77q81 23 151 23q98 0 138 -55h4q50 55 129 55q84 0 128.5 -55.5t44.5 -150.5q0 -36 -6 -68h-264q4 -64 30.5 -96t81.5 -32q58 0 125 30l28 -74q-79 -36 -156 -36q-103 0 -155 66 q-60 -66 -160 -66q-66 0 -109.5 37t-43.5 107zM394 270h179q0 122 -85 122q-87 0 -94 -122zM128 137q0 -35 20.5 -53.5t55.5 -18.5q65 0 114 49q-13 41 -14 92q-45 5 -79 5q-97 0 -97 -74z" />
<glyph unicode="&#xe7;" horiz-adv-x="422" d="M247 -10q-207 0 -207 243q0 116 51.5 177.5t167.5 61.5q57 0 122 -15l-12 -77q-64 12 -108 12q-69 0 -98.5 -37t-29.5 -124q0 -79 26 -119.5t92 -40.5q58 0 125 26l25 -75q-76 -32 -154 -32zM197 -41q61 0 86.5 -17t25.5 -53q0 -38 -25.5 -59.5t-67.5 -21.5q-28 0 -50 6 l8 39q20 -4 34 -4q50 0 50 38q0 18 -14.5 26.5t-53.5 8.5z" />
<glyph unicode="&#xe8;" horiz-adv-x="455" d="M39 227q0 116 51 180.5t145 64.5q88 0 134.5 -55.5t46.5 -150.5q0 -38 -6 -68h-278q9 -128 120 -128q57 0 131 31l28 -73q-81 -38 -162 -38q-102 0 -156 59.5t-54 177.5zM132 270h193q-2 122 -91 122q-93 0 -102 -122zM263 517l-135 110l59 62l112 -133z" />
<glyph unicode="&#xe9;" horiz-adv-x="455" d="M205 517l-36 39l112 133l59 -62zM39 227q0 116 51 180.5t145 64.5q88 0 134.5 -55.5t46.5 -150.5q0 -38 -6 -68h-278q9 -128 120 -128q57 0 131 31l28 -73q-81 -38 -162 -38q-102 0 -156 59.5t-54 177.5zM132 270h193q-2 122 -91 122q-93 0 -102 -122z" />
<glyph unicode="&#xea;" horiz-adv-x="455" d="M138 513l-34 29l96 112h68l96 -112l-34 -29l-96 86zM39 227q0 116 51 180.5t145 64.5q88 0 134.5 -55.5t46.5 -150.5q0 -38 -6 -68h-278q9 -128 120 -128q57 0 131 31l28 -73q-81 -38 -162 -38q-102 0 -156 59.5t-54 177.5zM132 270h193q-2 122 -91 122q-93 0 -102 -122z " />
<glyph unicode="&#xeb;" horiz-adv-x="455" d="M284 535v85h82v-85h-82zM102 535v85h82v-85h-82zM39 227q0 116 51 180.5t145 64.5q88 0 134.5 -55.5t46.5 -150.5q0 -38 -6 -68h-278q9 -128 120 -128q57 0 131 31l28 -73q-81 -38 -162 -38q-102 0 -156 59.5t-54 177.5zM132 270h193q-2 122 -91 122q-93 0 -102 -122z " />
<glyph unicode="&#xec;" horiz-adv-x="231" d="M70 0v462h91v-462h-91zM145 517l-135 110l59 62l112 -133z" />
<glyph unicode="&#xed;" horiz-adv-x="231" d="M87 517l-36 39l112 133l59 -62zM70 0v462h91v-462h-91z" />
<glyph unicode="&#xee;" horiz-adv-x="231" d="M20 513l-34 29l96 112h68l96 -112l-34 -29l-96 86zM70 0v462h91v-462h-91z" />
<glyph unicode="&#xef;" horiz-adv-x="231" d="M166 535v85h82v-85h-82zM-16 535v85h82v-85h-82zM70 0v462h91v-462h-91z" />
<glyph unicode="&#xf0;" horiz-adv-x="498" d="M39 238q0 117 53 175.5t141 58.5q26 0 72 -8q-29 47 -65 84l-78 -54l-36 54l66 45q-28 25 -62 45l43 59q51 -27 89 -57l78 53l36 -54l-65 -44q51 -53 79 -102q66 -116 66 -260q0 -243 -209 -243q-110 0 -159 63.5t-49 184.5zM248 71q65 0 90 42t25 118q0 75 -24 145 q-47 16 -90 16q-59 0 -88 -37.5t-29 -118.5q0 -79 24.5 -122t91.5 -43z" />
<glyph unicode="&#xf1;" horiz-adv-x="509" d="M70 0v462h68l7 -40q71 50 149 50q73 0 111.5 -41t38.5 -114v-317h-91v306q0 86 -79 86q-55 0 -113 -36v-356h-91zM151 540l-42 13q17 85 84 85q25 0 69 -19.5t60 -19.5q30 0 41 36l42 -13q-17 -85 -84 -85q-25 0 -69 19.5t-60 19.5q-30 0 -41 -36z" />
<glyph unicode="&#xf2;" horiz-adv-x="495" d="M248 -10q-209 0 -209 241t209 241q208 0 208 -241t-208 -241zM248 70q65 0 90 42t25 119t-25 119t-90 42q-66 0 -91 -42t-25 -119t25 -119t91 -42zM277 517l-135 110l59 62l112 -133z" />
<glyph unicode="&#xf3;" horiz-adv-x="495" d="M219 517l-36 39l112 133l59 -62zM248 -10q-209 0 -209 241t209 241q208 0 208 -241t-208 -241zM248 70q65 0 90 42t25 119t-25 119t-90 42q-66 0 -91 -42t-25 -119t25 -119t91 -42z" />
<glyph unicode="&#xf4;" horiz-adv-x="495" d="M152 513l-34 29l96 112h68l96 -112l-34 -29l-96 86zM248 -10q-209 0 -209 241t209 241q208 0 208 -241t-208 -241zM248 70q65 0 90 42t25 119t-25 119t-90 42q-66 0 -91 -42t-25 -119t25 -119t91 -42z" />
<glyph unicode="&#xf5;" horiz-adv-x="495" d="M248 -10q-209 0 -209 241t209 241q208 0 208 -241t-208 -241zM248 70q65 0 90 42t25 119t-25 119t-90 42q-66 0 -91 -42t-25 -119t25 -119t91 -42zM142 540l-42 13q17 85 84 85q25 0 69 -19.5t60 -19.5q30 0 41 36l42 -13q-17 -85 -84 -85q-25 0 -69 19.5t-60 19.5 q-30 0 -41 -36z" />
<glyph unicode="&#xf6;" horiz-adv-x="495" d="M298 535v85h82v-85h-82zM116 535v85h82v-85h-82zM248 -10q-209 0 -209 241t209 241q208 0 208 -241t-208 -241zM248 70q65 0 90 42t25 119t-25 119t-90 42q-66 0 -91 -42t-25 -119t25 -119t91 -42z" />
<glyph unicode="&#xf7;" horiz-adv-x="586" d="M247 363v99h92v-99h-92zM63 195v72h460v-72h-460zM247 0v99h92v-99h-92z" />
<glyph unicode="&#xf8;" horiz-adv-x="495" d="M42 0l43 59q-45 60 -45 172q0 241 208 241q71 0 118 -28l13 18h75l-43 -59q45 -60 45 -172q0 -241 -208 -241q-71 0 -118 28l-13 -18h-75zM143 144h4l168 230q-28 18 -67 18q-65 0 -90 -42t-25 -119q0 -56 10 -87zM181 88q28 -18 67 -18q65 0 90 42t25 119q0 56 -10 87 h-4z" />
<glyph unicode="&#xf9;" horiz-adv-x="508" d="M64 145v317h91v-306q0 -86 80 -86q58 0 112 35v357h91v-462h-68l-8 39q-68 -49 -147 -49q-73 0 -112 41t-39 114zM280 517l-135 110l59 62l112 -133z" />
<glyph unicode="&#xfa;" horiz-adv-x="508" d="M222 517l-36 39l112 133l59 -62zM64 145v317h91v-306q0 -86 80 -86q58 0 112 35v357h91v-462h-68l-8 39q-68 -49 -147 -49q-73 0 -112 41t-39 114z" />
<glyph unicode="&#xfb;" horiz-adv-x="508" d="M155 513l-34 29l96 112h68l96 -112l-34 -29l-96 86zM64 145v317h91v-306q0 -86 80 -86q58 0 112 35v357h91v-462h-68l-8 39q-68 -49 -147 -49q-73 0 -112 41t-39 114z" />
<glyph unicode="&#xfc;" horiz-adv-x="508" d="M301 535v85h82v-85h-82zM119 535v85h82v-85h-82zM64 145v317h91v-306q0 -86 80 -86q58 0 112 35v357h91v-462h-68l-8 39q-68 -49 -147 -49q-73 0 -112 41t-39 114z" />
<glyph unicode="&#xfd;" horiz-adv-x="462" d="M165 0q-32 71 -73 208t-68 254h92q50 -216 109 -381h4q71 200 120 381h89q-95 -357 -219 -644h-90q26 63 73 182h-37zM202 517l-36 39l112 133l59 -62z" />
<glyph unicode="&#xfe;" horiz-adv-x="500" d="M161 1v-183h-91v826h91v-209q55 37 118 37q175 0 175 -240q0 -242 -198 -242q-40 0 -95 11zM161 79q43 -12 86 -12q65 0 89.5 38t24.5 123q0 88 -23 126t-76 38q-50 0 -101 -31v-282z" />
<glyph unicode="&#xff;" horiz-adv-x="462" d="M165 0q-32 71 -73 208t-68 254h92q50 -216 109 -381h4q71 200 120 381h89q-95 -357 -219 -644h-90q26 63 73 182h-37zM281 535v85h82v-85h-82zM99 535v85h82v-85h-82z" />
<glyph unicode="&#x100;" horiz-adv-x="570" d="M17 0q97 360 205 644h127q105 -275 204 -644h-99l-41 151h-257l-41 -151h-98zM178 234h212q-42 145 -104 323h-4q-53 -153 -104 -323zM173 722v62h228v-62h-228z" />
<glyph unicode="&#x101;" d="M35 134q0 71 51 107.5t144 36.5q43 0 85 -6v32q0 48 -23 68t-72 20q-57 0 -133 -20l-16 77q90 23 155 23q180 0 180 -158v-314h-67l-9 39q-60 -49 -137 -49q-68 0 -113 38t-45 106zM128 137q0 -35 22 -53.5t59 -18.5q60 0 106 36v105q-47 5 -84 5q-103 0 -103 -74z M120 546v62h228v-62h-228z" />
<glyph unicode="&#x102;" horiz-adv-x="570" d="M17 0q97 360 205 644h127q105 -275 204 -644h-99l-41 151h-257l-41 -151h-98zM178 234h212q-42 145 -104 323h-4q-53 -153 -104 -323zM287 700q-117 0 -119 118h51q0 -37 15.5 -54.5t52.5 -17.5q36 0 51.5 18t15.5 54h52q-2 -118 -119 -118z" />
<glyph unicode="&#x103;" d="M35 134q0 71 51 107.5t144 36.5q43 0 85 -6v32q0 48 -23 68t-72 20q-57 0 -133 -20l-16 77q90 23 155 23q180 0 180 -158v-314h-67l-9 39q-60 -49 -137 -49q-68 0 -113 38t-45 106zM128 137q0 -35 22 -53.5t59 -18.5q60 0 106 36v105q-47 5 -84 5q-103 0 -103 -74z M234 524q-117 0 -119 118h51q0 -37 15.5 -54.5t52.5 -17.5q36 0 51.5 18t15.5 54h52q-2 -118 -119 -118z" />
<glyph unicode="&#x104;" horiz-adv-x="570" d="M17 0q97 360 205 644h127q105 -275 204 -644q-41 -16 -64.5 -42t-23.5 -53q0 -35 41 -35q20 0 38 6l11 -57q-22 -11 -60 -11q-44 0 -73.5 21.5t-29.5 63.5q0 56 61 111l-40 147h-257l-41 -151h-98zM178 234h212q-42 145 -104 323h-4q-53 -153 -104 -323z" />
<glyph unicode="&#x105;" d="M35 134q0 71 51 107.5t143 36.5q44 0 86 -6v32q0 48 -23 68t-73 20q-56 0 -132 -20l-16 77q90 23 156 23q179 0 179 -158v-314q-67 -50 -67 -95q0 -35 41 -35q20 0 38 6l11 -57q-22 -11 -59 -11q-45 0 -74.5 21.5t-29.5 63.5q0 60 71 116l-7 30q-60 -49 -138 -49 q-67 0 -112 38t-45 106zM128 137q0 -35 22 -53.5t59 -18.5q60 0 106 36v105q-70 5 -84 5q-103 0 -103 -74z" />
<glyph unicode="&#x106;" horiz-adv-x="532" d="M291 693l-36 39l112 133l59 -62zM321 -10q-147 0 -211 87t-64 245t65.5 245t219.5 87q71 0 156 -18l-14 -83q-91 16 -143 16q-56 0 -94 -18t-57 -54t-26.5 -77.5t-7.5 -99.5q0 -43 3.5 -75.5t15 -65.5t31 -54.5t52 -35t77.5 -13.5q74 0 159 34l29 -79q-93 -41 -191 -41z " />
<glyph unicode="&#x107;" horiz-adv-x="422" d="M216 517l-36 39l112 133l59 -62zM247 -10q-207 0 -207 243q0 116 51.5 177.5t167.5 61.5q57 0 122 -15l-12 -77q-64 12 -108 12q-69 0 -98.5 -37t-29.5 -124q0 -79 26 -119.5t92 -40.5q58 0 125 26l25 -75q-76 -32 -154 -32z" />
<glyph unicode="&#x108;" horiz-adv-x="532" d="M203 689l-34 29l96 112h68l96 -112l-34 -29l-96 86zM321 -10q-147 0 -211 87t-64 245t65.5 245t219.5 87q71 0 156 -18l-14 -83q-91 16 -143 16q-56 0 -94 -18t-57 -54t-26.5 -77.5t-7.5 -99.5q0 -43 3.5 -75.5t15 -65.5t31 -54.5t52 -35t77.5 -13.5q74 0 159 34l29 -79 q-93 -41 -191 -41z" />
<glyph unicode="&#x109;" horiz-adv-x="422" d="M137 513l-34 29l96 112h68l96 -112l-34 -29l-96 86zM247 -10q-207 0 -207 243q0 116 51.5 177.5t167.5 61.5q57 0 122 -15l-12 -77q-64 12 -108 12q-69 0 -98.5 -37t-29.5 -124q0 -79 26 -119.5t92 -40.5q58 0 125 26l25 -75q-76 -32 -154 -32z" />
<glyph unicode="&#x10a;" horiz-adv-x="532" d="M321 -10q-147 0 -211 87t-64 245t65.5 245t219.5 87q71 0 156 -18l-14 -83q-91 16 -143 16q-56 0 -94 -18t-57 -54t-26.5 -77.5t-7.5 -99.5q0 -43 3.5 -75.5t15 -65.5t31 -54.5t52 -35t77.5 -13.5q74 0 159 34l29 -79q-93 -41 -191 -41zM255 709v90h87v-90h-87z" />
<glyph unicode="&#x10b;" horiz-adv-x="422" d="M247 -10q-207 0 -207 243q0 116 51.5 177.5t167.5 61.5q57 0 122 -15l-12 -77q-64 12 -108 12q-69 0 -98.5 -37t-29.5 -124q0 -79 26 -119.5t92 -40.5q58 0 125 26l25 -75q-76 -32 -154 -32zM189 533v90h87v-90h-87z" />
<glyph unicode="&#x10c;" horiz-adv-x="532" d="M265 697l-96 112l34 29l96 -86l96 86l34 -29l-96 -112h-68zM321 -10q-147 0 -211 87t-64 245t65.5 245t219.5 87q71 0 156 -18l-14 -83q-91 16 -143 16q-56 0 -94 -18t-57 -54t-26.5 -77.5t-7.5 -99.5q0 -43 3.5 -75.5t15 -65.5t31 -54.5t52 -35t77.5 -13.5q74 0 159 34 l29 -79q-93 -41 -191 -41z" />
<glyph unicode="&#x10d;" horiz-adv-x="422" d="M199 521l-96 112l34 29l96 -86l96 86l34 -29l-96 -112h-68zM247 -10q-207 0 -207 243q0 116 51.5 177.5t167.5 61.5q57 0 122 -15l-12 -77q-64 12 -108 12q-69 0 -98.5 -37t-29.5 -124q0 -79 26 -119.5t92 -40.5q58 0 125 26l25 -75q-76 -32 -154 -32z" />
<glyph unicode="&#x10e;" horiz-adv-x="618" d="M261 697l-96 112l34 29l96 -86l96 86l34 -29l-96 -112h-68zM81 2v635q108 17 185 17q159 0 235 -81t76 -252t-76.5 -251t-241.5 -80q-91 0 -178 12zM177 80q39 -4 80 -4q119 0 170 55t51 188t-50.5 191.5t-164.5 58.5q-38 0 -86 -6v-483z" />
<glyph unicode="&#x10f;" horiz-adv-x="573" d="M498 644l78 4q2 -22 2 -33q0 -84 -46 -157l-36 7q9 39 9 94q0 46 -7 85zM223 -10q-179 0 -179 238q0 244 199 244q34 0 94 -10v182h91v-644h-68l-9 35q-59 -45 -128 -45zM237 70q53 0 100 31v283q-45 10 -83 10q-65 0 -91 -39t-26 -126q0 -84 23 -121.5t77 -37.5z" />
<glyph unicode="&#x110;" horiz-adv-x="624" d="M87 2v290h-72v76h72v269q108 17 185 17q159 0 235 -81t76 -252t-76.5 -251t-241.5 -80q-89 0 -178 12zM183 80q37 -4 81 -4q119 0 169.5 55t50.5 188t-50.5 191.5t-164.5 58.5q-38 0 -86 -6v-195h137v-76h-137v-212z" />
<glyph unicode="&#x111;" horiz-adv-x="499" d="M224 -10q-179 0 -179 238q0 244 200 244q33 0 93 -10v53h-108v70h108v59h91v-59h55v-70h-55v-515h-68l-9 35q-59 -45 -128 -45zM238 69q51 0 100 32v283q-45 10 -83 10q-65 0 -91 -39t-26 -126q0 -85 23 -122.5t77 -37.5z" />
<glyph unicode="&#x112;" horiz-adv-x="501" d="M81 0v644h378v-85h-282v-187h238v-83h-238v-204h282v-85h-378zM156 722v62h228v-62h-228z" />
<glyph unicode="&#x113;" horiz-adv-x="455" d="M39 227q0 116 51 180.5t145 64.5q88 0 134.5 -55.5t46.5 -150.5q0 -38 -6 -68h-278q9 -128 120 -128q57 0 131 31l28 -73q-81 -38 -162 -38q-102 0 -156 59.5t-54 177.5zM132 270h193q-2 122 -91 122q-93 0 -102 -122zM120 546v62h228v-62h-228z" />
<glyph unicode="&#x114;" horiz-adv-x="501" d="M81 0v644h378v-85h-282v-187h238v-83h-238v-204h282v-85h-378zM270 700q-117 0 -119 118h51q0 -37 15.5 -54.5t52.5 -17.5q36 0 51.5 18t15.5 54h52q-2 -118 -119 -118z" />
<glyph unicode="&#x115;" horiz-adv-x="455" d="M39 227q0 116 51 180.5t145 64.5q88 0 134.5 -55.5t46.5 -150.5q0 -38 -6 -68h-278q9 -128 120 -128q57 0 131 31l28 -73q-81 -38 -162 -38q-102 0 -156 59.5t-54 177.5zM132 270h193q-2 122 -91 122q-93 0 -102 -122zM234 524q-117 0 -119 118h51q0 -37 15.5 -54.5 t52.5 -17.5q36 0 51.5 18t15.5 54h52q-2 -118 -119 -118z" />
<glyph unicode="&#x116;" horiz-adv-x="501" d="M81 0v644h378v-85h-282v-187h238v-83h-238v-204h282v-85h-378zM226 709v90h87v-90h-87z" />
<glyph unicode="&#x117;" horiz-adv-x="455" d="M39 227q0 116 51 180.5t145 64.5q88 0 134.5 -55.5t46.5 -150.5q0 -38 -6 -68h-278q9 -128 120 -128q57 0 131 31l28 -73q-81 -38 -162 -38q-102 0 -156 59.5t-54 177.5zM132 270h193q-2 122 -91 122q-93 0 -102 -122zM190 533v90h87v-90h-87z" />
<glyph unicode="&#x118;" horiz-adv-x="501" d="M81 0v644h378v-85h-282v-187h238v-83h-238v-204h282v-85q-31 -18 -52 -43.5t-21 -51.5q0 -35 42 -35q20 0 38 6l11 -57q-22 -11 -60 -11q-44 0 -73.5 21.5t-29.5 63.5q0 55 52 103l-1 4h-284z" />
<glyph unicode="&#x119;" horiz-adv-x="455" d="M39 227q0 117 51 181t146 64q87 0 133.5 -55.5t46.5 -152.5q0 -36 -6 -66h-278q9 -128 120 -128q57 0 131 31l28 -73q-92 -69 -92 -123q0 -35 41 -35q20 0 38 6l11 -57q-22 -11 -60 -11q-44 0 -73.5 21.5t-29.5 63.5q0 51 45 96l-2 3q-18 -2 -40 -2q-102 0 -156 59.5 t-54 177.5zM132 270h193q-2 122 -91 122q-93 0 -102 -122z" />
<glyph unicode="&#x11a;" horiz-adv-x="501" d="M236 697l-96 112l34 29l96 -86l96 86l34 -29l-96 -112h-68zM81 0v644h378v-85h-282v-187h238v-83h-238v-204h282v-85h-378z" />
<glyph unicode="&#x11b;" horiz-adv-x="455" d="M200 521l-96 112l34 29l96 -86l96 86l34 -29l-96 -112h-68zM39 227q0 116 51 180.5t145 64.5q88 0 134.5 -55.5t46.5 -150.5q0 -38 -6 -68h-278q9 -128 120 -128q57 0 131 31l28 -73q-81 -38 -162 -38q-102 0 -156 59.5t-54 177.5zM132 270h193q-2 122 -91 122 q-93 0 -102 -122z" />
<glyph unicode="&#x11c;" horiz-adv-x="601" d="M218 689l-34 29l96 112h68l96 -112l-34 -29l-96 86zM323 -10q-276 0 -276 335q0 156 68.5 242.5t228.5 86.5q76 0 169 -20l-14 -82q-93 17 -155 17q-59 0 -99 -17.5t-61 -52t-29.5 -76t-8.5 -98.5q0 -54 7.5 -95t26 -78t55.5 -57t91 -20q58 0 112 19v237h96v-293 q-96 -48 -211 -48z" />
<glyph unicode="&#x11d;" horiz-adv-x="491" d="M150 513l-34 29l96 112h68l96 -112l-34 -29l-96 86zM99 -97q75 -15 127 -15q49 0 76.5 19.5t27.5 72.5v43q-52 -28 -110 -28q-181 0 -181 234q0 124 52 183.5t159 59.5q76 0 171 -31v-456q0 -96 -50.5 -136.5t-146.5 -40.5q-61 0 -136 16zM236 75q51 0 94 25v284 q-42 10 -79 10q-65 0 -92 -39t-27 -125q0 -81 24 -118t80 -37z" />
<glyph unicode="&#x11e;" horiz-adv-x="601" d="M323 -10q-276 0 -276 335q0 156 68.5 242.5t228.5 86.5q76 0 169 -20l-14 -82q-93 17 -155 17q-59 0 -99 -17.5t-61 -52t-29.5 -76t-8.5 -98.5q0 -54 7.5 -95t26 -78t55.5 -57t91 -20q58 0 112 19v237h96v-293q-96 -48 -211 -48zM314 700q-117 0 -119 118h51 q0 -37 15.5 -54.5t52.5 -17.5q36 0 51.5 18t15.5 54h52q-2 -118 -119 -118z" />
<glyph unicode="&#x11f;" horiz-adv-x="491" d="M99 -97q75 -15 127 -15q49 0 76.5 19.5t27.5 72.5v43q-52 -28 -110 -28q-181 0 -181 234q0 124 52 183.5t159 59.5q76 0 171 -31v-456q0 -96 -50.5 -136.5t-146.5 -40.5q-61 0 -136 16zM236 75q51 0 94 25v284q-42 10 -79 10q-65 0 -92 -39t-27 -125q0 -81 24 -118 t80 -37zM246 524q-117 0 -119 118h51q0 -37 15.5 -54.5t52.5 -17.5q36 0 51.5 18t15.5 54h52q-2 -118 -119 -118z" />
<glyph unicode="&#x120;" horiz-adv-x="601" d="M323 -10q-276 0 -276 335q0 156 68.5 242.5t228.5 86.5q76 0 169 -20l-14 -82q-93 17 -155 17q-59 0 -99 -17.5t-61 -52t-29.5 -76t-8.5 -98.5q0 -54 7.5 -95t26 -78t55.5 -57t91 -20q58 0 112 19v237h96v-293q-96 -48 -211 -48zM270 709v90h87v-90h-87z" />
<glyph unicode="&#x121;" horiz-adv-x="491" d="M99 -97q75 -15 127 -15q49 0 76.5 19.5t27.5 72.5v43q-52 -28 -110 -28q-181 0 -181 234q0 124 52 183.5t159 59.5q76 0 171 -31v-456q0 -96 -50.5 -136.5t-146.5 -40.5q-61 0 -136 16zM236 75q51 0 94 25v284q-42 10 -79 10q-65 0 -92 -39t-27 -125q0 -81 24 -118 t80 -37zM202 533v90h87v-90h-87z" />
<glyph unicode="&#x122;" horiz-adv-x="601" d="M278 -50l78 4q2 -22 2 -33q0 -84 -46 -157l-36 7q9 39 9 94q0 46 -7 85zM323 -10q-276 0 -276 335q0 156 68.5 242.5t228.5 86.5q76 0 169 -20l-14 -82q-93 17 -155 17q-59 0 -99 -17.5t-61 -52t-29.5 -76t-8.5 -98.5q0 -54 7.5 -95t26 -78t55.5 -57t91 -20q58 0 112 19 v237h96v-293q-96 -48 -211 -48z" />
<glyph unicode="&#x123;" horiz-adv-x="491" d="M208 521q-2 22 -2 33q0 84 46 157l36 -7q-9 -39 -9 -94q0 -46 7 -85zM99 -97q75 -15 127 -15q49 0 76.5 19.5t27.5 72.5v43q-52 -28 -110 -28q-181 0 -181 234q0 124 52 183.5t159 59.5q76 0 171 -31v-456q0 -96 -50.5 -136.5t-146.5 -40.5q-61 0 -136 16zM236 75 q51 0 94 25v284q-42 10 -79 10q-65 0 -92 -39t-27 -125q0 -81 24 -118t80 -37z" />
<glyph unicode="&#x124;" horiz-adv-x="644" d="M226 689l-34 29l96 112h68l96 -112l-34 -29l-96 86zM81 0v644h96v-269h290v269h96v-644h-96v290h-290v-290h-96z" />
<glyph unicode="&#x125;" horiz-adv-x="509" d="M20 689l-34 29l96 112h68l96 -112l-34 -29l-96 86zM70 0v644h91v-213q64 41 133 41q73 0 111.5 -41t38.5 -114v-317h-91v306q0 86 -79 86q-55 0 -113 -36v-356h-91z" />
<glyph unicode="&#x126;" horiz-adv-x="652" d="M85 0v469h-60v76h60v99h96v-99h290v99h96v-99h60v-76h-60v-469h-96v290h-290v-290h-96zM181 375h290v94h-290v-94z" />
<glyph unicode="&#x127;" horiz-adv-x="509" d="M70 0v515h-55v70h55v59h91v-59h108v-70h-108v-84q64 41 133 41q73 0 111.5 -41t38.5 -114v-317h-91v306q0 86 -79 86q-55 0 -113 -36v-356h-91z" />
<glyph unicode="&#x128;" horiz-adv-x="258" d="M81 0v644h96v-644h-96zM23 716l-42 13q17 85 84 85q25 0 69 -19.5t60 -19.5q30 0 41 36l42 -13q-17 -85 -84 -85q-25 0 -69 19.5t-60 19.5q-30 0 -41 -36z" />
<glyph unicode="&#x129;" horiz-adv-x="231" d="M70 0v462h91v-462h-91zM10 540l-42 13q17 85 84 85q25 0 69 -19.5t60 -19.5q30 0 41 36l42 -13q-17 -85 -84 -85q-25 0 -69 19.5t-60 19.5q-30 0 -41 -36z" />
<glyph unicode="&#x12a;" horiz-adv-x="258" d="M81 0v644h96v-644h-96zM15 722v62h228v-62h-228z" />
<glyph unicode="&#x12b;" horiz-adv-x="231" d="M70 0v462h91v-462h-91zM2 546v62h228v-62h-228z" />
<glyph unicode="&#x12c;" horiz-adv-x="258" d="M81 0v644h96v-644h-96zM129 700q-117 0 -119 118h51q0 -37 15.5 -54.5t52.5 -17.5q36 0 51.5 18t15.5 54h52q-2 -118 -119 -118z" />
<glyph unicode="&#x12d;" horiz-adv-x="231" d="M70 0v462h91v-462h-91zM116 524q-117 0 -119 118h51q0 -37 15.5 -54.5t52.5 -17.5q36 0 51.5 18t15.5 54h52q-2 -118 -119 -118z" />
<glyph unicode="&#x12e;" horiz-adv-x="258" d="M81 1v643h96v-644q-71 -38 -71 -92q0 -38 42 -38q22 0 41 7l11 -58q-26 -11 -65 -11q-43 0 -72 21.5t-29 65.5q0 54 47 106z" />
<glyph unicode="&#x12f;" horiz-adv-x="231" d="M70 545v99h91v-99h-91zM70 2v460h91v-462q-66 -41 -66 -92q0 -38 42 -38q22 0 41 7l10 -58q-24 -11 -64 -11q-43 0 -72 21.5t-29 65.5q0 55 47 107z" />
<glyph unicode="&#x130;" horiz-adv-x="258" d="M81 0v644h96v-644h-96zM85 709v90h87v-90h-87z" />
<glyph unicode="&#x131;" horiz-adv-x="231" d="M70 0v462h91v-462h-91z" />
<glyph unicode="&#x132;" horiz-adv-x="658" d="M81 0v644h96v-644h-96zM268 2l12 83q60 -10 103 -10q55 0 77.5 26t22.5 89v454h96v-453q0 -108 -48.5 -154.5t-148.5 -46.5q-52 0 -114 12z" />
<glyph unicode="&#x133;" horiz-adv-x="463" d="M70 545v99h91v-99h-91zM70 0v462h91v-462h-91zM302 545v99h91v-99h-91zM302 68v394h91v-392q0 -165 -53 -252h-87q49 108 49 250z" />
<glyph unicode="&#x134;" horiz-adv-x="400" d="M178 689l-34 29l96 112h68l96 -112l-34 -29l-96 86zM10 2l12 83q60 -10 103 -10q55 0 77.5 26t22.5 89v454h96v-453q0 -108 -48.5 -154.5t-148.5 -46.5q-52 0 -114 12z" />
<glyph unicode="&#x135;" horiz-adv-x="232" d="M71 68v394h91v-392q0 -165 -53 -252h-87q49 108 49 250zM20 513l-34 29l96 112h68l96 -112l-34 -29l-96 86z" />
<glyph unicode="&#x136;" horiz-adv-x="568" d="M264 -50l78 4q2 -22 2 -33q0 -84 -46 -157l-36 7q9 39 9 94q0 46 -7 85zM81 0v644h96v-292l3 -1q151 159 261 293h117l2 -3q-108 -129 -268 -295q139 -183 279 -343l-2 -3h-124q-123 144 -236 298h-32v-298h-96z" />
<glyph unicode="&#x137;" d="M217 -50l78 4q2 -22 2 -33q0 -84 -46 -157l-36 7q9 39 9 94q0 46 -7 85zM70 0v644h91v-382l4 -1q87 89 184 201h111l1 -2q-76 -88 -192 -204q95 -133 202 -254l-1 -2h-116q-82 94 -161 209h-32v-209h-91z" />
<glyph unicode="&#x138;" d="M70 0v462h91v-200l4 -1q87 89 184 201h111l1 -2q-76 -88 -192 -204q95 -133 202 -254l-1 -2h-116q-82 94 -161 209h-32v-209h-91z" />
<glyph unicode="&#x139;" horiz-adv-x="473" d="M125 693l-36 39l112 133l59 -62zM81 0v644h96v-559h278v-85h-374z" />
<glyph unicode="&#x13a;" horiz-adv-x="231" d="M83 693l-36 39l112 133l59 -62zM70 0v644h91v-644h-91z" />
<glyph unicode="&#x13b;" horiz-adv-x="473" d="M236 -50l78 4q2 -22 2 -33q0 -84 -46 -157l-36 7q9 39 9 94q0 46 -7 85zM81 0v644h96v-559h278v-85h-374z" />
<glyph unicode="&#x13c;" horiz-adv-x="231" d="M80 -50l78 4q2 -22 2 -33q0 -84 -46 -157l-36 7q9 39 9 94q0 46 -7 85zM70 0v644h91v-644h-91z" />
<glyph unicode="&#x13d;" horiz-adv-x="473" d="M274 451q8 58 8 112q0 48 -4 89l75 3q3 -22 3 -44q0 -89 -42 -165zM81 0v644h96v-559h278v-85h-374z" />
<glyph unicode="&#x13e;" horiz-adv-x="307" d="M232 644l78 4q2 -22 2 -33q0 -84 -46 -157l-36 7q9 39 9 94q0 46 -7 85zM70 0v644h91v-644h-91z" />
<glyph unicode="&#x13f;" horiz-adv-x="473" d="M81 0v644h96v-559h278v-85h-374zM318 278v99h94v-99h-94z" />
<glyph unicode="&#x140;" horiz-adv-x="350" d="M70 0v644h91v-644h-91zM244 204v99h94v-99h-94z" />
<glyph unicode="&#x141;" horiz-adv-x="479" d="M87 0v239l-77 -57v82l77 57v323h96v-252l104 77v-82l-104 -77v-225h278v-85h-374z" />
<glyph unicode="&#x142;" horiz-adv-x="237" d="M73 0v255l-66 -48v82l66 48v307h91v-241l66 48v-82l-66 -48v-321h-91z" />
<glyph unicode="&#x143;" horiz-adv-x="674" d="M308 693l-36 39l112 133l59 -62zM81 0v644h137l276 -513h4v513h95v-644h-137l-276 513h-4v-513h-95z" />
<glyph unicode="&#x144;" horiz-adv-x="509" d="M228 517l-36 39l112 133l59 -62zM70 0v462h68l7 -40q71 50 149 50q73 0 111.5 -41t38.5 -114v-317h-91v306q0 86 -79 86q-55 0 -113 -36v-356h-91z" />
<glyph unicode="&#x145;" horiz-adv-x="674" d="M301 -50l78 4q2 -22 2 -33q0 -84 -46 -157l-36 7q9 39 9 94q0 46 -7 85zM81 0v644h137l276 -513h4v513h95v-644h-137l-276 513h-4v-513h-95z" />
<glyph unicode="&#x146;" horiz-adv-x="509" d="M221 -50l78 4q2 -22 2 -33q0 -84 -46 -157l-36 7q9 39 9 94q0 46 -7 85zM70 0v462h68l7 -40q71 50 149 50q73 0 111.5 -41t38.5 -114v-317h-91v306q0 86 -79 86q-55 0 -113 -36v-356h-91z" />
<glyph unicode="&#x147;" horiz-adv-x="674" d="M303 697l-96 112l34 29l96 -86l96 86l34 -29l-96 -112h-68zM81 0v644h137l276 -513h4v513h95v-644h-137l-276 513h-4v-513h-95z" />
<glyph unicode="&#x148;" horiz-adv-x="509" d="M223 521l-96 112l34 29l96 -86l96 86l34 -29l-96 -112h-68zM70 0v462h68l7 -40q71 50 149 50q73 0 111.5 -41t38.5 -114v-317h-91v306q0 86 -79 86q-55 0 -113 -36v-356h-91z" />
<glyph unicode="&#x149;" horiz-adv-x="509" d="M80 678l78 4q2 -22 2 -33q0 -84 -46 -157l-36 7q9 39 9 94q0 46 -7 85zM70 0v462h68l7 -40q71 50 149 50q73 0 111.5 -41t38.5 -114v-317h-91v306q0 86 -79 86q-55 0 -113 -36v-356h-91z" />
<glyph unicode="&#x14a;" horiz-adv-x="674" d="M81 0v644h137l276 -513h4v513h95v-635q0 -107 -49 -154t-149 -47q-50 0 -112 12l13 83q58 -10 103 -10q51 0 74.5 23.5t23.5 76.5v7h-41l-276 513h-4v-513h-95z" />
<glyph unicode="&#x14b;" horiz-adv-x="509" d="M70 0v462h68l7 -40q71 50 149 50q73 0 111.5 -41t38.5 -114v-247q0 -165 -53 -252h-87q49 108 49 250v238q0 86 -79 86q-55 0 -113 -36v-356h-91z" />
<glyph unicode="&#x14c;" horiz-adv-x="648" d="M210 722v62h228v-62h-228zM324 -10q-144 0 -211 83t-67 249t67 249t211 83t211 -83t67 -249t-67 -249t-211 -83zM324 75q96 0 137.5 59t41.5 188t-41.5 188t-137.5 59t-137.5 -59t-41.5 -188t41.5 -188t137.5 -59z" />
<glyph unicode="&#x14d;" horiz-adv-x="495" d="M134 546v62h228v-62h-228zM248 -10q-209 0 -209 241t209 241q208 0 208 -241t-208 -241zM248 70q65 0 90 42t25 119t-25 119t-90 42q-66 0 -91 -42t-25 -119t25 -119t91 -42z" />
<glyph unicode="&#x14e;" horiz-adv-x="648" d="M324 -10q-144 0 -211 83t-67 249t67 249t211 83t211 -83t67 -249t-67 -249t-211 -83zM324 75q96 0 137.5 59t41.5 188t-41.5 188t-137.5 59t-137.5 -59t-41.5 -188t41.5 -188t137.5 -59zM324 700q-117 0 -119 118h51q0 -37 15.5 -54.5t52.5 -17.5q36 0 51.5 18t15.5 54 h52q-2 -118 -119 -118z" />
<glyph unicode="&#x14f;" horiz-adv-x="495" d="M248 -10q-209 0 -209 241t209 241q208 0 208 -241t-208 -241zM248 70q65 0 90 42t25 119t-25 119t-90 42q-66 0 -91 -42t-25 -119t25 -119t91 -42zM248 524q-117 0 -119 118h51q0 -37 15.5 -54.5t52.5 -17.5q36 0 51.5 18t15.5 54h52q-2 -118 -119 -118z" />
<glyph unicode="&#x150;" horiz-adv-x="648" d="M377 691l-39 31l92 144l65 -50zM239 691l-39 31l92 144l65 -50zM324 -10q-144 0 -211 83t-67 249t67 249t211 83t211 -83t67 -249t-67 -249t-211 -83zM324 75q96 0 137.5 59t41.5 188t-41.5 188t-137.5 59t-137.5 -59t-41.5 -188t41.5 -188t137.5 -59z" />
<glyph unicode="&#x151;" horiz-adv-x="495" d="M301 515l-39 31l92 144l65 -50zM163 515l-39 31l92 144l65 -50zM248 -10q-209 0 -209 241t209 241q208 0 208 -241t-208 -241zM248 70q65 0 90 42t25 119t-25 119t-90 42q-66 0 -91 -42t-25 -119t25 -119t91 -42z" />
<glyph unicode="&#x152;" horiz-adv-x="795" d="M46 323q0 166 69.5 243.5t229.5 77.5h407v-85h-262v-187h218v-83h-218v-204h262v-85h-412q-157 0 -225.5 79t-68.5 244zM335 85h59v474h-55q-107 0 -150.5 -52t-43.5 -183t43 -185t147 -54z" />
<glyph unicode="&#x153;" horiz-adv-x="750" d="M39 231q0 241 200 241q107 0 153 -71h4q47 71 142 71q83 0 127.5 -55.5t44.5 -150.5q0 -42 -5 -68h-265q4 -64 30.5 -96t82.5 -32q54 0 125 30l26 -74q-77 -36 -156 -36q-105 0 -153 69h-4q-45 -69 -152 -69q-200 0 -200 241zM439 270h181q-4 122 -86 122q-87 0 -95 -122 zM239 70q61 0 84.5 41.5t23.5 119.5t-23.5 119.5t-84.5 41.5q-60 0 -83.5 -42t-23.5 -119t23.5 -119t83.5 -42z" />
<glyph unicode="&#x154;" horiz-adv-x="569" d="M251 693l-36 39l112 133l59 -62zM81 0v637q106 16 192 16q246 0 246 -193q0 -147 -137 -185q57 -113 158 -273l-1 -2h-113q-79 131 -145 261q-57 0 -104 6v-267h-96zM177 343q43 -4 91 -4q76 0 114 24.5t38 90.5q0 65 -37 90t-111 25q-43 0 -95 -5v-221z" />
<glyph unicode="&#x155;" horiz-adv-x="344" d="M164 517l-36 39l112 133l59 -62zM70 0v462h68l10 -54q58 64 134 64q29 0 54 -5l-8 -84q-25 4 -48 4q-73 0 -119 -49v-338h-91z" />
<glyph unicode="&#x156;" horiz-adv-x="569" d="M244 -50l78 4q2 -22 2 -33q0 -84 -46 -157l-36 7q9 39 9 94q0 46 -7 85zM81 0v637q106 16 192 16q246 0 246 -193q0 -147 -137 -185q57 -113 158 -273l-1 -2h-113q-79 131 -145 261q-57 0 -104 6v-267h-96zM177 343q43 -4 91 -4q76 0 114 24.5t38 90.5q0 65 -37 90 t-111 25q-43 0 -95 -5v-221z" />
<glyph unicode="&#x157;" horiz-adv-x="344" d="M76 -50l78 4q2 -22 2 -33q0 -84 -46 -157l-36 7q9 39 9 94q0 46 -7 85zM70 0v462h68l10 -54q58 64 134 64q29 0 54 -5l-8 -84q-25 4 -48 4q-73 0 -119 -49v-338h-91z" />
<glyph unicode="&#x158;" horiz-adv-x="569" d="M246 697l-96 112l34 29l96 -86l96 86l34 -29l-96 -112h-68zM81 0v637q106 16 192 16q246 0 246 -193q0 -147 -137 -185q57 -113 158 -273l-1 -2h-113q-79 131 -145 261q-57 0 -104 6v-267h-96zM177 343q43 -4 91 -4q76 0 114 24.5t38 90.5q0 65 -37 90t-111 25 q-43 0 -95 -5v-221z" />
<glyph unicode="&#x159;" horiz-adv-x="344" d="M159 521l-96 112l34 29l96 -86l96 86l34 -29l-96 -112h-68zM70 0v462h68l10 -54q58 64 134 64q29 0 54 -5l-8 -84q-25 4 -48 4q-73 0 -119 -49v-338h-91z" />
<glyph unicode="&#x15a;" horiz-adv-x="489" d="M209 693l-36 39l112 133l59 -62zM35 9l14 85q95 -19 165 -19q147 0 147 103q0 32 -19 53t-40 30.5t-80 29.5q-5 2 -8 3q-42 15 -68.5 27.5t-54 33.5t-40.5 50.5t-13 68.5q0 83 60 131.5t172 48.5q74 0 164 -20l-14 -84q-89 19 -154 19q-129 0 -129 -87q0 -13 3.5 -24.5 t8 -19.5t15 -16.5t17.5 -13t23.5 -11.5t24.5 -10t29 -10l30 -10q39 -14 65 -26.5t53 -34t40.5 -53t13.5 -73.5q0 -90 -63.5 -140t-184.5 -50q-76 0 -177 19z" />
<glyph unicode="&#x15b;" horiz-adv-x="405" d="M174 517l-36 39l112 133l59 -62zM34 7l13 80q79 -17 136 -17q99 0 99 57q0 25 -21.5 38t-73.5 30q-7 2 -11 3q-69 23 -105 52t-36 85q0 65 49 101t136 36q67 0 130 -15l-12 -79q-68 14 -120 14q-90 0 -90 -51q0 -8 2.5 -15t8.5 -12.5t11.5 -9.5t17.5 -8.5t20.5 -7.5 t25.5 -8t27 -9q69 -24 101.5 -53t32.5 -85q0 -69 -49.5 -106t-146.5 -37q-72 0 -145 17z" />
<glyph unicode="&#x15c;" horiz-adv-x="489" d="M142 689l-34 29l96 112h68l96 -112l-34 -29l-96 86zM35 9l14 85q95 -19 165 -19q147 0 147 103q0 32 -19 53t-40 30.5t-80 29.5q-5 2 -8 3q-42 15 -68.5 27.5t-54 33.5t-40.5 50.5t-13 68.5q0 83 60 131.5t172 48.5q74 0 164 -20l-14 -84q-89 19 -154 19q-129 0 -129 -87 q0 -13 3.5 -24.5t8 -19.5t15 -16.5t17.5 -13t23.5 -11.5t24.5 -10t29 -10l30 -10q39 -14 65 -26.5t53 -34t40.5 -53t13.5 -73.5q0 -90 -63.5 -140t-184.5 -50q-76 0 -177 19z" />
<glyph unicode="&#x15d;" horiz-adv-x="405" d="M107 513l-34 29l96 112h68l96 -112l-34 -29l-96 86zM34 7l13 80q79 -17 136 -17q99 0 99 57q0 25 -21.5 38t-73.5 30q-7 2 -11 3q-69 23 -105 52t-36 85q0 65 49 101t136 36q67 0 130 -15l-12 -79q-68 14 -120 14q-90 0 -90 -51q0 -8 2.5 -15t8.5 -12.5t11.5 -9.5 t17.5 -8.5t20.5 -7.5t25.5 -8t27 -9q69 -24 101.5 -53t32.5 -85q0 -69 -49.5 -106t-146.5 -37q-72 0 -145 17z" />
<glyph unicode="&#x15e;" horiz-adv-x="489" d="M35 9l14 85q95 -19 165 -19q147 0 147 103q0 32 -19 53t-40 30.5t-80 29.5q-5 2 -8 3q-42 15 -68.5 27.5t-54 33.5t-40.5 50.5t-13 68.5q0 83 60 131.5t172 48.5q74 0 164 -20l-14 -84q-89 19 -154 19q-129 0 -129 -87q0 -13 3.5 -24.5t8 -19.5t15 -16.5t17.5 -13 t23.5 -11.5t24.5 -10t29 -10l30 -10q39 -14 65 -26.5t53 -34t40.5 -53t13.5 -73.5q0 -90 -63.5 -140t-184.5 -50q-76 0 -177 19zM211 -41q61 0 86.5 -17t25.5 -53q0 -38 -25.5 -59.5t-67.5 -21.5q-28 0 -50 6l8 39q20 -4 34 -4q50 0 50 38q0 18 -14.5 26.5t-53.5 8.5z" />
<glyph unicode="&#x15f;" horiz-adv-x="405" d="M34 7l13 80q79 -17 136 -17q99 0 99 57q0 25 -21.5 38t-73.5 30q-7 2 -11 3q-69 23 -105 52t-36 85q0 65 49 101t136 36q67 0 130 -15l-12 -79q-68 14 -120 14q-90 0 -90 -51q0 -8 2.5 -15t8.5 -12.5t11.5 -9.5t17.5 -8.5t20.5 -7.5t25.5 -8t27 -9q69 -24 101.5 -53 t32.5 -85q0 -69 -49.5 -106t-146.5 -37q-72 0 -145 17zM164 -41q61 0 86.5 -17t25.5 -53q0 -38 -25.5 -59.5t-67.5 -21.5q-28 0 -50 6l8 39q20 -4 34 -4q50 0 50 38q0 18 -14.5 26.5t-53.5 8.5z" />
<glyph unicode="&#x160;" horiz-adv-x="489" d="M204 697l-96 112l34 29l96 -86l96 86l34 -29l-96 -112h-68zM35 9l14 85q95 -19 165 -19q147 0 147 103q0 32 -19 53t-40 30.5t-80 29.5q-5 2 -8 3q-42 15 -68.5 27.5t-54 33.5t-40.5 50.5t-13 68.5q0 83 60 131.5t172 48.5q74 0 164 -20l-14 -84q-89 19 -154 19 q-129 0 -129 -87q0 -13 3.5 -24.5t8 -19.5t15 -16.5t17.5 -13t23.5 -11.5t24.5 -10t29 -10l30 -10q39 -14 65 -26.5t53 -34t40.5 -53t13.5 -73.5q0 -90 -63.5 -140t-184.5 -50q-76 0 -177 19z" />
<glyph unicode="&#x161;" horiz-adv-x="405" d="M169 521l-96 112l34 29l96 -86l96 86l34 -29l-96 -112h-68zM34 7l13 80q79 -17 136 -17q99 0 99 57q0 25 -21.5 38t-73.5 30q-7 2 -11 3q-69 23 -105 52t-36 85q0 65 49 101t136 36q67 0 130 -15l-12 -79q-68 14 -120 14q-90 0 -90 -51q0 -8 2.5 -15t8.5 -12.5t11.5 -9.5 t17.5 -8.5t20.5 -7.5t25.5 -8t27 -9q69 -24 101.5 -53t32.5 -85q0 -69 -49.5 -106t-146.5 -37q-72 0 -145 17z" />
<glyph unicode="&#x162;" horiz-adv-x="514" d="M209 0v559h-189v85h474v-85h-189v-559h-96zM218 -41q61 0 86.5 -17t25.5 -53q0 -38 -25.5 -59.5t-67.5 -21.5q-28 0 -50 6l8 39q20 -4 34 -4q50 0 50 38q0 18 -14.5 26.5t-53.5 8.5z" />
<glyph unicode="&#x163;" horiz-adv-x="335" d="M87 124v262h-68v68l72 4l7 136h80v-132h125v-76h-125v-257q0 -31 10.5 -45t36.5 -14q28 0 68 15l22 -72q-51 -22 -103 -22q-125 0 -125 133zM151 -42q61 0 86.5 -17t25.5 -53q0 -38 -25.5 -59.5t-67.5 -21.5q-28 0 -50 6l8 39q20 -4 34 -4q50 0 50 38q0 18 -14.5 26.5 t-53.5 8.5z" />
<glyph unicode="&#x164;" horiz-adv-x="514" d="M223 697l-96 112l34 29l96 -86l96 86l34 -29l-96 -112h-68zM209 0v559h-189v85h474v-85h-189v-559h-96z" />
<glyph unicode="&#x165;" horiz-adv-x="335" d="M261 697l78 4q2 -22 2 -33q0 -84 -46 -157l-36 7q9 39 9 94q0 46 -7 85zM87 124v262h-68v68l72 4l7 136h80v-132h125v-76h-125v-257q0 -31 10.5 -45t36.5 -14q28 0 68 15l22 -72q-51 -22 -103 -22q-125 0 -125 133z" />
<glyph unicode="&#x166;" horiz-adv-x="514" d="M209 0v277h-108v76h108v206h-189v85h474v-85h-189v-206h108v-76h-108v-277h-96z" />
<glyph unicode="&#x167;" horiz-adv-x="347" d="M93 124v73h-69v68l69 3v118h-68v68l72 4l7 136h80v-132h125v-76h-125v-113h124v-76h-124v-68q0 -31 10.5 -45t35.5 -14q29 0 69 15l22 -72q-51 -22 -104 -22q-124 0 -124 133z" />
<glyph unicode="&#x168;" horiz-adv-x="629" d="M70 225v419h96v-406q0 -88 34 -125.5t115 -37.5q82 0 115.5 37.5t33.5 125.5v406h95v-419q0 -119 -60 -177t-184 -58t-184.5 58t-60.5 177zM213 716l-42 13q17 85 84 85q25 0 69 -19.5t60 -19.5q30 0 41 36l42 -13q-17 -85 -84 -85q-25 0 -69 19.5t-60 19.5 q-30 0 -41 -36z" />
<glyph unicode="&#x169;" horiz-adv-x="508" d="M64 145v317h91v-306q0 -86 80 -86q58 0 112 35v357h91v-462h-68l-8 39q-68 -49 -147 -49q-73 0 -112 41t-39 114zM145 540l-42 13q17 85 84 85q25 0 69 -19.5t60 -19.5q30 0 41 36l42 -13q-17 -85 -84 -85q-25 0 -69 19.5t-60 19.5q-30 0 -41 -36z" />
<glyph unicode="&#x16a;" horiz-adv-x="629" d="M70 225v419h96v-406q0 -88 34 -125.5t115 -37.5q82 0 115.5 37.5t33.5 125.5v406h95v-419q0 -119 -60 -177t-184 -58t-184.5 58t-60.5 177zM205 722v62h228v-62h-228z" />
<glyph unicode="&#x16b;" horiz-adv-x="508" d="M64 145v317h91v-306q0 -86 80 -86q58 0 112 35v357h91v-462h-68l-8 39q-68 -49 -147 -49q-73 0 -112 41t-39 114zM137 546v62h228v-62h-228z" />
<glyph unicode="&#x16c;" horiz-adv-x="629" d="M70 225v419h96v-406q0 -88 34 -125.5t115 -37.5q82 0 115.5 37.5t33.5 125.5v406h95v-419q0 -119 -60 -177t-184 -58t-184.5 58t-60.5 177zM319 700q-117 0 -119 118h51q0 -37 15.5 -54.5t52.5 -17.5q36 0 51.5 18t15.5 54h52q-2 -118 -119 -118z" />
<glyph unicode="&#x16d;" horiz-adv-x="508" d="M64 145v317h91v-306q0 -86 80 -86q58 0 112 35v357h91v-462h-68l-8 39q-68 -49 -147 -49q-73 0 -112 41t-39 114zM251 524q-117 0 -119 118h51q0 -37 15.5 -54.5t52.5 -17.5q36 0 51.5 18t15.5 54h52q-2 -118 -119 -118z" />
<glyph unicode="&#x16e;" horiz-adv-x="629" d="M319 693q-41 0 -65.5 24t-24.5 65t24.5 65t65.5 24t65.5 -24t24.5 -65t-24.5 -65t-65.5 -24zM319 730q49 0 49 52t-49 52t-49 -52t49 -52zM70 225v419h96v-406q0 -88 34 -125.5t115 -37.5q82 0 115.5 37.5t33.5 125.5v406h95v-419q0 -119 -60 -177t-184 -58t-184.5 58 t-60.5 177z" />
<glyph unicode="&#x16f;" horiz-adv-x="508" d="M251 517q-41 0 -65.5 24t-24.5 65t24.5 65t65.5 24t65.5 -24t24.5 -65t-24.5 -65t-65.5 -24zM251 554q49 0 49 52t-49 52t-49 -52t49 -52zM64 145v317h91v-306q0 -86 80 -86q58 0 112 35v357h91v-462h-68l-8 39q-68 -49 -147 -49q-73 0 -112 41t-39 114z" />
<glyph unicode="&#x170;" horiz-adv-x="629" d="M70 225v419h96v-406q0 -88 34 -125.5t115 -37.5q82 0 115.5 37.5t33.5 125.5v406h95v-419q0 -119 -60 -177t-184 -58t-184.5 58t-60.5 177zM372 691l-39 31l92 144l65 -50zM234 691l-39 31l92 144l65 -50z" />
<glyph unicode="&#x171;" horiz-adv-x="508" d="M64 145v317h91v-306q0 -86 80 -86q58 0 112 35v357h91v-462h-68l-8 39q-68 -49 -147 -49q-73 0 -112 41t-39 114zM304 515l-39 31l92 144l65 -50zM166 515l-39 31l92 144l65 -50z" />
<glyph unicode="&#x172;" horiz-adv-x="629" d="M70 225v419h96v-406q0 -88 33.5 -125.5t114.5 -37.5q82 0 116 37.5t34 125.5v406h95v-419q0 -209 -188 -232q-52 -48 -52 -88q0 -35 42 -35q20 0 38 6l10 -57q-22 -11 -59 -11q-44 0 -73.5 21.5t-29.5 63.5q0 51 43 94l-1 4q-219 10 -219 234z" />
<glyph unicode="&#x173;" horiz-adv-x="508" d="M64 145v317h91v-306q0 -86 80 -86q58 0 112 35v357h91v-462q-27 -18 -46.5 -44t-19.5 -51q0 -35 41 -35q20 0 38 6l11 -57q-22 -11 -60 -11q-44 0 -73.5 21.5t-29.5 63.5q0 61 69 117l-6 29q-68 -49 -147 -49q-73 0 -112 41t-39 114z" />
<glyph unicode="&#x174;" horiz-adv-x="887" d="M348 689l-34 29l96 112h68l96 -112l-34 -29l-96 86zM188 0q-40 117 -86 299t-76 345h99q51 -279 128 -556h4q70 294 116 556h144q46 -262 116 -556h4q77 277 128 556h96q-31 -166 -76.5 -347.5t-85.5 -296.5h-135q-65 265 -118 546h-4q-53 -281 -118 -546h-136z" />
<glyph unicode="&#x175;" horiz-adv-x="690" d="M249 513l-34 29l96 112h68l96 -112l-34 -29l-96 86zM139 0q-66 186 -115 462h90q39 -210 89 -379h4q47 195 78 379h124q34 -204 78 -379h4q50 173 88 379h87q-47 -275 -115 -462h-122q-46 183 -82 381h-4q-36 -198 -82 -381h-122z" />
<glyph unicode="&#x176;" horiz-adv-x="582" d="M243 0v240q-132 206 -220 404h105q64 -149 163 -314h4q99 167 163 314h101q-89 -197 -220 -404v-240h-96zM197 689l-34 29l96 112h68l96 -112l-34 -29l-96 86z" />
<glyph unicode="&#x177;" horiz-adv-x="462" d="M165 0q-32 71 -73 208t-68 254h92q50 -216 109 -381h4q71 200 120 381h89q-95 -357 -219 -644h-90q26 63 73 182h-37zM135 513l-34 29l96 112h68l96 -112l-34 -29l-96 86z" />
<glyph unicode="&#x178;" horiz-adv-x="582" d="M243 0v240q-132 206 -220 404h105q64 -149 163 -314h4q99 167 163 314h101q-89 -197 -220 -404v-240h-96zM343 711v85h82v-85h-82zM161 711v85h82v-85h-82z" />
<glyph unicode="&#x179;" horiz-adv-x="513" d="M219 693l-36 39l112 133l59 -62zM33 0v71l323 488h-313v85h436v-71l-323 -488h327v-85h-450z" />
<glyph unicode="&#x17a;" horiz-adv-x="409" d="M177 517l-36 39l112 133l59 -62zM34 0v57l220 325h-216v80h336v-57l-220 -325h222v-80h-342z" />
<glyph unicode="&#x17b;" horiz-adv-x="513" d="M33 0v71l323 488h-313v85h436v-71l-323 -488h327v-85h-450zM204 709v90h87v-90h-87z" />
<glyph unicode="&#x17c;" horiz-adv-x="409" d="M34 0v57l220 325h-216v80h336v-57l-220 -325h222v-80h-342zM162 533v90h87v-90h-87z" />
<glyph unicode="&#x17d;" horiz-adv-x="513" d="M214 697l-96 112l34 29l96 -86l96 86l34 -29l-96 -112h-68zM33 0v71l323 488h-313v85h436v-71l-323 -488h327v-85h-450z" />
<glyph unicode="&#x17e;" horiz-adv-x="409" d="M172 521l-96 112l34 29l96 -86l96 86l34 -29l-96 -112h-68zM34 0v57l220 325h-216v80h336v-57l-220 -325h222v-80h-342z" />
<glyph unicode="&#x17f;" horiz-adv-x="306" d="M98 0v386h-68v68l68 4v47q0 149 155 149q25 0 69 -6l-6 -79q-30 5 -58 5q-37 0 -53 -15.5t-16 -53.5v-505h-91z" />
<glyph unicode="&#x192;" horiz-adv-x="354" d="M-3 -102q29 -10 63 -10q31 0 44 14t13 49v435h-68v68l68 4v47q0 149 154 149q26 0 70 -6l-6 -79q-30 5 -58 5q-37 0 -53 -15.5t-16 -53.5v-43h101v-76h-101v-437q0 -141 -138 -141q-43 0 -87 14z" />
<glyph unicode="&#x1fc;" horiz-adv-x="769" d="M449 693l-36 39l112 133l59 -62zM8 0q152 381 290 644h428v-85h-262v-187h218v-83h-218v-204h262v-85h-358v151h-199l-60 -151h-101zM204 234h164v325h-15q-79 -160 -149 -325z" />
<glyph unicode="&#x1fd;" horiz-adv-x="703" d="M360 517l-36 39l112 133l59 -62zM35 134q0 72 49 108t137 36q41 0 82 -6v32q0 48 -22 68t-69 20q-53 0 -127 -20l-16 77q81 23 151 23q98 0 138 -55h4q50 55 129 55q84 0 128.5 -55.5t44.5 -150.5q0 -36 -6 -68h-264q4 -64 30.5 -96t81.5 -32q58 0 125 30l28 -74 q-79 -36 -156 -36q-103 0 -155 66q-60 -66 -160 -66q-66 0 -109.5 37t-43.5 107zM394 270h179q0 122 -85 122q-87 0 -94 -122zM128 137q0 -35 20.5 -53.5t55.5 -18.5q65 0 114 49q-13 41 -14 92q-45 5 -79 5q-97 0 -97 -74z" />
<glyph unicode="&#x1fe;" horiz-adv-x="648" d="M54 0l54 77q-63 81 -63 245q0 166 67 249t211 83q100 0 164 -41l22 31h84l-54 -77q63 -81 63 -245q0 -166 -67 -249t-211 -83q-100 0 -164 41l-22 -31h-84zM169 165h2l263 373q-41 31 -111 31q-96 0 -137.5 -59t-41.5 -188q0 -104 25 -157zM213 106q41 -31 111 -31 q96 0 137.5 59t41.5 188q0 104 -25 157h-2zM295 693l-36 39l112 133l59 -62z" />
<glyph unicode="&#x1ff;" horiz-adv-x="495" d="M42 0l43 59q-45 60 -45 172q0 241 208 241q71 0 118 -28l13 18h75l-43 -59q45 -60 45 -172q0 -241 -208 -241q-71 0 -118 28l-13 -18h-75zM143 144h4l168 230q-28 18 -67 18q-65 0 -90 -42t-25 -119q0 -56 10 -87zM181 88q28 -18 67 -18q65 0 90 42t25 119q0 56 -10 87 h-4zM219 517l-36 39l112 133l59 -62z" />
<glyph unicode="&#x218;" horiz-adv-x="489" d="M202 -50l78 4q2 -22 2 -33q0 -84 -46 -157l-36 7q9 39 9 94q0 46 -7 85zM35 9l14 85q95 -19 165 -19q147 0 147 103q0 32 -19 53t-40 30.5t-80 29.5q-5 2 -8 3q-42 15 -68.5 27.5t-54 33.5t-40.5 50.5t-13 68.5q0 83 60 131.5t172 48.5q74 0 164 -20l-14 -84 q-89 19 -154 19q-129 0 -129 -87q0 -13 3.5 -24.5t8 -19.5t15 -16.5t17.5 -13t23.5 -11.5t24.5 -10t29 -10l30 -10q39 -14 65 -26.5t53 -34t40.5 -53t13.5 -73.5q0 -90 -63.5 -140t-184.5 -50q-76 0 -177 19z" />
<glyph unicode="&#x219;" horiz-adv-x="405" d="M167 -50l78 4q2 -22 2 -33q0 -84 -46 -157l-36 7q9 39 9 94q0 46 -7 85zM34 7l13 80q79 -17 136 -17q99 0 99 57q0 25 -21.5 38t-73.5 30q-7 2 -11 3q-69 23 -105 52t-36 85q0 65 49 101t136 36q67 0 130 -15l-12 -79q-68 14 -120 14q-90 0 -90 -51q0 -8 2.5 -15 t8.5 -12.5t11.5 -9.5t17.5 -8.5t20.5 -7.5t25.5 -8t27 -9q69 -24 101.5 -53t32.5 -85q0 -69 -49.5 -106t-146.5 -37q-72 0 -145 17z" />
<glyph unicode="&#x21a;" horiz-adv-x="514" d="M215 -50l78 4q2 -22 2 -33q0 -84 -46 -157l-36 7q9 39 9 94q0 46 -7 85zM209 0v559h-189v85h474v-85h-189v-559h-96z" />
<glyph unicode="&#x21b;" horiz-adv-x="335" d="M158 -50l78 4q2 -22 2 -33q0 -84 -46 -157l-36 7q9 39 9 94q0 46 -7 85zM87 124v262h-68v68l72 4l7 136h80v-132h125v-76h-125v-257q0 -31 10.5 -45t36.5 -14q28 0 68 15l22 -72q-51 -22 -103 -22q-125 0 -125 133z" />
<glyph unicode="&#x2c6;" horiz-adv-x="338" d="M73 513l-34 29l96 112h68l96 -112l-34 -29l-96 86z" />
<glyph unicode="&#x2c7;" horiz-adv-x="338" d="M135 521l-96 112l34 29l96 -86l96 86l34 -29l-96 -112h-68z" />
<glyph unicode="&#x2d8;" horiz-adv-x="338" d="M169 524q-117 0 -119 118h51q0 -37 15.5 -54.5t52.5 -17.5q36 0 51.5 18t15.5 54h52q-2 -118 -119 -118z" />
<glyph unicode="&#x2d9;" horiz-adv-x="338" d="M125 533v90h87v-90h-87z" />
<glyph unicode="&#x2da;" horiz-adv-x="338" d="M169 517q-41 0 -65.5 24t-24.5 65t24.5 65t65.5 24t65.5 -24t24.5 -65t-24.5 -65t-65.5 -24zM169 554q49 0 49 52t-49 52t-49 -52t49 -52z" />
<glyph unicode="&#x2db;" horiz-adv-x="313" d="M83 -107q0 59 67 116h76q-70 -56 -70 -104q0 -35 41 -35q20 0 38 6l11 -57q-22 -11 -59 -11q-45 0 -74.5 21.5t-29.5 63.5z" />
<glyph unicode="&#x2dc;" horiz-adv-x="338" d="M63 540l-42 13q17 85 84 85q25 0 69 -19.5t60 -19.5q30 0 41 36l42 -13q-17 -85 -84 -85q-25 0 -69 19.5t-60 19.5q-30 0 -41 -36z" />
<glyph unicode="&#x2dd;" horiz-adv-x="338" d="M222 515l-39 31l92 144l65 -50zM84 515l-39 31l92 144l65 -50z" />
<glyph unicode="&#x394;" horiz-adv-x="616" d="M28 0v65l225 579h110l225 -579v-65h-560zM133 85h350l-173 448h-4z" />
<glyph unicode="&#x3a9;" horiz-adv-x="683" d="M38 0v85h139q-112 162 -112 300q0 124 71 196.5t206 72.5q134 0 205 -72.5t71 -196.5q0 -75 -27 -146t-84 -154h138v-85h-242v67q116 185 116 312q0 94 -45.5 142t-131.5 48t-132 -48t-46 -142q0 -127 116 -312v-67h-242z" />
<glyph unicode="&#x3bc;" horiz-adv-x="515" d="M71 68v394h92v-308q0 -84 79 -84q57 0 111 35v357h92v-462h-68l-8 39q-68 -49 -147 -49q-37 0 -62 13q-6 -108 -51 -185h-87q49 108 49 250z" />
<glyph unicode="&#x3c0;" horiz-adv-x="623" d="M137 0v378q-59 -7 -124 -35v81q94 38 209 38h370v-80h-97v-190q0 -119 21 -192h-91q-21 69 -21 193v189h-176v-382h-91z" />
<glyph unicode="&#x1e80;" horiz-adv-x="887" d="M188 0q-40 117 -86 299t-76 345h99q51 -279 128 -556h4q70 294 116 556h144q46 -262 116 -556h4q77 277 128 556h96q-31 -166 -76.5 -347.5t-85.5 -296.5h-135q-65 265 -118 546h-4q-53 -281 -118 -546h-136zM473 693l-135 110l59 62l112 -133z" />
<glyph unicode="&#x1e81;" horiz-adv-x="690" d="M139 0q-66 186 -115 462h90q39 -210 89 -379h4q47 195 78 379h124q34 -204 78 -379h4q50 173 88 379h87q-47 -275 -115 -462h-122q-46 183 -82 381h-4q-36 -198 -82 -381h-122zM374 517l-135 110l59 62l112 -133z" />
<glyph unicode="&#x1e82;" horiz-adv-x="887" d="M415 693l-36 39l112 133l59 -62zM188 0q-40 117 -86 299t-76 345h99q51 -279 128 -556h4q70 294 116 556h144q46 -262 116 -556h4q77 277 128 556h96q-31 -166 -76.5 -347.5t-85.5 -296.5h-135q-65 265 -118 546h-4q-53 -281 -118 -546h-136z" />
<glyph unicode="&#x1e83;" horiz-adv-x="690" d="M316 517l-36 39l112 133l59 -62zM139 0q-66 186 -115 462h90q39 -210 89 -379h4q47 195 78 379h124q34 -204 78 -379h4q50 173 88 379h87q-47 -275 -115 -462h-122q-46 183 -82 381h-4q-36 -198 -82 -381h-122z" />
<glyph unicode="&#x1e84;" horiz-adv-x="887" d="M494 711v85h82v-85h-82zM312 711v85h82v-85h-82zM188 0q-40 117 -86 299t-76 345h99q51 -279 128 -556h4q70 294 116 556h144q46 -262 116 -556h4q77 277 128 556h96q-31 -166 -76.5 -347.5t-85.5 -296.5h-135q-65 265 -118 546h-4q-53 -281 -118 -546h-136z" />
<glyph unicode="&#x1e85;" horiz-adv-x="690" d="M395 535v85h82v-85h-82zM213 535v85h82v-85h-82zM139 0q-66 186 -115 462h90q39 -210 89 -379h4q47 195 78 379h124q34 -204 78 -379h4q50 173 88 379h87q-47 -275 -115 -462h-122q-46 183 -82 381h-4q-36 -198 -82 -381h-122z" />
<glyph unicode="&#x1ef2;" horiz-adv-x="582" d="M243 0v240q-132 206 -220 404h105q64 -149 163 -314h4q99 167 163 314h101q-89 -197 -220 -404v-240h-96zM322 693l-135 110l59 62l112 -133z" />
<glyph unicode="&#x1ef3;" horiz-adv-x="462" d="M165 0q-32 71 -73 208t-68 254h92q50 -216 109 -381h4q71 200 120 381h89q-95 -357 -219 -644h-90q26 63 73 182h-37zM260 517l-135 110l59 62l112 -133z" />
<glyph unicode="&#x2000;" horiz-adv-x="444" />
<glyph unicode="&#x2001;" horiz-adv-x="888" />
<glyph unicode="&#x2002;" horiz-adv-x="444" />
<glyph unicode="&#x2003;" horiz-adv-x="888" />
<glyph unicode="&#x2004;" horiz-adv-x="296" />
<glyph unicode="&#x2005;" horiz-adv-x="222" />
<glyph unicode="&#x2006;" horiz-adv-x="148" />
<glyph unicode="&#x2007;" horiz-adv-x="148" />
<glyph unicode="&#x2008;" horiz-adv-x="111" />
<glyph unicode="&#x2009;" horiz-adv-x="177" />
<glyph unicode="&#x200a;" horiz-adv-x="49" />
<glyph unicode="&#x2010;" horiz-adv-x="296" d="M39 213v71h217v-71h-217z" />
<glyph unicode="&#x2011;" horiz-adv-x="296" d="M39 213v71h217v-71h-217z" />
<glyph unicode="&#x2012;" horiz-adv-x="296" d="M39 213v71h217v-71h-217z" />
<glyph unicode="&#x2013;" horiz-adv-x="656" d="M78 215v67h500v-67h-500z" />
<glyph unicode="&#x2014;" horiz-adv-x="739" d="M35 216v65h669v-65h-669z" />
<glyph unicode="&#x2018;" horiz-adv-x="212" d="M66 449q-3 23 -3 44q0 89 42 165l40 -5q-8 -58 -8 -112q0 -48 4 -89z" />
<glyph unicode="&#x2019;" horiz-adv-x="212" d="M67 451q8 58 8 112q0 48 -4 89l75 3q3 -22 3 -44q0 -89 -42 -165z" />
<glyph unicode="&#x201a;" horiz-adv-x="212" d="M67 -122q8 58 8 112q0 48 -4 89l75 3q3 -22 3 -44q0 -89 -42 -165z" />
<glyph unicode="&#x201c;" horiz-adv-x="345" d="M66 449q-3 23 -3 44q0 89 42 165l40 -5q-8 -58 -8 -112q0 -48 4 -89zM199 449q-3 23 -3 44q0 89 42 165l40 -5q-8 -58 -8 -112q0 -48 4 -89z" />
<glyph unicode="&#x201d;" horiz-adv-x="345" d="M67 451q8 58 8 112q0 48 -4 89l75 3q3 -22 3 -44q0 -89 -42 -165zM200 451q8 58 8 112q0 48 -4 89l75 3q3 -22 3 -44q0 -89 -42 -165z" />
<glyph unicode="&#x201e;" horiz-adv-x="345" d="M67 -122q8 58 8 112q0 48 -4 89l75 3q3 -22 3 -44q0 -89 -42 -165zM200 -122q8 58 8 112q0 48 -4 89l75 3q3 -22 3 -44q0 -89 -42 -165z" />
<glyph unicode="&#x2020;" horiz-adv-x="491" d="M208 0v414h-148v72h148v158h76v-158h148v-72h-148v-414h-76z" />
<glyph unicode="&#x2021;" horiz-adv-x="491" d="M60 158v72h148v184h-148v72h148v158h76v-158h148v-72h-148v-184h148v-72h-148v-158h-76v158h-148z" />
<glyph unicode="&#x2022;" horiz-adv-x="375" d="M188 219q-110 0 -110 107t110 107q109 0 109 -107t-109 -107z" />
<glyph unicode="&#x2026;" horiz-adv-x="636" d="M271 0v99h94v-99h-94zM468 0v99h94v-99h-94zM74 0v99h94v-99h-94z" />
<glyph unicode="&#x202f;" horiz-adv-x="177" />
<glyph unicode="&#x2030;" horiz-adv-x="1072" d="M183 343q-70 0 -106 41.5t-36 114.5q0 72 36 113.5t106 41.5t106 -41.5t36 -113.5q0 -73 -36 -114.5t-106 -41.5zM143 0l392 644h69l-392 -644h-69zM183 405q38 0 53.5 23t15.5 69q0 95 -69 95q-38 0 -53.5 -23t-15.5 -69q0 -95 69 -95zM755 145q0 73 36 114.5t106 41.5 t106 -41.5t36 -114.5q0 -72 -36 -113.5t-106 -41.5t-106 41.5t-36 113.5zM422 145q0 73 36 114.5t106 41.5t106 -41.5t36 -114.5q0 -72 -36 -113.5t-106 -41.5t-106 41.5t-36 113.5zM828 147q0 -95 69 -95q38 0 53.5 23t15.5 69q0 95 -69 95q-38 0 -53.5 -23t-15.5 -69z M495 147q0 -95 69 -95q38 0 53.5 23t15.5 69q0 95 -69 95q-38 0 -53.5 -23t-15.5 -69z" />
<glyph unicode="&#x2039;" horiz-adv-x="296" d="M74 157q-34 38 -34 74t34 74q27 31 128 124l48 -49q-80 -72 -106 -99q-29 -30 -29 -50t29 -50q26 -27 106 -99l-48 -49q-101 93 -128 124z" />
<glyph unicode="&#x203a;" horiz-adv-x="296" d="M44 82q80 72 106 99q29 30 29 50t-29 50q-26 27 -106 99l48 49q101 -93 128 -124q34 -38 34 -74t-34 -74q-27 -31 -128 -124z" />
<glyph unicode="&#x2044;" horiz-adv-x="439" d="M-11 0l392 644h69l-392 -644h-69z" />
<glyph unicode="&#x205f;" horiz-adv-x="222" />
<glyph unicode="&#x20ac;" horiz-adv-x="592" d="M35 220v72h66q-2 35 0 67h-65v72h73q39 223 272 223q72 0 153 -18l-14 -83q-89 16 -140 16q-77 0 -117 -36t-54 -102h225v-72h-234q-2 -34 0 -67h234v-72h-227q27 -144 167 -144q68 0 156 34l29 -79q-90 -41 -189 -41q-225 0 -263 230h-72z" />
<glyph unicode="&#x2122;" horiz-adv-x="735" d="M332 286q2 248 12 358h81l82 -211h4l83 211h79q10 -110 12 -358h-62q0 107 -4 263h-4l-77 -194h-62l-75 194h-4q-2 -65 -5 -263h-60zM132 286v301h-104v57h270v-57h-104v-301h-62z" />
<glyph unicode="&#x2202;" horiz-adv-x="522" d="M47 168q0 102 66 174.5t179 72.5q54 0 98 -18q-2 96 -28 138t-94 42q-64 0 -158 -36l-25 72q109 41 190 41q114 0 160.5 -70.5t46.5 -205.5q0 -79 -14 -147t-43.5 -123t-80 -86.5t-117.5 -31.5q-83 0 -131.5 46.5t-48.5 131.5zM140 170q0 -49 25.5 -74.5t68.5 -25.5 q136 0 153 250q-38 18 -84 18q-78 0 -120.5 -51.5t-42.5 -116.5z" />
<glyph unicode="&#x2206;" horiz-adv-x="616" d="M28 0v65l225 579h110l225 -579v-65h-560zM133 85h350l-173 448h-4z" />
<glyph unicode="&#x220f;" horiz-adv-x="694" d="M129 0v559h-92v85h620v-85h-92v-559h-96v559h-244v-559h-96z" />
<glyph unicode="&#x2211;" horiz-adv-x="482" d="M50 0v61l161 283l-153 239v61h377v-85h-257l135 -212l-149 -262h274v-85h-388z" />
<glyph unicode="&#x221a;" horiz-adv-x="618" d="M32 223l-29 60l151 79l156 -343h4l291 780h85l-330 -881h-95l-158 344z" />
<glyph unicode="&#x221e;" horiz-adv-x="658" d="M180 61q-75 0 -108.5 48t-33.5 122t34 122t109 48q101 0 146 -96h4q42 96 147 96q75 0 108.5 -48t33.5 -122t-34 -122t-109 -48q-101 0 -146 96h-4q-42 -96 -147 -96zM365 231q11 -25 18.5 -39.5t20.5 -31t30 -24.5t39 -8q76 0 76 103t-76 103q-22 0 -39 -8t-30 -24.5 t-20.5 -31t-18.5 -39.5zM185 128q22 0 39 8t30 24.5t20.5 31t18.5 39.5q-11 25 -18.5 39.5t-20.5 31t-30 24.5t-39 8q-76 0 -76 -103t76 -103z" />
<glyph unicode="&#x222b;" horiz-adv-x="342" d="M-14 -107q32 -5 58 -5q37 0 53 15.5t16 53.5v548q0 149 153 149q27 0 71 -6l-6 -79q-32 5 -58 5q-37 0 -53 -15.5t-16 -53.5v-548q0 -149 -153 -149q-27 0 -71 6z" />
<glyph unicode="&#x2248;" horiz-adv-x="586" d="M108 252l-51 40q46 88 130 88q37 0 108 -30t102 -30q47 0 82 49l51 -40q-46 -88 -130 -88q-38 0 -108 30t-102 30q-47 0 -82 -49zM108 94l-51 40q46 88 130 88q37 0 108 -30t102 -30q47 0 82 49l51 -40q-46 -88 -130 -88q-38 0 -108 30t-102 30q-47 0 -82 -49z" />
<glyph unicode="&#x2260;" horiz-adv-x="586" d="M63 106v72h168l62 106h-230v72h272l62 106h63l-62 -106h126v-72h-168l-62 -106h230v-72h-272l-62 -106h-63l62 106h-126z" />
<glyph unicode="&#x2264;" horiz-adv-x="586" d="M63 0v72h460v-72h-460zM63 325v54l461 209v-88l-328 -146v-4l328 -146v-88z" />
<glyph unicode="&#x2265;" horiz-adv-x="586" d="M63 116v88l328 146v4l-328 146v88l461 -209v-54zM63 0v72h460v-72h-460z" />
<glyph unicode="&#x25ca;" horiz-adv-x="556" d="M237 0l-187 322l187 322h82l187 -322l-187 -322h-82zM276 111h4l122 211l-122 211h-4l-122 -211z" />
<glyph unicode="&#x25fc;" horiz-adv-x="460" d="M0 460h460v-460h-460v460z" />
<glyph unicode="&#xf8ff;" horiz-adv-x="1000" d="M481 674q-2 12 -2 27q0 63 51 120t120 66l15 1q2 -14 2 -25q0 -74 -56 -132q-55 -57 -130 -57zM206 96q-48 64 -77 148t-29 169q0 124 67 197q68 74 177 74q39 0 94 -21q42 -16 56 -16q12 0 79 23q42 14 88 14q116 0 187 -87q-101 -74 -101 -176q0 -118 125 -183 q-35 -99 -98 -171t-116 -72q-21 0 -82 22q-46 17 -77 17q-30 0 -65 -13q-68 -26 -87 -26q-66 0 -141 101z" />
<glyph horiz-adv-x="478" d="M14 0q75 268 166 502h118q96 -250 166 -502h-92l-31 111h-205l-32 -111h-90zM157 188h162q-39 126 -79 233h-4q-40 -107 -79 -233z" />
<glyph horiz-adv-x="476" d="M64 4v492q95 13 163 13q199 0 199 -134q0 -81 -78 -108v-4q91 -26 91 -122q0 -149 -212 -149q-74 0 -163 12zM154 293h86q47 0 70.5 16t23.5 54q0 40 -27 54t-82 14q-37 0 -71 -3v-135zM154 73q39 -4 73 -4q61 0 90.5 15.5t29.5 61.5q0 41 -26 58.5t-78 17.5h-89v-149z " />
<glyph horiz-adv-x="439" d="M37 251q0 125 55 191.5t182 66.5q58 0 130 -13l-13 -77q-64 12 -116 12q-85 0 -115.5 -45t-30.5 -137q0 -85 28.5 -131.5t111.5 -46.5q59 0 128 26l27 -73q-78 -32 -158 -32q-121 0 -175 67t-54 192z" />
<glyph horiz-adv-x="511" d="M64 2v494q81 13 156 13q133 0 195 -63.5t62 -195.5t-63 -195t-199 -63q-77 0 -151 10zM154 73q27 -3 61 -3q93 0 131.5 41.5t38.5 137.5q0 97 -38 139.5t-128 42.5q-31 0 -65 -4v-354z" />
<glyph horiz-adv-x="415" d="M64 0v502h317v-78h-227v-128h192v-77h-192v-141h227v-78h-317z" />
<glyph horiz-adv-x="411" d="M64 0v502h319v-78h-229v-137h193v-77h-193v-210h-90z" />
<glyph horiz-adv-x="498" d="M39 254q0 124 57.5 189.5t191.5 65.5q66 0 138 -15l-12 -75q-74 12 -127 12q-91 0 -123.5 -44.5t-32.5 -132.5q0 -86 29.5 -135t109.5 -49q43 0 85 13v178h90v-231q-83 -38 -177 -38q-229 0 -229 262z" />
<glyph horiz-adv-x="534" d="M64 0v502h90v-205h226v205h90v-502h-90v219h-226v-219h-90z" />
<glyph horiz-adv-x="218" d="M64 0v502h90v-502h-90z" />
<glyph horiz-adv-x="338" d="M10 2l10 76q50 -8 88 -8q43 0 61 19.5t18 65.5v347h90v-347q0 -86 -42 -124.5t-127 -38.5q-48 0 -98 10z" />
<glyph horiz-adv-x="474" d="M64 0v502h90v-225l2 -1q125 131 204 226h109l1 -2q-93 -107 -212 -228q107 -143 220 -270l-2 -2h-114q-89 104 -182 228h-26v-228h-90z" />
<glyph horiz-adv-x="393" d="M64 0v502h90v-424h224v-78h-314z" />
<glyph horiz-adv-x="636" d="M53 0q7 308 27 502h121l115 -309h4l114 309h124q17 -150 25 -502h-89q-7 218 -16 378h-4l-112 -298h-91l-111 298h-4q-11 -172 -16 -378h-87z" />
<glyph horiz-adv-x="557" d="M64 0v502h125l212 -376h4v376h88v-502h-125l-212 376h-4v-376h-88z" />
<glyph horiz-adv-x="534" d="M36 251q0 129 55 193.5t176 64.5t176 -64.5t55 -193.5t-55 -194t-176 -65t-176 65t-55 194zM267 70q76 0 107.5 44t31.5 137t-31.5 136.5t-107.5 43.5t-107.5 -43.5t-31.5 -136.5t31.5 -137t107.5 -44z" />
<glyph horiz-adv-x="463" d="M64 0v497q88 13 161 13q215 0 215 -165q0 -169 -213 -169q-21 0 -73 4v-180h-90zM154 255q31 -3 70 -3q63 0 93.5 19t30.5 71q0 51 -30.5 70.5t-92.5 19.5q-42 0 -71 -4v-173z" />
<glyph horiz-adv-x="534" d="M144 16q-52 31 -80 81.5t-28 151.5q0 130 55 195t175 65q121 0 176.5 -64t55.5 -190q0 -240 -205 -245l-1 -4q74 -10 152 -41l-37 -76q-48 26 -139.5 67t-123.5 60zM267 70q76 0 107.5 44t31.5 137t-31.5 136.5t-107.5 43.5t-107.5 -43.5t-31.5 -136.5t31.5 -137 t107.5 -44z" />
<glyph d="M64 0v496q95 13 163 13q204 0 204 -156q0 -111 -105 -146q54 -100 124 -205l-1 -2h-105q-61 98 -110 192q-38 0 -80 4v-196h-90zM154 269q32 -4 69 -4q58 0 87 18.5t29 65.5t-28 65t-88 18q-38 0 -69 -4v-159z" />
<glyph horiz-adv-x="405" d="M25 7l12 78q79 -15 140 -15q113 0 113 69q0 32 -22.5 46.5t-92.5 38.5q-36 13 -55.5 22t-43.5 25.5t-34.5 40t-10.5 55.5q0 66 50 104t147 38q63 0 131 -14l-12 -77q-74 13 -125 13q-99 0 -99 -58q0 -10 2.5 -18.5t10 -15.5t13 -11.5t19 -10.5t21.5 -8.5t26.5 -9 t27.5 -9.5q30 -10 51 -20t43 -26.5t33.5 -42t11.5 -58.5q0 -71 -53 -111t-154 -40q-64 0 -150 15z" />
<glyph horiz-adv-x="425" d="M168 0v424h-152v78h394v-78h-152v-424h-90z" />
<glyph horiz-adv-x="516" d="M54 172v330h90v-317q0 -62 26 -88.5t89 -26.5q62 0 88.5 27t26.5 88v317h88v-330q0 -180 -204 -180t-204 180z" />
<glyph horiz-adv-x="468" d="M175 0q-85 210 -163 502h93q65 -240 128 -420h4q61 174 128 420h91q-73 -281 -163 -502h-118z" />
<glyph horiz-adv-x="735" d="M151 0q-74 211 -131 502h92q45 -230 99 -419h4q49 205 87 419h133q40 -225 88 -419h4q51 173 99 419h89q-53 -280 -131 -502h-125q-53 215 -89 410h-4q-39 -203 -90 -410h-125z" />
<glyph horiz-adv-x="497" d="M16 0q97 155 176 261q-83 111 -163 241h102q46 -77 117 -174h4q69 94 118 174h98q-69 -114 -162 -241q85 -115 175 -261h-102q-72 114 -130 195h-4q-59 -83 -129 -195h-100z" />
<glyph horiz-adv-x="492" d="M201 0v187q-109 164 -181 315h97q55 -115 129 -232h4q70 111 128 232h94q-72 -151 -181 -315v-187h-90z" />
<glyph horiz-adv-x="429" d="M30 0v65l254 359h-246v78h359v-65l-254 -359h258v-78h-371z" />
<glyph horiz-adv-x="478" d="M14 0q75 268 166 502h118q96 -250 166 -502h-92l-31 111h-205l-32 -111h-90zM157 188h162q-39 126 -79 233h-4q-40 -107 -79 -233zM268 551l-135 110l59 62l112 -133z" />
<glyph horiz-adv-x="478" d="M210 551l-36 39l112 133l59 -62zM14 0q75 268 166 502h118q96 -250 166 -502h-92l-31 111h-205l-32 -111h-90zM157 188h162q-39 126 -79 233h-4q-40 -107 -79 -233z" />
<glyph horiz-adv-x="478" d="M143 547l-34 29l96 112h68l96 -112l-34 -29l-96 86zM14 0q75 268 166 502h118q96 -250 166 -502h-92l-31 111h-205l-32 -111h-90zM157 188h162q-39 126 -79 233h-4q-40 -107 -79 -233z" />
<glyph horiz-adv-x="478" d="M14 0q75 268 166 502h118q96 -250 166 -502h-92l-31 111h-205l-32 -111h-90zM157 188h162q-39 126 -79 233h-4q-40 -107 -79 -233zM133 574l-42 13q17 85 84 85q25 0 69 -19.5t60 -19.5q30 0 41 36l42 -13q-17 -85 -84 -85q-25 0 -69 19.5t-60 19.5q-30 0 -41 -36z" />
<glyph horiz-adv-x="478" d="M289 569v85h82v-85h-82zM107 569v85h82v-85h-82zM14 0q75 268 166 502h118q96 -250 166 -502h-92l-31 111h-205l-32 -111h-90zM157 188h162q-39 126 -79 233h-4q-40 -107 -79 -233z" />
<glyph horiz-adv-x="478" d="M125 580v62h228v-62h-228zM14 0q75 268 166 502h118q96 -250 166 -502h-92l-31 111h-205l-32 -111h-90zM157 188h162q-39 126 -79 233h-4q-40 -107 -79 -233z" />
<glyph horiz-adv-x="478" d="M14 0q75 268 166 502h118q96 -250 166 -502h-92l-31 111h-205l-32 -111h-90zM157 188h162q-39 126 -79 233h-4q-40 -107 -79 -233zM239 558q-117 0 -119 118h51q0 -37 15.5 -54.5t52.5 -17.5q36 0 51.5 18t15.5 54h52q-2 -118 -119 -118z" />
<glyph horiz-adv-x="478" d="M239 551q-41 0 -65.5 24t-24.5 65t24.5 65t65.5 24t65.5 -24t24.5 -65t-24.5 -65t-65.5 -24zM239 588q49 0 49 52t-49 52t-49 -52t49 -52zM14 0q75 268 166 502h118q96 -250 166 -502h-92l-31 111h-205l-32 -111h-90zM157 188h162q-39 126 -79 233h-4q-40 -107 -79 -233z " />
<glyph horiz-adv-x="478" d="M14 0q75 268 166 502h118q96 -250 166 -502q-41 -16 -64 -41.5t-23 -53.5q0 -35 41 -35q20 0 38 6l11 -57q-22 -11 -60 -11q-44 0 -73.5 21.5t-29.5 63.5q0 60 66 114l-29 104h-205l-32 -111h-90zM157 188h162q-39 126 -79 233h-4q-40 -107 -79 -233z" />
<glyph horiz-adv-x="639" d="M5 0q118 280 237 502h363v-78h-209v-128h175v-77h-175v-141h209v-78h-299v111h-160l-47 -111h-94zM179 188h127v236h-12q-61 -115 -115 -236z" />
<glyph horiz-adv-x="639" d="M5 0q118 280 237 502h363v-78h-209v-128h175v-77h-175v-141h209v-78h-299v111h-160l-47 -111h-94zM179 188h127v236h-12q-61 -115 -115 -236zM369 551l-36 39l112 133l59 -62z" />
<glyph horiz-adv-x="439" d="M236 551l-36 39l112 133l59 -62zM37 251q0 125 55 191.5t182 66.5q58 0 130 -13l-13 -77q-64 12 -116 12q-85 0 -115.5 -45t-30.5 -137q0 -85 28.5 -131.5t111.5 -46.5q59 0 128 26l27 -73q-78 -32 -158 -32q-121 0 -175 67t-54 192z" />
<glyph horiz-adv-x="439" d="M151 547l-34 29l96 112h68l96 -112l-34 -29l-96 86zM37 251q0 125 55 191.5t182 66.5q58 0 130 -13l-13 -77q-64 12 -116 12q-85 0 -115.5 -45t-30.5 -137q0 -85 28.5 -131.5t111.5 -46.5q59 0 128 26l27 -73q-78 -32 -158 -32q-121 0 -175 67t-54 192z" />
<glyph horiz-adv-x="439" d="M213 555l-96 112l34 29l96 -86l96 86l34 -29l-96 -112h-68zM37 251q0 125 55 191.5t182 66.5q58 0 130 -13l-13 -77q-64 12 -116 12q-85 0 -115.5 -45t-30.5 -137q0 -85 28.5 -131.5t111.5 -46.5q59 0 128 26l27 -73q-78 -32 -158 -32q-121 0 -175 67t-54 192z" />
<glyph horiz-adv-x="439" d="M37 251q0 125 55 191.5t182 66.5q58 0 130 -13l-13 -77q-64 12 -116 12q-85 0 -115.5 -45t-30.5 -137q0 -85 28.5 -131.5t111.5 -46.5q59 0 128 26l27 -73q-78 -32 -158 -32q-121 0 -175 67t-54 192zM203 567v90h87v-90h-87z" />
<glyph horiz-adv-x="439" d="M37 251q0 125 55 191.5t182 66.5q58 0 130 -13l-13 -77q-64 12 -116 12q-85 0 -115.5 -45t-30.5 -137q0 -85 28.5 -131.5t111.5 -46.5q59 0 128 26l27 -73q-78 -32 -158 -32q-121 0 -175 67t-54 192zM218 -41q61 0 86.5 -17t25.5 -53q0 -38 -25.5 -59.5t-67.5 -21.5 q-28 0 -50 6l8 39q20 -4 34 -4q50 0 50 38q0 18 -14.5 26.5t-53.5 8.5z" />
<glyph horiz-adv-x="511" d="M64 2v494q81 13 156 13q133 0 195 -63.5t62 -195.5t-63 -195t-199 -63q-77 0 -151 10zM154 73q27 -3 61 -3q93 0 131.5 41.5t38.5 137.5q0 97 -38 139.5t-128 42.5q-31 0 -65 -4v-354zM206 555l-96 112l34 29l96 -86l96 86l34 -29l-96 -112h-68z" />
<glyph horiz-adv-x="515" d="M69 2v218h-61v76h61v200q81 13 156 13q133 0 195 -63.5t62 -195.5t-63 -195t-199 -63q-78 0 -151 10zM159 73q29 -3 61 -3q93 0 131.5 41.5t38.5 137.5q0 97 -38 139.5t-129 42.5q-30 0 -64 -4v-131h121v-76h-121v-147z" />
<glyph horiz-adv-x="415" d="M64 0v502h317v-78h-227v-128h192v-77h-192v-141h227v-78h-317zM251 551l-135 110l59 62l112 -133z" />
<glyph horiz-adv-x="415" d="M64 0v502h317v-78h-227v-128h192v-77h-192v-141h227v-78h-317zM193 551l-36 39l112 133l59 -62z" />
<glyph horiz-adv-x="415" d="M126 547l-34 29l96 112h68l96 -112l-34 -29l-96 86zM64 0v502h317v-78h-227v-128h192v-77h-192v-141h227v-78h-317z" />
<glyph horiz-adv-x="415" d="M188 555l-96 112l34 29l96 -86l96 86l34 -29l-96 -112h-68zM64 0v502h317v-78h-227v-128h192v-77h-192v-141h227v-78h-317z" />
<glyph horiz-adv-x="415" d="M272 569v85h82v-85h-82zM90 569v85h82v-85h-82zM64 0v502h317v-78h-227v-128h192v-77h-192v-141h227v-78h-317z" />
<glyph horiz-adv-x="415" d="M64 0v502h317v-78h-227v-128h192v-77h-192v-141h227v-78h-317zM108 580v62h228v-62h-228z" />
<glyph horiz-adv-x="415" d="M64 0v502h317v-78h-227v-128h192v-77h-192v-141h227v-78h-317zM222 558q-117 0 -119 118h51q0 -37 15.5 -54.5t52.5 -17.5q36 0 51.5 18t15.5 54h52q-2 -118 -119 -118z" />
<glyph horiz-adv-x="415" d="M64 0v502h317v-78h-227v-128h192v-77h-192v-141h227v-78h-317zM178 567v90h87v-90h-87z" />
<glyph horiz-adv-x="415" d="M64 0v502h317v-78h-227v-128h192v-77h-192v-141h227v-78q-31 -17 -53.5 -43t-22.5 -52q0 -35 41 -35q22 0 38 6l11 -57q-22 -11 -59 -11q-45 0 -74.5 21.5t-29.5 63.5q0 58 55 103l-1 4h-222z" />
<glyph horiz-adv-x="498" d="M161 547l-34 29l96 112h68l96 -112l-34 -29l-96 86zM39 254q0 124 57.5 189.5t191.5 65.5q66 0 138 -15l-12 -75q-74 12 -127 12q-91 0 -123.5 -44.5t-32.5 -132.5q0 -86 29.5 -135t109.5 -49q43 0 85 13v178h90v-231q-83 -38 -177 -38q-229 0 -229 262z" />
<glyph horiz-adv-x="498" d="M39 254q0 124 57.5 189.5t191.5 65.5q66 0 138 -15l-12 -75q-74 12 -127 12q-91 0 -123.5 -44.5t-32.5 -132.5q0 -86 29.5 -135t109.5 -49q43 0 85 13v178h90v-231q-83 -38 -177 -38q-229 0 -229 262zM257 558q-117 0 -119 118h51q0 -37 15.5 -54.5t52.5 -17.5 q36 0 51.5 18t15.5 54h52q-2 -118 -119 -118z" />
<glyph horiz-adv-x="498" d="M213 567v90h87v-90h-87zM39 254q0 124 57.5 189.5t191.5 65.5q66 0 138 -15l-12 -75q-74 12 -127 12q-91 0 -123.5 -44.5t-32.5 -132.5q0 -86 29.5 -135t109.5 -49q43 0 85 13v178h90v-231q-83 -38 -177 -38q-229 0 -229 262z" />
<glyph horiz-adv-x="498" d="M228 -50l78 4q2 -22 2 -33q0 -84 -46 -157l-36 7q9 39 9 94q0 46 -7 85zM39 254q0 124 57.5 189.5t191.5 65.5q66 0 138 -15l-12 -75q-74 12 -127 12q-91 0 -123.5 -44.5t-32.5 -132.5q0 -86 29.5 -135t109.5 -49q43 0 85 13v178h90v-231q-83 -38 -177 -38 q-229 0 -229 262z" />
<glyph horiz-adv-x="534" d="M171 547l-34 29l96 112h68l96 -112l-34 -29l-96 86zM64 0v502h90v-205h226v205h90v-502h-90v219h-226v-219h-90z" />
<glyph horiz-adv-x="544" d="M69 0v361h-43v76h43v65h90v-65h226v65h90v-65h43v-76h-43v-361h-90v219h-226v-219h-90zM159 297h226v64h-226v-64z" />
<glyph horiz-adv-x="218" d="M64 0v502h90v-502h-90z" />
<glyph horiz-adv-x="218" d="M64 0v502h90v-502h-90zM138 551l-135 110l59 62l112 -133z" />
<glyph horiz-adv-x="218" d="M80 551l-36 39l112 133l59 -62zM64 0v502h90v-502h-90z" />
<glyph horiz-adv-x="218" d="M13 547l-34 29l96 112h68l96 -112l-34 -29l-96 86zM64 0v502h90v-502h-90z" />
<glyph horiz-adv-x="218" d="M64 0v502h90v-502h-90zM3 574l-42 13q17 85 84 85q25 0 69 -19.5t60 -19.5q30 0 41 36l42 -13q-17 -85 -84 -85q-25 0 -69 19.5t-60 19.5q-30 0 -41 -36z" />
<glyph horiz-adv-x="218" d="M159 569v85h82v-85h-82zM-23 569v85h82v-85h-82zM64 0v502h90v-502h-90z" />
<glyph horiz-adv-x="218" d="M-5 580v62h228v-62h-228zM64 0v502h90v-502h-90z" />
<glyph horiz-adv-x="218" d="M64 0v502h90v-502h-90zM109 558q-117 0 -119 118h51q0 -37 15.5 -54.5t52.5 -17.5q36 0 51.5 18t15.5 54h52q-2 -118 -119 -118z" />
<glyph horiz-adv-x="218" d="M64 0v502h90v-502h-90zM65 567v90h87v-90h-87z" />
<glyph horiz-adv-x="218" d="M64 2v500h90v-502q-64 -42 -64 -92q0 -38 42 -38q22 0 41 7l10 -58q-24 -11 -65 -11q-43 0 -72 21.5t-29 65.5q0 55 47 107z" />
<glyph horiz-adv-x="338" d="M134 547l-34 29l96 112h68l96 -112l-34 -29l-96 86zM10 2l10 76q50 -8 88 -8q43 0 61 19.5t18 65.5v347h90v-347q0 -86 -42 -124.5t-127 -38.5q-48 0 -98 10z" />
<glyph horiz-adv-x="474" d="M215 -50l78 4q2 -22 2 -33q0 -84 -46 -157l-36 7q9 39 9 94q0 46 -7 85zM64 0v502h90v-225l2 -1q125 131 204 226h109l1 -2q-93 -107 -212 -228q107 -143 220 -270l-2 -2h-114q-89 104 -182 228h-26v-228h-90z" />
<glyph horiz-adv-x="474" d="M64 0v502h90v-225l2 -1q125 131 204 226h109l1 -2q-93 -107 -212 -228q107 -143 220 -270l-2 -2h-114q-89 104 -182 228h-26v-228h-90z" />
<glyph horiz-adv-x="393" d="M64 0v502h90v-424h224v-78h-314zM94 551l-36 39l112 133l59 -62z" />
<glyph horiz-adv-x="393" d="M64 0v502h90v-424h224v-78h-314zM227 517l78 4q2 -22 2 -33q0 -84 -46 -157l-36 7q9 39 9 94q0 46 -7 85z" />
<glyph horiz-adv-x="393" d="M64 0v502h90v-424h224v-78h-314zM183 -50l78 4q2 -22 2 -33q0 -84 -46 -157l-36 7q9 39 9 94q0 46 -7 85z" />
<glyph horiz-adv-x="393" d="M64 0v502h90v-424h224v-78h-314zM261 232v90h87v-90h-87z" />
<glyph horiz-adv-x="401" d="M72 0v161l-56 -40v79l56 40v262h90v-196l85 61v-79l-85 -61v-149h224v-78h-314z" />
<glyph horiz-adv-x="557" d="M250 551l-36 39l112 133l59 -62zM64 0v502h125l212 -376h4v376h88v-502h-125l-212 376h-4v-376h-88z" />
<glyph horiz-adv-x="557" d="M245 555l-96 112l34 29l96 -86l96 86l34 -29l-96 -112h-68zM64 0v502h125l212 -376h4v376h88v-502h-125l-212 376h-4v-376h-88z" />
<glyph horiz-adv-x="557" d="M64 0v502h125l212 -376h4v376h88v-502h-125l-212 376h-4v-376h-88zM173 574l-42 13q17 85 84 85q25 0 69 -19.5t60 -19.5q30 0 41 36l42 -13q-17 -85 -84 -85q-25 0 -69 19.5t-60 19.5q-30 0 -41 -36z" />
<glyph horiz-adv-x="557" d="M77 729l78 4q2 -22 2 -33q0 -84 -46 -157l-36 7q9 39 9 94q0 46 -7 85zM64 0v502h125l212 -376h4v376h88v-502h-125l-212 376h-4v-376h-88z" />
<glyph horiz-adv-x="557" d="M243 -50l78 4q2 -22 2 -33q0 -84 -46 -157l-36 7q9 39 9 94q0 46 -7 85zM64 0v502h125l212 -376h4v376h88v-502h-125l-212 376h-4v-376h-88z" />
<glyph horiz-adv-x="534" d="M296 551l-135 110l59 62l112 -133zM36 251q0 129 55 193.5t176 64.5t176 -64.5t55 -193.5t-55 -194t-176 -65t-176 65t-55 194zM267 70q76 0 107.5 44t31.5 137t-31.5 136.5t-107.5 43.5t-107.5 -43.5t-31.5 -136.5t31.5 -137t107.5 -44z" />
<glyph horiz-adv-x="534" d="M238 551l-36 39l112 133l59 -62zM36 251q0 129 55 193.5t176 64.5t176 -64.5t55 -193.5t-55 -194t-176 -65t-176 65t-55 194zM267 70q76 0 107.5 44t31.5 137t-31.5 136.5t-107.5 43.5t-107.5 -43.5t-31.5 -136.5t31.5 -137t107.5 -44z" />
<glyph horiz-adv-x="534" d="M171 547l-34 29l96 112h68l96 -112l-34 -29l-96 86zM36 251q0 129 55 193.5t176 64.5t176 -64.5t55 -193.5t-55 -194t-176 -65t-176 65t-55 194zM267 70q76 0 107.5 44t31.5 137t-31.5 136.5t-107.5 43.5t-107.5 -43.5t-31.5 -136.5t31.5 -137t107.5 -44z" />
<glyph horiz-adv-x="534" d="M36 251q0 129 55 193.5t176 64.5t176 -64.5t55 -193.5t-55 -194t-176 -65t-176 65t-55 194zM267 70q76 0 107.5 44t31.5 137t-31.5 136.5t-107.5 43.5t-107.5 -43.5t-31.5 -136.5t31.5 -137t107.5 -44zM161 574l-42 13q17 85 84 85q25 0 69 -19.5t60 -19.5q30 0 41 36 l42 -13q-17 -85 -84 -85q-25 0 -69 19.5t-60 19.5q-30 0 -41 -36z" />
<glyph horiz-adv-x="534" d="M317 569v85h82v-85h-82zM135 569v85h82v-85h-82zM36 251q0 129 55 193.5t176 64.5t176 -64.5t55 -193.5t-55 -194t-176 -65t-176 65t-55 194zM267 70q76 0 107.5 44t31.5 137t-31.5 136.5t-107.5 43.5t-107.5 -43.5t-31.5 -136.5t31.5 -137t107.5 -44z" />
<glyph horiz-adv-x="534" d="M153 580v62h228v-62h-228zM36 251q0 129 55 193.5t176 64.5t176 -64.5t55 -193.5t-55 -194t-176 -65t-176 65t-55 194zM267 70q76 0 107.5 44t31.5 137t-31.5 136.5t-107.5 43.5t-107.5 -43.5t-31.5 -136.5t31.5 -137t107.5 -44z" />
<glyph horiz-adv-x="534" d="M36 251q0 129 55 193.5t176 64.5t176 -64.5t55 -193.5t-55 -194t-176 -65t-176 65t-55 194zM267 70q76 0 107.5 44t31.5 137t-31.5 136.5t-107.5 43.5t-107.5 -43.5t-31.5 -136.5t31.5 -137t107.5 -44zM267 558q-117 0 -119 118h51q0 -37 15.5 -54.5t52.5 -17.5 q36 0 51.5 18t15.5 54h52q-2 -118 -119 -118z" />
<glyph horiz-adv-x="534" d="M320 549l-39 31l92 144l65 -50zM182 549l-39 31l92 144l65 -50zM36 251q0 129 55 193.5t176 64.5t176 -64.5t55 -193.5t-55 -194t-176 -65t-176 65t-55 194zM267 70q76 0 107.5 44t31.5 137t-31.5 136.5t-107.5 43.5t-107.5 -43.5t-31.5 -136.5t31.5 -137t107.5 -44z" />
<glyph horiz-adv-x="534" d="M238 551l-36 39l112 133l59 -62zM42 0l46 61q-52 64 -52 189q0 129 55.5 194t175.5 65q82 0 133 -30l17 23h76l-47 -62q52 -62 52 -189q0 -129 -55 -194t-176 -65q-82 0 -133 30l-16 -22h-76zM144 141h3l202 270q-30 20 -82 20q-76 0 -107.5 -44t-31.5 -137 q0 -72 16 -109zM185 90q30 -20 82 -20q76 0 107.5 44t31.5 137q0 72 -16 109h-3z" />
<glyph horiz-adv-x="534" d="M42 0l46 61q-52 64 -52 189q0 129 55.5 194t175.5 65q82 0 133 -30l17 23h76l-47 -62q52 -62 52 -189q0 -129 -55 -194t-176 -65q-82 0 -133 30l-16 -22h-76zM144 141h3l202 270q-30 20 -82 20q-76 0 -107.5 -44t-31.5 -137q0 -72 16 -109zM185 90q30 -20 82 -20 q76 0 107.5 44t31.5 137q0 72 -16 109h-3z" />
<glyph horiz-adv-x="657" d="M37 251q0 128 57.5 189.5t192.5 61.5h336v-78h-209v-128h175v-77h-175v-141h209v-78h-339q-134 0 -190.5 62t-56.5 189zM129 251q0 -95 33 -134t117 -39h45v346h-43q-85 0 -118.5 -39t-33.5 -134z" />
<glyph d="M208 551l-36 39l112 133l59 -62zM64 0v496q95 13 163 13q204 0 204 -156q0 -111 -105 -146q54 -100 124 -205l-1 -2h-105q-61 98 -110 192q-38 0 -80 4v-196h-90zM154 269q32 -4 69 -4q58 0 87 18.5t29 65.5t-28 65t-88 18q-38 0 -69 -4v-159z" />
<glyph d="M203 555l-96 112l34 29l96 -86l96 86l34 -29l-96 -112h-68zM64 0v496q95 13 163 13q204 0 204 -156q0 -111 -105 -146q54 -100 124 -205l-1 -2h-105q-61 98 -110 192q-38 0 -80 4v-196h-90zM154 269q32 -4 69 -4q58 0 87 18.5t29 65.5t-28 65t-88 18q-38 0 -69 -4v-159z " />
<glyph d="M201 -50l78 4q2 -22 2 -33q0 -84 -46 -157l-36 7q9 39 9 94q0 46 -7 85zM64 0v496q95 13 163 13q204 0 204 -156q0 -111 -105 -146q54 -100 124 -205l-1 -2h-105q-61 98 -110 192q-38 0 -80 4v-196h-90zM154 269q32 -4 69 -4q58 0 87 18.5t29 65.5t-28 65t-88 18 q-38 0 -69 -4v-159z" />
<glyph horiz-adv-x="405" d="M169 551l-36 39l112 133l59 -62zM25 7l12 78q79 -15 140 -15q113 0 113 69q0 32 -22.5 46.5t-92.5 38.5q-36 13 -55.5 22t-43.5 25.5t-34.5 40t-10.5 55.5q0 66 50 104t147 38q63 0 131 -14l-12 -77q-74 13 -125 13q-99 0 -99 -58q0 -10 2.5 -18.5t10 -15.5t13 -11.5 t19 -10.5t21.5 -8.5t26.5 -9t27.5 -9.5q30 -10 51 -20t43 -26.5t33.5 -42t11.5 -58.5q0 -71 -53 -111t-154 -40q-64 0 -150 15z" />
<glyph horiz-adv-x="405" d="M102 547l-34 29l96 112h68l96 -112l-34 -29l-96 86zM25 7l12 78q79 -15 140 -15q113 0 113 69q0 32 -22.5 46.5t-92.5 38.5q-36 13 -55.5 22t-43.5 25.5t-34.5 40t-10.5 55.5q0 66 50 104t147 38q63 0 131 -14l-12 -77q-74 13 -125 13q-99 0 -99 -58q0 -10 2.5 -18.5 t10 -15.5t13 -11.5t19 -10.5t21.5 -8.5t26.5 -9t27.5 -9.5q30 -10 51 -20t43 -26.5t33.5 -42t11.5 -58.5q0 -71 -53 -111t-154 -40q-64 0 -150 15z" />
<glyph horiz-adv-x="405" d="M164 555l-96 112l34 29l96 -86l96 86l34 -29l-96 -112h-68zM25 7l12 78q79 -15 140 -15q113 0 113 69q0 32 -22.5 46.5t-92.5 38.5q-36 13 -55.5 22t-43.5 25.5t-34.5 40t-10.5 55.5q0 66 50 104t147 38q63 0 131 -14l-12 -77q-74 13 -125 13q-99 0 -99 -58 q0 -10 2.5 -18.5t10 -15.5t13 -11.5t19 -10.5t21.5 -8.5t26.5 -9t27.5 -9.5q30 -10 51 -20t43 -26.5t33.5 -42t11.5 -58.5q0 -71 -53 -111t-154 -40q-64 0 -150 15z" />
<glyph horiz-adv-x="405" d="M25 7l12 78q79 -15 140 -15q113 0 113 69q0 32 -22.5 46.5t-92.5 38.5q-36 13 -55.5 22t-43.5 25.5t-34.5 40t-10.5 55.5q0 66 50 104t147 38q63 0 131 -14l-12 -77q-74 13 -125 13q-99 0 -99 -58q0 -10 2.5 -18.5t10 -15.5t13 -11.5t19 -10.5t21.5 -8.5t26.5 -9 t27.5 -9.5q30 -10 51 -20t43 -26.5t33.5 -42t11.5 -58.5q0 -71 -53 -111t-154 -40q-64 0 -150 15zM166 -41q61 0 86.5 -17t25.5 -53q0 -38 -25.5 -59.5t-67.5 -21.5q-28 0 -50 6l8 39q20 -4 34 -4q50 0 50 38q0 18 -14.5 26.5t-53.5 8.5z" />
<glyph horiz-adv-x="405" d="M166 -50l78 4q2 -22 2 -33q0 -84 -46 -157l-36 7q9 39 9 94q0 46 -7 85zM25 7l12 78q79 -15 140 -15q113 0 113 69q0 32 -22.5 46.5t-92.5 38.5q-36 13 -55.5 22t-43.5 25.5t-34.5 40t-10.5 55.5q0 66 50 104t147 38q63 0 131 -14l-12 -77q-74 13 -125 13q-99 0 -99 -58 q0 -10 2.5 -18.5t10 -15.5t13 -11.5t19 -10.5t21.5 -8.5t26.5 -9t27.5 -9.5q30 -10 51 -20t43 -26.5t33.5 -42t11.5 -58.5q0 -71 -53 -111t-154 -40q-64 0 -150 15z" />
<glyph horiz-adv-x="811" d="M430 7l12 78q79 -15 140 -15q113 0 113 69q0 32 -22.5 46.5t-92.5 38.5q-36 13 -55.5 22t-43.5 25.5t-34.5 40t-10.5 55.5q0 66 50 104t147 38q63 0 131 -14l-12 -77q-74 13 -125 13q-99 0 -99 -58q0 -10 2.5 -18.5t10 -15.5t13 -11.5t19 -10.5t21.5 -8.5t26.5 -9 t27.5 -9.5q30 -10 51 -20t43 -26.5t33.5 -42t11.5 -58.5q0 -71 -53 -111t-154 -40q-64 0 -150 15zM25 7l12 78q79 -15 140 -15q113 0 113 69q0 32 -22.5 46.5t-92.5 38.5q-36 13 -55.5 22t-43.5 25.5t-34.5 40t-10.5 55.5q0 66 50 104t147 38q63 0 131 -14l-12 -77 q-74 13 -125 13q-99 0 -99 -58q0 -10 2.5 -18.5t10 -15.5t13 -11.5t19 -10.5t21.5 -8.5t26.5 -9t27.5 -9.5q30 -10 51 -20t43 -26.5t33.5 -42t11.5 -58.5q0 -71 -53 -111t-154 -40q-64 0 -150 15z" />
<glyph horiz-adv-x="425" d="M168 0v424h-152v78h394v-78h-152v-424h-90zM178 555l-96 112l34 29l96 -86l96 86l34 -29l-96 -112h-68z" />
<glyph horiz-adv-x="425" d="M168 0v424h-152v78h394v-78h-152v-424h-90zM171 -41q61 0 86.5 -17t25.5 -53q0 -38 -25.5 -59.5t-67.5 -21.5q-28 0 -50 6l8 39q20 -4 34 -4q50 0 50 38q0 18 -14.5 26.5t-53.5 8.5z" />
<glyph horiz-adv-x="425" d="M168 0v424h-152v78h394v-78h-152v-424h-90zM173 -50l78 4q2 -22 2 -33q0 -84 -46 -157l-36 7q9 39 9 94q0 46 -7 85z" />
<glyph horiz-adv-x="425" d="M168 0v220h-93v76h93v128h-152v78h394v-78h-152v-128h93v-76h-93v-220h-90z" />
<glyph horiz-adv-x="516" d="M54 172v330h90v-317q0 -62 26 -88.5t89 -26.5q62 0 88.5 27t26.5 88v317h88v-330q0 -180 -204 -180t-204 180zM287 551l-135 110l59 62l112 -133z" />
<glyph horiz-adv-x="516" d="M54 172v330h90v-317q0 -62 26 -88.5t89 -26.5q62 0 88.5 27t26.5 88v317h88v-330q0 -180 -204 -180t-204 180zM229 551l-36 39l112 133l59 -62z" />
<glyph horiz-adv-x="516" d="M162 547l-34 29l96 112h68l96 -112l-34 -29l-96 86zM54 172v330h90v-317q0 -62 26 -88.5t89 -26.5q62 0 88.5 27t26.5 88v317h88v-330q0 -180 -204 -180t-204 180z" />
<glyph horiz-adv-x="516" d="M54 172v330h90v-317q0 -62 26 -88.5t89 -26.5q62 0 88.5 27t26.5 88v317h88v-330q0 -180 -204 -180t-204 180zM152 574l-42 13q17 85 84 85q25 0 69 -19.5t60 -19.5q30 0 41 36l42 -13q-17 -85 -84 -85q-25 0 -69 19.5t-60 19.5q-30 0 -41 -36z" />
<glyph horiz-adv-x="516" d="M308 569v85h82v-85h-82zM126 569v85h82v-85h-82zM54 172v330h90v-317q0 -62 26 -88.5t89 -26.5q62 0 88.5 27t26.5 88v317h88v-330q0 -180 -204 -180t-204 180z" />
<glyph horiz-adv-x="516" d="M54 172v330h90v-317q0 -62 26 -88.5t89 -26.5q62 0 88.5 27t26.5 88v317h88v-330q0 -180 -204 -180t-204 180zM144 580v62h228v-62h-228z" />
<glyph horiz-adv-x="516" d="M54 172v330h90v-317q0 -62 26 -88.5t89 -26.5q62 0 88.5 27t26.5 88v317h88v-330q0 -180 -204 -180t-204 180zM258 558q-117 0 -119 118h51q0 -37 15.5 -54.5t52.5 -17.5q36 0 51.5 18t15.5 54h52q-2 -118 -119 -118z" />
<glyph horiz-adv-x="516" d="M54 172v330h90v-317q0 -62 26 -88.5t89 -26.5q62 0 88.5 27t26.5 88v317h88v-330q0 -180 -204 -180t-204 180zM258 551q-41 0 -65.5 24t-24.5 65t24.5 65t65.5 24t65.5 -24t24.5 -65t-24.5 -65t-65.5 -24zM258 588q49 0 49 52t-49 52t-49 -52t49 -52z" />
<glyph horiz-adv-x="516" d="M54 172v330h90v-317q0 -62 26 -88.5t89 -26.5q62 0 88.5 27t26.5 88v317h88v-330q0 -180 -204 -180t-204 180zM311 549l-39 31l92 144l65 -50zM173 549l-39 31l92 144l65 -50z" />
<glyph horiz-adv-x="516" d="M54 172v330h90v-317q0 -62 26 -88.5t89 -26.5q62 0 88.5 27t26.5 88v317h88v-330q0 -162 -161 -177q-53 -49 -53 -91q0 -34 41 -34q20 0 38 6l11 -57q-22 -11 -60 -11q-44 0 -73.5 21.5t-29.5 63.5q0 49 46 97l-1 4q-84 8 -125 51t-41 127z" />
<glyph horiz-adv-x="735" d="M397 551l-135 110l59 62l112 -133zM151 0q-74 211 -131 502h92q45 -230 99 -419h4q49 205 87 419h133q40 -225 88 -419h4q51 173 99 419h89q-53 -280 -131 -502h-125q-53 215 -89 410h-4q-39 -203 -90 -410h-125z" />
<glyph horiz-adv-x="735" d="M339 551l-36 39l112 133l59 -62zM151 0q-74 211 -131 502h92q45 -230 99 -419h4q49 205 87 419h133q40 -225 88 -419h4q51 173 99 419h89q-53 -280 -131 -502h-125q-53 215 -89 410h-4q-39 -203 -90 -410h-125z" />
<glyph horiz-adv-x="735" d="M272 547l-34 29l96 112h68l96 -112l-34 -29l-96 86zM151 0q-74 211 -131 502h92q45 -230 99 -419h4q49 205 87 419h133q40 -225 88 -419h4q51 173 99 419h89q-53 -280 -131 -502h-125q-53 215 -89 410h-4q-39 -203 -90 -410h-125z" />
<glyph horiz-adv-x="735" d="M418 569v85h82v-85h-82zM236 569v85h82v-85h-82zM151 0q-74 211 -131 502h92q45 -230 99 -419h4q49 205 87 419h133q40 -225 88 -419h4q51 173 99 419h89q-53 -280 -131 -502h-125q-53 215 -89 410h-4q-39 -203 -90 -410h-125z" />
<glyph horiz-adv-x="492" d="M201 0v187q-109 164 -181 315h97q55 -115 129 -232h4q70 111 128 232h94q-72 -151 -181 -315v-187h-90zM275 551l-135 110l59 62l112 -133z" />
<glyph horiz-adv-x="492" d="M217 551l-36 39l112 133l59 -62zM201 0v187q-109 164 -181 315h97q55 -115 129 -232h4q70 111 128 232h94q-72 -151 -181 -315v-187h-90z" />
<glyph horiz-adv-x="492" d="M150 547l-34 29l96 112h68l96 -112l-34 -29l-96 86zM201 0v187q-109 164 -181 315h97q55 -115 129 -232h4q70 111 128 232h94q-72 -151 -181 -315v-187h-90z" />
<glyph horiz-adv-x="492" d="M296 569v85h82v-85h-82zM114 569v85h82v-85h-82zM201 0v187q-109 164 -181 315h97q55 -115 129 -232h4q70 111 128 232h94q-72 -151 -181 -315v-187h-90z" />
<glyph horiz-adv-x="429" d="M189 551l-36 39l112 133l59 -62zM30 0v65l254 359h-246v78h359v-65l-254 -359h258v-78h-371z" />
<glyph horiz-adv-x="429" d="M184 555l-96 112l34 29l96 -86l96 86l34 -29l-96 -112h-68zM30 0v65l254 359h-246v78h359v-65l-254 -359h258v-78h-371z" />
<glyph horiz-adv-x="429" d="M30 0v65l254 359h-246v78h359v-65l-254 -359h258v-78h-371zM174 567v90h87v-90h-87z" />
<glyph horiz-adv-x="557" d="M64 0v502h125l212 -376h4v376h88v-531q0 -86 -41.5 -124.5t-126.5 -38.5q-45 0 -97 10l11 76q48 -8 88 -8q43 0 60.5 19.5t17.5 65.5v29h-37l-212 376h-4v-376h-88z" />
<glyph horiz-adv-x="515" d="M69 2v218h-61v76h61v200q81 13 156 13q133 0 195 -63.5t62 -195.5t-63 -195t-199 -63q-78 0 -151 10zM159 73q29 -3 61 -3q93 0 131.5 41.5t38.5 137.5q0 97 -38 139.5t-129 42.5q-30 0 -64 -4v-131h121v-76h-121v-147z" />
<glyph horiz-adv-x="463" d="M64 0v502h90v-85q38 3 71 3q215 0 215 -165q0 -169 -213 -169q-21 0 -73 4v-90h-90zM154 166q28 -4 70 -4q62 0 93 19.5t31 70.5t-30.5 70.5t-92.5 19.5q-38 0 -71 -3v-173z" />
<glyph horiz-adv-x="232" d="M70 0v462h91v-462h-91z" />
<glyph horiz-adv-x="508" d="M49 137q0 94 88 121v4q-77 24 -77 107q0 71 50.5 105.5t142.5 34.5q64 0 136 -14l-11 -76q-72 12 -126 12q-50 0 -75 -15t-25 -52t24.5 -52t73.5 -15h244v-75h-79q13 -37 13 -78q0 -76 -51 -114t-141 -38t-138.5 37.5t-48.5 107.5zM141 145q0 -40 23.5 -57.5t73.5 -17.5 q54 0 79 19t25 62q0 28 -13 71h-82q-56 0 -81 -17.5t-25 -59.5z" />
<glyph horiz-adv-x="296" d="M39 286v71h217v-71h-217z" />
<glyph horiz-adv-x="267" d="M87 545v99h93v-99h-93zM80 0l25 447h57l25 -447h-107z" />
<glyph horiz-adv-x="428" d="M192 545v99h94v-99h-94zM37 155q0 37 14.5 68.5t30.5 49t48 47.5q39 37 53.5 62t14.5 65h82q0 -63 -18 -100.5t-64 -80.5q-23 -22 -33 -32.5t-21 -32t-11 -44.5q0 -40 26 -61t72 -21q60 0 138 37l32 -75q-86 -47 -176 -47q-83 0 -135.5 43t-52.5 122z" />
<glyph horiz-adv-x="296" d="M74 247q-34 38 -34 74t34 74q27 31 128 124l48 -49q-80 -72 -106 -99q-29 -30 -29 -50t29 -50q26 -27 106 -99l-48 -49q-101 93 -128 124z" />
<glyph horiz-adv-x="296" d="M44 172q80 72 106 99q29 30 29 50t-29 50q-26 27 -106 99l48 49q101 -93 128 -124q34 -38 34 -74t-34 -74q-27 -31 -128 -124z" />
<glyph horiz-adv-x="468" d="M74 247q-34 38 -34 74t34 74q27 31 128 124l48 -49q-80 -72 -106 -99q-29 -30 -29 -50t29 -50q26 -27 106 -99l-48 -49q-101 93 -128 124zM247 247q-34 38 -34 74t34 74q27 31 128 124l48 -49q-80 -72 -106 -99q-29 -30 -29 -50t29 -50q26 -27 106 -99l-48 -49 q-101 93 -128 124z" />
<glyph horiz-adv-x="468" d="M46 172q80 72 106 99q29 30 29 50t-29 50q-26 27 -106 99l48 49q101 -93 128 -124q34 -38 34 -74t-34 -74q-27 -31 -128 -124zM219 172q80 72 106 99q29 30 29 50t-29 50q-26 27 -106 99l48 49q101 -93 128 -124q34 -38 34 -74t-34 -74q-27 -31 -128 -124z" />
<glyph horiz-adv-x="656" d="M78 287v67h500v-67h-500z" />
<glyph horiz-adv-x="739" d="M35 288v65h669v-65h-669z" />
<glyph horiz-adv-x="236" d="M71 272v99h94v-99h-94z" />
<glyph horiz-adv-x="269" d="M51 322q0 241 140 431l50 -28q-111 -171 -111 -403t111 -403l-50 -28q-140 190 -140 431z" />
<glyph horiz-adv-x="269" d="M28 -81q111 171 111 403t-111 403l50 28q140 -190 140 -431t-140 -431z" />
<glyph horiz-adv-x="282" d="M78 -78v800h178v-70h-100v-660h100v-70h-178z" />
<glyph horiz-adv-x="282" d="M26 -8h100v660h-100v70h178v-800h-178v70z" />
<glyph horiz-adv-x="288" d="M99 46v149q0 71 -65 127q65 56 65 127v149q0 131 150 134v-53q-38 -3 -55 -19.5t-17 -63.5v-151q0 -71 -62 -123q62 -52 62 -123v-151q0 -47 17 -63.5t55 -19.5v-53q-150 3 -150 134z" />
<glyph horiz-adv-x="288" d="M111 48v151q0 71 62 123q-62 52 -62 123v151q0 47 -17 63.5t-55 19.5v53q150 -3 150 -134v-149q0 -71 65 -127q-65 -56 -65 -127v-149q0 -131 -150 -134v53q38 3 55 19.5t17 63.5z" />
<glyph horiz-adv-x="602" d="M43 250q0 127 69 193t188 66q122 0 190.5 -67t68.5 -181q0 -151 -117 -151q-52 0 -78 28q-35 -28 -82 -28q-51 0 -78.5 36t-27.5 104q0 142 125 142q46 0 103 -21v-147q0 -60 45 -60q52 0 52 91q0 96 -52 149t-148 53t-148 -52.5t-52 -154.5q0 -101 52 -153t149 -52 q59 0 119 20l16 -51q-63 -22 -136 -22q-121 0 -189.5 66t-68.5 192zM296 166q26 0 47 15q-4 9 -4 51v101q-16 4 -35 4q-32 0 -46.5 -19t-14.5 -66q0 -86 53 -86z" />
<glyph horiz-adv-x="566" d="M41 250q0 116 63.5 188t179.5 72q115 0 178 -72.5t63 -188.5t-63 -187.5t-178 -71.5q-116 0 -179.5 72t-63.5 188zM134 250q0 -80 38 -130t112 -50q73 0 110.5 49.5t37.5 129.5t-37.5 130.5t-110.5 50.5t-111.5 -50t-38.5 -130z" />
<glyph horiz-adv-x="393" d="M190 0v407l-137 -53l-27 65l183 83h72v-502h-91z" />
<glyph horiz-adv-x="482" d="M41 0v73q149 84 216.5 142t67.5 125q0 43 -28 66.5t-78 23.5q-67 0 -151 -35l-28 72q98 43 184 43q85 0 139.5 -43t54.5 -124t-55.5 -140.5t-156.5 -118.5l1 -4h219v-80h-385z" />
<glyph horiz-adv-x="461" d="M36 -27q82 -18 154 -18q66 0 99 23.5t33 82.5q0 56 -30 78.5t-91 22.5h-68v78h64q56 0 84 21.5t28 72.5q0 96 -105 96q-65 0 -145 -30l-27 73q88 37 173 37q91 0 144 -43t53 -123q0 -104 -86 -134v-4q99 -28 99 -148q0 -92 -58.5 -137.5t-165.5 -45.5q-80 0 -167 20z" />
<glyph horiz-adv-x="522" d="M33 18v67q108 203 241 417h98q-147 -241 -236 -404h178l8 129h82v-129h108v-80h-108v-135h-91v135h-280z" />
<glyph horiz-adv-x="481" d="M68 -28q89 -16 156 -16q70 0 104.5 25t34.5 90q0 60 -32.5 85.5t-107.5 25.5h-149l11 320h332v-80h-246l-5 -161h57q120 0 176.5 -45t56.5 -143q0 -198 -233 -198q-68 0 -166 18z" />
<glyph horiz-adv-x="521" d="M269 -10q-118 0 -168 74t-50 229q0 161 54.5 246t191.5 85q66 0 141 -20l-13 -77q-83 18 -128 18q-82 0 -116 -48.5t-38 -149.5q69 29 145 29q90 0 142.5 -46.5t52.5 -139.5q0 -94 -55.5 -147t-158.5 -53zM273 70q117 0 117 116q0 114 -119 114q-62 0 -128 -23 q2 -108 29.5 -157.5t100.5 -49.5z" />
<glyph horiz-adv-x="452" d="M110 -117q123 286 217 539h-301v80h400v-54q-96 -268 -223 -565h-93z" />
<glyph horiz-adv-x="521" d="M43 166q0 64 30 102t77 51v4q-40 11 -67 45t-27 90q0 75 52 121t153 46q100 0 152 -46t52 -121q0 -56 -27 -90t-67 -45v-4q46 -13 76.5 -50.5t30.5 -102.5q0 -83 -55 -129.5t-162 -46.5q-108 0 -163 46.5t-55 129.5zM261 356q111 0 111 96q0 92 -111 92q-112 0 -112 -92 q0 -96 112 -96zM136 174q0 -103 125 -103q124 0 124 103q0 107 -124 107q-125 0 -125 -107z" />
<glyph horiz-adv-x="521" d="M97 -27q72 -18 125 -18q84 0 118.5 48t37.5 149q-65 -28 -144 -28q-92 0 -142.5 47.5t-50.5 138.5q0 95 55.5 147.5t158.5 52.5q117 0 167 -74t50 -232q0 -163 -56 -246t-194 -83q-70 0 -141 19zM250 200q64 0 128 23q-2 108 -29.5 157.5t-99.5 49.5q-115 0 -115 -117 q0 -113 116 -113z" />
<glyph horiz-adv-x="491" d="M26 166v65h57q-1 22 0 44h-56v65h64q34 169 226 169q55 0 126 -13l-13 -76q-59 11 -114 11q-111 0 -132 -91h175v-65h-184q-1 -22 0 -44h184v-65h-177q23 -96 129 -96q63 0 126 26l27 -72q-75 -32 -156 -32q-188 0 -218 174h-64z" />
<glyph horiz-adv-x="435" d="M64 41l12 75q71 -13 122 -13q96 0 96 53q0 6 -1 11t-4.5 9.5t-6.5 7.5t-9 6.5t-11 6t-14.5 6t-16 6t-19 6.5t-20.5 7q-65 22 -96.5 47.5t-31.5 76.5q0 104 125 124v78h65v-75q43 -1 106 -12l-12 -75q-62 12 -112 12q-84 0 -84 -46q0 -8 2.5 -14t8 -11.5t11.5 -9t17 -8 t19 -7t23 -7.5t25 -8q62 -21 93 -48.5t31 -79.5t-32 -84.5t-96 -42.5v-77h-65v72q-66 2 -125 14z" />
<glyph horiz-adv-x="406" d="M39 0v57q71 35 71 99q0 21 -9 53h-71v62l47 3q-20 58 -20 95q0 66 47.5 103t132.5 37q59 0 129 -14l-11 -76q-64 12 -117 12q-89 0 -89 -67q0 -33 18 -83h130v-72h-108q8 -26 8 -52q0 -45 -34 -76l2 -3h212v-78h-338z" />
<glyph horiz-adv-x="463" d="M62 101v65h125v44h-125v65h87q-64 97 -130 227h98q51 -104 114 -202h4q63 98 114 202h94q-59 -119 -130 -227h88v-65h-125v-44h125v-65h-125v-101h-89v101h-125z" />
<glyph horiz-adv-x="588" d="M143 264q-56 0 -85.5 33t-29.5 90t29.5 90t85.5 33q57 0 86.5 -33t29.5 -90t-29.5 -90t-86.5 -33zM109 0l305 502h65l-305 -502h-65zM143 319q28 0 39 17t11 51q0 68 -50 68q-49 0 -49 -68t49 -68zM329 115q0 57 29.5 90t86.5 33q56 0 85.5 -33t29.5 -90t-29.5 -90 t-85.5 -33q-57 0 -86.5 33t-29.5 90zM395 115q0 -68 50 -68q49 0 49 68t-49 68q-28 0 -39 -17t-11 -51z" />
<glyph horiz-adv-x="853" d="M143 264q-56 0 -85.5 33t-29.5 90t29.5 90t85.5 33q57 0 86.5 -33t29.5 -90t-29.5 -90t-86.5 -33zM109 0l305 502h65l-305 -502h-65zM143 319q28 0 39 17t11 51q0 68 -50 68q-49 0 -49 -68t49 -68zM594 115q0 57 29.5 90t86.5 33q56 0 85.5 -33t29.5 -90t-29.5 -90 t-85.5 -33q-57 0 -86.5 33t-29.5 90zM329 115q0 57 29.5 90t86.5 33q56 0 85.5 -33t29.5 -90t-29.5 -90t-85.5 -33q-57 0 -86.5 33t-29.5 90zM660 115q0 -68 50 -68q49 0 49 68t-49 68q-28 0 -39 -17t-11 -51zM395 115q0 -68 50 -68q49 0 49 68t-49 68q-28 0 -39 -17 t-11 -51z" />
<glyph horiz-adv-x="212" d="M66 307q-3 23 -3 44q0 89 42 165l40 -5q-8 -58 -8 -112q0 -48 4 -89z" />
<glyph horiz-adv-x="212" d="M67 309q8 58 8 112q0 48 -4 89l75 3q3 -23 3 -44q0 -89 -42 -165z" />
<glyph horiz-adv-x="345" d="M66 307q-3 23 -3 44q0 89 42 165l40 -5q-8 -58 -8 -112q0 -48 4 -89zM199 307q-3 23 -3 44q0 89 42 165l40 -5q-8 -58 -8 -112q0 -48 4 -89z" />
<glyph horiz-adv-x="345" d="M67 309q8 58 8 112q0 48 -4 89l75 3q3 -23 3 -44q0 -89 -42 -165zM200 309q8 58 8 112q0 48 -4 89l75 3q3 -23 3 -44q0 -89 -42 -165z" />
<glyph horiz-adv-x="298" d="M1 -70q26 -7 52 -7q24 0 34 9.5t10 34.5v324h-57v62l57 3v32q0 121 133 121q22 0 58 -4l-5 -72q-30 3 -48 3q-30 0 -42 -11t-12 -37v-28h82v-69h-82v-327q0 -114 -119 -114q-36 0 -74 11z" />
</font>
</defs>
</svg>
