<?xml version="1.0" standalone="no"?>
<!DOCTYPE svg PUBLIC "-//W3C//DTD SVG 1.1//EN" "http://www.w3.org/Graphics/SVG/1.1/DTD/svg11.dtd" >
<svg xmlns="http://www.w3.org/2000/svg">
<metadata></metadata>
<defs>
<font id="gesta_ltitalic" horiz-adv-x="482" >
<font-face units-per-em="1000" ascent="731" descent="-269" />
<missing-glyph horiz-adv-x="199" />
<glyph unicode="&#xfb01;" horiz-adv-x="479" d="M58 0l74 421h-61l6 33l62 6l13 73q12 63 40 92t84 29q36 0 72 -9l-8 -43q-40 8 -64 8q-33 0 -50 -17t-25 -63l-12 -68h248l-81 -462h-50l74 421h-198l-74 -421h-50zM405 566l14 78h50l-14 -78h-50z" />
<glyph unicode="&#xfb02;" horiz-adv-x="480" d="M58 0l74 421h-61l6 33l62 6l10 54q14 74 54.5 107t111.5 33q64 0 152 -26l-111 -628h-50l105 596q-54 14 -98 14q-48 0 -77 -23t-39 -80l-8 -45h99l-7 -41h-99l-74 -421h-50z" />
<glyph horiz-adv-x="0" />
<glyph horiz-adv-x="0" />
<glyph horiz-adv-x="333" />
<glyph unicode="&#xd;" horiz-adv-x="225" />
<glyph unicode=" "  horiz-adv-x="199" />
<glyph unicode="&#x09;" horiz-adv-x="199" />
<glyph unicode="&#xa0;" horiz-adv-x="199" />
<glyph unicode="!" horiz-adv-x="264" d="M59 0l13 74h63l-13 -74h-63zM109 197l61 447h67l-97 -447h-31z" />
<glyph unicode="&#x22;" horiz-adv-x="283" d="M104 444q0 83 23 214h56q-24 -136 -51 -214h-28zM227 444q0 83 23 214h56q-24 -136 -51 -214h-28z" />
<glyph unicode="#" horiz-adv-x="614" d="M52 207l14 35h111l64 160h-111l14 35h111l84 207h37l-84 -207h153l84 207h37l-84 -207h111l-14 -35h-111l-64 -160h111l-14 -35h-111l-84 -207h-37l84 207h-153l-84 -207h-37l84 207h-111zM214 242h153l64 160h-153z" />
<glyph unicode="$" horiz-adv-x="552" d="M75 63l14 45q85 -27 151 -27t107.5 31t41.5 90q0 43 -23.5 63.5t-86.5 46.5q-35 15 -53.5 24.5t-39.5 25.5t-29.5 37.5t-8.5 51.5q0 68 46.5 109.5t122.5 46.5l17 97h46l-17 -97q56 -4 118 -22l-12 -44q-75 22 -133 22q-60 0 -98 -28.5t-38 -80.5q0 -21 5.5 -35 t23.5 -26.5t31 -18.5t48 -21q36 -15 55 -25t40 -27t29.5 -40t8.5 -55q0 -74 -48.5 -118.5t-130.5 -50.5l-17 -95h-46l17 94q-67 4 -141 27z" />
<glyph unicode="%" horiz-adv-x="688" d="M67 472q0 71 36 125q39 57 111 57q54 0 85 -30t31 -88q0 -71 -36 -125q-39 -57 -111 -57q-54 0 -85 30t-31 88zM112 476q0 -83 73 -83q51 0 76 43q24 42 24 96q0 83 -73 83q-51 0 -76 -43q-24 -42 -24 -96zM119 0l432 644h49l-432 -644h-49zM389 108q0 71 36 125 q39 57 111 57q54 0 85 -30t31 -88q0 -71 -36 -125q-39 -57 -111 -57q-54 0 -85 30t-31 88zM434 112q0 -83 73 -83q51 0 76 43q24 42 24 96q0 83 -73 83q-51 0 -76 -43q-24 -42 -24 -96z" />
<glyph unicode="&#x26;" horiz-adv-x="594" d="M63 154q0 69 36 122t103 67v4q-76 30 -76 120q0 86 52 136q52 51 149 51q78 0 178 -28l-12 -44q-94 26 -169 26q-76 0 -112 -40q-33 -37 -33 -98q0 -57 33.5 -84t103.5 -27h274l-7 -42h-94q0 -62 -5 -107.5t-19.5 -89t-39.5 -70.5t-67.5 -43.5t-100.5 -16.5 q-87 0 -140.5 39t-53.5 125zM116 157q0 -121 143 -121q35 0 62.5 7.5t46.5 19.5t32 33.5t20.5 42t11.5 52.5t5 59t1 67h-139q-86 0 -134.5 -40.5t-48.5 -119.5z" />
<glyph unicode="'" horiz-adv-x="160" d="M104 444q0 83 23 214h56q-24 -136 -51 -214h-28z" />
<glyph unicode="(" horiz-adv-x="241" d="M41 119q0 159 62 308q57 139 161 244l26 -23q-89 -100 -146 -237.5t-57 -292.5q0 -151 59 -285l-33 -16q-72 138 -72 302z" />
<glyph unicode=")" horiz-adv-x="241" d="M-46 -160q89 100 146 237.5t57 292.5q0 151 -59 285l33 16q72 -138 72 -302q0 -159 -62 -308q-57 -139 -161 -244z" />
<glyph unicode="*" horiz-adv-x="344" d="M88 459l104 54l-84 53l18 25l84 -53l19 106h28l-19 -106l102 53l11 -24l-104 -54l84 -53l-18 -25l-84 53l-19 -106h-28l19 106l-102 -53z" />
<glyph unicode="+" horiz-adv-x="563" d="M55 211l7 40h201l37 211h42l-37 -211h201l-7 -40h-201l-37 -211h-42l37 211h-201z" />
<glyph unicode="," horiz-adv-x="248" d="M30 -115q34 99 35 187l57 2q-12 -113 -65 -194z" />
<glyph unicode="-" horiz-adv-x="298" d="M51 225l8 46h193l-8 -46h-193z" />
<glyph unicode="." horiz-adv-x="248" d="M51 0l13 74h64l-13 -74h-64z" />
<glyph unicode="/" horiz-adv-x="361" d="M-25 -20l392 684h52l-392 -684h-52z" />
<glyph unicode="0" horiz-adv-x="559" d="M69 178q0 59 14 140t34 145q30 96 80.5 143.5t140.5 47.5q98 0 140 -47t42 -141q0 -59 -14 -140t-34 -145q-30 -96 -80.5 -143.5t-140.5 -47.5q-98 0 -140 47t-42 141zM122 177q0 -71 29.5 -106t101.5 -35q71 0 109 39t62 124q43 157 43 268q0 71 -29.5 106t-101.5 35 q-71 0 -109 -39t-62 -124q-43 -157 -43 -268z" />
<glyph unicode="1" horiz-adv-x="370" d="M90 578l176 66h45l-114 -644h-52l103 587l-146 -48z" />
<glyph unicode="2" horiz-adv-x="475" d="M1 0l7 39q165 126 265 229q126 131 126 232q0 55 -33.5 81.5t-89.5 26.5q-65 0 -150 -34l-16 40q89 40 170 40q79 0 125.5 -38.5t46.5 -111.5q0 -119 -143 -266q-73 -75 -214 -188l1 -4h295l-8 -46h-382z" />
<glyph unicode="3" horiz-adv-x="450" d="M1 19l14 44q86 -27 160 -27q86 0 126 44q44 48 44 126q0 106 -122 106h-67l8 46h76q65 0 104.5 40.5t39.5 108.5q0 101 -119 101q-70 0 -148 -32l-15 41q92 37 168 37q75 0 121 -35t46 -108q0 -59 -31 -109.5t-83 -64.5v-4q75 -27 75 -127q0 -99 -58 -158 q-56 -58 -169 -58q-81 0 -170 29z" />
<glyph unicode="4" horiz-adv-x="523" d="M10 157l7 37q118 171 333 450h58q-202 -262 -327 -441h240l35 152h43l-27 -152h126l-8 -46h-126l-28 -157h-52l28 157h-302z" />
<glyph unicode="5" d="M23 19l15 46q91 -28 166 -28q99 0 140 62q33 49 33 121q0 61 -34.5 87t-112.5 26h-142l65 311h314l-8 -46h-263l-46 -219h88q99 0 145.5 -38.5t46.5 -117.5q0 -92 -49 -156q-58 -76 -180 -76q-84 0 -178 28z" />
<glyph unicode="6" horiz-adv-x="520" d="M62 176q0 72 20.5 170.5t55.5 169.5q33 67 83 102.5t128 35.5q67 0 147 -25l-13 -44q-76 23 -135 23q-84 0 -133.5 -59.5t-76.5 -192.5q80 25 147 25q178 0 178 -152q0 -104 -57 -172q-56 -67 -169 -67q-89 0 -132 45.5t-43 140.5zM115 176q0 -73 29.5 -106.5t97.5 -33.5 q85 0 126 52q42 54 42 140q0 59 -32.5 83.5t-96.5 24.5q-81 0 -150 -23q-16 -80 -16 -137z" />
<glyph unicode="7" horiz-adv-x="425" d="M78 0q186 324 331 598h-318l8 46h376l-6 -36q-157 -296 -336 -608h-55z" />
<glyph unicode="8" horiz-adv-x="529" d="M47 146q0 72 40 129t103 65v4q-72 25 -72 119q0 86 57.5 138.5t149.5 52.5q79 0 128 -36t49 -108q0 -62 -34.5 -111.5t-89.5 -62.5v-4q37 -12 60 -45t23 -85q0 -94 -63 -156q-58 -56 -162 -56q-86 0 -137.5 38.5t-51.5 117.5zM100 151q0 -115 139 -115q78 0 123.5 43.5 t45.5 117.5q0 61 -37.5 89t-101.5 28q-83 0 -127 -47q-42 -45 -42 -116zM171 463q0 -55 34 -80t90 -25q80 0 121 50q33 40 33 96q0 104 -127 104q-74 0 -110 -38q-41 -41 -41 -107z" />
<glyph unicode="9" horiz-adv-x="521" d="M52 14l13 45q78 -23 137 -23q85 0 134.5 60t76.5 194q-81 -27 -153 -27q-172 0 -172 156q0 93 52 160q58 75 172 75q90 0 133 -45.5t43 -139.5q0 -66 -18 -160t-48 -163q-33 -77 -86 -116.5t-136 -39.5q-71 0 -148 24zM141 421q0 -113 130 -113q80 0 150 25q14 74 14 133 q0 74 -30 108t-98 34q-83 0 -125 -55q-41 -55 -41 -132z" />
<glyph unicode=":" horiz-adv-x="248" d="M51 0l13 74h64l-13 -74h-64zM120 388l13 74h64l-13 -74h-64z" />
<glyph unicode=";" horiz-adv-x="248" d="M30 -115q34 99 35 187l57 2q-12 -113 -65 -194zM120 388l13 74h64l-13 -74h-64z" />
<glyph unicode="&#x3c;" horiz-adv-x="572" d="M60 217l5 28l483 220l-9 -53l-400 -179l-1 -4l337 -180l-9 -52z" />
<glyph unicode="=" horiz-adv-x="563" d="M38 116l7 40h444l-7 -40h-444zM72 306l7 40h444l-7 -40h-444z" />
<glyph unicode="&#x3e;" horiz-adv-x="572" d="M22 -3l9 53l400 179l1 4l-337 180l9 52l406 -220l-5 -28z" />
<glyph unicode="?" horiz-adv-x="382" d="M89 0l13 74h63l-13 -74h-63zM91 625q74 29 143 29q70 0 113 -35t43 -102q0 -52 -25.5 -88.5t-80.5 -84.5q-66 -58 -82.5 -79t-25.5 -68h-46q11 62 37 96.5t90 87.5q39 32 60 62t21 71q0 47 -29 71t-77 24q-56 0 -127 -27z" />
<glyph unicode="@" horiz-adv-x="740" d="M76 257q0 66 18 139t54 128q84 130 261 130q131 0 209 -68t78 -210q0 -42 -7 -80.5t-22 -74.5t-44 -57.5t-69 -21.5q-54 0 -81 37q-53 -38 -121 -38q-58 0 -88.5 33.5t-30.5 95.5q0 92 38 160q40 73 130 73q57 0 129 -30l-30 -168q-5 -30 -5 -49q0 -76 61 -76 q50 0 75 54.5t25 135.5q0 247 -250 247q-158 0 -228 -117q-30 -49 -46 -116t-16 -126q0 -115 64.5 -173t187.5 -58q66 0 120 17l7 -37q-62 -18 -130 -18q-133 0 -211 66t-78 202zM278 272q0 -93 83 -93q51 0 97 30q-6 19 -6 43q0 21 5 54l26 145q-49 15 -82 15 q-61 0 -91 -57q-32 -59 -32 -137z" />
<glyph unicode="A" horiz-adv-x="517" d="M-20 0q71 162 162.5 349t152.5 295h70q53 -241 89 -644h-52l-17 170h-275l-77 -170h-53zM130 216h251q-27 217 -57 382h-4q-112 -215 -190 -382z" />
<glyph unicode="B" horiz-adv-x="547" d="M48 10l111 629q90 15 170 15q195 0 195 -143q0 -59 -30 -109t-93 -64v-4q88 -27 88 -129q0 -103 -66 -162q-57 -52 -180 -52q-91 0 -195 19zM107 49q76 -12 143 -12q97 0 140 44q46 47 46 122q0 113 -142 113h-140zM162 360h145q86 0 124 39q40 42 40 108q0 58 -39 80 t-108 22q-55 0 -119 -8z" />
<glyph unicode="C" horiz-adv-x="507" d="M64 224q0 70 18 151.5t52 143.5q76 135 233 135q68 0 153 -23l-14 -45q-88 22 -140 22q-127 0 -188 -115q-30 -56 -45.5 -130.5t-15.5 -137.5q0 -96 40.5 -142.5t126.5 -46.5q71 0 145 29l16 -41q-81 -34 -163 -34q-218 0 -218 234z" />
<glyph unicode="D" horiz-adv-x="581" d="M47 3l112 638q84 13 146 13q246 0 246 -230q0 -63 -17 -141.5t-48 -138.5q-42 -80 -108.5 -116.5t-164.5 -36.5q-81 0 -166 12zM106 44q66 -7 107 -7q84 0 138.5 29.5t90.5 100.5q27 53 41.5 123.5t14.5 129.5q0 102 -50 145t-148 43q-49 0 -96 -7z" />
<glyph unicode="E" horiz-adv-x="472" d="M46 0l114 644h337l-8 -46h-285l-43 -244h238l-8 -46h-239l-46 -262h287l-8 -46h-339z" />
<glyph unicode="F" horiz-adv-x="453" d="M46 0l114 644h336l-8 -46h-284l-45 -255h239l-8 -46h-240l-52 -297h-52z" />
<glyph unicode="G" horiz-adv-x="558" d="M64 223q0 69 17.5 149t50.5 141q77 141 244 141q73 0 169 -28l-13 -44q-89 26 -159 26q-134 0 -197 -121q-28 -55 -43.5 -127.5t-15.5 -133.5q0 -190 166 -190q63 0 130 27l46 259h52l-51 -289q-84 -43 -180 -43q-216 0 -216 233z" />
<glyph unicode="H" horiz-adv-x="597" d="M46 0l114 644h52l-50 -286h318l50 286h52l-114 -644h-52l55 312h-318l-55 -312h-52z" />
<glyph unicode="I" horiz-adv-x="227" d="M46 0l114 644h52l-114 -644h-52z" />
<glyph unicode="J" horiz-adv-x="342" d="M-29 2l11 46q48 -11 83 -11q62 0 90.5 31t40.5 104l83 472h52l-84 -478q-17 -96 -60.5 -135.5t-122.5 -39.5q-42 0 -93 11z" />
<glyph unicode="K" horiz-adv-x="518" d="M46 0l114 644h52l-54 -304l1 -1q209 172 344 305h67l1 -2q-144 -138 -342 -303q100 -158 241 -337l-1 -2h-66q-120 152 -221 312h-29l-55 -312h-52z" />
<glyph unicode="L" horiz-adv-x="443" d="M46 0l114 644h52l-105 -598h279l-8 -46h-332z" />
<glyph unicode="M" horiz-adv-x="728" d="M34 0q79 386 144 644h82l91 -469h4l256 469h82q-28 -276 -82 -644h-51q52 371 79 590h-4l-262 -479h-62l-93 479h-4q-52 -233 -128 -590h-52z" />
<glyph unicode="N" horiz-adv-x="625" d="M46 0l114 644h82l208 -595h4l105 595h51l-114 -644h-82l-208 595h-4l-105 -595h-51z" />
<glyph unicode="O" horiz-adv-x="613" d="M63 215q0 66 17 146.5t50 144.5q75 148 239 148q211 0 211 -226q0 -65 -17 -146t-50 -145q-75 -147 -239 -147q-211 0 -211 225zM116 220q0 -92 39.5 -138t123.5 -46q66 0 111 29t77 94q27 55 43.5 128.5t16.5 136.5q0 184 -163 184q-66 0 -111 -29t-77 -95 q-27 -56 -43.5 -128.5t-16.5 -135.5z" />
<glyph unicode="P" horiz-adv-x="511" d="M46 0l113 641q94 12 146 12q213 0 213 -160q0 -107 -67 -171q-58 -57 -185 -57q-54 0 -120 9l-48 -274h-52zM154 319q56 -8 112 -8q105 0 150 46q48 49 48 132q0 67 -43 92.5t-124 25.5q-35 0 -93 -6z" />
<glyph unicode="Q" horiz-adv-x="613" d="M63 215q0 66 17 146.5t50 144.5q75 148 239 148q211 0 211 -226q0 -65 -17 -146t-50 -145q-72 -141 -225 -144v-4q69 -18 160 -77l-37 -52q-55 44 -147.5 95t-107.5 60q-48 30 -70.5 77t-22.5 123zM116 220q0 -92 39.5 -138t123.5 -46q66 0 111 29t77 94 q27 55 43.5 128.5t16.5 136.5q0 184 -163 184q-66 0 -111 -29t-77 -95q-27 -56 -43.5 -128.5t-16.5 -135.5z" />
<glyph unicode="R" horiz-adv-x="530" d="M46 0l112 638q102 15 160 15q202 0 202 -154q0 -100 -63 -162q-43 -41 -113 -51q41 -116 123 -284l-1 -2h-57q-65 130 -121 282q-61 0 -139 10l-51 -292h-52zM158 339q67 -10 126 -10q96 0 138 43q45 46 45 124q0 62 -40.5 86.5t-115.5 24.5q-35 0 -107 -8z" />
<glyph unicode="S" horiz-adv-x="457" d="M4 18l13 45q92 -27 164 -27q95 0 139 50q36 41 36 103q0 15 -3.5 28t-7 22t-13.5 18.5t-15 14t-20.5 12.5t-20.5 10.5t-24.5 10.5t-23.5 10q-75 31 -108 63t-33 91q0 88 68 141q55 43 149 43q69 0 156 -25l-12 -45q-86 24 -148 24q-70 0 -110 -31q-50 -38 -50 -104 q0 -25 7 -42t27 -31t34.5 -21.5t48.5 -21.5q40 -17 59.5 -27t45 -29.5t36.5 -46t11 -63.5q0 -83 -51 -137q-59 -63 -178 -63q-82 0 -176 28z" />
<glyph unicode="T" horiz-adv-x="491" d="M91 598l8 46h438l-8 -46h-193l-105 -598h-52l105 598h-193z" />
<glyph unicode="U" horiz-adv-x="608" d="M82 166q0 46 8 90l68 388h52l-67 -382q-9 -51 -9 -89q0 -137 140 -137q86 0 135 54q47 51 68 172l67 382h51l-68 -388q-25 -141 -82 -201q-62 -65 -176 -65q-90 0 -138.5 44.5t-48.5 131.5z" />
<glyph unicode="V" horiz-adv-x="513" d="M95 644h52q22 -291 74 -599h4q159 302 285 599h53q-67 -158 -160 -350t-151 -294h-72q-23 99 -48 290t-37 354z" />
<glyph unicode="W" horiz-adv-x="834" d="M104 644h53q3 -299 42 -600h4q151 343 247 600h80q5 -277 36 -600h4q153 319 253 600h52q-56 -159 -137 -346.5t-139 -297.5h-77q-30 243 -39 592h-4q-125 -329 -248 -592h-77q-21 123 -35.5 304t-14.5 340z" />
<glyph unicode="X" horiz-adv-x="554" d="M7 0q124 170 256 330q-73 151 -137 314h55q43 -114 119 -274h4q131 161 212 274h57q-110 -153 -246 -316q86 -185 142 -328h-55q-65 161 -124 288h-4q-111 -137 -223 -288h-56z" />
<glyph unicode="Y" horiz-adv-x="505" d="M94 644h54q40 -185 112 -357h4q132 174 237 357h55q-118 -206 -276 -407l-42 -237h-52l42 237q-91 203 -134 407z" />
<glyph unicode="Z" horiz-adv-x="491" d="M-4 0l7 39l453 559h-343l8 46h411l-7 -39l-453 -559h356l-8 -46h-424z" />
<glyph unicode="[" horiz-adv-x="251" d="M1 -156l141 800h143l-7 -40h-97l-127 -720h97l-7 -40h-143z" />
<glyph unicode="\" horiz-adv-x="342" d="M96 664h46l135 -684h-46z" />
<glyph unicode="]" horiz-adv-x="251" d="M-30 -156l7 40h97l127 720h-97l7 40h143l-141 -800h-143z" />
<glyph unicode="^" horiz-adv-x="560" d="M87 233l223 316h49l113 -316h-47l-96 263h-4l-189 -263h-49z" />
<glyph unicode="_" horiz-adv-x="481" d="M-60 -117l7 42h477l-7 -42h-477z" />
<glyph unicode="`" horiz-adv-x="344" d="M151 648l53 37l70 -148l-26 -18z" />
<glyph unicode="a" d="M47 152q0 51 12.5 111.5t36.5 104.5q54 104 173 104q73 0 166 -36l-77 -436h-41l2 36q-64 -46 -129 -46q-70 0 -106.5 41.5t-36.5 120.5zM98 154q0 -121 99 -121q58 0 125 47l58 329q-66 21 -112 21q-88 0 -129 -83q-18 -36 -29.5 -93t-11.5 -100z" />
<glyph unicode="b" horiz-adv-x="484" d="M46 25l109 619h50l-37 -210q62 38 123 38q69 0 105.5 -42t36.5 -122q0 -51 -13.5 -112.5t-38.5 -108.5q-52 -97 -168 -97q-81 0 -167 35zM101 52q67 -20 111 -20q90 0 130 82t40 189q0 126 -102 126q-59 0 -119 -37z" />
<glyph unicode="c" horiz-adv-x="415" d="M48 169q0 113 52 204q57 99 174 99q58 0 133 -21l-11 -42q-71 20 -124 20q-87 0 -130 -81q-43 -83 -43 -181q0 -132 122 -132q57 0 119 25l14 -42q-65 -28 -136 -28q-83 0 -126.5 45.5t-43.5 133.5z" />
<glyph unicode="d" horiz-adv-x="481" d="M47 152q0 106 41 202q53 118 177 118q48 0 122 -19l34 191h50l-114 -644h-41l2 36q-64 -46 -128 -46q-70 0 -106.5 41.5t-36.5 120.5zM98 154q0 -121 99 -121q58 0 124 47l58 331q-70 19 -113 19q-93 0 -132 -93q-16 -35 -26 -88t-10 -95z" />
<glyph unicode="e" horiz-adv-x="450" d="M44 162q0 51 14.5 110.5t43.5 105.5q58 94 159 94q71 0 107.5 -44t36.5 -115q0 -42 -13 -99h-294q-3 -27 -3 -50q0 -131 121 -131q62 0 126 29l15 -41q-73 -32 -144 -32q-81 0 -125 43.5t-44 129.5zM105 255h245q5 28 5 55q0 117 -96 117q-115 0 -154 -172z" />
<glyph unicode="f" horiz-adv-x="278" d="M58 0l74 421h-61l6 33l62 6l13 73q12 63 40 92t84 29q38 0 75 -9l-8 -43q-43 8 -66 8q-33 0 -50.5 -17t-25.5 -63l-12 -68h99l-7 -41h-99l-74 -421h-50z" />
<glyph unicode="g" d="M32 -167l12 44q81 -25 140 -25q49 0 78 22t38 79l13 73q-58 -36 -121 -36q-70 0 -107.5 41t-37.5 122q0 47 12.5 106t33.5 103q53 110 177 110q77 0 165 -35l-86 -489q-13 -74 -54.5 -107t-112.5 -33q-63 0 -150 25zM98 155q0 -122 101 -122q56 0 120 38l60 339 q-62 20 -109 20q-94 0 -134 -90q-17 -36 -27.5 -90t-10.5 -95z" />
<glyph unicode="h" horiz-adv-x="490" d="M42 0l114 644h50l-40 -225q79 53 150 53q52 0 85 -27.5t33 -80.5q0 -18 -5 -45l-56 -319h-50l56 315q5 35 5 44q0 69 -76 69q-63 0 -150 -53l-66 -375h-50z" />
<glyph unicode="i" horiz-adv-x="215" d="M42 0l81 462h50l-81 -462h-50zM141 566l14 78h50l-14 -78h-50z" />
<glyph unicode="j" horiz-adv-x="217" d="M-32 -182q60 91 79 198l78 446h50l-78 -446q-19 -107 -79 -198h-50zM143 566l14 78h50l-14 -78h-50z" />
<glyph unicode="k" horiz-adv-x="442" d="M42 0l114 644h50l-68 -387l2 -1q135 106 249 206h68l1 -2q-106 -92 -252 -206q80 -133 176 -252l-1 -2h-63q-80 101 -155 225h-31l-40 -225h-50z" />
<glyph unicode="l" horiz-adv-x="216" d="M42 0l114 644h50l-114 -644h-50z" />
<glyph unicode="m" horiz-adv-x="731" d="M42 0l81 462h42l-3 -42q83 52 142 52q77 0 102 -60q98 60 159 60q49 0 79.5 -27t30.5 -80q0 -17 -5 -45l-56 -320h-50l56 316q5 25 5 46q0 66 -69 66q-54 0 -142 -53q1 -22 -5 -55l-56 -320h-50l56 316q5 25 5 46q0 66 -69 66q-53 0 -137 -50l-66 -378h-50z" />
<glyph unicode="n" horiz-adv-x="490" d="M42 0l81 462h42l-4 -46q81 56 155 56q52 0 85 -27.5t33 -80.5q0 -18 -5 -45l-56 -319h-50l56 315q5 35 5 44q0 69 -76 69q-63 0 -150 -53l-66 -375h-50z" />
<glyph unicode="o" horiz-adv-x="478" d="M45 162q0 112 46 199q60 111 178 111q79 0 120 -44t41 -128q0 -112 -46 -199q-60 -111 -178 -111q-79 0 -120 44t-41 128zM96 165q0 -131 113 -131q88 0 132 91q38 79 38 172q0 131 -113 131q-88 0 -132 -91q-38 -79 -38 -172z" />
<glyph unicode="p" horiz-adv-x="484" d="M9 -182l114 644h41l-2 -36q63 46 130 46q70 0 105.5 -42t35.5 -122q0 -111 -42 -204q-53 -114 -176 -114q-57 0 -122 19l-34 -191h-50zM101 52q60 -20 114 -20q91 0 131 88q36 78 36 183q0 126 -98 126q-62 0 -125 -46z" />
<glyph unicode="q" d="M47 153q0 124 49 215q54 104 173 104q73 0 166 -36l-109 -618h-50l36 207q-60 -35 -119 -35q-146 0 -146 163zM98 154q0 -121 101 -121q59 0 121 38l60 338q-66 21 -112 21q-88 0 -129 -83q-18 -36 -29.5 -93t-11.5 -100z" />
<glyph unicode="r" horiz-adv-x="325" d="M42 0l81 462h42l-4 -47q60 57 126 57q25 0 55 -7l-9 -48q-25 7 -51 7q-71 0 -125 -56l-65 -368h-50z" />
<glyph unicode="s" horiz-adv-x="371" d="M-9 17l14 44q77 -27 141 -27q52 0 86 24t34 70q0 33 -20 50t-71 39q-69 29 -89 46q-33 29 -33 77q0 61 45.5 96.5t117.5 35.5q60 0 131 -22l-13 -43q-68 21 -122 21q-47 0 -77.5 -22.5t-30.5 -62.5q0 -29 17.5 -43.5t68.5 -35.5q9 -4 14 -6q61 -26 87 -51t26 -73 q0 -66 -48 -105t-126 -39q-69 0 -152 27z" />
<glyph unicode="t" horiz-adv-x="310" d="M65 421l6 34l64 4l31 141h42l-24 -138h129l-7 -41h-129l-53 -302q-4 -21 -4 -37q0 -24 11.5 -36t41.5 -12q29 0 62 11l11 -41q-38 -14 -78 -14q-99 0 -99 89q0 15 5 42l53 300h-62z" />
<glyph unicode="u" horiz-adv-x="490" d="M56 98q0 18 5 45l56 319h50l-56 -315q-5 -35 -5 -44q0 -69 76 -69q63 0 150 53l66 375h50l-81 -462h-42l4 46q-81 -56 -155 -56q-52 0 -85 27.5t-33 80.5z" />
<glyph unicode="v" horiz-adv-x="417" d="M68 462h50q16 -238 56 -420h4q99 175 202 420h50q-118 -287 -229 -462h-66q-22 82 -41 210t-26 252z" />
<glyph unicode="w" horiz-adv-x="650" d="M66 462h50q3 -228 33 -420h5q86 194 172 420h79q7 -224 24 -420h5q102 200 181 420h50q-84 -233 -203 -462h-74q-22 229 -28 417h-4q-85 -221 -174 -417h-75q-38 225 -41 462z" />
<glyph unicode="x" horiz-adv-x="427" d="M-6 0q98 129 188 234q-56 112 -102 228h53q32 -88 84 -191h4q94 111 151 191h56q-83 -110 -182 -228q49 -100 107 -234h-55q-44 108 -88 197h-4q-55 -65 -157 -197h-55z" />
<glyph unicode="y" horiz-adv-x="403" d="M37 -182q50 81 108 182h-20q-22 78 -41 211.5t-24 250.5h49q16 -240 54 -421h4q122 224 207 421h50q-152 -353 -337 -644h-50z" />
<glyph unicode="z" horiz-adv-x="387" d="M0 0l6 36l311 384h-237l7 42h299l-6 -36l-311 -384h245l-7 -42h-307z" />
<glyph unicode="{" horiz-adv-x="251" d="M49 244q74 51 87 128l29 164q19 112 130 118l-6 -34q-65 -10 -78 -84l-30 -170q-13 -75 -80 -122q40 -36 40 -90q0 -14 -3 -30l-29 -164q-4 -24 -4 -35q0 -49 51 -57l-6 -34q-92 4 -92 83q0 14 4 37l29 164q3 16 3 31q0 56 -45 95z" />
<glyph unicode="|" horiz-adv-x="298" d="M49 -202l153 866h46l-153 -866h-46z" />
<glyph unicode="}" horiz-adv-x="251" d="M-41 -166l6 34q65 10 78 84l30 170q14 76 80 122q-40 36 -40 90q0 14 3 30l29 164q4 24 4 35q0 49 -51 57l6 34q92 -4 92 -83q0 -14 -4 -37l-29 -164q-3 -16 -3 -31q0 -56 45 -95q-74 -51 -87 -128l-29 -164q-19 -112 -130 -118z" />
<glyph unicode="~" horiz-adv-x="465" d="M82 305q29 70 89 70q29 0 81 -31q59 -36 79 -36q34 0 57 42l26 -12q-29 -70 -89 -70q-29 0 -81 31q-59 36 -79 36q-34 0 -57 -42z" />
<glyph unicode="&#xa1;" horiz-adv-x="264" d="M25 -182l97 447h31l-61 -447h-67zM127 388l13 74h63l-13 -74h-63z" />
<glyph unicode="&#xa2;" horiz-adv-x="454" d="M67 260q0 113 52 204q54 93 158 99l17 95h46l-17 -96q44 -4 103 -20l-11 -42q-71 20 -124 20q-87 0 -130 -81q-43 -83 -43 -181q0 -132 122 -132q56 0 119 25l14 -42q-65 -28 -135 -28l-16 -93h-46l17 97q-126 22 -126 175z" />
<glyph unicode="&#xa3;" horiz-adv-x="504" d="M36 0l6 32q121 86 121 203q0 27 -4 58h-84l6 35l74 4q-8 66 -8 101q0 95 44 151q55 70 172 70q63 0 140 -20l-11 -44q-74 18 -131 18q-161 0 -161 -173q0 -33 8 -101h158l-7 -41h-146q2 -30 2 -46q0 -123 -90 -197l1 -4h291l-8 -46h-373z" />
<glyph unicode="&#xa4;" horiz-adv-x="470" d="M58 133l66 67q-14 30 -14 71q0 48 15 99t41 81l-41 62l36 24l38 -58q34 21 76 21q51 0 80 -26l62 63l28 -26l-66 -67q14 -30 14 -71q0 -48 -15 -99t-41 -81l41 -62l-36 -24l-38 58q-34 -21 -76 -21q-51 0 -80 26l-62 -63zM153 275q0 -94 79 -94q61 0 91 63q27 57 27 125 q0 94 -79 94q-61 0 -91 -63q-27 -57 -27 -125z" />
<glyph unicode="&#xa5;" horiz-adv-x="494" d="M59 165l7 41h150l17 94h-150l7 41h128q-64 147 -103 303h54q36 -145 97 -289h4q109 143 197 289h55q-94 -155 -208 -303h128l-7 -41h-150l-17 -94h150l-7 -41h-150l-29 -165h-52l29 165h-150z" />
<glyph unicode="&#xa6;" horiz-adv-x="298" d="M48 -202l60 338h46l-60 -338h-46zM142 326l60 338h46l-60 -338h-46z" />
<glyph unicode="&#xa7;" horiz-adv-x="535" d="M45 -112l12 44q80 -21 132 -21q108 0 159 98q19 35 32 82q-47 -10 -87 -10q-194 0 -194 206q0 141 61 250q66 117 203 117q63 0 143 -22l-12 -44q-80 21 -132 21q-108 0 -159 -98q-20 -39 -32 -83q42 11 87 11q194 0 194 -206q0 -141 -61 -250q-66 -117 -203 -117 q-63 0 -143 22zM151 287q0 -161 144 -161q46 0 96 14q9 49 9 93q0 161 -144 161q-48 0 -96 -15q-9 -49 -9 -92z" />
<glyph unicode="&#xa8;" horiz-adv-x="344" d="M113 542l12 70h61l-12 -70h-61zM280 542l12 70h61l-12 -70h-61z" />
<glyph unicode="&#xa9;" horiz-adv-x="726" d="M71 322q0 154 82 243t226 89t226 -89t82 -243t-82 -243t-226 -89t-226 89t-82 243zM111 322q0 -142 70.5 -218.5t197.5 -76.5t197.5 76.5t70.5 218.5t-70.5 218.5t-197.5 76.5t-197.5 -76.5t-70.5 -218.5zM232 322q0 182 151 182q44 0 90 -12l-7 -38q-46 11 -82 11 q-62 0 -85 -37.5t-23 -104.5q0 -66 22 -105t82 -39q50 0 95 20l14 -36q-51 -24 -111 -24q-146 0 -146 183z" />
<glyph unicode="&#xaa;" horiz-adv-x="318" d="M93 460q0 71 29 129q32 65 107 65q49 0 103 -23l-46 -263h-30v21q-38 -27 -78 -27q-41 0 -63 25.5t-22 72.5zM132 462q0 -66 55 -66q37 0 70 24l33 190q-33 11 -61 11q-51 0 -74 -49t-23 -110z" />
<glyph unicode="&#xab;" horiz-adv-x="444" d="M44 229q0 45 51 93q41 40 115 103l31 -33q-71 -61 -119 -107q-29 -29 -29 -55q0 -18 13 -39q18 -29 92 -124l-38 -30q-62 78 -89 118t-27 74zM194 229q0 45 51 93q41 40 115 103l31 -33q-71 -61 -119 -107q-29 -29 -29 -55q0 -18 13 -39q18 -29 92 -124l-38 -30 q-62 78 -89 118t-27 74z" />
<glyph unicode="&#xac;" horiz-adv-x="572" d="M78 317l7 40h444l-44 -251h-42l37 211h-402z" />
<glyph unicode="&#xad;" horiz-adv-x="298" d="M51 225l8 46h193l-8 -46h-193z" />
<glyph unicode="&#xae;" horiz-adv-x="446" d="M110 488q0 77 42 121.5t116 44.5t116 -44.5t42 -121.5t-42 -121.5t-116 -44.5t-116 44.5t-42 121.5zM140 488q0 -68 33 -103t95 -35t95 35t33 103t-33 103t-95 35t-95 -35t-33 -103zM207 401v178q34 4 55 4q71 0 71 -55q0 -40 -39 -52q15 -28 42 -73l-1 -2h-34 q-14 23 -38 71q-19 0 -26 1v-72h-30zM237 497q7 -1 21 -1q44 0 44 31q0 29 -39 29q-17 0 -26 -1v-58z" />
<glyph unicode="&#xaf;" horiz-adv-x="344" d="M113 557l7 40h232l-7 -40h-232z" />
<glyph unicode="&#xb0;" horiz-adv-x="342" d="M105 531q0 53 34 88t85 35t85 -35t34 -88t-34 -88t-85 -35t-85 35t-34 88zM139 531q0 -39 24.5 -65.5t60.5 -26.5t60.5 26.5t24.5 65.5t-24.5 65.5t-60.5 26.5t-60.5 -26.5t-24.5 -65.5z" />
<glyph unicode="&#xb1;" horiz-adv-x="563" d="M30 0l7 40h409l-7 -40h-409zM87 324l7 40h184l32 181h42l-32 -181h183l-7 -40h-183l-32 -181h-42l32 181h-184z" />
<glyph unicode="&#xb2;" horiz-adv-x="319" d="M61 293l5 31q42 32 68.5 54.5t62.5 57t54.5 67t18.5 60.5q0 53 -61 53q-34 0 -80 -18l-11 35q50 21 95 21q46 0 72.5 -23t26.5 -65q0 -94 -176 -232l1 -4h144l-7 -37h-213z" />
<glyph unicode="&#xb3;" horiz-adv-x="313" d="M64 304l10 37q44 -14 83 -14q41 0 64 20.5t23 57.5q0 29 -14.5 41.5t-44.5 12.5h-37l6 36h40q31 0 51.5 20t20.5 52q0 49 -58 49q-36 0 -79 -17l-10 35q52 20 92 20q44 0 70.5 -21t26.5 -61q0 -32 -16.5 -57.5t-44.5 -34.5v-4q39 -16 39 -70q0 -53 -33 -85t-96 -32 q-48 0 -93 15z" />
<glyph unicode="&#xb4;" horiz-adv-x="344" d="M171 537l122 148l41 -37l-143 -129z" />
<glyph unicode="&#xb5;" horiz-adv-x="520" d="M39 -182q46 94 46 202v442h50v-321q0 -107 99 -107q76 0 151 54v374h50v-462h-42l-5 47q-77 -57 -158 -57q-58 0 -95 27q-1 -105 -46 -199h-50z" />
<glyph unicode="&#xb6;" horiz-adv-x="444" d="M90 451q0 80 50 136.5t136 56.5h163l-146 -826h-46l92 521h-62l-92 -521h-46l92 521q-74 0 -107.5 25.5t-33.5 86.5z" />
<glyph unicode="&#xb7;" horiz-adv-x="242" d="M84 203l13 74h64l-13 -74h-64z" />
<glyph unicode="&#xb8;" horiz-adv-x="344" d="M48 -183l9 27q21 -7 38 -7q28 0 42 17t14 38q0 37 -66 38l8 25q93 0 93 -61q0 -32 -22 -59.5t-63 -27.5q-26 0 -53 10z" />
<glyph unicode="&#xb9;" horiz-adv-x="276" d="M106 604l101 40h34l-62 -351h-41l54 307l-76 -26z" />
<glyph unicode="&#xba;" horiz-adv-x="318" d="M89 466q0 67 28 121q36 67 110 67q99 0 99 -104q0 -67 -28 -121q-36 -67 -110 -67q-99 0 -99 104zM128 468q0 -71 63 -71q51 0 74 51q22 46 22 100q0 71 -63 71q-50 0 -74 -51q-22 -47 -22 -100z" />
<glyph unicode="&#xbb;" horiz-adv-x="444" d="M52 70q71 61 119 107q29 29 29 55q0 18 -13 39q-18 29 -92 124l38 30q62 -78 89 -118t27 -74q0 -45 -51 -93q-41 -40 -115 -103zM202 70q71 61 119 107q29 29 29 55q0 18 -13 39q-18 29 -92 124l38 30q62 -78 89 -118t27 -74q0 -45 -51 -93q-41 -40 -115 -103z" />
<glyph unicode="&#xbc;" horiz-adv-x="665" d="M73 0l459 644h52l-459 -644h-52zM98 604l101 40h34l-62 -351h-41l54 307l-76 -26zM356 80l5 30q75 110 176 241h45q-96 -127 -172 -235h113l18 74h35l-13 -74h63l-6 -36h-63l-14 -80h-41l14 80h-160z" />
<glyph unicode="&#xbd;" horiz-adv-x="703" d="M73 0l459 644h52l-459 -644h-52zM98 604l101 40h34l-62 -351h-41l54 307l-76 -26zM414 1l5 31q42 32 68.5 54.5t62.5 57t54.5 67t18.5 60.5q0 53 -61 53q-34 0 -80 -18l-11 35q50 21 95 21q46 0 72.5 -23t26.5 -65q0 -94 -176 -232l1 -4h144l-7 -37h-213z" />
<glyph unicode="&#xbe;" horiz-adv-x="721" d="M59 304l10 37q44 -14 83 -14q41 0 64 20.5t23 57.5q0 29 -14.5 41.5t-44.5 12.5h-37l6 36h40q31 0 51.5 20t20.5 52q0 49 -58 49q-36 0 -79 -17l-10 35q52 20 92 20q44 0 70.5 -21t26.5 -61q0 -32 -16.5 -57.5t-44.5 -34.5v-4q39 -16 39 -70q0 -53 -33 -85t-96 -32 q-48 0 -93 15zM129 0l459 644h52l-459 -644h-52zM412 80l5 30q75 110 176 241h45q-96 -127 -172 -235h113l18 74h35l-13 -74h63l-6 -36h-63l-14 -80h-41l14 80h-160z" />
<glyph unicode="&#xbf;" horiz-adv-x="382" d="M-9 -55q0 52 25.5 88.5t80.5 84.5q66 58 82.5 79t25.5 68h46q-11 -62 -37 -96.5t-90 -87.5q-39 -32 -60 -62t-21 -71q0 -47 29 -71t77 -24q56 0 127 27l14 -43q-74 -29 -143 -29q-70 0 -113 35t-43 102zM216 388l13 74h63l-13 -74h-63z" />
<glyph unicode="&#xc0;" horiz-adv-x="517" d="M-20 0q71 162 162.5 349t152.5 295h70q53 -241 89 -644h-52l-17 170h-275l-77 -170h-53zM130 216h251q-27 217 -57 382h-4q-112 -215 -190 -382zM268 824l53 37l70 -148l-26 -18z" />
<glyph unicode="&#xc1;" horiz-adv-x="517" d="M-20 0q71 162 162.5 349t152.5 295h70q53 -241 89 -644h-52l-17 170h-275l-77 -170h-53zM130 216h251q-27 217 -57 382h-4q-112 -215 -190 -382zM288 713l122 148l41 -37l-143 -129z" />
<glyph unicode="&#xc2;" horiz-adv-x="517" d="M-20 0q71 162 162.5 349t152.5 295h70q53 -241 89 -644h-52l-17 170h-275l-77 -170h-53zM130 216h251q-27 217 -57 382h-4q-112 -215 -190 -382zM215 710l126 120h44l84 -120l-23 -19l-88 98l-122 -98z" />
<glyph unicode="&#xc3;" horiz-adv-x="517" d="M-20 0q71 162 162.5 349t152.5 295h70q53 -241 89 -644h-52l-17 170h-275l-77 -170h-53zM130 216h251q-27 217 -57 382h-4q-112 -215 -190 -382zM201 726q34 74 88 74q25 0 67 -24.5t61 -24.5q33 0 55 43l25 -10q-36 -75 -88 -75q-26 0 -67.5 24.5t-60.5 24.5 q-33 0 -55 -43z" />
<glyph unicode="&#xc4;" horiz-adv-x="517" d="M-20 0q71 162 162.5 349t152.5 295h70q53 -241 89 -644h-52l-17 170h-275l-77 -170h-53zM130 216h251q-27 217 -57 382h-4q-112 -215 -190 -382zM230 718l12 70h61l-12 -70h-61zM397 718l12 70h61l-12 -70h-61z" />
<glyph unicode="&#xc5;" horiz-adv-x="517" d="M-20 0q71 162 162.5 349t152.5 295h70q53 -241 89 -644h-52l-17 170h-275l-77 -170h-53zM130 216h251q-27 217 -57 382h-4q-112 -215 -190 -382zM267 774q0 40 26 67t68 27q35 0 57 -20.5t22 -57.5q0 -40 -26 -67t-68 -27q-35 0 -57 20.5t-22 57.5zM299 775q0 -49 50 -49 q28 0 43.5 18t15.5 45q0 49 -50 49q-28 0 -43.5 -18t-15.5 -45z" />
<glyph unicode="&#xc6;" horiz-adv-x="705" d="M-26 0q94 163 209 349.5t190 294.5h357l-8 -46h-265l-43 -244h220l-8 -46h-221l-46 -262h267l-8 -46h-319l30 170h-200l-99 -170h-56zM155 216h182l68 382h-10q-149 -231 -240 -382z" />
<glyph unicode="&#xc7;" horiz-adv-x="507" d="M64 224q0 70 18 151.5t52 143.5q76 135 233 135q68 0 153 -23l-14 -45q-88 22 -140 22q-127 0 -188 -115q-30 -56 -45.5 -130.5t-15.5 -137.5q0 -96 40.5 -142.5t126.5 -46.5q71 0 145 29l16 -41q-81 -34 -163 -34q-218 0 -218 234zM166 -183l9 27q21 -7 38 -7 q28 0 42 17t14 38q0 37 -66 38l8 25q93 0 93 -61q0 -32 -22 -59.5t-63 -27.5q-26 0 -53 10z" />
<glyph unicode="&#xc8;" horiz-adv-x="472" d="M46 0l114 644h337l-8 -46h-285l-43 -244h238l-8 -46h-239l-46 -262h287l-8 -46h-339zM266 824l53 37l70 -148l-26 -18z" />
<glyph unicode="&#xc9;" horiz-adv-x="472" d="M46 0l114 644h337l-8 -46h-285l-43 -244h238l-8 -46h-239l-46 -262h287l-8 -46h-339zM286 713l122 148l41 -37l-143 -129z" />
<glyph unicode="&#xca;" horiz-adv-x="472" d="M46 0l114 644h337l-8 -46h-285l-43 -244h238l-8 -46h-239l-46 -262h287l-8 -46h-339zM213 710l126 120h44l84 -120l-23 -19l-88 98l-122 -98z" />
<glyph unicode="&#xcb;" horiz-adv-x="472" d="M46 0l114 644h337l-8 -46h-285l-43 -244h238l-8 -46h-239l-46 -262h287l-8 -46h-339zM228 718l12 70h61l-12 -70h-61zM395 718l12 70h61l-12 -70h-61z" />
<glyph unicode="&#xcc;" horiz-adv-x="227" d="M46 0l114 644h52l-114 -644h-52zM122 824l53 37l70 -148l-26 -18z" />
<glyph unicode="&#xcd;" horiz-adv-x="227" d="M46 0l114 644h52l-114 -644h-52zM142 713l122 148l41 -37l-143 -129z" />
<glyph unicode="&#xce;" horiz-adv-x="227" d="M46 0l114 644h52l-114 -644h-52zM69 710l126 120h44l84 -120l-23 -19l-88 98l-122 -98z" />
<glyph unicode="&#xcf;" horiz-adv-x="227" d="M46 0l114 644h52l-114 -644h-52zM84 718l12 70h61l-12 -70h-61zM251 718l12 70h61l-12 -70h-61z" />
<glyph unicode="&#xd0;" horiz-adv-x="589" d="M34 310l7 41h75l51 290q85 13 146 13q246 0 246 -230q0 -63 -17 -141.5t-48 -138.5q-42 -80 -108.5 -116.5t-164.5 -36.5q-81 0 -166 12l54 307h-75zM114 44q66 -7 107 -7q84 0 138.5 29.5t90.5 100.5q27 53 41.5 123.5t14.5 129.5q0 102 -50 145t-148 43q-49 0 -96 -7 l-44 -250h131l-7 -41h-131z" />
<glyph unicode="&#xd1;" horiz-adv-x="625" d="M46 0l114 644h82l208 -595h4l105 595h51l-114 -644h-82l-208 595h-4l-105 -595h-51zM256 726q34 74 88 74q26 0 67 -24.5t61 -24.5q33 0 55 43l25 -10q-36 -75 -88 -75q-26 0 -67.5 24.5t-60.5 24.5q-33 0 -55 -43z" />
<glyph unicode="&#xd2;" horiz-adv-x="613" d="M63 215q0 66 17 146.5t50 144.5q75 148 239 148q211 0 211 -226q0 -65 -17 -146t-50 -145q-75 -147 -239 -147q-211 0 -211 225zM116 220q0 -92 39.5 -138t123.5 -46q66 0 111 29t77 94q27 55 43.5 128.5t16.5 136.5q0 184 -163 184q-66 0 -111 -29t-77 -95 q-27 -56 -43.5 -128.5t-16.5 -135.5zM316 824l53 37l70 -148l-26 -18z" />
<glyph unicode="&#xd3;" horiz-adv-x="613" d="M63 215q0 66 17 146.5t50 144.5q75 148 239 148q211 0 211 -226q0 -65 -17 -146t-50 -145q-75 -147 -239 -147q-211 0 -211 225zM116 220q0 -92 39.5 -138t123.5 -46q66 0 111 29t77 94q27 55 43.5 128.5t16.5 136.5q0 184 -163 184q-66 0 -111 -29t-77 -95 q-27 -56 -43.5 -128.5t-16.5 -135.5zM336 713l122 148l41 -37l-143 -129z" />
<glyph unicode="&#xd4;" horiz-adv-x="613" d="M63 215q0 66 17 146.5t50 144.5q75 148 239 148q211 0 211 -226q0 -65 -17 -146t-50 -145q-75 -147 -239 -147q-211 0 -211 225zM116 220q0 -92 39.5 -138t123.5 -46q66 0 111 29t77 94q27 55 43.5 128.5t16.5 136.5q0 184 -163 184q-66 0 -111 -29t-77 -95 q-27 -56 -43.5 -128.5t-16.5 -135.5zM263 710l126 120h44l84 -120l-23 -19l-88 98l-122 -98z" />
<glyph unicode="&#xd5;" horiz-adv-x="613" d="M63 215q0 66 17 146.5t50 144.5q75 148 239 148q211 0 211 -226q0 -65 -17 -146t-50 -145q-75 -147 -239 -147q-211 0 -211 225zM116 220q0 -92 39.5 -138t123.5 -46q66 0 111 29t77 94q27 55 43.5 128.5t16.5 136.5q0 184 -163 184q-66 0 -111 -29t-77 -95 q-27 -56 -43.5 -128.5t-16.5 -135.5zM249 726q34 74 88 74q25 0 67 -24.5t61 -24.5q33 0 55 43l25 -10q-36 -75 -88 -75q-26 0 -67.5 24.5t-60.5 24.5q-33 0 -55 -43z" />
<glyph unicode="&#xd6;" horiz-adv-x="613" d="M63 215q0 66 17 146.5t50 144.5q75 148 239 148q211 0 211 -226q0 -65 -17 -146t-50 -145q-75 -147 -239 -147q-211 0 -211 225zM116 220q0 -92 39.5 -138t123.5 -46q66 0 111 29t77 94q27 55 43.5 128.5t16.5 136.5q0 184 -163 184q-66 0 -111 -29t-77 -95 q-27 -56 -43.5 -128.5t-16.5 -135.5zM278 718l12 70h61l-12 -70h-61zM445 718l12 70h61l-12 -70h-61z" />
<glyph unicode="&#xd7;" horiz-adv-x="563" d="M76 81l177 150l-123 150l32 28l123 -150l177 150l23 -28l-177 -150l123 -150l-32 -28l-123 150l-177 -150z" />
<glyph unicode="&#xd8;" horiz-adv-x="613" d="M33 0l62 76q-32 53 -32 140q0 65 17 146t50 145q75 147 239 147q101 0 154 -53l35 43h52l-62 -76q32 -53 32 -140q0 -65 -17 -146t-50 -145q-75 -147 -239 -147q-101 0 -154 53l-35 -43h-52zM116 220q0 -57 15 -96h3l356 436q-40 48 -126 48q-66 0 -111 -29t-77 -94 q-27 -55 -43.5 -128.5t-16.5 -136.5zM153 84q41 -48 126 -48q66 0 111 29t77 94q27 55 43.5 128.5t16.5 136.5q0 57 -15 96h-3z" />
<glyph unicode="&#xd9;" horiz-adv-x="609" d="M82 166q0 46 8 90l68 388h52l-67 -382q-9 -51 -9 -89q0 -137 140 -137q86 0 135 54q47 51 68 172l67 382h51l-68 -388q-25 -141 -82 -201q-62 -65 -176 -65q-90 0 -138.5 44.5t-48.5 131.5zM315 824l53 37l70 -148l-26 -18z" />
<glyph unicode="&#xda;" horiz-adv-x="609" d="M82 166q0 46 8 90l68 388h52l-67 -382q-9 -51 -9 -89q0 -137 140 -137q86 0 135 54q47 51 68 172l67 382h51l-68 -388q-25 -141 -82 -201q-62 -65 -176 -65q-90 0 -138.5 44.5t-48.5 131.5zM335 713l122 148l41 -37l-143 -129z" />
<glyph unicode="&#xdb;" horiz-adv-x="609" d="M82 166q0 46 8 90l68 388h52l-67 -382q-9 -51 -9 -89q0 -137 140 -137q86 0 135 54q47 51 68 172l67 382h51l-68 -388q-25 -141 -82 -201q-62 -65 -176 -65q-90 0 -138.5 44.5t-48.5 131.5zM262 710l126 120h44l84 -120l-23 -19l-88 98l-122 -98z" />
<glyph unicode="&#xdc;" horiz-adv-x="609" d="M82 166q0 46 8 90l68 388h52l-67 -382q-9 -51 -9 -89q0 -137 140 -137q86 0 135 54q47 51 68 172l67 382h51l-68 -388q-25 -141 -82 -201q-62 -65 -176 -65q-90 0 -138.5 44.5t-48.5 131.5zM277 718l12 70h61l-12 -70h-61zM444 718l12 70h61l-12 -70h-61z" />
<glyph unicode="&#xdd;" horiz-adv-x="505" d="M94 644h54q40 -185 112 -357h4q132 174 237 357h55q-118 -206 -276 -407l-42 -237h-52l42 237q-91 203 -134 407zM282 713l122 148l41 -37l-143 -129z" />
<glyph unicode="&#xde;" horiz-adv-x="511" d="M46 0l114 644h52l-22 -123q45 6 93 6q213 0 213 -160q0 -107 -67 -171q-58 -57 -185 -57q-54 0 -120 9l-26 -148h-52zM132 193q56 -8 112 -8q105 0 150 46q48 49 48 132q0 67 -43 92.5t-124 25.5q-35 0 -93 -6z" />
<glyph unicode="&#xdf;" horiz-adv-x="494" d="M42 0l85 481q16 90 60 131.5t132 41.5q143 0 143 -98q0 -42 -25.5 -69.5t-76.5 -56.5q-33 -19 -48.5 -29.5t-28 -27t-12.5 -35.5q0 -8 2 -14.5t4 -11.5t8 -10.5t9.5 -9t13 -8.5t14 -7.5t17 -8.5t17.5 -9q53 -27 76.5 -52t23.5 -71q0 -65 -45.5 -105.5t-121.5 -40.5 q-60 0 -132 23l14 44q65 -23 120 -23q51 0 82.5 25t31.5 71q0 33 -17 49.5t-62 39.5q-32 16 -43 22.5t-30.5 21.5t-26 32t-6.5 40q0 41 24 67t81 59q47 27 66.5 46t19.5 46q0 57 -95 57q-64 0 -95.5 -29t-44.5 -106l-84 -475h-50z" />
<glyph unicode="&#xe0;" d="M47 152q0 51 12.5 111.5t36.5 104.5q54 104 173 104q73 0 166 -36l-77 -436h-41l2 36q-64 -46 -129 -46q-70 0 -106.5 41.5t-36.5 120.5zM98 154q0 -121 99 -121q58 0 125 47l58 329q-66 21 -112 21q-88 0 -129 -83q-18 -36 -29.5 -93t-11.5 -100zM225 648l53 37l70 -148 l-26 -18z" />
<glyph unicode="&#xe1;" d="M47 152q0 51 12.5 111.5t36.5 104.5q54 104 173 104q73 0 166 -36l-77 -436h-41l2 36q-64 -46 -129 -46q-70 0 -106.5 41.5t-36.5 120.5zM98 154q0 -121 99 -121q58 0 125 47l58 329q-66 21 -112 21q-88 0 -129 -83q-18 -36 -29.5 -93t-11.5 -100zM245 537l122 148 l41 -37l-143 -129z" />
<glyph unicode="&#xe2;" d="M47 152q0 51 12.5 111.5t36.5 104.5q54 104 173 104q73 0 166 -36l-77 -436h-41l2 36q-64 -46 -129 -46q-70 0 -106.5 41.5t-36.5 120.5zM98 154q0 -121 99 -121q58 0 125 47l58 329q-66 21 -112 21q-88 0 -129 -83q-18 -36 -29.5 -93t-11.5 -100zM172 534l126 120h44 l84 -120l-23 -19l-88 98l-122 -98z" />
<glyph unicode="&#xe3;" d="M47 152q0 51 12.5 111.5t36.5 104.5q54 104 173 104q73 0 166 -36l-77 -436h-41l2 36q-64 -46 -129 -46q-70 0 -106.5 41.5t-36.5 120.5zM98 154q0 -121 99 -121q58 0 125 47l58 329q-66 21 -112 21q-88 0 -129 -83q-18 -36 -29.5 -93t-11.5 -100zM158 550q34 74 88 74 q26 0 67 -24.5t61 -24.5q33 0 55 43l25 -10q-36 -75 -88 -75q-26 0 -67.5 24.5t-60.5 24.5q-33 0 -55 -43z" />
<glyph unicode="&#xe4;" d="M47 152q0 51 12.5 111.5t36.5 104.5q54 104 173 104q73 0 166 -36l-77 -436h-41l2 36q-64 -46 -129 -46q-70 0 -106.5 41.5t-36.5 120.5zM98 154q0 -121 99 -121q58 0 125 47l58 329q-66 21 -112 21q-88 0 -129 -83q-18 -36 -29.5 -93t-11.5 -100zM187 542l12 70h61 l-12 -70h-61zM354 542l12 70h61l-12 -70h-61z" />
<glyph unicode="&#xe5;" d="M47 152q0 51 12.5 111.5t36.5 104.5q54 104 173 104q73 0 166 -36l-77 -436h-41l2 36q-64 -46 -129 -46q-70 0 -106.5 41.5t-36.5 120.5zM98 154q0 -121 99 -121q58 0 125 47l58 329q-66 21 -112 21q-88 0 -129 -83q-18 -36 -29.5 -93t-11.5 -100zM224 598q0 40 26 67 t68 27q35 0 57 -20.5t22 -57.5q0 -40 -26 -67t-68 -27q-35 0 -57 20.5t-22 57.5zM256 599q0 -49 50 -49q28 0 43.5 18t15.5 45q0 49 -50 49q-28 0 -43.5 -18t-15.5 -45z" />
<glyph unicode="&#xe6;" horiz-adv-x="713" d="M47 151q0 115 47 212q53 109 169 109q64 0 153 -31l-4 -22l3 -2q42 55 119 55q67 0 100.5 -43t33.5 -113q0 -44 -13 -102h-277q-3 -30 -3 -53q0 -128 112 -128q57 0 118 28l16 -40q-69 -32 -137 -32q-100 0 -139 70q-70 -69 -163 -69q-64 0 -99.5 41t-35.5 120zM98 154 q0 -121 91 -121q74 0 141 68q-5 21 -5 55q0 41 7 80l31 176q-61 18 -101 18q-84 0 -124 -87t-40 -189zM385 255h227q6 29 6 58q0 114 -88 114q-107 0 -145 -172z" />
<glyph unicode="&#xe7;" horiz-adv-x="415" d="M48 169q0 113 52 204q57 99 174 99q58 0 133 -21l-11 -42q-71 20 -124 20q-87 0 -130 -81q-43 -83 -43 -181q0 -132 122 -132q57 0 119 25l14 -42q-65 -28 -136 -28q-83 0 -126.5 45.5t-43.5 133.5zM125 -183l9 27q21 -7 38 -7q28 0 42 17t14 38q0 37 -66 38l8 25 q93 0 93 -61q0 -32 -22 -59.5t-63 -27.5q-26 0 -53 10z" />
<glyph unicode="&#xe8;" horiz-adv-x="450" d="M44 162q0 51 14.5 110.5t43.5 105.5q58 94 159 94q71 0 107.5 -44t36.5 -115q0 -42 -13 -99h-294q-3 -27 -3 -50q0 -131 121 -131q62 0 126 29l15 -41q-73 -32 -144 -32q-81 0 -125 43.5t-44 129.5zM105 255h245q5 28 5 55q0 117 -96 117q-115 0 -154 -172zM203 648 l53 37l70 -148l-26 -18z" />
<glyph unicode="&#xe9;" horiz-adv-x="450" d="M44 162q0 51 14.5 110.5t43.5 105.5q58 94 159 94q71 0 107.5 -44t36.5 -115q0 -42 -13 -99h-294q-3 -27 -3 -50q0 -131 121 -131q62 0 126 29l15 -41q-73 -32 -144 -32q-81 0 -125 43.5t-44 129.5zM105 255h245q5 28 5 55q0 117 -96 117q-115 0 -154 -172zM223 537 l122 148l41 -37l-143 -129z" />
<glyph unicode="&#xea;" horiz-adv-x="450" d="M44 162q0 51 14.5 110.5t43.5 105.5q58 94 159 94q71 0 107.5 -44t36.5 -115q0 -42 -13 -99h-294q-3 -27 -3 -50q0 -131 121 -131q62 0 126 29l15 -41q-73 -32 -144 -32q-81 0 -125 43.5t-44 129.5zM105 255h245q5 28 5 55q0 117 -96 117q-115 0 -154 -172zM150 534 l126 120h44l84 -120l-23 -19l-88 98l-122 -98z" />
<glyph unicode="&#xeb;" horiz-adv-x="450" d="M44 162q0 51 14.5 110.5t43.5 105.5q58 94 159 94q71 0 107.5 -44t36.5 -115q0 -42 -13 -99h-294q-3 -27 -3 -50q0 -131 121 -131q62 0 126 29l15 -41q-73 -32 -144 -32q-81 0 -125 43.5t-44 129.5zM105 255h245q5 28 5 55q0 117 -96 117q-115 0 -154 -172zM165 542 l12 70h61l-12 -70h-61zM332 542l12 70h61l-12 -70h-61z" />
<glyph unicode="&#xec;" horiz-adv-x="215" d="M42 0l81 462h50l-81 -462h-50zM85 648l53 37l70 -148l-26 -18z" />
<glyph unicode="&#xed;" horiz-adv-x="215" d="M42 0l81 462h50l-81 -462h-50zM105 537l122 148l41 -37l-143 -129z" />
<glyph unicode="&#xee;" horiz-adv-x="215" d="M32 534l126 120h44l84 -120l-23 -19l-88 98l-122 -98zM42 0l81 462h50l-81 -462h-50z" />
<glyph unicode="&#xef;" horiz-adv-x="215" d="M42 0l81 462h50l-81 -462h-50zM47 542l12 70h61l-12 -70h-61zM214 542l12 70h61l-12 -70h-61z" />
<glyph unicode="&#xf0;" horiz-adv-x="483" d="M45 165q0 108 47 196q59 111 174 111q47 0 91 -14q-19 60 -62 112l-102 -69l-23 33l98 66q-22 23 -65 55l27 33q42 -28 77 -61l75 52l23 -33l-71 -48q96 -111 96 -280q0 -130 -46 -217q-59 -111 -180 -111q-78 0 -118.5 44.5t-40.5 130.5zM96 166q0 -132 110 -132 q92 0 136 91q37 77 37 192q0 44 -9 93q-49 18 -101 18q-91 0 -135 -91q-38 -79 -38 -171z" />
<glyph unicode="&#xf1;" horiz-adv-x="490" d="M42 0l81 462h42l-4 -46q81 56 155 56q52 0 85 -27.5t33 -80.5q0 -18 -5 -45l-56 -319h-50l56 315q5 35 5 44q0 69 -76 69q-63 0 -150 -53l-66 -375h-50zM161 550q34 74 88 74q25 0 67 -24.5t61 -24.5q33 0 55 43l25 -10q-36 -75 -88 -75q-26 0 -67.5 24.5t-60.5 24.5 q-33 0 -55 -43z" />
<glyph unicode="&#xf2;" horiz-adv-x="478" d="M45 162q0 112 46 199q60 111 178 111q79 0 120 -44t41 -128q0 -112 -46 -199q-60 -111 -178 -111q-79 0 -120 44t-41 128zM96 165q0 -131 113 -131q88 0 132 91q38 79 38 172q0 131 -113 131q-88 0 -132 -91q-38 -79 -38 -172zM217 648l53 37l70 -148l-26 -18z" />
<glyph unicode="&#xf3;" horiz-adv-x="478" d="M45 162q0 112 46 199q60 111 178 111q79 0 120 -44t41 -128q0 -112 -46 -199q-60 -111 -178 -111q-79 0 -120 44t-41 128zM96 165q0 -131 113 -131q88 0 132 91q38 79 38 172q0 131 -113 131q-88 0 -132 -91q-38 -79 -38 -172zM237 537l122 148l41 -37l-143 -129z" />
<glyph unicode="&#xf4;" horiz-adv-x="478" d="M45 162q0 112 46 199q60 111 178 111q79 0 120 -44t41 -128q0 -112 -46 -199q-60 -111 -178 -111q-79 0 -120 44t-41 128zM96 165q0 -131 113 -131q88 0 132 91q38 79 38 172q0 131 -113 131q-88 0 -132 -91q-38 -79 -38 -172zM164 534l126 120h44l84 -120l-23 -19 l-88 98l-122 -98z" />
<glyph unicode="&#xf5;" horiz-adv-x="478" d="M45 162q0 112 46 199q60 111 178 111q79 0 120 -44t41 -128q0 -112 -46 -199q-60 -111 -178 -111q-79 0 -120 44t-41 128zM96 165q0 -131 113 -131q88 0 132 91q38 79 38 172q0 131 -113 131q-88 0 -132 -91q-38 -79 -38 -172zM150 550q34 74 88 74q26 0 67 -24.5 t61 -24.5q33 0 55 43l25 -10q-36 -75 -88 -75q-26 0 -67.5 24.5t-60.5 24.5q-33 0 -55 -43z" />
<glyph unicode="&#xf6;" horiz-adv-x="478" d="M45 162q0 112 46 199q60 111 178 111q79 0 120 -44t41 -128q0 -112 -46 -199q-60 -111 -178 -111q-79 0 -120 44t-41 128zM96 165q0 -131 113 -131q88 0 132 91q38 79 38 172q0 131 -113 131q-88 0 -132 -91q-38 -79 -38 -172zM179 542l12 70h61l-12 -70h-61zM346 542 l12 70h61l-12 -70h-61z" />
<glyph unicode="&#xf7;" horiz-adv-x="563" d="M55 211l7 40h444l-7 -40h-444zM210 0l13 73h60l-13 -73h-60zM279 389l13 73h60l-13 -73h-60z" />
<glyph unicode="&#xf8;" horiz-adv-x="478" d="M12 0l54 62q-21 41 -21 100q0 112 46 199q60 111 178 111q76 0 117 -41l27 31h50l-54 -62q21 -40 21 -100q0 -112 -46 -199q-60 -111 -178 -111q-76 0 -117 41l-27 -31h-50zM96 165q0 -26 7 -56h3l247 284q-27 35 -87 35q-88 0 -132 -91q-38 -79 -38 -172zM122 69 q27 -35 87 -35q88 0 132 91q38 79 38 172q0 26 -7 56h-3z" />
<glyph unicode="&#xf9;" horiz-adv-x="490" d="M56 98q0 18 5 45l56 319h50l-56 -315q-5 -35 -5 -44q0 -69 76 -69q63 0 150 53l66 375h50l-81 -462h-42l4 46q-81 -56 -155 -56q-52 0 -85 27.5t-33 80.5zM221 648l53 37l70 -148l-26 -18z" />
<glyph unicode="&#xfa;" horiz-adv-x="490" d="M56 98q0 18 5 45l56 319h50l-56 -315q-5 -35 -5 -44q0 -69 76 -69q63 0 150 53l66 375h50l-81 -462h-42l4 46q-81 -56 -155 -56q-52 0 -85 27.5t-33 80.5zM241 537l122 148l41 -37l-143 -129z" />
<glyph unicode="&#xfb;" horiz-adv-x="490" d="M56 98q0 18 5 45l56 319h50l-56 -315q-5 -35 -5 -44q0 -69 76 -69q63 0 150 53l66 375h50l-81 -462h-42l4 46q-81 -56 -155 -56q-52 0 -85 27.5t-33 80.5zM168 534l126 120h44l84 -120l-23 -19l-88 98l-122 -98z" />
<glyph unicode="&#xfc;" horiz-adv-x="490" d="M56 98q0 18 5 45l56 319h50l-56 -315q-5 -35 -5 -44q0 -69 76 -69q63 0 150 53l66 375h50l-81 -462h-42l4 46q-81 -56 -155 -56q-52 0 -85 27.5t-33 80.5zM183 542l12 70h61l-12 -70h-61zM350 542l12 70h61l-12 -70h-61z" />
<glyph unicode="&#xfd;" horiz-adv-x="403" d="M37 -182q50 81 108 182h-20q-22 78 -41 211.5t-24 250.5h49q16 -240 54 -421h4q122 224 207 421h50q-152 -353 -337 -644h-50zM200 537l122 148l41 -37l-143 -129z" />
<glyph unicode="&#xfe;" horiz-adv-x="484" d="M10 -182l146 826h49l-38 -215q62 43 125 43q70 0 105.5 -42t35.5 -122q0 -111 -42 -204q-53 -114 -176 -114q-57 0 -122 19l-34 -191h-49zM101 52q60 -20 114 -20q91 0 131 88q36 78 36 183q0 126 -98 126q-62 0 -125 -46z" />
<glyph unicode="&#xff;" horiz-adv-x="403" d="M37 -182q50 81 108 182h-20q-22 78 -41 211.5t-24 250.5h49q16 -240 54 -421h4q122 224 207 421h50q-152 -353 -337 -644h-50zM142 542l12 70h61l-12 -70h-61zM309 542l12 70h61l-12 -70h-61z" />
<glyph unicode="&#x152;" horiz-adv-x="743" d="M63 217q0 64 16 140t46 137q75 150 253 150h390l-8 -46h-265l-43 -244h220l-8 -46h-221l-46 -262h267l-8 -46h-391q-202 0 -202 217zM116 216q0 -90 39.5 -130t116.5 -40h73l98 552h-71q-72 0 -122 -29.5t-82 -99.5q-52 -115 -52 -253z" />
<glyph unicode="&#x153;" horiz-adv-x="738" d="M45 160q0 108 45 199q56 113 171 113q114 0 141 -96h4q56 96 152 96q68 0 101.5 -42.5t33.5 -113.5q0 -46 -14 -102h-276q-3 -30 -3 -53q0 -128 111 -128q56 0 119 28l16 -40q-71 -32 -137 -32q-120 0 -148 95h-4q-54 -94 -161 -94q-75 0 -113 43.5t-38 126.5zM96 163 q0 -129 103 -129q84 0 126 91q37 82 37 174q0 129 -104 129q-83 0 -125 -91q-37 -82 -37 -174zM410 255h227q6 38 6 61q0 49 -21 80t-67 31q-107 0 -145 -172z" />
<glyph unicode="&#x178;" horiz-adv-x="505" d="M94 644h54q40 -185 112 -357h4q132 174 237 357h55q-118 -206 -276 -407l-42 -237h-52l42 237q-91 203 -134 407zM223 718l12 70h61l-12 -70h-61zM390 718l12 70h61l-12 -70h-61z" />
<glyph unicode="&#x2c6;" horiz-adv-x="344" d="M98 534l126 120h44l84 -120l-23 -19l-88 98l-122 -98z" />
<glyph unicode="&#x2dc;" horiz-adv-x="344" d="M84 550q34 74 88 74q26 0 67 -24.5t61 -24.5q33 0 55 43l25 -10q-36 -75 -88 -75q-26 0 -67.5 24.5t-60.5 24.5q-33 0 -55 -43z" />
<glyph unicode="&#x2000;" horiz-adv-x="434" />
<glyph unicode="&#x2001;" horiz-adv-x="868" />
<glyph unicode="&#x2002;" horiz-adv-x="434" />
<glyph unicode="&#x2003;" horiz-adv-x="868" />
<glyph unicode="&#x2004;" horiz-adv-x="289" />
<glyph unicode="&#x2005;" horiz-adv-x="217" />
<glyph unicode="&#x2006;" horiz-adv-x="144" />
<glyph unicode="&#x2007;" horiz-adv-x="144" />
<glyph unicode="&#x2008;" horiz-adv-x="108" />
<glyph unicode="&#x2009;" horiz-adv-x="173" />
<glyph unicode="&#x200a;" horiz-adv-x="48" />
<glyph unicode="&#x2010;" horiz-adv-x="298" d="M51 225l8 46h193l-8 -46h-193z" />
<glyph unicode="&#x2011;" horiz-adv-x="298" d="M51 225l8 46h193l-8 -46h-193z" />
<glyph unicode="&#x2012;" horiz-adv-x="298" d="M51 225l8 46h193l-8 -46h-193z" />
<glyph unicode="&#x2013;" horiz-adv-x="649" d="M96 225l7 42h454l-7 -42h-454z" />
<glyph unicode="&#x2014;" horiz-adv-x="725" d="M46 225l7 42h629l-7 -42h-629z" />
<glyph unicode="&#x2018;" horiz-adv-x="195" d="M110 466q8 102 62 184l26 -4q-32 -101 -33 -178z" />
<glyph unicode="&#x2019;" horiz-adv-x="195" d="M111 470q32 101 33 178l55 2q-8 -102 -62 -184z" />
<glyph unicode="&#x201a;" horiz-adv-x="188" d="M8 -103q32 101 33 178l55 2q-8 -102 -62 -184z" />
<glyph unicode="&#x201c;" horiz-adv-x="311" d="M110 466q8 102 62 184l26 -4q-32 -101 -33 -178zM226 466q8 102 62 184l26 -4q-32 -101 -33 -178z" />
<glyph unicode="&#x201d;" horiz-adv-x="311" d="M111 470q32 101 33 178l55 2q-8 -102 -62 -184zM227 470q32 101 33 178l55 2q-8 -102 -62 -184z" />
<glyph unicode="&#x201e;" horiz-adv-x="304" d="M8 -103q32 101 33 178l55 2q-8 -102 -62 -184zM124 -103q32 101 33 178l55 2q-8 -102 -62 -184z" />
<glyph unicode="&#x2022;" horiz-adv-x="390" d="M112 315q0 49 27.5 77.5t74.5 28.5t71 -23.5t24 -61.5q0 -49 -27.5 -77.5t-74.5 -28.5t-71 23.5t-24 61.5z" />
<glyph unicode="&#x2026;" horiz-adv-x="582" d="M51 0l13 74h64l-13 -74h-64zM218 0l13 74h64l-13 -74h-64zM385 0l13 74h64l-13 -74h-64z" />
<glyph unicode="&#x202f;" horiz-adv-x="173" />
<glyph unicode="&#x2039;" horiz-adv-x="294" d="M44 229q0 45 51 93q41 40 115 103l31 -33q-71 -61 -119 -107q-29 -29 -29 -55q0 -18 13 -39q18 -29 92 -124l-38 -30q-62 78 -89 118t-27 74z" />
<glyph unicode="&#x203a;" horiz-adv-x="294" d="M52 70q71 61 119 107q29 29 29 55q0 18 -13 39q-18 29 -92 124l38 30q62 -78 89 -118t27 -74q0 -45 -51 -93q-41 -40 -115 -103z" />
<glyph unicode="&#x205f;" horiz-adv-x="217" />
<glyph unicode="&#x20ac;" horiz-adv-x="564" d="M24 238l7 41h79q5 48 15 96h-77l7 41h81q34 115 98.5 176.5t173.5 61.5q64 0 159 -25l-13 -44q-92 23 -147 23q-86 0 -135.5 -48.5t-81.5 -143.5h210l-7 -41h-214q-9 -38 -15 -96h212l-7 -41h-208q0 -107 39 -154.5t124 -47.5q71 0 152 32l15 -41q-82 -37 -169 -37 q-108 0 -161 59t-53 189h-84z" />
<glyph unicode="&#x2122;" horiz-adv-x="732" d="M79 609v35h263v-35h-112v-323h-39v323h-112zM380 286q6 248 15 358h53l100 -247h4l100 247h55q9 -110 15 -358h-39q-3 165 -9 303h-4l-97 -239h-45l-97 239h-4q-6 -138 -9 -303h-38z" />
<glyph unicode="&#xe000;" horiz-adv-x="460" d="M0 0v460h460v-460h-460z" />
</font>
</defs>
</svg>
