<?xml version="1.0" standalone="no"?>
<!DOCTYPE svg PUBLIC "-//W3C//DTD SVG 1.1//EN" "http://www.w3.org/Graphics/SVG/1.1/DTD/svg11.dtd" >
<svg xmlns="http://www.w3.org/2000/svg">
<metadata></metadata>
<defs>
<font id="gesta_mdregular" horiz-adv-x="648" >
<font-face units-per-em="1000" ascent="731" descent="-269" />
<missing-glyph horiz-adv-x="237" />
<glyph unicode="&#xfb01;" horiz-adv-x="536" d="M30 386v68l68 4v47q0 149 155 149q24 0 66 -6l-7 -79q-30 5 -54 5q-37 0 -53 -15.5t-16 -53.5v-43h276v-462h-91v386h-185v-386h-91v386h-68zM374 545v99h91v-99h-91z" />
<glyph unicode="&#xfb02;" horiz-adv-x="536" d="M30 386v68l68 4v19q0 96 50.5 136.5t146.5 40.5q85 0 170 -19v-635h-91v566q-54 8 -81 8q-49 0 -76.5 -19.5t-27.5 -72.5v-20h102v-76h-102v-386h-91v386h-68z" />
<glyph horiz-adv-x="0" />
<glyph horiz-adv-x="0" />
<glyph horiz-adv-x="333" />
<glyph unicode="&#xd;" horiz-adv-x="249" />
<glyph unicode=" "  horiz-adv-x="237" />
<glyph unicode="&#x09;" horiz-adv-x="237" />
<glyph unicode="&#xa0;" horiz-adv-x="237" />
<glyph unicode="!" horiz-adv-x="267" d="M80 644h107l-25 -447h-57zM87 0v99h93v-99h-93z" />
<glyph unicode="&#x22;" horiz-adv-x="319" d="M47 658h87q-2 -128 -23 -214h-41q-21 86 -23 214zM186 658h87q-2 -128 -23 -214h-41q-21 86 -23 214z" />
<glyph unicode="#" horiz-adv-x="588" d="M44 195l12 60h96l26 134h-96l12 60h96l39 195h61l-39 -195h136l39 195h60l-39 -195h96l-12 -60h-96l-26 -134h96l-12 -60h-96l-39 -195h-61l39 195h-136l-39 -195h-60l39 195h-96zM212 255h136l27 134h-136z" />
<glyph unicode="$" horiz-adv-x="526" d="M77 53l13 82q87 -17 150 -17q123 0 123 79q0 12 -2.5 22t-10.5 18.5t-13.5 13.5t-20.5 11.5t-22 9t-28 9.5t-29 10q-80 27 -119.5 60.5t-39.5 98.5q0 63 39 103t113 51v100h72v-96q57 -1 130 -17l-13 -81q-87 16 -136 16q-110 0 -110 -70q0 -12 2.5 -21t11 -17t14.5 -13 t21.5 -11.5t23 -9.5t29.5 -10t31 -10q77 -26 115 -60.5t38 -102.5q0 -66 -40 -107.5t-117 -53.5v-98h-72v93q-75 2 -153 18z" />
<glyph unicode="%" horiz-adv-x="739" d="M41 499q0 72 36 113.5t106 41.5t106 -41.5t36 -113.5q0 -73 -36 -114.5t-106 -41.5t-106 41.5t-36 114.5zM114 500q0 -95 69 -95q38 0 53.5 23t15.5 69q0 95 -69 95q-38 0 -53.5 -23t-15.5 -69zM143 0l392 644h69l-392 -644h-69zM422 145q0 73 36 114.5t106 41.5 t106 -41.5t36 -114.5q0 -72 -36 -113.5t-106 -41.5t-106 41.5t-36 113.5zM495 147q0 -95 69 -95q38 0 53.5 23t15.5 69q0 95 -69 95q-38 0 -53.5 -23t-15.5 -69z" />
<glyph unicode="&#x26;" horiz-adv-x="621" d="M59 175q0 125 109 157v5q-95 31 -95 140q0 88 60.5 132.5t168.5 44.5q76 0 167 -20l-13 -82q-91 17 -154 17q-64 0 -97 -22.5t-33 -75.5q0 -52 32.5 -74.5t95.5 -22.5h297v-80h-99q16 -54 16 -109q0 -99 -60.5 -147t-167.5 -48q-109 0 -168 48t-59 137zM158 183 q0 -57 31.5 -82.5t96.5 -25.5q70 0 102.5 27.5t32.5 88.5q0 39 -16 103h-109q-70 0 -104 -25.5t-34 -85.5z" />
<glyph unicode="'" horiz-adv-x="180" d="M47 658h87q-2 -128 -23 -214h-41q-21 86 -23 214z" />
<glyph unicode="(" horiz-adv-x="269" d="M51 244q0 241 140 431l50 -28q-111 -171 -111 -403t111 -403l-50 -28q-140 190 -140 431z" />
<glyph unicode=")" horiz-adv-x="269" d="M28 -159q111 171 111 403t-111 403l50 28q140 -190 140 -431t-140 -431z" />
<glyph unicode="*" horiz-adv-x="351" d="M48 462l82 47l-82 48l22 39l83 -47v95h45v-95l83 47l22 -39l-82 -47l82 -48l-22 -39l-83 47v-95h-45v95l-83 -47z" />
<glyph unicode="+" horiz-adv-x="586" d="M63 195v72h192v195h76v-195h192v-72h-192v-195h-76v195h-192z" />
<glyph unicode="," horiz-adv-x="242" d="M73 -116q13 52 13 110q0 49 -9 97l89 4q2 -12 2 -37q0 -97 -52 -179z" />
<glyph unicode="-" horiz-adv-x="296" d="M39 213v71h217v-71h-217z" />
<glyph unicode="." horiz-adv-x="242" d="M74 0v99h94v-99h-94z" />
<glyph unicode="/" horiz-adv-x="376" d="M15 -20l267 684h79l-267 -684h-79z" />
<glyph unicode="0" horiz-adv-x="579" d="M54 323q0 172 50.5 251.5t184.5 79.5q135 0 185.5 -80t50.5 -251q0 -172 -50.5 -252.5t-185.5 -80.5q-134 0 -184.5 80t-50.5 253zM153 323q0 -54 1.5 -85.5t9 -67t22 -53.5t40 -30t63.5 -12t63.5 12t40 30.5t22 53t9.5 67t2 85.5t-2 85t-9.5 66.5t-22 52.5t-40 30 t-63.5 12t-63.5 -12t-40 -30t-22 -53t-9 -66t-1.5 -85z" />
<glyph unicode="1" horiz-adv-x="385" d="M20 560l177 84h83v-644h-96v543l-132 -51z" />
<glyph unicode="2" horiz-adv-x="513" d="M46 611q95 43 189 43q96 0 155.5 -49.5t59.5 -139.5q0 -50 -19 -99t-58.5 -98.5t-78 -87.5t-98.5 -91l1 -4h266v-85h-413v72q153 132 227 223.5t74 167.5q0 50 -31 78t-91 28q-70 0 -154 -35z" />
<glyph unicode="3" horiz-adv-x="481" d="M30 10l14 83q94 -18 161 -18t101 24.5t34 85.5q0 58 -30.5 81.5t-94.5 23.5h-71v82h68q57 0 86 22t29 74q0 101 -109 101q-66 0 -151 -31l-28 77q92 39 180 39q96 0 151.5 -45t55.5 -129q0 -107 -90 -140v-4q103 -30 103 -155q0 -96 -61 -143.5t-174 -47.5q-81 0 -174 20 z" />
<glyph unicode="4" horiz-adv-x="546" d="M26 139v71q90 175 251 434h99q-159 -258 -244 -420h194l9 131h87v-131h110v-85h-110v-139h-96v139h-300z" />
<glyph unicode="5" horiz-adv-x="517" d="M55 8l11 83q94 -16 162 -16q74 0 110 25.5t36 93.5q0 62 -34 88.5t-112 26.5h-156l11 335h349v-85h-256l-6 -167h58q126 0 185.5 -46.5t59.5 -149.5q0 -107 -63 -156.5t-184 -49.5q-79 0 -171 18z" />
<glyph unicode="6" horiz-adv-x="546" d="M54 306q0 168 57.5 258t200.5 90q67 0 149 -21l-16 -82q-83 18 -133 18q-84 0 -119.5 -50t-39.5 -155q69 30 150 30q94 0 148.5 -49t54.5 -145q0 -99 -57.5 -154.5t-165.5 -55.5q-123 0 -176 77.5t-53 238.5zM153 289q2 -111 30 -162.5t104 -51.5q120 0 120 120 q0 118 -124 118q-64 0 -130 -24z" />
<glyph unicode="7" horiz-adv-x="458" d="M25 559v85h420v-57q-84 -237 -232 -587h-100q139 322 226 559h-314z" />
<glyph unicode="8" horiz-adv-x="554" d="M49 174q0 68 31.5 107.5t80.5 52.5v4q-42 11 -70.5 47t-28.5 95q0 78 55 126t160 48t160 -48t55 -126q0 -59 -28.5 -95t-70.5 -47v-4q49 -13 80.5 -52.5t31.5 -107.5q0 -87 -57.5 -135.5t-170.5 -48.5t-170.5 48.5t-57.5 135.5zM148 182q0 -107 129 -107t129 107 q0 110 -129 110t-129 -110zM161 473q0 -98 116 -98t116 98q0 96 -116 96t-116 -96z" />
<glyph unicode="9" horiz-adv-x="546" d="M41 444q0 100 58 155t165 55q123 0 175.5 -77.5t52.5 -242.5q0 -171 -58.5 -257.5t-202.5 -86.5q-70 0 -148 20l16 83q76 -18 131 -18q88 0 123.5 50t39.5 154q-68 -29 -150 -29q-97 0 -149.5 49.5t-52.5 144.5zM140 448q0 -117 121 -117q66 0 132 24q-2 113 -31.5 163.5 t-103.5 50.5q-118 0 -118 -121z" />
<glyph unicode=":" horiz-adv-x="242" d="M74 0v99h94v-99h-94zM74 363v99h94v-99h-94z" />
<glyph unicode=";" horiz-adv-x="242" d="M73 -116q13 52 13 110q0 49 -9 97l89 4q2 -12 2 -37q0 -97 -52 -179zM74 363v99h94v-99h-94z" />
<glyph unicode="&#x3c;" horiz-adv-x="586" d="M63 204v54l461 209v-88l-328 -146v-4l328 -146v-88z" />
<glyph unicode="=" horiz-adv-x="586" d="M63 106v72h461v-72h-461zM63 284v72h461v-72h-461z" />
<glyph unicode="&#x3e;" horiz-adv-x="586" d="M63 -5v88l328 146v4l-328 146v88l461 -209v-54z" />
<glyph unicode="?" horiz-adv-x="428" d="M23 607q86 47 176 47q83 0 135.5 -43t52.5 -122q0 -37 -14.5 -68.5t-30.5 -49t-48 -47.5q-39 -37 -53.5 -62t-14.5 -65h-82q0 63 18 100.5t64 80.5q23 22 33 32.5t21 32t11 44.5q0 40 -26 61t-72 21q-60 0 -138 -37zM138 0v99h94v-99h-94z" />
<glyph unicode="@" horiz-adv-x="748" d="M48 321q0 163 86 248t238 85q155 0 241 -85.5t86 -235.5q0 -192 -144 -192q-62 0 -92 38q-48 -38 -111 -38q-134 0 -134 179q0 93 39 138t119 45q61 0 127 -25v-186q0 -90 61 -90q71 0 71 126q0 127 -67.5 197t-195.5 70q-126 0 -193 -69t-67 -204t67 -204t193 -69 q70 0 155 26l19 -57q-77 -28 -171 -28q-155 0 -241 84t-86 247zM291 322q0 -62 18 -90t57 -28q41 0 74 22q-8 30 -8 63v146q-32 7 -55 7q-46 0 -66 -28.5t-20 -91.5z" />
<glyph unicode="A" horiz-adv-x="570" d="M17 0q97 360 205 644h127q105 -275 204 -644h-99l-41 151h-257l-41 -151h-98zM178 234h212q-42 145 -104 323h-4q-53 -153 -104 -323z" />
<glyph unicode="B" horiz-adv-x="577" d="M81 4v633q113 17 194 17q238 0 238 -171q0 -109 -97 -141v-4q114 -31 114 -158q0 -101 -65 -145.5t-190 -44.5q-85 0 -194 14zM177 79q51 -4 92 -4q83 0 122.5 22t39.5 87q0 60 -34.5 85t-105.5 25h-114v-215zM177 372h111q63 0 94.5 22t31.5 76q0 58 -35 78.5t-106 20.5 q-47 0 -96 -6v-191z" />
<glyph unicode="C" horiz-adv-x="532" d="M46 322q0 158 65.5 245t219.5 87q71 0 156 -18l-14 -83q-91 16 -143 16q-56 0 -94 -18t-57 -54t-26.5 -77.5t-7.5 -99.5q0 -43 3.5 -75.5t15 -65.5t31 -54.5t52 -35t77.5 -13.5q74 0 159 34l29 -79q-93 -41 -191 -41q-147 0 -211 87t-64 245z" />
<glyph unicode="D" horiz-adv-x="618" d="M81 2v635q108 17 185 17q159 0 235 -81t76 -252t-76.5 -251t-241.5 -80q-91 0 -178 12zM177 80q39 -4 80 -4q119 0 170 55t51 188t-50.5 191.5t-164.5 58.5q-38 0 -86 -6v-483z" />
<glyph unicode="E" horiz-adv-x="501" d="M81 0v644h378v-85h-282v-187h238v-83h-238v-204h282v-85h-378z" />
<glyph unicode="F" horiz-adv-x="493" d="M81 0v644h379v-85h-283v-198h240v-83h-240v-278h-96z" />
<glyph unicode="G" horiz-adv-x="601" d="M47 325q0 156 68.5 242.5t228.5 86.5q76 0 169 -20l-14 -82q-93 17 -155 17q-59 0 -99 -17.5t-61 -52t-29.5 -76t-8.5 -98.5q0 -54 7.5 -95t26 -78t55.5 -57t91 -20q58 0 112 19v237h96v-293q-96 -48 -211 -48q-276 0 -276 335z" />
<glyph unicode="H" horiz-adv-x="644" d="M81 0v644h96v-269h290v269h96v-644h-96v290h-290v-290h-96z" />
<glyph unicode="I" horiz-adv-x="258" d="M81 0v644h96v-644h-96z" />
<glyph unicode="J" horiz-adv-x="400" d="M10 2l12 83q60 -10 103 -10q55 0 77.5 26t22.5 89v454h96v-453q0 -108 -48.5 -154.5t-148.5 -46.5q-52 0 -114 12z" />
<glyph unicode="K" horiz-adv-x="568" d="M81 0v644h96v-292l3 -1q151 159 261 293h117l2 -3q-108 -129 -268 -295q139 -183 279 -343l-2 -3h-124q-123 144 -236 298h-32v-298h-96z" />
<glyph unicode="L" horiz-adv-x="473" d="M81 0v644h96v-559h278v-85h-374z" />
<glyph unicode="M" horiz-adv-x="768" d="M67 0q9 400 33 644h133l149 -417h4l148 417h134q22 -241 33 -644h-97q-9 313 -21 515h-4l-146 -410h-101l-147 410h-4q-14 -273 -20 -515h-94z" />
<glyph unicode="N" horiz-adv-x="674" d="M81 0v644h137l276 -513h4v513h95v-644h-137l-276 513h-4v-513h-95z" />
<glyph unicode="O" d="M46 322q0 166 67 249t211 83t211 -83t67 -249t-67 -249t-211 -83t-211 83t-67 249zM145 322q0 -129 41.5 -188t137.5 -59t137.5 59t41.5 188t-41.5 188t-137.5 59t-137.5 -59t-41.5 -188z" />
<glyph unicode="P" horiz-adv-x="555" d="M81 0v639q105 15 190 15q121 0 189.5 -47t68.5 -160q0 -210 -259 -210q-36 0 -93 5v-242h-96zM177 325q38 -5 92 -5q81 0 121 27t40 98q0 70 -39.5 97t-119.5 27q-44 0 -94 -5v-239z" />
<glyph unicode="Q" d="M46 320q0 168 67 251t210 83t211 -82.5t68 -245.5q0 -151 -59 -232t-188 -87v-4q91 -16 180 -58l-42 -86q-68 41 -176 91t-144 72q-61 38 -94 106t-33 192zM145 322q0 -129 41.5 -188t137.5 -59t137.5 59t41.5 188t-41.5 188t-137.5 59t-137.5 -59t-41.5 -188z" />
<glyph unicode="R" horiz-adv-x="569" d="M81 0v637q106 16 192 16q246 0 246 -193q0 -147 -137 -185q57 -113 158 -273l-1 -2h-113q-79 131 -145 261q-57 0 -104 6v-267h-96zM177 343q43 -4 91 -4q76 0 114 24.5t38 90.5q0 65 -37 90t-111 25q-43 0 -95 -5v-221z" />
<glyph unicode="S" horiz-adv-x="489" d="M35 9l14 85q95 -19 165 -19q147 0 147 103q0 51 -47 77q-24 13 -100 39q-42 15 -68.5 27.5t-54 33.5t-40.5 50.5t-13 68.5q0 83 60 131.5t172 48.5q74 0 164 -20l-14 -84q-89 19 -154 19q-129 0 -129 -87q0 -13 3.5 -24.5t8 -19.5t15 -16.5t17.5 -13t23.5 -11.5t24.5 -10 t29 -10l30 -10q39 -14 65 -26.5t53 -34t40.5 -53t13.5 -73.5q0 -90 -63.5 -140t-184.5 -50q-76 0 -177 19z" />
<glyph unicode="T" horiz-adv-x="514" d="M20 559v85h474v-85h-189v-559h-96v559h-189z" />
<glyph unicode="U" horiz-adv-x="629" d="M70 225v419h96v-406q0 -88 34 -125.5t115 -37.5q82 0 115.5 37.5t33.5 125.5v406h95v-419q0 -119 -60 -177t-184 -58t-184.5 58t-60.5 177z" />
<glyph unicode="V" horiz-adv-x="562" d="M16 644h101q75 -294 163 -556h4q93 277 163 556h99q-98 -384 -201 -644h-129q-105 265 -200 644z" />
<glyph unicode="W" horiz-adv-x="887" d="M26 644h99q51 -279 128 -556h4q70 294 116 556h144q46 -262 116 -556h4q77 277 128 556h96q-31 -166 -76.5 -347.5t-85.5 -296.5h-135q-65 265 -118 546h-4q-53 -281 -118 -546h-136q-40 117 -86 299t-76 345z" />
<glyph unicode="X" horiz-adv-x="599" d="M26 0q99 169 213 333q-111 158 -201 311h110q64 -111 151 -240h4q75 112 151 240h106q-91 -157 -200 -311q96 -138 213 -333h-110q-86 144 -164 260h-4q-82 -122 -163 -260h-106z" />
<glyph unicode="Y" horiz-adv-x="582" d="M23 644h105q64 -149 163 -314h4q99 167 163 314h101q-89 -197 -220 -404v-240h-96v240q-132 206 -220 404z" />
<glyph unicode="Z" horiz-adv-x="513" d="M33 0v71l323 488h-313v85h436v-71l-323 -488h327v-85h-450z" />
<glyph unicode="[" horiz-adv-x="282" d="M78 -156v800h178v-70h-100v-660h100v-70h-178z" />
<glyph unicode="\" horiz-adv-x="382" d="M15 664h78l274 -684h-78z" />
<glyph unicode="]" horiz-adv-x="282" d="M26 -86h100v660h-100v70h178v-800h-178v70z" />
<glyph unicode="^" horiz-adv-x="531" d="M55 233l174 316h73l175 -316h-82l-127 222h-4l-127 -222h-82z" />
<glyph unicode="_" horiz-adv-x="515" d="M0 -70h515v-53h-515v53z" />
<glyph unicode="`" horiz-adv-x="338" d="M63 627l59 62l112 -133l-36 -39z" />
<glyph unicode="a" horiz-adv-x="472" d="M35 134q0 71 51 107.5t144 36.5q43 0 85 -6v32q0 48 -23 68t-72 20q-57 0 -133 -20l-16 77q90 23 155 23q180 0 180 -158v-314h-67l-9 39q-60 -49 -137 -49q-68 0 -113 38t-45 106zM128 137q0 -35 22 -53.5t59 -18.5q60 0 106 36v105q-47 5 -84 5q-103 0 -103 -74z" />
<glyph unicode="b" horiz-adv-x="500" d="M70 22v622h91v-202q55 30 116 30q177 0 177 -243q0 -124 -49 -181.5t-157 -57.5q-86 0 -178 32zM161 79q49 -11 87 -11q64 0 88.5 38t24.5 123q0 88 -23.5 125.5t-80.5 37.5q-50 0 -96 -25v-288z" />
<glyph unicode="c" horiz-adv-x="422" d="M40 233q0 116 51.5 177.5t167.5 61.5q57 0 122 -15l-12 -77q-64 12 -108 12q-69 0 -98.5 -37t-29.5 -124q0 -79 26 -119.5t92 -40.5q58 0 125 26l25 -75q-76 -32 -154 -32q-207 0 -207 243z" />
<glyph unicode="d" horiz-adv-x="499" d="M45 228q0 244 199 244q34 0 94 -10v182h91v-644h-68l-9 35q-59 -45 -128 -45q-179 0 -179 238zM138 229q0 -84 23 -121.5t77 -37.5q53 0 100 31v283q-45 10 -83 10q-65 0 -91 -39t-26 -126z" />
<glyph unicode="e" horiz-adv-x="455" d="M39 227q0 116 51 180.5t145 64.5q88 0 134.5 -55.5t46.5 -150.5q0 -38 -6 -68h-278q9 -128 120 -128q57 0 131 31l28 -73q-81 -38 -162 -38q-102 0 -156 59.5t-54 177.5zM132 270h193q-2 122 -91 122q-93 0 -102 -122z" />
<glyph unicode="f" horiz-adv-x="317" d="M30 386v68l68 4v47q0 149 154 149q26 0 70 -6l-6 -79q-30 5 -58 5q-37 0 -53 -15.5t-16 -53.5v-43h102v-76h-102v-386h-91v386h-68z" />
<glyph unicode="g" horiz-adv-x="491" d="M39 229q0 124 52 183.5t159 59.5q76 0 171 -31v-456q0 -96 -50.5 -136.5t-146.5 -40.5q-61 0 -136 16l11 79q75 -15 127 -15q49 0 76.5 19.5t27.5 72.5v43q-52 -28 -110 -28q-181 0 -181 234zM132 230q0 -81 24 -118t80 -37q51 0 94 25v284q-42 10 -79 10q-65 0 -92 -39 t-27 -125z" />
<glyph unicode="h" horiz-adv-x="509" d="M70 0v644h91v-213q64 41 133 41q73 0 111.5 -41t38.5 -114v-317h-91v306q0 86 -79 86q-55 0 -113 -36v-356h-91z" />
<glyph unicode="i" horiz-adv-x="231" d="M70 0v462h91v-462h-91zM70 545v99h91v-99h-91z" />
<glyph unicode="j" horiz-adv-x="232" d="M22 -182q49 108 49 250v394h91v-392q0 -165 -53 -252h-87zM71 545v99h91v-99h-91z" />
<glyph unicode="k" horiz-adv-x="472" d="M70 0v644h91v-382l4 -1q87 89 184 201h111l1 -2q-76 -88 -192 -204q95 -133 202 -254l-1 -2h-116q-82 94 -161 209h-32v-209h-91z" />
<glyph unicode="l" horiz-adv-x="231" d="M70 0v644h91v-644h-91z" />
<glyph unicode="m" horiz-adv-x="764" d="M70 0v462h68l7 -40q69 50 140 50q80 0 117 -57q79 57 151 57q70 0 108 -43t38 -116v-313h-91v303q0 89 -77 89q-49 0 -104 -38q3 -20 3 -41v-313h-91v303q0 89 -76 89q-49 0 -102 -35v-357h-91z" />
<glyph unicode="n" horiz-adv-x="509" d="M70 0v462h68l7 -40q71 50 149 50q73 0 111.5 -41t38.5 -114v-317h-91v306q0 86 -79 86q-55 0 -113 -36v-356h-91z" />
<glyph unicode="o" horiz-adv-x="495" d="M39 231q0 241 209 241q208 0 208 -241t-208 -241q-209 0 -209 241zM132 231q0 -77 25 -119t91 -42q65 0 90 42t25 119t-25 119t-90 42q-66 0 -91 -42t-25 -119z" />
<glyph unicode="p" horiz-adv-x="500" d="M70 -182v644h68l9 -36q61 46 132 46q175 0 175 -239q0 -123 -49 -183t-149 -60q-40 0 -95 11v-183h-91zM161 79q44 -12 86 -12q65 0 89.5 38t24.5 123q0 88 -23 126t-76 38q-50 0 -101 -31v-282z" />
<glyph unicode="q" horiz-adv-x="499" d="M45 227q0 125 52.5 185t159.5 60q82 0 172 -32v-622h-91v200q-54 -28 -112 -28q-181 0 -181 237zM138 227q0 -83 24 -120t81 -37q51 0 95 25v289q-42 10 -80 10q-66 0 -93 -39t-27 -128z" />
<glyph unicode="r" horiz-adv-x="344" d="M70 0v462h68l10 -54q58 64 134 64q29 0 54 -5l-8 -84q-25 4 -48 4q-73 0 -119 -49v-338h-91z" />
<glyph unicode="s" horiz-adv-x="405" d="M34 7l13 80q79 -17 136 -17q99 0 99 57q0 31 -41 48q-14 6 -65 23q-69 23 -105 52t-36 85q0 65 49 101t136 36q67 0 130 -15l-12 -79q-68 14 -120 14q-90 0 -90 -51q0 -8 2.5 -15t8.5 -12.5t11.5 -9.5t17.5 -8.5t20.5 -7.5t25.5 -8t27 -9q69 -24 101.5 -53t32.5 -85 q0 -69 -49.5 -106t-146.5 -37q-72 0 -145 17z" />
<glyph unicode="t" horiz-adv-x="335" d="M19 386v68l72 4l7 136h80v-132h125v-76h-125v-257q0 -31 10.5 -45t36.5 -14q28 0 68 15l22 -72q-51 -22 -103 -22q-125 0 -125 133v262h-68z" />
<glyph unicode="u" horiz-adv-x="508" d="M64 145v317h91v-306q0 -86 80 -86q58 0 112 35v357h91v-462h-68l-8 39q-68 -49 -147 -49q-73 0 -112 41t-39 114z" />
<glyph unicode="v" horiz-adv-x="462" d="M25 462h91q59 -231 115 -382h4q58 160 113 382h90q-30 -122 -72 -255.5t-75 -206.5h-120q-33 75 -75.5 209.5t-70.5 252.5z" />
<glyph unicode="w" horiz-adv-x="690" d="M24 462h90q39 -210 89 -379h4q47 195 78 379h124q34 -204 78 -379h4q50 173 88 379h87q-47 -275 -115 -462h-122q-46 183 -82 381h-4q-36 -198 -82 -381h-122q-66 186 -115 462z" />
<glyph unicode="x" horiz-adv-x="463" d="M23 0q77 128 152 235q-76 109 -146 227h98q46 -83 104 -163h4q57 81 104 163h95q-71 -117 -146 -227q69 -97 152 -235h-99q-42 72 -108 172h-4q-50 -74 -109 -172h-97z" />
<glyph unicode="y" horiz-adv-x="462" d="M24 462h92q50 -216 109 -381h4q71 200 120 381h89q-95 -357 -219 -644h-90q26 63 73 182h-37q-32 71 -73 208t-68 254z" />
<glyph unicode="z" horiz-adv-x="409" d="M34 0v57l220 325h-216v80h336v-57l-220 -325h222v-80h-342z" />
<glyph unicode="{" horiz-adv-x="288" d="M34 244q65 56 65 127v149q0 131 150 134v-53q-38 -3 -55 -19.5t-17 -63.5v-151q0 -71 -62 -123q62 -52 62 -123v-151q0 -47 17 -63.5t55 -19.5v-53q-150 3 -150 134v149q0 71 -65 127z" />
<glyph unicode="|" horiz-adv-x="300" d="M111 -202v866h77v-866h-77z" />
<glyph unicode="}" horiz-adv-x="288" d="M39 -113q38 3 55 19.5t17 63.5v151q0 71 62 123q-62 52 -62 123v151q0 47 -17 63.5t-55 19.5v53q150 -3 150 -134v-149q0 -71 65 -127q-65 -56 -65 -127v-149q0 -131 -150 -134v53z" />
<glyph unicode="~" horiz-adv-x="452" d="M48 287q5 39 28.5 66t63.5 27q32 0 91 -24q7 -3 19.5 -8t18 -7.5t13.5 -5t14 -3.5t13 -1q36 0 47 40l49 -13q-5 -40 -28.5 -66.5t-65.5 -26.5q-33 0 -89 24q-58 25 -78 25q-37 0 -47 -40z" />
<glyph unicode="&#xa1;" horiz-adv-x="267" d="M80 -182l25 447h57l25 -447h-107zM87 363v99h93v-99h-93z" />
<glyph unicode="&#xa2;" horiz-adv-x="453" d="M49 324q0 208 162 235v99h72v-95q56 -3 106 -15l-11 -76q-64 12 -109 12q-70 0 -98.5 -37t-28.5 -124q0 -79 25.5 -119.5t91.5 -40.5q57 0 126 26l25 -76q-62 -27 -127 -31v-94h-72v96q-162 25 -162 240z" />
<glyph unicode="&#xa3;" horiz-adv-x="492" d="M42 275v68l59 4q-27 79 -27 128q0 89 56.5 134t156.5 45q72 0 157 -19l-13 -83q-83 17 -144 17q-114 0 -114 -93q0 -41 24 -123h166v-78h-142q11 -48 11 -76q0 -71 -46 -110l2 -4h266v-85h-403v63q87 47 87 135q0 29 -13 77h-83z" />
<glyph unicode="&#xa4;" horiz-adv-x="465" d="M46 147l56 65q-24 40 -24 110t24 110l-56 65l50 40l50 -58q33 21 87 21t87 -21l50 58l50 -40l-56 -65q24 -40 24 -110t-24 -110l56 -65l-50 -40l-50 58q-33 -21 -87 -21t-87 21l-50 -58zM148 322q0 -56 18.5 -86.5t66.5 -30.5t66.5 30.5t18.5 86.5t-18.5 86.5t-66.5 30.5 t-66.5 -30.5t-18.5 -86.5z" />
<glyph unicode="&#xa5;" horiz-adv-x="550" d="M27 644h105q61 -135 143 -268h4q82 138 142 268h101q-70 -149 -159 -294h113v-72h-153v-66h153v-72h-153v-140h-96v140h-153v72h153v66h-153v72h112q-89 145 -159 294z" />
<glyph unicode="&#xa6;" horiz-adv-x="300" d="M111 136h77v-338h-77v338zM111 326v338h77v-338h-77z" />
<glyph unicode="&#xa7;" horiz-adv-x="554" d="M69 368q0 137 58.5 211.5t193.5 74.5q67 0 138 -17l-12 -79q-84 14 -126 14q-73 0 -108 -35.5t-45 -105.5q40 8 75 8q241 0 241 -287q0 -137 -58.5 -211.5t-193.5 -74.5q-67 0 -138 17l12 79q84 -14 126 -14q73 0 108 35.5t44 105.5q-38 -8 -74 -8q-241 0 -241 287z M165 345q3 -85 35.5 -132.5t112.5 -47.5q39 0 75 10q-3 85 -35.5 132.5t-112.5 47.5q-33 0 -75 -10z" />
<glyph unicode="&#xa8;" horiz-adv-x="338" d="M37 535v85h82v-85h-82zM219 535v85h82v-85h-82z" />
<glyph unicode="&#xa9;" horiz-adv-x="730" d="M52 322q0 154 83.5 243t229.5 89t229.5 -89t83.5 -243t-83.5 -243t-229.5 -89t-229.5 89t-83.5 243zM116 322q0 -132 65 -202t184 -70t184 70t65 202t-65 202t-184 70t-184 -70t-65 -202zM212 320q0 185 160 185q44 0 90 -11l-8 -60q-40 8 -76 8q-54 0 -74 -28.5 t-20 -91.5q0 -55 18 -86.5t69 -31.5q43 0 90 19l20 -59q-59 -25 -117 -25q-78 0 -115 48.5t-37 132.5z" />
<glyph unicode="&#xaa;" horiz-adv-x="332" d="M41 450q0 43 31 65.5t88 22.5q22 0 45 -3v16q0 24 -13 34t-41 10q-33 0 -77 -10l-11 56q48 13 94 13q112 0 112 -98v-188h-46l-6 22q-36 -28 -80 -28q-41 0 -68.5 23t-27.5 65zM108 452q0 -36 44 -36q30 0 53 18v52q-21 3 -43 3q-54 0 -54 -37z" />
<glyph unicode="&#xab;" horiz-adv-x="468" d="M40 229q0 36 34 74q27 31 128 124l48 -49q-80 -72 -106 -99q-29 -30 -29 -50t29 -50q26 -27 106 -99l-48 -49q-101 93 -128 124q-34 38 -34 74zM213 229q0 36 34 74q27 31 128 124l48 -49q-80 -72 -106 -99q-29 -30 -29 -50t29 -50q26 -27 106 -99l-48 -49 q-101 93 -128 124q-34 38 -34 74z" />
<glyph unicode="&#xac;" horiz-adv-x="586" d="M63 293v72h461v-267h-76v195h-385z" />
<glyph unicode="&#xad;" horiz-adv-x="296" d="M39 213v71h217v-71h-217z" />
<glyph unicode="&#xae;" horiz-adv-x="424" d="M54 488q0 77 42 121.5t116 44.5t116 -44.5t42 -121.5t-42 -121.5t-116 -44.5t-116 44.5t-42 121.5zM90 488q0 -65 31.5 -99t90.5 -34t90.5 34t31.5 99t-31.5 99t-90.5 34t-90.5 -34t-31.5 -99zM150 401v178q32 4 55 4q74 0 74 -57q0 -39 -34 -51q15 -31 40 -73l-1 -1h-42 q-13 21 -34 68q-12 0 -21 1v-69h-37zM187 498q6 -1 17 -1q38 0 38 28q0 26 -34 26q-14 0 -21 -1v-52z" />
<glyph unicode="&#xaf;" horiz-adv-x="338" d="M55 546v62h228v-62h-228z" />
<glyph unicode="&#xb0;" horiz-adv-x="332" d="M43 531q0 53 35.5 88t87.5 35t87.5 -35t35.5 -88t-35.5 -88t-87.5 -35t-87.5 35t-35.5 88zM90 531q0 -33 22 -55.5t54 -22.5t54 22.5t22 55.5t-22 55.5t-54 22.5t-54 -22.5t-22 -55.5z" />
<glyph unicode="&#xb1;" horiz-adv-x="586" d="M83 0v72h420v-72h-420zM83 308v72h172v165h76v-165h172v-72h-172v-165h-76v165h-172z" />
<glyph unicode="&#xb2;" horiz-adv-x="345" d="M49 632q50 22 103 22q56 0 90.5 -28t34.5 -80q0 -50 -31.5 -94.5t-88.5 -96.5l2 -4h124v-58h-230v51q159 131 159 200q0 51 -63 51q-37 0 -80 -17z" />
<glyph unicode="&#xb3;" horiz-adv-x="323" d="M51 299l10 58q49 -9 87 -9q35 0 51 11.5t16 40.5q0 24 -13 35.5t-43 11.5h-43v55h40q54 0 54 46q0 47 -55 47q-43 0 -80 -16l-18 55q50 20 100 20q55 0 86.5 -26t31.5 -71q0 -56 -49 -75v-4q54 -18 54 -82q0 -107 -131 -107q-42 0 -98 10z" />
<glyph unicode="&#xb4;" horiz-adv-x="338" d="M104 556l112 133l59 -62l-135 -110z" />
<glyph unicode="&#xb5;" horiz-adv-x="515" d="M22 -182q49 108 49 250v394h92v-308q0 -84 79 -84q57 0 111 35v357h92v-462h-68l-8 39q-68 -49 -147 -49q-37 0 -62 13q-6 -108 -51 -185h-87z" />
<glyph unicode="&#xb6;" horiz-adv-x="528" d="M59 480q0 164 167 164h203v-826h-78v498h-58v-498h-78v499q-156 6 -156 163z" />
<glyph unicode="&#xb7;" horiz-adv-x="236" d="M71 190v99h94v-99h-94z" />
<glyph unicode="&#xb8;" horiz-adv-x="304" d="M82 -186l8 39q20 -4 34 -4q50 0 50 38q0 18 -14.5 26.5t-53.5 8.5l7 37q61 0 86.5 -17t25.5 -53q0 -38 -25.5 -59.5t-67.5 -21.5q-28 0 -50 6z" />
<glyph unicode="&#xb9;" horiz-adv-x="307" d="M42 595l99 49h57v-351h-65v282l-68 -28z" />
<glyph unicode="&#xba;" horiz-adv-x="332" d="M37 508q0 146 129 146t129 -146t-129 -146t-129 146zM104 508q0 -42 13.5 -64.5t48.5 -22.5q62 0 62 87t-62 87q-35 0 -48.5 -22.5t-13.5 -64.5z" />
<glyph unicode="&#xbb;" horiz-adv-x="468" d="M46 80q80 72 106 99q29 30 29 50t-29 50q-26 27 -106 99l48 49q101 -93 128 -124q34 -38 34 -74t-34 -74q-27 -31 -128 -124zM219 80q80 72 106 99q29 30 29 50t-29 50q-26 27 -106 99l48 49q101 -93 128 -124q34 -38 34 -74t-34 -74q-27 -31 -128 -124z" />
<glyph unicode="&#xbc;" horiz-adv-x="711" d="M43 595l99 49h57v-351h-65v282l-68 -28zM115 0l392 644h69l-392 -644h-69zM394 68v50q62 119 134 233h68q-78 -125 -130 -225h87l5 67h60v-67h54v-58h-54v-68h-65v68h-159z" />
<glyph unicode="&#xbd;" horiz-adv-x="742" d="M43 595l99 49h57v-351h-65v282l-68 -28zM115 0l392 644h69l-392 -644h-69zM461 339q49 22 103 22q56 0 90.5 -28t34.5 -80q0 -50 -31.5 -94.5t-88.5 -96.5l2 -4h124v-58h-230v51q159 131 159 200q0 51 -63 51q-37 0 -80 -17z" />
<glyph unicode="&#xbe;" horiz-adv-x="742" d="M42 299l10 58q49 -9 87 -9q35 0 51 11.5t16 40.5q0 24 -13 35.5t-43 11.5h-43v55h40q54 0 54 46q0 47 -55 47q-43 0 -80 -16l-18 55q50 20 100 20q55 0 86.5 -26t31.5 -71q0 -56 -49 -75v-4q54 -18 54 -82q0 -107 -131 -107q-42 0 -98 10zM147 0l392 644h69l-392 -644 h-69zM426 68v50q62 119 134 233h68q-70 -110 -130 -225h87l5 67h60v-67h53v-58h-53v-68h-65v68h-159z" />
<glyph unicode="&#xbf;" horiz-adv-x="428" d="M37 -27q0 37 14.5 68.5t30.5 49t48 47.5q39 37 53.5 62t14.5 65h82q0 -63 -18 -100.5t-64 -80.5q-23 -22 -33 -32.5t-21 -32t-11 -44.5q0 -40 26 -61t72 -21q60 0 138 37l32 -75q-86 -47 -176 -47q-83 0 -135.5 43t-52.5 122zM192 363v99h94v-99h-94z" />
<glyph unicode="&#xc0;" horiz-adv-x="570" d="M17 0q97 360 205 644h127q105 -275 204 -644h-99l-41 151h-257l-41 -151h-98zM178 234h212q-42 145 -104 323h-4q-53 -153 -104 -323zM181 803l59 62l112 -133l-36 -39z" />
<glyph unicode="&#xc1;" horiz-adv-x="570" d="M17 0q97 360 205 644h127q105 -275 204 -644h-99l-41 151h-257l-41 -151h-98zM178 234h212q-42 145 -104 323h-4q-53 -153 -104 -323zM222 732l112 133l59 -62l-135 -110z" />
<glyph unicode="&#xc2;" horiz-adv-x="570" d="M17 0q97 360 205 644h127q105 -275 204 -644h-99l-41 151h-257l-41 -151h-98zM157 718l96 112h68l96 -112l-34 -29l-96 86l-96 -86zM178 234h212q-42 145 -104 323h-4q-53 -153 -104 -323z" />
<glyph unicode="&#xc3;" horiz-adv-x="570" d="M17 0q97 360 205 644h127q105 -275 204 -644h-99l-41 151h-257l-41 -151h-98zM139 729q17 85 84 85q25 0 69 -19.5t60 -19.5q30 0 41 36l42 -13q-17 -85 -84 -85q-25 0 -69 19.5t-60 19.5q-30 0 -41 -36zM178 234h212q-42 145 -104 323h-4q-53 -153 -104 -323z" />
<glyph unicode="&#xc4;" horiz-adv-x="570" d="M17 0q97 360 205 644h127q105 -275 204 -644h-99l-41 151h-257l-41 -151h-98zM155 711v85h82v-85h-82zM178 234h212q-42 145 -104 323h-4q-53 -153 -104 -323zM337 711v85h82v-85h-82z" />
<glyph unicode="&#xc5;" horiz-adv-x="570" d="M17 0q97 360 205 644h127q105 -275 204 -644h-99l-41 151h-257l-41 -151h-98zM178 234h212q-42 145 -104 323h-4q-53 -153 -104 -323zM197 782q0 41 24.5 65t65.5 24t65.5 -24t24.5 -65t-24.5 -65t-65.5 -24t-65.5 24t-24.5 65zM238 782q0 -52 49 -52t49 52t-49 52 t-49 -52z" />
<glyph unicode="&#xc6;" horiz-adv-x="769" d="M8 0q152 381 290 644h428v-85h-262v-187h218v-83h-218v-204h262v-85h-358v151h-199l-60 -151h-101zM204 234h164v325h-15q-79 -160 -149 -325z" />
<glyph unicode="&#xc7;" horiz-adv-x="532" d="M46 322q0 158 65.5 245t219.5 87q71 0 156 -18l-14 -83q-91 16 -143 16q-56 0 -94 -18t-57 -54t-26.5 -77.5t-7.5 -99.5q0 -43 3.5 -75.5t15 -65.5t31 -54.5t52 -35t77.5 -13.5q74 0 159 34l29 -79q-93 -41 -191 -41q-147 0 -211 87t-64 245zM240 -186l8 39q20 -4 34 -4 q50 0 50 38q0 18 -14.5 26.5t-53.5 8.5l7 37q61 0 86.5 -17t25.5 -53q0 -38 -25.5 -59.5t-67.5 -21.5q-28 0 -50 6z" />
<glyph unicode="&#xc8;" horiz-adv-x="501" d="M81 0v644h378v-85h-282v-187h238v-83h-238v-204h282v-85h-378zM164 803l59 62l112 -133l-36 -39z" />
<glyph unicode="&#xc9;" horiz-adv-x="501" d="M81 0v644h378v-85h-282v-187h238v-83h-238v-204h282v-85h-378zM205 732l112 133l59 -62l-135 -110z" />
<glyph unicode="&#xca;" horiz-adv-x="501" d="M81 0v644h378v-85h-282v-187h238v-83h-238v-204h282v-85h-378zM140 718l96 112h68l96 -112l-34 -29l-96 86l-96 -86z" />
<glyph unicode="&#xcb;" horiz-adv-x="501" d="M81 0v644h378v-85h-282v-187h238v-83h-238v-204h282v-85h-378zM138 711v85h82v-85h-82zM320 711v85h82v-85h-82z" />
<glyph unicode="&#xcc;" horiz-adv-x="258" d="M23 803l59 62l112 -133l-36 -39zM81 0v644h96v-644h-96z" />
<glyph unicode="&#xcd;" horiz-adv-x="258" d="M64 732l112 133l59 -62l-135 -110zM81 0v644h96v-644h-96z" />
<glyph unicode="&#xce;" horiz-adv-x="258" d="M-1 718l96 112h68l96 -112l-34 -29l-96 86l-96 -86zM81 0v644h96v-644h-96z" />
<glyph unicode="&#xcf;" horiz-adv-x="258" d="M-3 711v85h82v-85h-82zM81 0v644h96v-644h-96zM179 711v85h82v-85h-82z" />
<glyph unicode="&#xd0;" horiz-adv-x="623" d="M15 292v76h72v269q108 17 185 17q159 0 235 -81t76 -252t-76.5 -251t-241.5 -80q-89 0 -178 12v290h-72zM183 80q37 -4 81 -4q119 0 169.5 55t50.5 188t-50.5 191.5t-164.5 58.5q-38 0 -86 -6v-195h137v-76h-137v-212z" />
<glyph unicode="&#xd1;" horiz-adv-x="674" d="M81 0v644h137l276 -513h4v513h95v-644h-137l-276 513h-4v-513h-95zM189 729q17 85 84 85q25 0 69 -19.5t60 -19.5q30 0 41 36l42 -13q-17 -85 -84 -85q-25 0 -69 19.5t-60 19.5q-30 0 -41 -36z" />
<glyph unicode="&#xd2;" d="M46 322q0 166 67 249t211 83t211 -83t67 -249t-67 -249t-211 -83t-211 83t-67 249zM145 322q0 -129 41.5 -188t137.5 -59t137.5 59t41.5 188t-41.5 188t-137.5 59t-137.5 -59t-41.5 -188zM218 803l59 62l112 -133l-36 -39z" />
<glyph unicode="&#xd3;" d="M46 322q0 166 67 249t211 83t211 -83t67 -249t-67 -249t-211 -83t-211 83t-67 249zM145 322q0 -129 41.5 -188t137.5 -59t137.5 59t41.5 188t-41.5 188t-137.5 59t-137.5 -59t-41.5 -188zM259 732l112 133l59 -62l-135 -110z" />
<glyph unicode="&#xd4;" d="M46 322q0 166 67 249t211 83t211 -83t67 -249t-67 -249t-211 -83t-211 83t-67 249zM145 322q0 -129 41.5 -188t137.5 -59t137.5 59t41.5 188t-41.5 188t-137.5 59t-137.5 -59t-41.5 -188zM194 718l96 112h68l96 -112l-34 -29l-96 86l-96 -86z" />
<glyph unicode="&#xd5;" d="M46 322q0 166 67 249t211 83t211 -83t67 -249t-67 -249t-211 -83t-211 83t-67 249zM145 322q0 -129 41.5 -188t137.5 -59t137.5 59t41.5 188t-41.5 188t-137.5 59t-137.5 -59t-41.5 -188zM176 729q17 85 84 85q25 0 69 -19.5t60 -19.5q30 0 41 36l42 -13q-17 -85 -84 -85 q-25 0 -69 19.5t-60 19.5q-30 0 -41 -36z" />
<glyph unicode="&#xd6;" d="M46 322q0 166 67 249t211 83t211 -83t67 -249t-67 -249t-211 -83t-211 83t-67 249zM145 322q0 -129 41.5 -188t137.5 -59t137.5 59t41.5 188t-41.5 188t-137.5 59t-137.5 -59t-41.5 -188zM192 711v85h82v-85h-82zM374 711v85h82v-85h-82z" />
<glyph unicode="&#xd7;" horiz-adv-x="586" d="M106 96l135 135l-135 135l52 52l135 -135l135 135l52 -52l-135 -135l135 -135l-52 -52l-135 135l-135 -135z" />
<glyph unicode="&#xd8;" d="M45 322q0 166 67 249t211 83q100 0 164 -41l22 31h84l-54 -77q63 -81 63 -245q0 -166 -67 -249t-211 -83q-100 0 -164 41l-22 -31h-84l54 77q-63 81 -63 245zM144 322q0 -104 25 -157h2l263 373q-41 31 -111 31q-96 0 -137.5 -59t-41.5 -188zM213 106q41 -31 111 -31 q96 0 137.5 59t41.5 188q0 104 -25 157h-2z" />
<glyph unicode="&#xd9;" horiz-adv-x="629" d="M70 225v419h96v-406q0 -88 34 -125.5t115 -37.5q82 0 115.5 37.5t33.5 125.5v406h95v-419q0 -119 -60 -177t-184 -58t-184.5 58t-60.5 177zM213 803l59 62l112 -133l-36 -39z" />
<glyph unicode="&#xda;" horiz-adv-x="629" d="M70 225v419h96v-406q0 -88 34 -125.5t115 -37.5q82 0 115.5 37.5t33.5 125.5v406h95v-419q0 -119 -60 -177t-184 -58t-184.5 58t-60.5 177zM254 732l112 133l59 -62l-135 -110z" />
<glyph unicode="&#xdb;" horiz-adv-x="629" d="M70 225v419h96v-406q0 -88 34 -125.5t115 -37.5q82 0 115.5 37.5t33.5 125.5v406h95v-419q0 -119 -60 -177t-184 -58t-184.5 58t-60.5 177zM189 718l96 112h68l96 -112l-34 -29l-96 86l-96 -86z" />
<glyph unicode="&#xdc;" horiz-adv-x="629" d="M70 225v419h96v-406q0 -88 34 -125.5t115 -37.5q82 0 115.5 37.5t33.5 125.5v406h95v-419q0 -119 -60 -177t-184 -58t-184.5 58t-60.5 177zM187 711v85h82v-85h-82zM369 711v85h82v-85h-82z" />
<glyph unicode="&#xdd;" horiz-adv-x="582" d="M23 644h105q64 -149 163 -314h4q99 167 163 314h101q-89 -197 -220 -404v-240h-96v240q-132 206 -220 404zM228 732l112 133l59 -62l-135 -110z" />
<glyph unicode="&#xde;" horiz-adv-x="555" d="M81 0v644h96v-112q57 5 97 5q254 0 254 -206q0 -210 -254 -210q-52 0 -97 5v-126h-96zM177 209q39 -5 95 -5q79 0 118 26.5t39 98.5q0 70 -38.5 96.5t-115.5 26.5q-45 0 -98 -5v-238z" />
<glyph unicode="&#xdf;" horiz-adv-x="537" d="M66 0v475q0 86 50.5 132.5t149.5 46.5q78 0 129.5 -30.5t51.5 -96.5q0 -39 -18.5 -66.5t-55.5 -53.5q-5 -3 -18.5 -12t-19 -13.5t-14 -12.5t-12 -15.5t-3.5 -16.5q0 -7 2 -12t7 -10t10 -8.5t15 -8.5t16.5 -7.5t20.5 -8.5t22 -9q58 -24 85 -54t27 -82q0 -68 -47 -107.5 t-136 -39.5q-58 0 -127 16l14 79q75 -15 112 -15q91 0 91 64q0 26 -17 39t-65 34q-7 3 -10 4q-60 26 -86 49t-26 69q0 35 17.5 60.5t57.5 53.5q3 2 11 7.5t11 8t10 7.5t9.5 7.5l7.5 7.5t7 9l4.5 9t3.5 10.5t1 11.5q0 53 -89 53q-59 0 -83.5 -25t-24.5 -74v-475h-91z" />
<glyph unicode="&#xe0;" horiz-adv-x="472" d="M35 134q0 71 51 107.5t144 36.5q43 0 85 -6v32q0 48 -23 68t-72 20q-57 0 -133 -20l-16 77q90 23 155 23q180 0 180 -158v-314h-67l-9 39q-60 -49 -137 -49q-68 0 -113 38t-45 106zM128 137q0 -35 22 -53.5t59 -18.5q60 0 106 36v105q-47 5 -84 5q-103 0 -103 -74z M128 627l59 62l112 -133l-36 -39z" />
<glyph unicode="&#xe1;" horiz-adv-x="472" d="M35 134q0 71 51 107.5t144 36.5q43 0 85 -6v32q0 48 -23 68t-72 20q-57 0 -133 -20l-16 77q90 23 155 23q180 0 180 -158v-314h-67l-9 39q-60 -49 -137 -49q-68 0 -113 38t-45 106zM128 137q0 -35 22 -53.5t59 -18.5q60 0 106 36v105q-47 5 -84 5q-103 0 -103 -74z M169 556l112 133l59 -62l-135 -110z" />
<glyph unicode="&#xe2;" horiz-adv-x="472" d="M35 134q0 71 51 107.5t144 36.5q43 0 85 -6v32q0 48 -23 68t-72 20q-57 0 -133 -20l-16 77q90 23 155 23q180 0 180 -158v-314h-67l-9 39q-60 -49 -137 -49q-68 0 -113 38t-45 106zM104 542l96 112h68l96 -112l-34 -29l-96 86l-96 -86zM128 137q0 -35 22 -53.5t59 -18.5 q60 0 106 36v105q-47 5 -84 5q-103 0 -103 -74z" />
<glyph unicode="&#xe3;" horiz-adv-x="472" d="M35 134q0 71 51 107.5t144 36.5q43 0 85 -6v32q0 48 -23 68t-72 20q-57 0 -133 -20l-16 77q90 23 155 23q180 0 180 -158v-314h-67l-9 39q-60 -49 -137 -49q-68 0 -113 38t-45 106zM86 553q17 85 84 85q25 0 69 -19.5t60 -19.5q30 0 41 36l42 -13q-17 -85 -84 -85 q-25 0 -69 19.5t-60 19.5q-30 0 -41 -36zM128 137q0 -35 22 -53.5t59 -18.5q60 0 106 36v105q-47 5 -84 5q-103 0 -103 -74z" />
<glyph unicode="&#xe4;" horiz-adv-x="472" d="M35 134q0 71 51 107.5t144 36.5q43 0 85 -6v32q0 48 -23 68t-72 20q-57 0 -133 -20l-16 77q90 23 155 23q180 0 180 -158v-314h-67l-9 39q-60 -49 -137 -49q-68 0 -113 38t-45 106zM102 535v85h82v-85h-82zM128 137q0 -35 22 -53.5t59 -18.5q60 0 106 36v105q-47 5 -84 5 q-103 0 -103 -74zM284 535v85h82v-85h-82z" />
<glyph unicode="&#xe5;" horiz-adv-x="472" d="M35 134q0 71 51 107.5t144 36.5q43 0 85 -6v32q0 48 -23 68t-72 20q-57 0 -133 -20l-16 77q90 23 155 23q180 0 180 -158v-314h-67l-9 39q-60 -49 -137 -49q-68 0 -113 38t-45 106zM128 137q0 -35 22 -53.5t59 -18.5q60 0 106 36v105q-47 5 -84 5q-103 0 -103 -74z M144 606q0 41 24.5 65t65.5 24t65.5 -24t24.5 -65t-24.5 -65t-65.5 -24t-65.5 24t-24.5 65zM185 606q0 -52 49 -52t49 52t-49 52t-49 -52z" />
<glyph unicode="&#xe6;" horiz-adv-x="703" d="M35 134q0 72 49 108t137 36q41 0 82 -6v32q0 48 -22 68t-69 20q-53 0 -127 -20l-16 77q81 23 151 23q98 0 138 -55h4q50 55 129 55q84 0 128.5 -55.5t44.5 -150.5q0 -36 -6 -68h-264q4 -64 30.5 -96t81.5 -32q58 0 125 30l28 -74q-79 -36 -156 -36q-103 0 -155 66 q-60 -66 -160 -66q-66 0 -109.5 37t-43.5 107zM128 137q0 -35 20.5 -53.5t55.5 -18.5q65 0 114 49q-13 41 -14 92q-45 5 -79 5q-97 0 -97 -74zM394 270h179q0 122 -85 122q-87 0 -94 -122z" />
<glyph unicode="&#xe7;" horiz-adv-x="422" d="M40 233q0 116 51.5 177.5t167.5 61.5q57 0 122 -15l-12 -77q-64 12 -108 12q-69 0 -98.5 -37t-29.5 -124q0 -79 26 -119.5t92 -40.5q58 0 125 26l25 -75q-76 -32 -154 -32q-207 0 -207 243zM166 -186l8 39q20 -4 34 -4q50 0 50 38q0 18 -14.5 26.5t-53.5 8.5l7 37 q61 0 86.5 -17t25.5 -53q0 -38 -25.5 -59.5t-67.5 -21.5q-28 0 -50 6z" />
<glyph unicode="&#xe8;" horiz-adv-x="455" d="M39 227q0 116 51 180.5t145 64.5q88 0 134.5 -55.5t46.5 -150.5q0 -38 -6 -68h-278q9 -128 120 -128q57 0 131 31l28 -73q-81 -38 -162 -38q-102 0 -156 59.5t-54 177.5zM128 627l59 62l112 -133l-36 -39zM132 270h193q-2 122 -91 122q-93 0 -102 -122z" />
<glyph unicode="&#xe9;" horiz-adv-x="455" d="M39 227q0 116 51 180.5t145 64.5q88 0 134.5 -55.5t46.5 -150.5q0 -38 -6 -68h-278q9 -128 120 -128q57 0 131 31l28 -73q-81 -38 -162 -38q-102 0 -156 59.5t-54 177.5zM132 270h193q-2 122 -91 122q-93 0 -102 -122zM169 556l112 133l59 -62l-135 -110z" />
<glyph unicode="&#xea;" horiz-adv-x="455" d="M39 227q0 116 51 180.5t145 64.5q88 0 134.5 -55.5t46.5 -150.5q0 -38 -6 -68h-278q9 -128 120 -128q57 0 131 31l28 -73q-81 -38 -162 -38q-102 0 -156 59.5t-54 177.5zM104 542l96 112h68l96 -112l-34 -29l-96 86l-96 -86zM132 270h193q-2 122 -91 122q-93 0 -102 -122 z" />
<glyph unicode="&#xeb;" horiz-adv-x="455" d="M39 227q0 116 51 180.5t145 64.5q88 0 134.5 -55.5t46.5 -150.5q0 -38 -6 -68h-278q9 -128 120 -128q57 0 131 31l28 -73q-81 -38 -162 -38q-102 0 -156 59.5t-54 177.5zM102 535v85h82v-85h-82zM132 270h193q-2 122 -91 122q-93 0 -102 -122zM284 535v85h82v-85h-82z " />
<glyph unicode="&#xec;" horiz-adv-x="231" d="M10 627l59 62l112 -133l-36 -39zM70 0v462h91v-462h-91z" />
<glyph unicode="&#xed;" horiz-adv-x="231" d="M51 556l112 133l59 -62l-135 -110zM70 0v462h91v-462h-91z" />
<glyph unicode="&#xee;" horiz-adv-x="231" d="M-14 542l96 112h68l96 -112l-34 -29l-96 86l-96 -86zM70 0v462h91v-462h-91z" />
<glyph unicode="&#xef;" horiz-adv-x="231" d="M-16 535v85h82v-85h-82zM70 0v462h91v-462h-91zM166 535v85h82v-85h-82z" />
<glyph unicode="&#xf0;" horiz-adv-x="498" d="M39 238q0 117 53 175.5t141 58.5q26 0 72 -8q-29 48 -65 84l-78 -54l-36 54l66 45q-28 25 -62 45l43 59q51 -27 89 -57l78 53l36 -54l-65 -44q51 -53 79 -102q66 -116 66 -260q0 -243 -209 -243q-110 0 -159 63.5t-49 184.5zM132 236q0 -79 24.5 -122t91.5 -43 q65 0 90 42t25 118q0 75 -24 145q-47 16 -90 16q-59 0 -88 -37.5t-29 -118.5z" />
<glyph unicode="&#xf1;" horiz-adv-x="509" d="M70 0v462h68l7 -40q71 50 149 50q73 0 111.5 -41t38.5 -114v-317h-91v306q0 86 -79 86q-55 0 -113 -36v-356h-91zM109 553q17 85 84 85q25 0 69 -19.5t60 -19.5q30 0 41 36l42 -13q-17 -85 -84 -85q-25 0 -69 19.5t-60 19.5q-30 0 -41 -36z" />
<glyph unicode="&#xf2;" horiz-adv-x="495" d="M39 231q0 241 209 241q208 0 208 -241t-208 -241q-209 0 -209 241zM132 231q0 -77 25 -119t91 -42q65 0 90 42t25 119t-25 119t-90 42q-66 0 -91 -42t-25 -119zM142 627l59 62l112 -133l-36 -39z" />
<glyph unicode="&#xf3;" horiz-adv-x="495" d="M39 231q0 241 209 241q208 0 208 -241t-208 -241q-209 0 -209 241zM132 231q0 -77 25 -119t91 -42q65 0 90 42t25 119t-25 119t-90 42q-66 0 -91 -42t-25 -119zM183 556l112 133l59 -62l-135 -110z" />
<glyph unicode="&#xf4;" horiz-adv-x="495" d="M39 231q0 241 209 241q208 0 208 -241t-208 -241q-209 0 -209 241zM118 542l96 112h68l96 -112l-34 -29l-96 86l-96 -86zM132 231q0 -77 25 -119t91 -42q65 0 90 42t25 119t-25 119t-90 42q-66 0 -91 -42t-25 -119z" />
<glyph unicode="&#xf5;" horiz-adv-x="495" d="M39 231q0 241 209 241q208 0 208 -241t-208 -241q-209 0 -209 241zM100 553q17 85 84 85q25 0 69 -19.5t60 -19.5q30 0 41 36l42 -13q-17 -85 -84 -85q-25 0 -69 19.5t-60 19.5q-30 0 -41 -36zM132 231q0 -77 25 -119t91 -42q65 0 90 42t25 119t-25 119t-90 42 q-66 0 -91 -42t-25 -119z" />
<glyph unicode="&#xf6;" horiz-adv-x="495" d="M39 231q0 241 209 241q208 0 208 -241t-208 -241q-209 0 -209 241zM116 535v85h82v-85h-82zM132 231q0 -77 25 -119t91 -42q65 0 90 42t25 119t-25 119t-90 42q-66 0 -91 -42t-25 -119zM298 535v85h82v-85h-82z" />
<glyph unicode="&#xf7;" horiz-adv-x="586" d="M63 195v72h460v-72h-460zM247 0v99h92v-99h-92zM247 363v99h92v-99h-92z" />
<glyph unicode="&#xf8;" horiz-adv-x="495" d="M40 231q0 241 208 241q71 0 118 -28l13 18h75l-43 -59q45 -60 45 -172q0 -241 -208 -241q-71 0 -118 28l-13 -18h-75l43 59q-45 60 -45 172zM133 231q0 -56 10 -87h4l168 230q-28 18 -67 18q-65 0 -90 -42t-25 -119zM181 88q28 -18 67 -18q65 0 90 42t25 119q0 56 -10 87 h-4z" />
<glyph unicode="&#xf9;" horiz-adv-x="508" d="M64 145v317h91v-306q0 -86 80 -86q58 0 112 35v357h91v-462h-68l-8 39q-68 -49 -147 -49q-73 0 -112 41t-39 114zM145 627l59 62l112 -133l-36 -39z" />
<glyph unicode="&#xfa;" horiz-adv-x="508" d="M64 145v317h91v-306q0 -86 80 -86q58 0 112 35v357h91v-462h-68l-8 39q-68 -49 -147 -49q-73 0 -112 41t-39 114zM186 556l112 133l59 -62l-135 -110z" />
<glyph unicode="&#xfb;" horiz-adv-x="508" d="M64 145v317h91v-306q0 -86 80 -86q58 0 112 35v357h91v-462h-68l-8 39q-68 -49 -147 -49q-73 0 -112 41t-39 114zM121 542l96 112h68l96 -112l-34 -29l-96 86l-96 -86z" />
<glyph unicode="&#xfc;" horiz-adv-x="508" d="M64 145v317h91v-306q0 -86 80 -86q58 0 112 35v357h91v-462h-68l-8 39q-68 -49 -147 -49q-73 0 -112 41t-39 114zM119 535v85h82v-85h-82zM301 535v85h82v-85h-82z" />
<glyph unicode="&#xfd;" horiz-adv-x="462" d="M24 462h92q50 -216 109 -381h4q71 200 120 381h89q-95 -357 -219 -644h-90q26 63 73 182h-37q-32 71 -73 208t-68 254zM166 556l112 133l59 -62l-135 -110z" />
<glyph unicode="&#xfe;" horiz-adv-x="500" d="M70 -182v826h91v-209q55 37 118 37q175 0 175 -240q0 -242 -198 -242q-40 0 -95 11v-183h-91zM161 79q44 -12 86 -12q65 0 89.5 38t24.5 123q0 88 -23 126t-76 38q-50 0 -101 -31v-282z" />
<glyph unicode="&#xff;" horiz-adv-x="462" d="M24 462h92q50 -216 109 -381h4q71 200 120 381h89q-95 -357 -219 -644h-90q26 63 73 182h-37q-32 71 -73 208t-68 254zM99 535v85h82v-85h-82zM281 535v85h82v-85h-82z" />
<glyph unicode="&#x152;" horiz-adv-x="795" d="M46 323q0 166 69.5 243.5t229.5 77.5h407v-85h-262v-187h218v-83h-218v-204h262v-85h-412q-157 0 -225.5 79t-68.5 244zM145 324q0 -131 43 -185t147 -54h59v474h-55q-107 0 -150.5 -52t-43.5 -183z" />
<glyph unicode="&#x153;" horiz-adv-x="750" d="M39 231q0 241 200 241q107 0 153 -71h4q47 71 142 71q83 0 127.5 -55.5t44.5 -150.5q0 -42 -5 -68h-265q4 -64 30.5 -96t82.5 -32q54 0 125 30l26 -74q-77 -36 -156 -36q-105 0 -153 69h-4q-45 -69 -152 -69q-200 0 -200 241zM132 231q0 -77 23.5 -119t83.5 -42 q61 0 84.5 41.5t23.5 119.5t-23.5 119.5t-84.5 41.5q-60 0 -83.5 -42t-23.5 -119zM439 270h181q-4 122 -86 122q-87 0 -95 -122z" />
<glyph unicode="&#x178;" horiz-adv-x="582" d="M23 644h105q64 -149 163 -314h4q99 167 163 314h101q-89 -197 -220 -404v-240h-96v240q-132 206 -220 404zM161 711v85h82v-85h-82zM343 711v85h82v-85h-82z" />
<glyph unicode="&#x2c6;" horiz-adv-x="338" d="M39 542l96 112h68l96 -112l-34 -29l-96 86l-96 -86z" />
<glyph unicode="&#x2dc;" horiz-adv-x="338" d="M21 553q17 85 84 85q25 0 69 -19.5t60 -19.5q30 0 41 36l42 -13q-17 -85 -84 -85q-25 0 -69 19.5t-60 19.5q-30 0 -41 -36z" />
<glyph unicode="&#x2000;" horiz-adv-x="435" />
<glyph unicode="&#x2001;" horiz-adv-x="871" />
<glyph unicode="&#x2002;" horiz-adv-x="435" />
<glyph unicode="&#x2003;" horiz-adv-x="871" />
<glyph unicode="&#x2004;" horiz-adv-x="290" />
<glyph unicode="&#x2005;" horiz-adv-x="217" />
<glyph unicode="&#x2006;" horiz-adv-x="145" />
<glyph unicode="&#x2007;" horiz-adv-x="145" />
<glyph unicode="&#x2008;" horiz-adv-x="108" />
<glyph unicode="&#x2009;" horiz-adv-x="174" />
<glyph unicode="&#x200a;" horiz-adv-x="48" />
<glyph unicode="&#x2010;" horiz-adv-x="296" d="M39 213v71h217v-71h-217z" />
<glyph unicode="&#x2011;" horiz-adv-x="296" d="M39 213v71h217v-71h-217z" />
<glyph unicode="&#x2012;" horiz-adv-x="296" d="M39 213v71h217v-71h-217z" />
<glyph unicode="&#x2013;" horiz-adv-x="656" d="M78 215v67h500v-67h-500z" />
<glyph unicode="&#x2014;" horiz-adv-x="739" d="M35 216v65h669v-65h-669z" />
<glyph unicode="&#x2018;" horiz-adv-x="212" d="M63 493q0 89 42 165l40 -5q-8 -58 -8 -112q0 -48 4 -89l-75 -3q-3 23 -3 44z" />
<glyph unicode="&#x2019;" horiz-adv-x="212" d="M67 451q8 58 8 112q0 48 -4 89l75 3q3 -23 3 -44q0 -89 -42 -165z" />
<glyph unicode="&#x201a;" horiz-adv-x="212" d="M67 -122q8 58 8 112q0 48 -4 89l75 3q3 -22 3 -44q0 -89 -42 -165z" />
<glyph unicode="&#x201c;" horiz-adv-x="345" d="M63 493q0 89 42 165l40 -5q-8 -58 -8 -112q0 -48 4 -89l-75 -3q-3 23 -3 44zM196 493q0 89 42 165l40 -5q-8 -58 -8 -112q0 -48 4 -89l-75 -3q-3 23 -3 44z" />
<glyph unicode="&#x201d;" horiz-adv-x="345" d="M67 451q8 58 8 112q0 48 -4 89l75 3q3 -23 3 -44q0 -89 -42 -165zM200 451q8 58 8 112q0 48 -4 89l75 3q3 -23 3 -44q0 -89 -42 -165z" />
<glyph unicode="&#x201e;" horiz-adv-x="345" d="M67 -122q8 58 8 112q0 48 -4 89l75 3q3 -22 3 -44q0 -89 -42 -165zM200 -122q8 58 8 112q0 48 -4 89l75 3q3 -22 3 -44q0 -89 -42 -165z" />
<glyph unicode="&#x2022;" horiz-adv-x="375" d="M78 326q0 107 110 107q109 0 109 -107t-109 -107q-110 0 -110 107z" />
<glyph unicode="&#x2026;" horiz-adv-x="636" d="M74 0v99h94v-99h-94zM271 0v99h94v-99h-94zM468 0v99h94v-99h-94z" />
<glyph unicode="&#x202f;" horiz-adv-x="174" />
<glyph unicode="&#x2039;" horiz-adv-x="296" d="M40 231q0 36 34 74q27 31 128 124l48 -49q-80 -72 -106 -99q-29 -30 -29 -50t29 -50q26 -27 106 -99l-48 -49q-101 93 -128 124q-34 38 -34 74z" />
<glyph unicode="&#x203a;" horiz-adv-x="296" d="M44 82q80 72 106 99q29 30 29 50t-29 50q-26 27 -106 99l48 49q101 -93 128 -124q34 -38 34 -74t-34 -74q-27 -31 -128 -124z" />
<glyph unicode="&#x205f;" horiz-adv-x="217" />
<glyph unicode="&#x20ac;" horiz-adv-x="592" d="M35 220v72h66q-2 35 0 67h-65v72h73q39 223 272 223q72 0 153 -18l-14 -83q-89 16 -140 16q-77 0 -117 -36t-54 -102h225v-72h-234q-2 -34 0 -67h234v-72h-227q27 -144 167 -144q68 0 156 34l29 -79q-90 -41 -189 -41q-225 0 -263 230h-72z" />
<glyph unicode="&#x2122;" horiz-adv-x="735" d="M28 587v57h270v-57h-104v-301h-62v301h-104zM332 286q2 248 12 358h81l82 -211h4l83 211h79q10 -110 12 -358h-62q0 107 -4 263h-4l-77 -194h-62l-75 194h-4q-2 -65 -5 -263h-60z" />
<glyph unicode="&#xe000;" horiz-adv-x="460" d="M0 0v460h460v-460h-460z" />
</font>
</defs>
</svg>
